<svg xmlns="http://www.w3.org/2000/svg" width="123" viewBox="0 0 92.25 48.75" height="65" version="1.0"><defs><clipPath id="an"><path d="M54 30h5v5h-5zm0 0"/></clipPath><clipPath id="a"><path d="M0 .074h91.508V48.43H0zm0 0"/></clipPath><clipPath id="c"><path d="m66.305 25.477.41 22.316-20.082.367-.41-22.312zm0 0"/></clipPath><clipPath id="d"><path d="m66.305 25.477.41 22.316-20.082.367-.41-22.312zm0 0"/></clipPath><clipPath id="e"><path d="m66.305 25.477.41 22.316-20.082.367-.41-22.312zm0 0"/></clipPath><clipPath id="f"><path d="M48 26h3v4h-3zm0 0"/></clipPath><clipPath id="g"><path d="m66.305 25.477.41 22.316-20.082.367-.41-22.312zm0 0"/></clipPath><clipPath id="h"><path d="m66.305 25.477.41 22.316-20.082.367-.41-22.312zm0 0"/></clipPath><clipPath id="i"><path d="m66.305 25.477.41 22.316-20.082.367-.41-22.312zm0 0"/></clipPath><clipPath id="j"><path d="M46 30h5v5h-5zm0 0"/></clipPath><clipPath id="k"><path d="m66.305 25.477.41 22.316-20.082.367-.41-22.312zm0 0"/></clipPath><clipPath id="l"><path d="m66.305 25.477.41 22.316-20.082.367-.41-22.312zm0 0"/></clipPath><clipPath id="m"><path d="m66.305 25.477.41 22.316-20.082.367-.41-22.312zm0 0"/></clipPath><clipPath id="n"><path d="M48 30h3v5h-3zm0 0"/></clipPath><clipPath id="o"><path d="m66.305 25.477.41 22.316-20.082.367-.41-22.312zm0 0"/></clipPath><clipPath id="p"><path d="m66.305 25.477.41 22.316-20.082.367-.41-22.312zm0 0"/></clipPath><clipPath id="q"><path d="m66.305 25.477.41 22.316-20.082.367-.41-22.312zm0 0"/></clipPath><clipPath id="r"><path d="M50 27h5v6h-5zm0 0"/></clipPath><clipPath id="s"><path d="m66.305 25.477.41 22.316-20.082.367-.41-22.312zm0 0"/></clipPath><clipPath id="t"><path d="m66.305 25.477.41 22.316-20.082.367-.41-22.312zm0 0"/></clipPath><clipPath id="u"><path d="m66.305 25.477.41 22.316-20.082.367-.41-22.312zm0 0"/></clipPath><clipPath id="v"><path d="M52 28h3v4h-3zm0 0"/></clipPath><clipPath id="w"><path d="m66.305 25.477.41 22.316-20.082.367-.41-22.312zm0 0"/></clipPath><clipPath id="x"><path d="m66.305 25.477.41 22.316-20.082.367-.41-22.312zm0 0"/></clipPath><clipPath id="y"><path d="m66.305 25.477.41 22.316-20.082.367-.41-22.312zm0 0"/></clipPath><clipPath id="z"><path d="M50 32h5v5h-5zm0 0"/></clipPath><clipPath id="A"><path d="m66.305 25.477.41 22.316-20.082.367-.41-22.312zm0 0"/></clipPath><clipPath id="B"><path d="m66.305 25.477.41 22.316-20.082.367-.41-22.312zm0 0"/></clipPath><clipPath id="C"><path d="m66.305 25.477.41 22.316-20.082.367-.41-22.312zm0 0"/></clipPath><clipPath id="D"><path d="M52 33h3v4h-3zm0 0"/></clipPath><clipPath id="E"><path d="m66.305 25.477.41 22.316-20.082.367-.41-22.312zm0 0"/></clipPath><clipPath id="F"><path d="m66.305 25.477.41 22.316-20.082.367-.41-22.312zm0 0"/></clipPath><clipPath id="G"><path d="m66.305 25.477.41 22.316-20.082.367-.41-22.312zm0 0"/></clipPath><clipPath id="H"><path d="M50 36h5v6h-5zm0 0"/></clipPath><clipPath id="I"><path d="m66.305 25.477.41 22.316-20.082.367-.41-22.312zm0 0"/></clipPath><clipPath id="J"><path d="m66.305 25.477.41 22.316-20.082.367-.41-22.312zm0 0"/></clipPath><clipPath id="K"><path d="m66.305 25.477.41 22.316-20.082.367-.41-22.312zm0 0"/></clipPath><clipPath id="L"><path d="M52 37h3v4h-3zm0 0"/></clipPath><clipPath id="M"><path d="m66.305 25.477.41 22.316-20.082.367-.41-22.312zm0 0"/></clipPath><clipPath id="N"><path d="m66.305 25.477.41 22.316-20.082.367-.41-22.312zm0 0"/></clipPath><clipPath id="O"><path d="m66.305 25.477.41 22.316-20.082.367-.41-22.312zm0 0"/></clipPath><clipPath id="P"><path d="M50 41h5v5h-5zm0 0"/></clipPath><clipPath id="Q"><path d="m66.305 25.477.41 22.316-20.082.367-.41-22.312zm0 0"/></clipPath><clipPath id="R"><path d="m66.305 25.477.41 22.316-20.082.367-.41-22.312zm0 0"/></clipPath><clipPath id="S"><path d="m66.305 25.477.41 22.316-20.082.367-.41-22.312zm0 0"/></clipPath><clipPath id="T"><path d="M52 41h3v5h-3zm0 0"/></clipPath><clipPath id="U"><path d="m66.305 25.477.41 22.316-20.082.367-.41-22.312zm0 0"/></clipPath><clipPath id="V"><path d="m66.305 25.477.41 22.316-20.082.367-.41-22.312zm0 0"/></clipPath><clipPath id="W"><path d="m66.305 25.477.41 22.316-20.082.367-.41-22.312zm0 0"/></clipPath><clipPath id="X"><path d="M54 39h5v5h-5zm0 0"/></clipPath><clipPath id="Y"><path d="m66.305 25.477.41 22.316-20.082.367-.41-22.312zm0 0"/></clipPath><clipPath id="Z"><path d="m66.305 25.477.41 22.316-20.082.367-.41-22.312zm0 0"/></clipPath><clipPath id="aa"><path d="m66.305 25.477.41 22.316-20.082.367-.41-22.312zm0 0"/></clipPath><clipPath id="ab"><path d="M56 39h3v4h-3zm0 0"/></clipPath><clipPath id="ac"><path d="m66.305 25.477.41 22.316-20.082.367-.41-22.312zm0 0"/></clipPath><clipPath id="ad"><path d="m66.305 25.477.41 22.316-20.082.367-.41-22.312zm0 0"/></clipPath><clipPath id="ae"><path d="m66.305 25.477.41 22.316-20.082.367-.41-22.312zm0 0"/></clipPath><clipPath id="af"><path d="M54 34h5v6h-5zm0 0"/></clipPath><clipPath id="ag"><path d="m66.305 25.477.41 22.316-20.082.367-.41-22.312zm0 0"/></clipPath><clipPath id="ah"><path d="m66.305 25.477.41 22.316-20.082.367-.41-22.312zm0 0"/></clipPath><clipPath id="ai"><path d="m66.305 25.477.41 22.316-20.082.367-.41-22.312zm0 0"/></clipPath><clipPath id="aj"><path d="M56 35h3v4h-3zm0 0"/></clipPath><clipPath id="ak"><path d="m66.305 25.477.41 22.316-20.082.367-.41-22.312zm0 0"/></clipPath><clipPath id="al"><path d="m66.305 25.477.41 22.316-20.082.367-.41-22.312zm0 0"/></clipPath><clipPath id="am"><path d="m66.305 25.477.41 22.316-20.082.367-.41-22.312zm0 0"/></clipPath><clipPath id="b"><path d="M46 25h5v6h-5zm0 0"/></clipPath><clipPath id="ao"><path d="m66.305 25.477.41 22.316-20.082.367-.41-22.312zm0 0"/></clipPath><clipPath id="ap"><path d="m66.305 25.477.41 22.316-20.082.367-.41-22.312zm0 0"/></clipPath><clipPath id="aq"><path d="m66.305 25.477.41 22.316-20.082.367-.41-22.312zm0 0"/></clipPath><clipPath id="ar"><path d="M55 30h4v5h-4zm0 0"/></clipPath><clipPath id="as"><path d="m66.305 25.477.41 22.316-20.082.367-.41-22.312zm0 0"/></clipPath><clipPath id="at"><path d="m66.305 25.477.41 22.316-20.082.367-.41-22.312zm0 0"/></clipPath><clipPath id="au"><path d="m66.305 25.477.41 22.316-20.082.367-.41-22.312zm0 0"/></clipPath><clipPath id="av"><path d="M58 32h5v5h-5zm0 0"/></clipPath><clipPath id="aw"><path d="m66.305 25.477.41 22.316-20.082.367-.41-22.312zm0 0"/></clipPath><clipPath id="ax"><path d="m66.305 25.477.41 22.316-20.082.367-.41-22.312zm0 0"/></clipPath><clipPath id="ay"><path d="m66.305 25.477.41 22.316-20.082.367-.41-22.312zm0 0"/></clipPath><clipPath id="az"><path d="M59 32h4v5h-4zm0 0"/></clipPath><clipPath id="aA"><path d="m66.305 25.477.41 22.316-20.082.367-.41-22.312zm0 0"/></clipPath><clipPath id="aB"><path d="m66.305 25.477.41 22.316-20.082.367-.41-22.312zm0 0"/></clipPath><clipPath id="aC"><path d="m66.305 25.477.41 22.316-20.082.367-.41-22.312zm0 0"/></clipPath><clipPath id="aD"><path d="M58 36h5v6h-5zm0 0"/></clipPath><clipPath id="aE"><path d="m66.305 25.477.41 22.316-20.082.367-.41-22.312zm0 0"/></clipPath><clipPath id="aF"><path d="m66.305 25.477.41 22.316-20.082.367-.41-22.312zm0 0"/></clipPath><clipPath id="aG"><path d="m66.305 25.477.41 22.316-20.082.367-.41-22.312zm0 0"/></clipPath><clipPath id="aH"><path d="M59 37h4v4h-4zm0 0"/></clipPath><clipPath id="aI"><path d="m66.305 25.477.41 22.316-20.082.367-.41-22.312zm0 0"/></clipPath><clipPath id="aJ"><path d="m66.305 25.477.41 22.316-20.082.367-.41-22.312zm0 0"/></clipPath><clipPath id="aK"><path d="m66.305 25.477.41 22.316-20.082.367-.41-22.312zm0 0"/></clipPath><clipPath id="aL"><path d="M61 34h6v5h-6zm0 0"/></clipPath><clipPath id="aM"><path d="m66.305 25.477.41 22.316-20.082.367-.41-22.312zm0 0"/></clipPath><clipPath id="aN"><path d="m66.305 25.477.41 22.316-20.082.367-.41-22.312zm0 0"/></clipPath><clipPath id="aO"><path d="m66.305 25.477.41 22.316-20.082.367-.41-22.312zm0 0"/></clipPath><clipPath id="aP"><path d="M63 35h4v4h-4zm0 0"/></clipPath><clipPath id="aQ"><path d="m66.305 25.477.41 22.316-20.082.367-.41-22.312zm0 0"/></clipPath><clipPath id="aR"><path d="m66.305 25.477.41 22.316-20.082.367-.41-22.312zm0 0"/></clipPath><clipPath id="aS"><path d="m66.305 25.477.41 22.316-20.082.367-.41-22.312zm0 0"/></clipPath><clipPath id="aT"><path d="M46 34h5v6h-5zm0 0"/></clipPath><clipPath id="aU"><path d="m66.305 25.477.41 22.316-20.082.367-.41-22.312zm0 0"/></clipPath><clipPath id="aV"><path d="m66.305 25.477.41 22.316-20.082.367-.41-22.312zm0 0"/></clipPath><clipPath id="aW"><path d="m66.305 25.477.41 22.316-20.082.367-.41-22.312zm0 0"/></clipPath><clipPath id="aX"><path d="M48 35h3v4h-3zm0 0"/></clipPath><clipPath id="aY"><path d="m66.305 25.477.41 22.316-20.082.367-.41-22.312zm0 0"/></clipPath><clipPath id="aZ"><path d="m66.305 25.477.41 22.316-20.082.367-.41-22.312zm0 0"/></clipPath><clipPath id="ba"><path d="m66.305 25.477.41 22.316-20.082.367-.41-22.312zm0 0"/></clipPath><clipPath id="bb"><path d="M46 39h6v5h-6zm0 0"/></clipPath><clipPath id="bc"><path d="m66.305 25.477.41 22.316-20.082.367-.41-22.312zm0 0"/></clipPath><clipPath id="bd"><path d="m66.305 25.477.41 22.316-20.082.367-.41-22.312zm0 0"/></clipPath><clipPath id="be"><path d="m66.305 25.477.41 22.316-20.082.367-.41-22.312zm0 0"/></clipPath><clipPath id="bf"><path d="M48 39h4v5h-4zm0 0"/></clipPath><clipPath id="bg"><path d="m66.305 25.477.41 22.316-20.082.367-.41-22.312zm0 0"/></clipPath><clipPath id="bh"><path d="m66.305 25.477.41 22.316-20.082.367-.41-22.312zm0 0"/></clipPath><clipPath id="bi"><path d="m66.305 25.477.41 22.316-20.082.367-.41-22.312zm0 0"/></clipPath><clipPath id="bj"><path d="M46 43h6v5.43h-6zm0 0"/></clipPath><clipPath id="bk"><path d="m66.305 25.477.41 22.316-20.082.367-.41-22.312zm0 0"/></clipPath><clipPath id="bl"><path d="m66.305 25.477.41 22.316-20.082.367-.41-22.312zm0 0"/></clipPath><clipPath id="bm"><path d="m66.305 25.477.41 22.316-20.082.367-.41-22.312zm0 0"/></clipPath><clipPath id="bn"><path d="M48 44h4v4h-4zm0 0"/></clipPath><clipPath id="bo"><path d="m66.305 25.477.41 22.316-20.082.367-.41-22.312zm0 0"/></clipPath><clipPath id="bp"><path d="m66.305 25.477.41 22.316-20.082.367-.41-22.312zm0 0"/></clipPath><clipPath id="bq"><path d="m66.305 25.477.41 22.316-20.082.367-.41-22.312zm0 0"/></clipPath><clipPath id="br"><path d="M58 20h2.043v5H58zm0 0"/></clipPath><clipPath id="bs"><path d="M56 2.191h4V4h-4zm0 0"/></clipPath><clipPath id="bt"><path d="M45.164 15H57v29.594H45.164zm0 0"/></clipPath><clipPath id="bu"><path d="M57 2.191h3V3h-3zm0 0"/></clipPath><clipPath id="bv"><path d="M45.164 17H51v3h-5.836zm0 0"/></clipPath><clipPath id="bw"><path d="M45.164 12H60v15H45.164zm0 0"/></clipPath><clipPath id="bx"><path d="M45.164 16H48v1h-2.836zm0 0"/></clipPath><clipPath id="by"><path d="M45.164 19H47v1h-1.836zm0 0"/></clipPath><clipPath id="bz"><path d="M75.074.074h16.434V48.43H75.074zm0 0"/></clipPath></defs><g clip-path="url(#a)" fill="#fff"><path d="M0 .074h91.508V48.43H0zm0 0"/><path d="M0 .074h91.508V48.43H0zm0 0"/></g><g clip-path="url(#b)"><g clip-path="url(#c)"><g clip-path="url(#d)"><g clip-path="url(#e)"><path fill="#353535" d="M48.555 30.281a2.24 2.24 0 0 1-.864-.156 2.22 2.22 0 0 1-.738-.469 2.193 2.193 0 0 1-.688-1.57 2.16 2.16 0 0 1 .153-.86c.11-.277.27-.519.477-.734.207-.215.445-.379.718-.496.274-.121.559-.183.86-.187a2.25 2.25 0 0 1 1.601.625c.215.207.383.445.5.718.121.27.184.555.188.852a2.234 2.234 0 0 1-1.352 2.09c-.273.12-.558.18-.855.187zm0 0"/></g></g></g></g><g clip-path="url(#f)"><g clip-path="url(#g)"><g clip-path="url(#h)"><g clip-path="url(#i)"><path fill="#fff" d="M50.762 28.102a2.045 2.045 0 0 1-.121.636 1.78 1.78 0 0 1-.305.532c-.129.152-.277.27-.445.347a1.08 1.08 0 0 1-.516.113 1.08 1.08 0 0 1-.508-.14c-.16-.09-.3-.215-.422-.375a1.68 1.68 0 0 1-.277-.547 1.952 1.952 0 0 1-.082-.64c.004-.22.047-.434.121-.633.07-.204.172-.38.305-.532.129-.156.277-.27.441-.351a1.15 1.15 0 0 1 .516-.114c.18.008.347.055.511.145.16.086.301.21.422.371.121.16.215.344.274.547.062.207.094.422.086.64zm0 0" fill-opacity=".067"/></g></g></g></g><g clip-path="url(#j)"><g clip-path="url(#k)"><g clip-path="url(#l)"><g clip-path="url(#m)"><path fill="#353535" d="M48.637 34.738c-.301.008-.586-.043-.864-.152a2.23 2.23 0 0 1-1.273-2.898c.11-.278.27-.524.477-.735.207-.215.445-.383.718-.5a2.253 2.253 0 0 1 2.46.441 2.213 2.213 0 0 1 .531 2.426c-.108.278-.264.524-.471.735a2.228 2.228 0 0 1-1.578.684zm0 0"/></g></g></g></g><g clip-path="url(#n)"><g clip-path="url(#o)"><g clip-path="url(#p)"><g clip-path="url(#q)"><path fill="#fff" d="M50.844 32.563a2.021 2.021 0 0 1-.121.632 1.8 1.8 0 0 1-.305.535 1.353 1.353 0 0 1-.445.348 1.129 1.129 0 0 1-.516.113 1.133 1.133 0 0 1-.508-.144 1.317 1.317 0 0 1-.426-.371 1.753 1.753 0 0 1-.273-.547 1.965 1.965 0 0 1-.082-.64c.004-.223.047-.434.117-.637.074-.2.176-.38.309-.532.129-.152.277-.27.441-.347a1.1 1.1 0 0 1 1.028.027c.16.09.3.215.421.375.121.156.211.34.274.547.062.207.09.418.086.64zm0 0" fill-opacity=".067"/></g></g></g></g><g clip-path="url(#r)"><g clip-path="url(#s)"><g clip-path="url(#t)"><g clip-path="url(#u)"><path fill="#353535" d="M52.477 32.434a2.253 2.253 0 0 1-1.602-.63 2.13 2.13 0 0 1-.5-.714 2.143 2.143 0 0 1-.188-.852 2.163 2.163 0 0 1 .157-.86 2.246 2.246 0 0 1 1.191-1.234c.274-.117.563-.18.86-.183a2.25 2.25 0 0 1 1.601.625c.215.207.383.445.5.715.121.273.184.558.188.855a2.255 2.255 0 0 1-.629 1.594c-.207.21-.45.379-.723.496-.273.117-.559.18-.855.188zm0 0"/></g></g></g></g><g clip-path="url(#v)"><g clip-path="url(#w)"><g clip-path="url(#x)"><g clip-path="url(#y)"><path fill="#fff" d="M54.684 30.254a2.046 2.046 0 0 1-.121.637 1.7 1.7 0 0 1-.305.53c-.13.153-.278.27-.446.349a1.093 1.093 0 0 1-1.023-.027c-.16-.09-.3-.216-.422-.376a1.72 1.72 0 0 1-.277-.547 2.062 2.062 0 0 1 .039-1.273c.074-.203.176-.383.305-.535.129-.153.277-.266.445-.348.164-.078.336-.117.516-.113.175.008.343.054.507.14.16.09.301.215.422.375s.215.344.278.547c.062.207.09.422.082.64zm0 0" fill-opacity=".067"/></g></g></g></g><g clip-path="url(#z)"><g clip-path="url(#A)"><g clip-path="url(#B)"><g clip-path="url(#C)"><path fill="#353535" d="M52.559 36.89a2.237 2.237 0 0 1-1.602-.624 2.285 2.285 0 0 1-.504-.715 2.228 2.228 0 0 1-.183-.856 2.16 2.16 0 0 1 .152-.86 2.266 2.266 0 0 1 1.195-1.23 2.253 2.253 0 0 1 2.46.441c.216.204.384.442.501.716.121.273.184.554.188.851a2.234 2.234 0 0 1-.63 1.594 2.228 2.228 0 0 1-1.578.684zm0 0"/></g></g></g></g><g clip-path="url(#D)"><g clip-path="url(#E)"><g clip-path="url(#F)"><g clip-path="url(#G)"><path fill="#fff" d="M54.766 34.715c-.008.219-.047.43-.121.633a1.733 1.733 0 0 1-.305.53c-.13.153-.278.27-.445.352a1.077 1.077 0 0 1-.516.11 1.08 1.08 0 0 1-.508-.14c-.16-.087-.3-.212-.422-.372a1.74 1.74 0 0 1-.277-.55 1.928 1.928 0 0 1-.082-.637c.004-.223.047-.434.12-.637.071-.203.177-.379.306-.531.129-.153.277-.27.445-.348a1.093 1.093 0 0 1 1.023.027c.16.09.301.215.422.371.121.16.215.344.278.551.058.207.09.418.082.64zm0 0" fill-opacity=".067"/></g></g></g></g><g clip-path="url(#H)"><g clip-path="url(#I)"><g clip-path="url(#J)"><g clip-path="url(#K)"><path fill="#353535" d="M52.64 41.352a2.24 2.24 0 0 1-.863-.157 2.22 2.22 0 0 1-.738-.468 2.193 2.193 0 0 1-.688-1.57 2.16 2.16 0 0 1 .153-.86c.11-.277.27-.52.476-.734a2.231 2.231 0 0 1 1.578-.684 2.25 2.25 0 0 1 1.602.625c.215.207.383.445.5.719.121.27.184.554.188.851a2.234 2.234 0 0 1-1.352 2.09c-.273.121-.559.18-.855.188zm0 0"/></g></g></g></g><g clip-path="url(#L)"><g clip-path="url(#M)"><g clip-path="url(#N)"><g clip-path="url(#O)"><path fill="#fff" d="M54.848 39.172a2.045 2.045 0 0 1-.121.637 1.78 1.78 0 0 1-.305.53c-.129.153-.277.27-.445.349a1.08 1.08 0 0 1-.516.113 1.08 1.08 0 0 1-.508-.14c-.16-.09-.3-.216-.422-.376a1.72 1.72 0 0 1-.277-.547 1.952 1.952 0 0 1-.082-.64c.004-.22.047-.434.121-.633.07-.203.172-.38.305-.535a1.38 1.38 0 0 1 .441-.348 1.15 1.15 0 0 1 .516-.113c.18.008.347.054.511.14.16.09.301.215.422.375s.215.344.274.547c.062.207.093.422.086.64zm0 0" fill-opacity=".067"/></g></g></g></g><g clip-path="url(#P)"><g clip-path="url(#Q)"><g clip-path="url(#R)"><g clip-path="url(#S)"><path fill="#353535" d="M52.723 45.809c-.301.007-.586-.043-.864-.153a2.208 2.208 0 0 1-.742-.472 2.273 2.273 0 0 1-.5-.715 2.215 2.215 0 0 1 .445-2.445c.208-.215.446-.383.72-.5a2.253 2.253 0 0 1 2.46.441c.215.203.383.441.5.715a2.213 2.213 0 0 1 .031 1.71c-.109.278-.265.524-.472.735a2.228 2.228 0 0 1-1.578.684zm0 0"/></g></g></g></g><g clip-path="url(#T)"><g clip-path="url(#U)"><g clip-path="url(#V)"><g clip-path="url(#W)"><path fill="#fff" d="M54.93 43.633c-.008.219-.047.43-.121.633a1.733 1.733 0 0 1-.305.53c-.129.157-.277.27-.445.352a1.129 1.129 0 0 1-.516.114 1.133 1.133 0 0 1-.508-.145 1.317 1.317 0 0 1-.426-.37 1.753 1.753 0 0 1-.273-.548 1.965 1.965 0 0 1-.082-.64c.004-.223.047-.434.117-.637.074-.203.176-.379.309-.531.129-.153.277-.27.441-.348a1.1 1.1 0 0 1 1.027.027c.16.09.301.215.422.375.121.157.211.34.274.547.062.207.09.418.086.64zm0 0" fill-opacity=".067"/></g></g></g></g><g clip-path="url(#X)"><g clip-path="url(#Y)"><g clip-path="url(#Z)"><g clip-path="url(#aa)"><path fill="#353535" d="M56.578 43.504a2.253 2.253 0 0 1-1.601-.629 2.188 2.188 0 0 1-.5-.715 2.22 2.22 0 0 1-.031-1.71c.109-.278.265-.524.472-.735a2.231 2.231 0 0 1 1.582-.684 2.231 2.231 0 0 1 1.602.625c.214.207.378.446.5.715a2.215 2.215 0 0 1-.445 2.445 2.186 2.186 0 0 1-.72.5 2.31 2.31 0 0 1-.859.188zm0 0"/></g></g></g></g><g clip-path="url(#ab)"><g clip-path="url(#ac)"><g clip-path="url(#ad)"><g clip-path="url(#ae)"><path fill="#fff" d="M58.79 41.324a2 2 0 0 1-.122.633 1.753 1.753 0 0 1-.305.535c-.133.153-.277.27-.445.348a1.15 1.15 0 0 1-.516.113 1.18 1.18 0 0 1-.507-.14 1.337 1.337 0 0 1-.426-.376 1.753 1.753 0 0 1-.274-.546 1.965 1.965 0 0 1-.082-.641c.004-.223.043-.434.117-.637.075-.199.176-.379.305-.531.133-.152.281-.27.445-.348a1.1 1.1 0 0 1 1.024.028c.164.09.305.215.426.375.12.16.21.34.273.547.063.207.09.418.086.64zm0 0" fill-opacity=".067"/></g></g></g></g><g clip-path="url(#af)"><g clip-path="url(#ag)"><g clip-path="url(#ah)"><g clip-path="url(#ai)"><path fill="#353535" d="M56.5 39.043c-.3.004-.586-.047-.867-.156a2.16 2.16 0 0 1-.738-.469 2.246 2.246 0 0 1-.688-1.57 2.234 2.234 0 0 1 1.352-2.09 2.253 2.253 0 0 1 1.723-.031 2.22 2.22 0 0 1 1.238 1.187 2.234 2.234 0 0 1-1.164 2.941 2.162 2.162 0 0 1-.856.188zm0 0"/></g></g></g></g><g clip-path="url(#aj)"><g clip-path="url(#ak)"><g clip-path="url(#al)"><g clip-path="url(#am)"><path fill="#fff" d="M58.703 36.871a2.045 2.045 0 0 1-.121.637 1.78 1.78 0 0 1-.305.531c-.132.152-.277.27-.445.348a1.1 1.1 0 0 1-1.023-.028 1.337 1.337 0 0 1-.426-.375 1.753 1.753 0 0 1-.274-.547 1.965 1.965 0 0 1-.082-.64c.004-.223.047-.434.121-.637a1.7 1.7 0 0 1 .305-.531c.129-.152.277-.27.445-.348a1.08 1.08 0 0 1 .516-.113c.176.004.348.055.508.14.16.09.3.215.422.376.12.16.215.343.277.546.059.208.09.422.082.641zm0 0" fill-opacity=".067"/></g></g></g></g><g clip-path="url(#an)"><g clip-path="url(#ao)"><g clip-path="url(#ap)"><g clip-path="url(#aq)"><path fill="#353535" d="M56.418 34.582c-.3.008-.586-.043-.863-.152a2.154 2.154 0 0 1-.739-.473 2.24 2.24 0 0 1-.504-.715 2.22 2.22 0 0 1 .445-2.445 2.232 2.232 0 0 1 1.578-.684 2.231 2.231 0 0 1 1.602.625c.215.203.383.446.5.715a2.22 2.22 0 0 1 .031 1.71c-.109.278-.265.525-.472.735a2.228 2.228 0 0 1-1.578.684zm0 0"/></g></g></g></g><g clip-path="url(#ar)"><g clip-path="url(#as)"><g clip-path="url(#at)"><g clip-path="url(#au)"><path fill="#fff" d="M58.621 32.41a2.046 2.046 0 0 1-.121.637 1.78 1.78 0 0 1-.305.531c-.133.152-.277.27-.445.348a1.15 1.15 0 0 1-.516.113 1.165 1.165 0 0 1-.507-.14 1.337 1.337 0 0 1-.426-.376 1.753 1.753 0 0 1-.274-.546 1.965 1.965 0 0 1-.082-.641c.004-.223.047-.434.121-.637.07-.203.176-.379.305-.531.129-.152.277-.27.445-.348a1.08 1.08 0 0 1 .516-.113c.176.004.348.05.508.14.16.09.3.215.422.376.12.16.215.343.277.547.059.207.09.421.082.64zm0 0" fill-opacity=".067"/></g></g></g></g><g clip-path="url(#av)"><g clip-path="url(#aw)"><g clip-path="url(#ax)"><g clip-path="url(#ay)"><path fill="#353535" d="M60.34 36.785a2.231 2.231 0 0 1-1.602-.625 2.17 2.17 0 0 1-.5-.715 2.215 2.215 0 0 1-.031-1.71c.11-.278.266-.524.473-.735.207-.215.449-.383.722-.5.274-.117.559-.18.856-.188a2.253 2.253 0 0 1 1.601.63c.215.203.383.445.5.714.121.274.184.555.188.852a2.186 2.186 0 0 1-.629 1.594 2.246 2.246 0 0 1-.719.5c-.273.117-.562.18-.86.183zm0 0"/></g></g></g></g><g clip-path="url(#az)"><g clip-path="url(#aA)"><g clip-path="url(#aB)"><g clip-path="url(#aC)"><path fill="#fff" d="M62.547 34.61a2.018 2.018 0 0 1-.117.632 1.729 1.729 0 0 1-.309.535 1.38 1.38 0 0 1-.441.348 1.15 1.15 0 0 1-.516.113 1.196 1.196 0 0 1-.512-.14c-.16-.09-.3-.215-.422-.375a1.673 1.673 0 0 1-.273-.547 2.045 2.045 0 0 1 .035-1.277c.074-.2.176-.38.305-.532.129-.152.277-.27.445-.347a1.08 1.08 0 0 1 .516-.114c.176.004.347.051.508.14.16.09.304.216.425.376.121.156.211.34.274.547.062.207.09.418.082.64zm0 0" fill-opacity=".067"/></g></g></g></g><g clip-path="url(#aD)"><g clip-path="url(#aE)"><g clip-path="url(#aF)"><g clip-path="url(#aG)"><path fill="#353535" d="M60.422 41.246a2.253 2.253 0 0 1-.863-.156 2.22 2.22 0 0 1-1.239-1.188 2.129 2.129 0 0 1-.187-.851 2.163 2.163 0 0 1 .156-.86 2.215 2.215 0 0 1 1.195-1.23c.274-.121.559-.184.856-.188.297-.003.586.047.863.157a2.22 2.22 0 0 1 1.238 1.187c.121.27.184.555.188.852.008.297-.047.582-.156.86a2.215 2.215 0 0 1-1.192 1.23 2.18 2.18 0 0 1-.86.187zm0 0"/></g></g></g></g><g clip-path="url(#aH)"><g clip-path="url(#aI)"><g clip-path="url(#aJ)"><g clip-path="url(#aK)"><path fill="#fff" d="M62.629 39.066a1.939 1.939 0 0 1-.121.637c-.07.203-.172.379-.305.531-.129.153-.277.27-.445.348a1.093 1.093 0 0 1-1.023-.027c-.16-.09-.301-.215-.422-.371a1.74 1.74 0 0 1-.278-.551 2.062 2.062 0 0 1 .04-1.274c.073-.203.175-.379.304-.53.129-.153.277-.27.445-.352.164-.079.336-.118.516-.11.176.004.347.051.508.14.16.087.3.212.422.372.12.16.214.344.277.55.062.204.09.419.082.637zm0 0" fill-opacity=".067"/></g></g></g></g><g clip-path="url(#aL)"><g clip-path="url(#aM)"><g clip-path="url(#aN)"><g clip-path="url(#aO)"><path fill="#353535" d="M64.227 38.914a2.25 2.25 0 0 1-1.602-.625 2.211 2.211 0 0 1-.5-.715 2.162 2.162 0 0 1-.188-.855 2.255 2.255 0 0 1 .629-1.594c.207-.21.45-.379.723-.496.273-.117.559-.18.856-.188a2.253 2.253 0 0 1 1.601.63c.215.202.383.44.5.714.121.274.184.555.188.852.007.297-.047.582-.157.86a2.246 2.246 0 0 1-1.191 1.234c-.274.117-.563.18-.86.183zm0 0"/></g></g></g></g><g clip-path="url(#aP)"><g clip-path="url(#aQ)"><g clip-path="url(#aR)"><g clip-path="url(#aS)"><path fill="#fff" d="M66.434 36.738c-.004.219-.047.43-.121.633-.07.203-.172.379-.305.531-.13.153-.278.27-.445.352a1.077 1.077 0 0 1-.516.11 1.093 1.093 0 0 1-.508-.141c-.16-.086-.3-.211-.422-.371a1.74 1.74 0 0 1-.277-.551 2.037 2.037 0 0 1 .039-1.274c.074-.203.176-.379.305-.53.129-.153.277-.27.445-.349a1.08 1.08 0 0 1 .516-.113c.175.004.347.05.507.14.16.09.301.216.422.372.121.16.215.344.278.55.062.208.09.419.082.641zm0 0" fill-opacity=".067"/></g></g></g></g><g clip-path="url(#aT)"><g clip-path="url(#aU)"><g clip-path="url(#aV)"><g clip-path="url(#aW)"><path fill="#353535" d="M48.719 39.2a2.26 2.26 0 0 1-.867-.157 2.22 2.22 0 0 1-1.239-1.188 2.27 2.27 0 0 1-.187-.851 2.234 2.234 0 0 1 1.351-2.09 2.253 2.253 0 0 1 1.723-.031 2.22 2.22 0 0 1 1.238 1.187c.117.27.18.555.188.852a2.234 2.234 0 0 1-1.352 2.09 2.162 2.162 0 0 1-.855.187zm0 0"/></g></g></g></g><g clip-path="url(#aX)"><g clip-path="url(#aY)"><g clip-path="url(#aZ)"><g clip-path="url(#ba)"><path fill="#fff" d="M50.926 37.02a2.045 2.045 0 0 1-.121.636 1.733 1.733 0 0 1-.305.532c-.129.152-.277.269-.445.347a1.1 1.1 0 0 1-1.024-.027 1.373 1.373 0 0 1-.426-.371 1.732 1.732 0 0 1-.273-.551 1.952 1.952 0 0 1-.082-.64c.004-.22.043-.43.117-.633.074-.204.176-.38.309-.532.129-.152.277-.27.441-.351.168-.078.34-.117.516-.11.18.004.347.051.508.14.164.087.304.212.425.372s.211.344.274.55c.062.204.09.419.086.638zm0 0" fill-opacity=".067"/></g></g></g></g><g clip-path="url(#bb)"><g clip-path="url(#bc)"><g clip-path="url(#bd)"><g clip-path="url(#be)"><path fill="#353535" d="M48.797 43.66a2.253 2.253 0 0 1-2.29-2.195 2.22 2.22 0 0 1 .157-.86c.11-.277.266-.523.473-.734a2.228 2.228 0 0 1 1.578-.684 2.231 2.231 0 0 1 1.605.625 2.23 2.23 0 0 1 .532 2.426c-.11.278-.27.524-.477.735a2.186 2.186 0 0 1-.719.5 2.31 2.31 0 0 1-.86.187zm0 0"/></g></g></g></g><g clip-path="url(#bf)"><g clip-path="url(#bg)"><g clip-path="url(#bh)"><g clip-path="url(#bi)"><path fill="#fff" d="M51.008 41.48a2.021 2.021 0 0 1-.121.633 1.753 1.753 0 0 1-.305.535 1.395 1.395 0 0 1-.445.348 1.15 1.15 0 0 1-.516.113 1.165 1.165 0 0 1-.508-.14 1.337 1.337 0 0 1-.425-.375 1.753 1.753 0 0 1-.274-.547 1.965 1.965 0 0 1-.082-.64c.004-.223.043-.434.117-.637.074-.2.176-.38.305-.532.133-.152.281-.27.445-.347a1.1 1.1 0 0 1 1.024.027c.164.09.304.215.425.375.122.16.211.34.274.547.062.207.09.418.086.64zm0 0" fill-opacity=".067"/></g></g></g></g><g clip-path="url(#bj)"><g clip-path="url(#bk)"><g clip-path="url(#bl)"><g clip-path="url(#bm)"><path fill="#353535" d="M48.879 48.117a2.231 2.231 0 0 1-2.102-1.344 2.197 2.197 0 0 1-.187-.851 2.234 2.234 0 0 1 1.351-2.09 2.24 2.24 0 0 1 1.719-.031 2.198 2.198 0 0 1 1.242 1.187c.118.27.18.555.188.852a2.234 2.234 0 0 1-1.352 2.09 2.166 2.166 0 0 1-.86.187zm0 0"/></g></g></g></g><g clip-path="url(#bn)"><g clip-path="url(#bo)"><g clip-path="url(#bp)"><g clip-path="url(#bq)"><path fill="#fff" d="M51.09 45.938a2.046 2.046 0 0 1-.121.636 1.733 1.733 0 0 1-.305.531c-.133.153-.281.27-.445.348-.168.082-.34.121-.516.113a1.068 1.068 0 0 1-.508-.14 1.373 1.373 0 0 1-.425-.371 1.732 1.732 0 0 1-.274-.551 2.064 2.064 0 0 1-.086-.64c.008-.22.047-.43.121-.634.074-.203.176-.378.305-.53.133-.153.281-.27.445-.352.168-.078.34-.118.516-.11.18.004.348.051.508.14.164.09.304.212.425.372.122.16.211.344.274.55.062.204.09.419.086.638zm0 0" fill-opacity=".067"/></g></g></g></g><g clip-path="url(#br)"><path fill="#828186" d="M59.871 20.926c-.398-.106-.926-.246-1.324-.356l.078 3.606c.23-.106.773-.352.777-.352.086.012.297.035.297.035v-.386h.246l.078-2.293a7.319 7.319 0 0 1-.152-.055v-.2zm0 0" fill-rule="evenodd"/><path stroke-linecap="round" transform="matrix(0 .03997 -.04079 0 67.526 -4.783)" fill="none" stroke-linejoin="round" d="M706.903 185.868v6.034h9.675s-.587 5.171-.88 7.278c0 .096 6.157 13.408 8.796 19.059l-90.202 1.915c2.736-9.768 6.255-22.698 8.893-32.466h4.984s.977-2.586 1.368-3.735c.098 0 40.166 1.34 57.366 1.915m-72.611 34.286h0m8.893-32.466h0" stroke="#828186"/></g><path fill="#717274" d="M56.77 32.02c0-.208-.004-.485-.008-.692h-.457c0 .203-.004.672-.004.672-.09.07-.25.125-.305.227a.563.563 0 0 0-.004.421c.047.106.184.211.29.258a.662.662 0 0 0 .359.032.548.548 0 0 0 .261-.149.532.532 0 0 0 .106-.234.645.645 0 0 0-.051-.344c-.035-.07-.187-.191-.187-.191zm0 0" fill-rule="evenodd"/><path stroke-linecap="round" transform="matrix(0 .03997 -.04079 0 67.526 -4.783)" fill="none" stroke-linejoin="round" d="M903.431 275.128v-11.206c5.18-.095 12.118-.191 17.298-.191 0 0 3.03-3.735 4.788-4.597 2.346-1.15 5.962-1.628 8.6-1.245 1.857.287 4.398 1.34 5.864 2.586 1.661 1.436 3.225 4.214 3.714 6.416.586 2.586.293 6.417-.782 8.811-1.173 2.586-3.812 5.938-6.45 7.088-2.932 1.245-7.72 1.34-10.555-.096-2.54-1.341-3.909-5.268-5.668-7.47 0 0-11.727-.096-16.809-.096m0-11.206h0m17.298-.191h0" stroke="#717274"/><path fill="#5e5e5e" d="m59.414 3.316-.727 27.239s-.113.367-.218.488c-.125.14-.367.258-.547.32-.297.102-.727.11-1.043.117-.344.008-.809-.007-1.145-.074a2.457 2.457 0 0 1-.523-.16 1.45 1.45 0 0 1-.379-.25.92.92 0 0 1-.184-.316c-.21-.637-.093-1.563-.078-2.23.078-3.86.844-8.966 1.207-12.81 0-.003.559-8.718.801-12.453 0 0 1.988.09 2.836.13zm0 0" fill-rule="evenodd"/><path stroke-linecap="round" transform="matrix(0 .03997 -.04079 0 67.526 -4.783)" fill="none" stroke-linejoin="round" d="M884.081 216.707c-204.444-5.364-477.003-12.45-681.448-17.814-.977 20.783-3.224 69.53-3.224 69.53 93.426 5.939 311.454 19.634 311.552 19.634 96.163 8.907 223.892 27.678 320.446 29.594 16.71.383 39.872 3.256 55.802-1.916 2.638-.766 5.863-2.681 7.915-4.501 2.444-2.299 4.789-6.321 6.255-9.29 1.759-3.64 3.225-8.907 4.007-12.833 1.661-8.237 2.052-19.634 1.857-28.062-.196-7.757-.391-18.292-2.932-25.571-1.564-4.405-4.496-10.343-8.014-13.408-3.03-2.586-12.216-5.363-12.216-5.363" stroke="#5e5e5e"/><path stroke-linecap="round" transform="matrix(0 .03997 -.04079 0 67.526 -4.783)" fill="none" stroke-linejoin="round" d="M239.574 213.163c65.672 2.011 131.247 4.023 196.822 6.13" stroke="#797979" stroke-width="11"/><path stroke-linecap="round" transform="matrix(0 .03997 -.04079 0 67.526 -4.783)" fill="none" stroke-linejoin="round" d="m462.39 220.825 380.94 9.481" stroke="#5e5e5e" stroke-width="11"/><path stroke-linecap="round" transform="matrix(0 .03997 -.04079 0 67.526 -4.783)" fill="none" stroke-linejoin="round" d="m462.39 220.825 380.94 9.481" stroke="#797979" stroke-width="11"/><path stroke-linecap="round" transform="matrix(0 .03997 -.04079 0 67.526 -4.783)" fill="none" stroke-linejoin="round" d="M876.459 230.977s11.434.479 14.56 3.735c10.75 10.918 4.203 50.95 4.203 50.95" stroke="#797979" stroke-width="9"/><g clip-path="url(#bs)"><path fill="#727375" d="M59.79 2.445c-.067-.047-.157-.113-.227-.16-.051 0-.122-.004-.172-.004l-.762-.011-2.008-.043c-.074-.004-.18-.012-.242.02a.188.188 0 0 0-.078.077.378.378 0 0 0 .011.262c.02.05.126.133.126.133.003.11-.016.258.011.363.02.074.121.23.121.23.504.016 1.176.04 1.684.047.344.004 1.152.008 1.152.008.055-.058.145-.125.18-.195.039-.078.004-.203.043-.277.035-.067.148-.106.176-.172.03-.078-.016-.278-.016-.278zm0 0" fill-rule="evenodd"/><path stroke-linecap="round" transform="matrix(0 .03997 -.04079 0 67.526 -4.783)" fill="none" stroke-linejoin="round" d="M187.681 271.872s-2.052 2.585-3.322 3.064c-1.857.766-4.691 1.054-6.548.288-.684-.288-1.564-1.15-1.955-1.916-.781-1.532-.586-4.118-.488-5.938 0-.287.097-.957.097-.957m27.07 2.202s-3.908 2.49-5.765 2.97c-2.639.67-6.352.19-9.089.287m16.223-72.787s-.098 19.824-.196 28.252c-.195 12.45-.781 28.924-1.172 41.278M180.84 189.7c-1.172 1.628-2.834 3.83-4.006 5.555 0 1.245-.098 2.969-.098 4.214-.098 5.65-.196 13.12-.293 18.675-.293 14.75-1.075 49.227-1.075 49.227m23.65-72.691c1.759.862 3.42 3.065 4.886 4.406m-11.825-5.46c1.857.958 4.984.096 6.939 1.054m-11.239-5.363c1.661.67 2.639 3.448 4.3 4.31m-11.239-3.927s4.985-1.15 6.939-.383m-6.939.383h0" stroke="#727375"/></g><path stroke-linecap="round" transform="matrix(0 .03997 -.04079 0 67.526 -4.783)" fill="none" stroke-linejoin="round" d="M856.034 215.845c-1.075 33.999-2.15 68.094-3.225 102.093" stroke="#717274" stroke-width="12"/><path stroke-linecap="round" transform="matrix(0 .03997 -.04079 0 67.526 -4.783)" fill="none" stroke-linejoin="round" d="M226.479 198.797c-.88 24.23-1.76 48.365-2.639 72.596M449.491 205.31l-1.466 79.682" stroke="#717274" stroke-width="10"/><g clip-path="url(#bt)"><path fill="#ad865d" d="M45.629 44.242c-.125-.105-.211-.316-.3-.449l.042-5.906 6.59-9.95.055-12.05s.078-.227.14-.309c.086-.11.258-.195.367-.281 0 0 1.778-.059 2.54-.031.374.015.882 0 1.242.101.105.031.238.11.34.156.062.102.167.223.203.332.125.391.011.954 0 1.36-.035 1.14-.184 2.656-.27 3.797-.047.644-.113 1.504-.164 2.152-.125 1.633-.305 3.813-.434 5.445 0 0-1.308 1.645-1.878 2.344-1.805 2.215-4.254 5.14-6.079 7.344l-.539 5.383s-.261.468-.441.61c-.18.136-.484.28-.715.273-.23-.008-.527-.172-.7-.32m6.333-16.306zm0 0" fill-rule="evenodd"/><path stroke-linecap="round" transform="matrix(0 .03997 -.04079 0 67.526 -4.783)" fill="none" stroke-linejoin="round" d="M1226.515 536.874c-2.638 3.064-7.915 5.171-11.238 7.374-.098 0-103.395-.766-147.763-1.053 0 0-174.246-113.108-248.91-161.568-90.397-.383-210.991-.958-301.486-1.341 0 0-5.668-1.916-7.72-3.448-2.737-2.107-4.887-6.32-7.037-9.003 0 0-1.466-43.576-.782-62.252.391-9.194 0-21.644 2.541-30.455.782-2.586 2.736-5.842 3.91-8.332 2.54-1.533 5.57-4.119 8.306-4.98 9.773-3.065 23.845-.288 34.009 0 28.536.861 66.454 4.5 94.99 6.608 16.125 1.149 37.625 2.777 53.848 4.022 40.85 3.065 95.38 7.47 136.23 10.63 0 0 41.143 32.085 58.636 46.067 55.411 44.247 128.609 104.296 183.726 149.022 0 0 94.209 9.29 134.668 13.217 0 0 11.727 6.417 15.245 10.822 3.42 4.406 7.036 11.876 6.841 17.526-.195 5.65-4.3 12.93-8.014 17.144m-407.91-155.247h0" stroke="#ad865d"/></g><path stroke-linecap="round" transform="matrix(0 .03997 -.04079 0 67.526 -4.783)" fill="none" stroke-linejoin="round" d="m1071.814 509.483 115.708 3.543M821.536 324.642s175.126 129.389 250.278 184.84M534.415 304.052c.098 0 201.024 14.366 287.121 20.591" stroke="#828186" stroke-width="18"/><g clip-path="url(#bu)"><path stroke-linecap="round" transform="matrix(0 .03997 -.04079 0 67.526 -4.783)" fill="none" stroke-linejoin="round" d="M185.825 197.935c-.587 13.6-1.075 27.295-1.662 40.895" stroke="#9c9b9f" stroke-width="9"/></g><path stroke-linecap="round" transform="matrix(0 .03997 -.04079 0 67.526 -4.783)" fill="none" stroke-linejoin="round" d="m751.76 396.088-104.666-20.4M745.798 316.118c-34.106 12.068-68.213 24.04-102.32 36.107M702.505 248.12c-23.943 27.678-47.788 55.356-71.633 83.035M626.083 217.473c-5.668 34.286-11.239 68.573-16.809 102.86M545.459 224.656c12.215 33.52 24.431 67.04 36.745 100.465M476.268 272.255c28.732 22.602 57.366 45.3 86.097 67.902M446.852 344.946l105.252 17.526M457.016 421.947c32.738-12.355 65.379-24.805 98.117-37.256M501.58 486.976c22.28-27.103 44.465-54.207 66.747-81.215" stroke="#d9ab79" stroke-width="20"/><g clip-path="url(#bv)"><path stroke-linecap="round" transform="matrix(0 .03997 -.04079 0 67.526 -4.783)" fill="none" stroke-linejoin="round" d="M573.702 519.443c6.45-34.67 12.9-69.435 19.252-104.104" stroke="#d9ab79" stroke-width="20"/></g><path stroke-linecap="round" transform="matrix(0 .03997 -.04079 0 67.526 -4.783)" fill="none" stroke-linejoin="round" d="M653.153 512.164c-12.606-33.233-25.31-66.561-37.918-99.794M717.457 465.906c-26.874-22.698-53.652-45.3-80.526-67.998" stroke="#d9ab79" stroke-width="20"/><g clip-path="url(#bw)"><path stroke-linecap="round" transform="matrix(0 .03997 -.04079 0 67.526 -4.783)" fill="#c4996c" fill-rule="evenodd" stroke-linejoin="round" d="M451.445 374.348c-2.15-80.162 60.298-152.757 146.59-153.906 85.218-1.245 149.327 68.285 149.327 147.585.097 79.108-63.62 147.106-148.642 147.585-82.775.575-145.222-64.263-147.275-141.264m-31.077-4.884c0-98.742 79.354-178.041 177.277-178.041 97.922 0 177.276 79.3 177.276 178.04 0 98.646-79.354 177.946-177.276 177.946-97.923 0-177.277-79.3-177.277-177.945zm0 0" stroke="#c4996c"/></g><path stroke-linecap="round" transform="matrix(0 .03997 -.04079 0 67.526 -4.783)" fill="none" stroke-linejoin="round" d="M583.572 196.403c.293 6.991.586 13.983.88 21.07M512.036 243.906c-4.202-6.225-8.502-12.45-12.802-18.676" stroke="#828186" stroke-width="10"/><path stroke-linecap="round" transform="matrix(0 .03997 -.04079 0 67.526 -4.783)" fill="none" stroke-linejoin="round" d="M463.368 304.051c-7.232-3.544-14.463-6.991-21.695-10.535" stroke="#828186" stroke-width="9"/><path stroke-linecap="round" transform="matrix(0 .03997 -.04079 0 67.526 -4.783)" fill="none" stroke-linejoin="round" d="M449.393 381.627c-8.6.67-17.297 1.245-25.897 1.915" stroke="#828186" stroke-width="7"/><path stroke-linecap="round" transform="matrix(0 .03997 -.04079 0 67.526 -4.783)" fill="none" stroke-linejoin="round" d="M473.825 454.797c-5.961 5.076-11.923 10.152-17.884 15.132" stroke="#828186" stroke-width="9"/><g clip-path="url(#bx)"><path stroke-linecap="round" transform="matrix(0 .03997 -.04079 0 67.526 -4.783)" fill="none" stroke-linejoin="round" d="M535.393 506.514c-3.03 6.895-6.06 13.695-9.089 20.495" stroke="#828186" stroke-width="11"/></g><g clip-path="url(#by)"><path stroke-linecap="round" transform="matrix(0 .03997 -.04079 0 67.526 -4.783)" fill="none" stroke-linejoin="round" d="M613.183 519.635c.293 7.661.684 15.323.977 22.985" stroke="#828186" stroke-width="11"/></g><path stroke-linecap="round" transform="matrix(0 .03997 -.04079 0 67.526 -4.783)" fill="none" stroke-linejoin="round" d="M686.576 492.818a3147.74 3147.74 0 0 0 11.727 18.58" stroke="#828186" stroke-width="10"/><path stroke-linecap="round" transform="matrix(0 .03997 -.04079 0 67.526 -4.783)" fill="none" stroke-linejoin="round" d="M737.296 432.29c6.059 3.16 12.216 6.225 18.275 9.386" stroke="#828186" stroke-width="9"/><path stroke-linecap="round" transform="matrix(0 .03997 -.04079 0 67.526 -4.783)" fill="none" stroke-linejoin="round" d="m771.402 353.565-20.229 1.15" stroke="#828186" stroke-width="10"/><path stroke-linecap="round" transform="matrix(0 .03997 -.04079 0 67.526 -4.783)" fill="none" stroke-linejoin="round" d="M739.544 270.243c-4.691 3.831-9.284 7.662-13.975 11.397" stroke="#828186" stroke-width="12"/><path stroke-linecap="round" transform="matrix(0 .03997 -.04079 0 67.526 -4.783)" fill="none" stroke-linejoin="round" d="M674.262 212.78c-2.736 6.321-5.472 12.738-8.209 19.059" stroke="#828186" stroke-width="10"/><path stroke-linecap="round" transform="matrix(0 .03997 -.04079 0 67.526 -4.783)" fill="#c4996c" fill-rule="evenodd" stroke-linejoin="round" d="M599.404 313.15c27.265 0 50.817 23.176 50.817 54.11 0 30.935-23.552 54.016-50.817 54.016-27.266 0-50.72-23.08-50.72-54.015 0-30.935 23.454-54.112 50.72-54.112zm0 0" stroke="#c4996c"/><path stroke-linecap="round" transform="matrix(0 .03997 -.04079 0 67.526 -4.783)" fill="#828186" fill-rule="evenodd" stroke-linejoin="round" d="M599.013 346.957c10.652 0 19.936 9.098 19.936 21.453 0 12.355-9.284 21.453-19.936 21.453s-19.937-9.098-19.937-21.453c0-12.355 9.285-21.453 19.937-21.453zM599.795 328.569c1.66 0 3.225 1.532 3.225 3.543 0 2.012-1.564 3.544-3.225 3.544-1.76 0-3.225-1.532-3.225-3.544 0-2.01 1.465-3.543 3.225-3.543zM636.442 365.345c1.76 0 3.323 1.628 3.323 3.831 0 2.299-1.564 3.831-3.323 3.831-1.76 0-3.42-1.532-3.42-3.83 0-2.204 1.66-3.832 3.42-3.832zM599.6 401.835c1.856 0 3.42 1.532 3.42 3.352 0 1.915-1.564 3.447-3.42 3.447-1.858 0-3.324-1.532-3.324-3.447 0-1.82 1.466-3.352 3.323-3.352zM563.147 365.633c1.857 0 3.323 1.532 3.323 3.447 0 1.82-1.466 3.352-3.323 3.352s-3.42-1.532-3.42-3.352c0-1.915 1.563-3.447 3.42-3.447zm0 0" stroke="#828186"/><path stroke-linecap="round" transform="matrix(0 .03997 -.04079 0 67.526 -4.783)" fill="#9c9b9f" fill-rule="evenodd" stroke-linejoin="round" d="M598.426 362.28c2.737 0 5.082 2.3 5.082 5.46s-2.345 5.459-5.082 5.459c-2.638 0-4.984-2.299-4.984-5.46 0-3.16 2.346-5.458 4.984-5.458zM586.015 367.165c-.782 0-1.466.67-1.466 1.437 0 .862.684 1.436 1.466 1.436.684 0 1.368-.574 1.368-1.436 0-.767-.684-1.437-1.368-1.437zM598.817 353.47c-.782 0-1.368.574-1.368 1.436 0 .766.586 1.437 1.368 1.437.782 0 1.368-.67 1.368-1.437 0-.862-.586-1.436-1.368-1.436zM598.915 382.872c-.684 0-1.368.67-1.368 1.532 0 .766.684 1.437 1.368 1.437.782 0 1.368-.67 1.368-1.437 0-.862-.586-1.532-1.368-1.532zM612.499 367.452c-.684 0-1.368.575-1.368 1.437 0 .766.684 1.437 1.368 1.437.782 0 1.466-.67 1.466-1.437 0-.862-.684-1.437-1.466-1.437zm0 0" stroke="#9c9b9f"/><g clip-path="url(#bz)"><path fill="#cb6ce6" d="M97.027 53.234h-21.39V-4.648h21.39zm0 0"/></g><path d="m81.314 14.036.011.285-.003.106.011.137.047.125.125.05.117-.004.13.004.218-.011.11.011.136-.004.106.051.062.137.012.129-.024.125.047.605.227.559.07.086.094.082.074.078.09.074.187.125.23.098.13.02.094.035.48.011.102-.023.128-.02.22-.07.198-.11.192-.14.23-.266.13-.195.07-.234.042-.098v-.121l.04-.117.007-.176-.007-.188-.016-.128.004-.36.02-.117-.024-.363.004-.13.02-.105-.024-.125-.066-.125-.094-.05-.711.003-.235-.023-.113.012-1.52-.004-.113.012-1.086-.008-.113.066-.058.184zm2.011.88.07-.118.102-.05.477-.02.121.011h.242l.113.059.059.125-.02.61-.05.116-.067.098-.078.074-.117.059-.105.02-.165.011-.16-.012-.105-.043-.094-.05-.094-.078-.07-.094-.027-.094-.024-.184.004-.3zM81.286 18.85l-.023.28.012.294.05.238.051.12.028.118.058.094.047.105.066.098.235.262.105.066.09.074.117.035.098.06.113.042.594.04.477-.017.12.024h.106l.117-.024.114-.007.125.011.164-.004.18.012.132-.008.11.02.117-.02.476.008.102-.02.129-.046.05-.188.008-.55-.054-.13-.13-.058-.573.004-.118-.012-.23.008-.125-.012-.121.016-.465-.016-.106.024-.128-.012-.211.004-.121-.012-.297.008-.188-.023-.113-.055-.082-.05-.09-.099-.074-.234-.012-.156.012-.195.027-.106.067-.129.074-.09.082-.07.125-.035 1.035-.012.117-.016.363-.007.106.011h.473l.168-.015h.113l.176.027h.125l.109-.062.055-.145.004-.617-.063-.117-.117-.051h-.356l-.097-.031-.246.023-.227-.016-.351.028-.11-.024-.133.02-.11-.012-.116.004-.114-.012-.234.02-.422-.008-.172.02h-.125l-.117.035-.11.015-.112.036-.2.12-.195.157-.074.078-.117.2-.07.085-.048.113-.043.137-.046.086-.008.129zM81.505 21.593l-.113.078-.067.11.016 1.331-.02.106.02.355-.027.36.011.113.063.121.11.055.113.011.363-.007.113.015.117-.078.059-.176.012-.777-.02-.11.012-.132-.012-.13.07-.12.184-.055.29.008.12.05.067.106v.23l.011.118-.02.312.013.16-.012.122.008.105.062.117.113.059.465.012.117-.012.114-.051.062-.102.008-.234-.012-.117v-.125l.012-.133-.008-.465.067-.101.105-.07.18-.012.172.058.054.184.004 1.129.067.12.105.067.238-.011.114-.02.129.008.113.015.117-.058.05-.121.009-.473-.012-.105.016-.118-.012-.257.012-.118-.004-.23.011-.106-.02-.769-.038-.172-.13-.059-.234.012-.171-.023-.301.023-.121-.012-.11.012h-1.05l-.125-.015-.227.015-.234-.012-.125.02-.13-.012-.113.004-.105-.015-.133.011h-.117l-.23.012-.118-.008zM81.509 24.969l-.133.062-.054.114.023 1.945.031.223.074.195.13.222.058.079.09.093.191.133.113.055.102.023.117.047.469.004.113-.023.121-.04.207-.105.102-.082.086-.09.129-.05.117.023.117.062.102.07.422.083.171-.004.22-.067.109-.058.113-.035.187-.14.082-.083.125-.176.118-.219.074-.328.012-1.77-.051-.116-.125-.055-.25.012-.172-.012-.395.023-.125-.015-.12.011-.114-.011-.121.004-.113-.012h-.47l-.124.02-.113-.012h-.235l-.11.011-.484-.011-.238.015-.355-.023zm2.348 1.203.047-.14.117-.06.097.024h.114l.11-.012.1.067.067.12-.02.427-.035.18-.047.07-.082.078-.16.015-.175-.027-.094-.101-.04-.2zm-1.59-.016.047-.101.125-.063.097.004.114-.012.117.008.105.04.059.116v.625l-.027.165-.067.09-.082.085-.164.012-.152-.012-.082-.074-.067-.11-.027-.316zM81.505 28.86l-.105.05-.075.192.016 2.078.059.164.105.067.129-.012.117.004.106.012.129-.016.113.016.129-.074.058-.094-.02-.13.013-1.034.054-.125.13-.035.218.007.11-.02.128.009.117-.012.125.012.293-.008.164.02.13-.02.124.02.918-.02.13.012.288-.012.176-.059.07-.152-.011-.61-.067-.171-.156-.078-.309.035-.109-.012-.125-.016-.117.016-.11.012-.132-.016-.11.004-.117-.012-.125.02-.105-.02-.118.012-.113-.016-.25.016-.113-.016-.235.016-.117-.016-.234.004-.106.012-.718-.004-.117.012-.114-.024zM81.493 31.66l-.125.027-.027.117v.52l-.02.152.06.132.105.106.199.102.113.101.059.14-.012.118.004.328-.016.125.016.133v.105l-.012.125.012.278-.063.191-.093.125-.106.027-.105.067-.094.101-.063.153.016.105-.02.203.012.367.035.106.125.023.145-.035.105-.043.102-.074.117-.035.09-.059.11-.035.21-.101.114-.04.101-.058.215-.086.094-.063.117-.046.102-.055.117-.04.09-.054.117-.035.105-.062.098-.047.101-.059.114-.031.203-.117.113-.036.223-.105.094-.031.207-.086.214-.117.227-.094.086-.055.113-.035.11-.105.054-.2-.058-.187-.106-.113-.105-.036-.532-.254-.105-.062-.738-.332-.102-.027-.105-.067-.211-.094-.153-.085-.113-.043-.152-.082-.125-.036-.094-.05-.117-.043-.305-.164-.43-.172-.093-.07-.117-.051zm1.293 1.816.047-.114.117-.02.536.24.093.05.059.078-.047.07-.23.075-.098.066-.098.023-.117.059-.105.043-.106-.012-.047-.101zm0 0" fill="#fff"/><path d="M23.699 12.074v-.938h3.5v2.078h-.75v-1.14h-.672v1.047h-.766v-1.047zM23.699 15.652l.343-.11v-.062a.76.76 0 0 1-.296-.328 1.152 1.152 0 0 1-.094-.484c0-.305.082-.54.25-.704.176-.168.426-.25.75-.25h1.765v.938h-1.484c-.18 0-.312.023-.406.078-.094.05-.14.133-.14.25 0 .164.062.281.187.344.133.07.351.11.656.11h1.187v.937H23.7zM23.652 18.324c0-.46.117-.812.36-1.062.237-.25.581-.375 1.03-.375.457 0 .805.113 1.047.343.25.239.375.57.375 1 0 .407-.109.72-.328.938-.21.226-.515.344-.922.344h-.406V17.84c-.156 0-.277.05-.36.156-.085.102-.124.25-.124.438 0 .164.015.316.047.453.03.132.082.285.156.453h-.672a1.302 1.302 0 0 1-.156-.469 2.826 2.826 0 0 1-.047-.547zm2.172-.062c0-.118-.04-.211-.11-.282-.062-.074-.172-.117-.328-.125v.797a.44.44 0 0 0 .313-.11c.082-.062.125-.155.125-.28zM23.699 21.743h1.484a.871.871 0 0 0 .406-.078.269.269 0 0 0 .141-.25.366.366 0 0 0-.203-.344c-.125-.063-.34-.094-.64-.094h-1.188v-.937h2.718v.703l-.343.11v.062a.751.751 0 0 1 .297.328c.062.144.093.304.093.484 0 .301-.09.535-.265.703-.18.164-.422.25-.735.25H23.7zM24.386 24.65c0 .124.031.273.094.453h-.672a1.317 1.317 0 0 1-.125-.36 2.455 2.455 0 0 1-.031-.406c0-.313.078-.543.234-.688.156-.136.39-.203.703-.203h1.125v-.328h.375l.297.422.578.234v.625h-.547v.657h-.703v-.657h-1.062c-.18 0-.266.082-.266.25zM23.652 26.887c0-.461.117-.813.36-1.063.237-.25.581-.375 1.03-.375.457 0 .805.114 1.047.344.25.238.375.57.375 1 0 .406-.109.719-.328.938-.21.226-.515.343-.922.343h-.406v-1.672c-.156 0-.277.051-.36.157-.085.101-.124.25-.124.437 0 .164.015.317.047.453.03.133.082.286.156.453h-.672a1.302 1.302 0 0 1-.156-.468 2.826 2.826 0 0 1-.047-.547zm2.172-.063c0-.117-.04-.21-.11-.28-.062-.075-.172-.118-.328-.126v.797a.44.44 0 0 0 .313-.11c.082-.062.125-.156.125-.28zM24.527 30.696c-.293 0-.512-.101-.656-.297-.149-.199-.22-.484-.22-.86 0-.198.013-.374.032-.53.02-.149.063-.293.125-.438h.75a2.03 2.03 0 0 0-.172.469 1.989 1.989 0 0 0-.062.469c0 .195.047.297.14.297.051 0 .094-.032.125-.094a3.74 3.74 0 0 0 .235-.485c.093-.25.203-.43.328-.53a.874.874 0 0 1 .515-.141c.25 0 .442.097.579.296.144.196.218.473.218.829 0 .175-.023.343-.062.5a4.03 4.03 0 0 1-.172.484l-.61-.25c.063-.125.11-.258.141-.39.04-.137.063-.25.063-.344 0-.157-.04-.235-.11-.235-.043 0-.086.024-.125.078a6.694 6.694 0 0 0-.187.469 2.395 2.395 0 0 1-.235.422.665.665 0 0 1-.265.203.856.856 0 0 1-.375.078zM23.652 33.33c0-.199.05-.37.156-.515a1.08 1.08 0 0 1 .484-.344c.22-.074.473-.11.766-.11.438 0 .781.087 1.031.266a.85.85 0 0 1 .375.735.751.751 0 0 1-.093.39 1.061 1.061 0 0 1-.313.328v.016a4.5 4.5 0 0 1 .64-.047h.735v.938H23.7v-.703l.343-.204v-.03a.802.802 0 0 1-.39-.72zm.734.375c0 .157.047.258.14.313.095.062.24.098.438.11h.078c.239 0 .407-.04.5-.11.102-.063.157-.168.157-.313a.336.336 0 0 0-.172-.296c-.117-.063-.278-.094-.485-.094-.218 0-.386.031-.5.094a.338.338 0 0 0-.156.296zM23.652 36.95c0-.462.117-.813.36-1.063.237-.25.581-.375 1.03-.375.457 0 .805.113 1.047.344.25.238.375.57.375 1 0 .406-.109.718-.328.937-.21.227-.515.344-.922.344h-.406v-1.672c-.156 0-.277.05-.36.156-.085.102-.124.25-.124.438 0 .164.015.316.047.453.03.133.082.285.156.453h-.672a1.302 1.302 0 0 1-.156-.469 2.826 2.826 0 0 1-.047-.547zm2.172-.063c0-.117-.04-.211-.11-.281-.062-.075-.172-.118-.328-.125v.796a.44.44 0 0 0 .313-.109c.082-.062.125-.156.125-.281zm0 0"/><g><path d="M17.167 18.112v-.938h3.735v.938zM18.527 21.351c-.438 0-.781-.12-1.031-.359-.25-.242-.375-.574-.375-1 0-.418.125-.75.375-1 .257-.242.601-.36 1.03-.36.446 0 .79.118 1.032.36.25.238.375.57.375 1a1.4 1.4 0 0 1-.172.703 1.22 1.22 0 0 1-.5.485c-.21.113-.453.171-.734.171zm0-1.765c-.23 0-.406.031-.531.094-.125.062-.188.164-.188.312 0 .145.063.25.188.313.125.062.3.093.53.093.227 0 .4-.031.516-.093a.324.324 0 0 0 .188-.313c0-.148-.059-.25-.172-.312-.117-.063-.293-.094-.531-.094zM19.933 23.52c0 .07-.008.144-.016.218l-.015.063-.89-.094c.019-.074.03-.18.03-.312 0-.211-.046-.36-.14-.454-.094-.085-.23-.125-.406-.125h-1.329v-.937h2.72v.687l-.438.157v.047c.144.07.257.175.343.312.094.145.141.29.141.438zM17.12 25.49c0-.46.118-.812.36-1.062.238-.25.582-.375 1.031-.375.457 0 .805.113 1.047.343.25.239.375.57.375 1 0 .407-.11.719-.328.938-.211.226-.516.344-.922.344h-.406v-1.672c-.156 0-.278.05-.36.156-.086.101-.125.25-.125.437 0 .164.016.317.047.454.032.132.082.285.157.453h-.672a1.302 1.302 0 0 1-.157-.47 2.826 2.826 0 0 1-.046-.546zm2.172-.062c0-.118-.039-.211-.109-.282-.062-.074-.172-.117-.328-.125v.797a.44.44 0 0 0 .312-.11c.082-.062.125-.155.125-.28zM17.855 28.534c0 .125.031.273.094.453h-.672a1.317 1.317 0 0 1-.125-.36 2.455 2.455 0 0 1-.031-.406c0-.312.078-.543.234-.687.156-.137.39-.203.703-.203h1.125v-.329h.375l.297.422.578.235v.625h-.547v.656h-.703v-.656h-1.062c-.18 0-.266.082-.266.25zM18.527 32.052c-.438 0-.781-.12-1.031-.359-.25-.242-.375-.574-.375-1 0-.418.125-.75.375-1 .257-.242.601-.36 1.03-.36.446 0 .79.118 1.032.36.25.238.375.57.375 1a1.4 1.4 0 0 1-.172.703 1.22 1.22 0 0 1-.5.485c-.21.113-.453.171-.734.171zm0-1.765c-.23 0-.406.031-.531.094-.125.062-.188.164-.188.312 0 .145.063.25.188.313.125.062.3.093.53.093.227 0 .4-.03.516-.093a.324.324 0 0 0 .188-.313c0-.148-.059-.25-.172-.312-.117-.063-.293-.094-.531-.094zm0 0"/></g><g fill="#cb6ce6"><path d="m7.017 18.123.007.132.106.067.117.011.117.055.086.133.02.273.078.266.316.57.305.254.25.117.27.079.519-.028.133-.039.222-.105.16-.117.196-.262.039-.113.121-.258.04-.133.007-.117.02-.117.03-.141.028-.129.07-.14.141-.051.11-.016h.14l.137.016.12-.016.102.074.028.153-.067.117-.097.105-.117.106-.075.132-.027.13.023.374-.027.239.07.132.141.047.125-.007.281-.086.121-.067.203-.164.192-.21.254-.481.066-.387.082-.133.145-.058.11-.016.105-.059.015-.132-.12-.079-.126.02-.098-.07-.113-.203-.02-.192-.046-.121-.024-.117-.054-.117-.078-.114-.06-.117-.25-.277-.23-.16-.125-.059-.363-.086-.2-.004-.339.04-.125.023-.258.113-.105.074-.172.184-.152.222-.102.239-.105.406-.008.113-.094.145-.145.058-.375.02-.125-.066-.02-.13.052-.113.074-.105.184-.176.074-.21.011-.192v-.114l.016-.125-.027-.136v-.125l-.067-.133-.144-.047-.25.055-.113.05-.133.047-.09.086-.113.067-.106.09-.078.105-.305.566-.07.278v.117l-.078.133-.14.074-.11-.008zm3.285-.254.078-.16.121-.126.184-.011.183.031.094.074.062.078.055.125-.027.118-.172.046-.309.02-.117-.004-.098-.074zm-1.797.644.047-.117.105-.074.145.008.125-.016.136.016.098.07.063.133-.036.125-.05.113-.075.098-.171.05-.196-.05-.093-.094zm0 0"/></g><g fill="#cb6ce6"><path d="m7.485 20.85.02.153-.016 1.683.016.106-.016.797.074.132.133.051.125.016.13-.016.132.02.262-.004.148-.055.05-.222.009-.832.039-.157h.105l.125.074.422.313.11.102.101.058.54.383.136.039.25.117.258.055h.125l.394-.055.453-.242.102-.086.09-.098.219-.351.058-.11.04-.19.038-.43-.02-.317-.066-.25-.101-.238-.082-.117-.278-.282-.101-.062-.383-.164-.133-.004-.133-.028-.117.067-.074.117-.004.645.059.125.117.082.113.043.086.105.047.102.012.187-.012.18-.074.094-.114.078-.136.02-.117-.009-.133-.03-.184-.079-.164-.105-.102-.106-.355-.21-.434-.317-.113-.059-.32-.246-.133-.066-.09-.086-.12-.051-.106-.094-.106-.062-.125-.067-.098-.101-.222-.157-.16-.066-.145.027zm0 0"/></g><g fill="#cb6ce6"><path d="m7.45 25.753-.027.41.023.344.02.117.039.113.066.27.07.11.047.12.086.118.184.203.336.203.383.129h.125l.203.031.2-.027h.128l.133-.032.23-.078.137-.062.102-.106.105-.07.09-.078.152-.211.117-.246.094-.399v-.128l.04-.079.116-.003.336.195.22.098.765.468.117.008.05-.094v-.406l.016-.113-.007-.395-.051-.172-.114-.113-.125-.082-.113-.055-.105-.086-.125-.058-.106-.094-.129-.058-.113-.07-.117-.055-.567-.348-.12-.047-.098-.086-.461-.262-.117-.047-.125-.035-.122-.043-.117-.02-.113-.042h-.414l-.5.133-.238.144-.211.192-.07.086-.172.285-.114.336zm.996.621-.008-.222.012-.207.047-.13.078-.093.102-.086.125-.04.195-.019.211.008.23.137.125.25.008.18-.02.187-.027.121-.086.117-.117.086-.328.059-.187-.02-.137-.058-.098-.067-.074-.097zm0 0"/></g><g fill="#cb6ce6"><path d="m7.423 30.08-.012.216.02.25.066.312.094.242.195.364.098.09.304.226.243.137.246.058 2.097.02.274-.051.125-.059.129-.046.207-.118.101-.101.102-.059.09-.105.199-.348.05-.113.048-.137.054-.25.02-.52-.113-.527-.047-.12-.07-.106-.067-.125-.172-.196-.098-.086-.093-.097-.106-.063-.117-.05-.508-.16-.386-.005-.145.028-.39-.035-.133.027-.13-.02-.132.02-.797.008-.25.062-.117.067-.114.047-.203.164-.101.086-.09.105-.066.117-.075.094-.07.133-.113.355zm1.074.407-.027-.21.023-.196.043-.14.059-.09.105-.079.133-.047.203-.054h1.535l.192.035.125.066.093.086.118.215.007.402-.046.125-.079.114-.105.07-.121.047-.192.031-.312.027-.523-.027-.118.027-.132-.02-.13-.007-.113.02-.199-.004-.203-.036-.117-.039-.106-.097-.066-.098zm0 0"/></g></svg>