<svg xmlns="http://www.w3.org/2000/svg" width="123" viewBox="0 0 92.25 48.75" height="65" version="1.0"><defs><clipPath id="j"><path d="M47.75 7.684h32.36v12.53H47.75zm0 0"/></clipPath><clipPath id="a"><path d="M0 .074h91.508V48.43H0zm0 0"/></clipPath><clipPath id="c"><path d="M38 .074h3V2h-3zm0 0"/></clipPath><clipPath id="d"><path d="M43 .074h2V26h-2zm0 0"/></clipPath><clipPath id="e"><path d="M38 25h3v23.43h-3zm0 0"/></clipPath><clipPath id="f"><path d="M22 .074h2V2h-2zm0 0"/></clipPath><clipPath id="g"><path d="M13 29h3v19.43h-3zm0 0"/></clipPath><clipPath id="h"><path d="M18 .074h2V26h-2zm0 0"/></clipPath><clipPath id="i"><path d="M6 .074h2V2H6zm0 0"/></clipPath><clipPath id="b"><path d="M0 .074h50.383V48.43H0zm0 0"/></clipPath><clipPath id="k"><path d="M73 2.172h6v43.613h-6zm0 0"/></clipPath><clipPath id="l"><path d="M79 7h8.906v14H79zm0 0"/></clipPath><clipPath id="m"><path d="M79 19h8.906v2H79zm0 0"/></clipPath><clipPath id="n"><path d="M77 19h10.906v19H77zm0 0"/></clipPath><clipPath id="o"><path d="M77 19h10.906v12H77zm0 0"/></clipPath><clipPath id="p"><path d="M69 2.172h5V8h-5zm0 0"/></clipPath><clipPath id="q"><path d="M47.75 27.344h2.984v6.129H47.75zm0 0"/></clipPath><clipPath id="r"><path d="M47.75 33.453h2.984v6.067H47.75zm0 0"/></clipPath></defs><g clip-path="url(#a)" fill="#fff"><path d="M0 .074h91.508V48.43H0zm0 0"/><path d="M0 .074h91.508V48.43H0zm0 0"/></g><g clip-path="url(#b)"><path fill="#4eb7c3" d="M49.66 116.36s0-1.95.164-6.637c.164-4.692-.41-9.106-.808-14.07-.399-4.966 0-10.485.347-16.555.344-6.067.215-11.586-.347-16.551-.563-4.965 0-16 .808-19.863.809-3.864 0-13.243-.808-18.48-.809-5.243 0-13.243.37-18.212.368-4.965.766-9.93 0-14.066-.765-4.14-1.202-9.656-.37-17.383.832-7.723 0-12.219 0-12.219H-.141V116.36H49.66"/></g><g clip-path="url(#c)"><path fill="#6cc8db" d="M38.809-29.45s2.828 7.06 1.164 13.106c-1.664 6.051-1.332 12.606-1.164 17.645"/></g><path fill="#6cc8db" d="M26.898 5.441s2.829 7.059 1.165 13.106c-1.665 6.05-1.333 12.601-1.165 17.644M33.418 5.441s1.844 4.598.758 8.543c-1.082 3.942-.864 8.215-.758 11.5"/><g clip-path="url(#d)"><path fill="#6cc8db" d="M43.61 25.484s1.675-6.597 1.163-13.105C44.098 3.844 43.441-.227 43.61-5.266"/></g><g clip-path="url(#e)"><path fill="#6cc8db" d="M38.96 56.234s1.68-6.597 1.165-13.105c-.668-8.535-1.332-12.602-1.164-17.645"/></g><g clip-path="url(#f)"><path fill="#6cc8db" d="M22.043 1.3s1.676-6.597 1.164-13.105c-.672-8.535-1.332-12.605-1.164-17.644"/></g><g clip-path="url(#g)"><path fill="#6cc8db" d="M13.938 29.621s1.675 6.602 1.164 13.11c-.672 8.535-1.329 12.601-1.165 17.644"/></g><g clip-path="url(#h)"><path fill="#6cc8db" d="M18.195 25.484s2.828-7.054 1.164-13.105c-1.664-6.05-1.332-12.606-1.164-17.645"/></g><g clip-path="url(#i)"><path fill="#6cc8db" d="M6.285 1.3s2.828-7.058 1.168-13.105c-1.668-6.05-1.332-12.605-1.168-17.644"/></g><path fill="#6cc8db" d="M9.043 25.484s1.844-4.601.758-8.543C8.719 13 8.934 8.727 9.043 5.441M2.027 1.3s1.68 6.602 1.168 13.106c-.672 8.535-1.332 12.606-1.168 17.645"/><g clip-path="url(#j)"><path fill="#fb5151" d="M47.75 20.207v-.578h31.77V8.269H47.75v-.574h32.344v12.512H47.75"/></g><path fill="#fb5151" d="M58.2 19.918V7.984h.573v11.934H58.2M64.504 19.918V7.984h.574v11.934h-.574M70.805 19.918V7.984h.574v11.934h-.574"/><path fill="#fb5151" d="m64.535 8.117.508-.27 6.305 11.938-.508.266-6.305-11.934M58.23 8.117l.508-.27 6.305 11.938-.508.266L58.23 8.117"/><g clip-path="url(#k)"><path fill="#fb5151" d="M73.594 3.18v41.597l3.96-2.28V5.472zm-.574 42.593V2.183l5.109 2.958v37.687l-5.11 2.945"/></g><path fill="#fb5151" d="m73.16 7.734 4.535-2.675.293.492-4.535 2.68-.293-.497"/><path fill="#fb5151" d="m73.16 8.23.293-.496 4.535 2.68-.293.496-4.535-2.68"/><path fill="#fb5151" d="m73.16 13.09 4.535-2.676.293.496-4.535 2.676-.293-.496"/><path fill="#fb5151" d="m73.16 13.586.293-.496 4.535 2.68-.293.496-4.535-2.68"/><path fill="#fb5151" d="m73.16 18.45 4.535-2.68.293.496-4.535 2.675-.293-.492"/><path fill="#fb5151" d="m73.16 18.45 4.535-2.68.293.496-4.535 2.675-.293-.492"/><path fill="#fb5151" d="m73.16 18.902.293-.496 4.535 2.68-.293.496-4.535-2.68"/><path fill="#fb5151" d="m73.16 23.766 4.535-2.68.293.496-4.535 2.676-.293-.492"/><path fill="#fb5151" d="m73.16 24.219.293-.496 4.535 2.68-.293.495-4.535-2.68"/><path fill="#fb5151" d="m73.16 29.078 4.535-2.676.293.496-4.535 2.676-.293-.496"/><path fill="#fb5151" d="m73.16 29.535.293-.496 4.535 2.68-.293.492-4.535-2.676"/><path fill="#fb5151" d="m73.16 34.395 4.535-2.676.293.492-4.535 2.68-.293-.496"/><path fill="#fb5151" d="m73.16 34.852.293-.497 4.535 2.68-.293.492-4.535-2.675"/><path fill="#fb5151" d="m73.16 39.71 4.535-2.675.293.492-4.535 2.68-.293-.496"/><path fill="#fb5151" d="m73.16 40.168.293-.496 4.535 2.68-.293.492-4.535-2.676M78.605 19.996V7.984h.575v12.012h-.575"/><g clip-path="url(#l)"><path fill="#fb5151" d="M79.426 7.695h.668l7.812 12.586h-.676L79.426 7.695"/></g><g clip-path="url(#m)"><path fill="#fb5151" d="m79.605 20.207.004-.578 7.633.078-.004.574-7.633-.074"/></g><path fill="#fb5151" d="M80.113 7.984V4.461h-1.476v3.523h1.476"/><g clip-path="url(#n)"><path fill="#fb5151" d="m77.59 37.145 9.402-17.29.504.278-9.402 17.285-.504-.273"/></g><g clip-path="url(#o)"><path fill="#fb5151" d="M77.629 30.215 87.03 19.8l.426.387-9.402 10.414-.426-.387"/></g><g clip-path="url(#p)"><path fill="#fb5151" d="M70.383 2.969v4.199h2.199v-4.2zm-.574 4.773V2.395h3.347v5.347H69.81"/></g><path fill="#fb5151" d="M70.094 4.191v-.574h2.777v.574h-2.777M70.094 5.355v-.574h2.777v.574h-2.777M70.094 6.52v-.575h2.777v.575h-2.777M71.484 28.035v-.574h1.825v.574h-1.825M71.484 34.352v-.575h1.825v.575h-1.825"/><path fill="#fcae34" d="M69.902 33.785v-5.738h2.493v5.738h-2.493"/><path fill="#d1cabe" d="M63.078 38.879v-10.89h2.402c.332 0 .602.269.602.6v9.688c0 .332-.27.602-.602.602h-2.402"/><path fill="#d1cabe" d="M65.473 37.598V29.27h1.965c.187 0 .335.148.335.335v7.653c0 .187-.148.34-.335.34h-1.965"/><path fill="#017293" d="M66.082 32.973V30.12h.824v2.852h-.824M66.082 36.746v-2.855h.824v2.855h-.824M63.078 29.828v-.844h.684c.09 0 .16.07.16.16v.52c0 .09-.07.164-.16.164h-.684M63.078 31.438v-.844h.684c.09 0 .16.074.16.164v.52c0 .09-.07.16-.16.16h-.684M63.078 33.05v-.843h.684c.09 0 .16.07.16.16v.52c0 .09-.07.164-.16.164h-.684M63.078 34.66v-.844h.684c.09 0 .16.075.16.164v.52c0 .09-.07.16-.16.16h-.684M63.078 36.273v-.843h.684c.09 0 .16.07.16.16v.52c0 .09-.07.163-.16.163h-.684M63.078 37.883v-.844h.68c.094 0 .164.074.164.164v.52c0 .09-.07.16-.164.16h-.68"/><path fill="#fcae34" d="M59.098 29.453V25.47h3.98v3.984h-3.98"/><path fill="#fb5151" d="M59.098 33.434v-3.98h3.98v3.98h-3.98"/><path fill="#017293" d="M59.098 37.414v-3.98h3.98v3.98h-3.98"/><path fill="#09d7af" d="M59.098 41.395v-3.98h3.98v3.98h-3.98"/><path fill="#008a73" d="M55.121 29.453V25.47h3.977v3.984H55.12"/><path fill="#454587" d="M55.121 33.434v-3.98h3.977v3.98H55.12"/><path fill="#0cabe0" d="M55.121 37.414v-3.98h3.977v3.98H55.12"/><path fill="#fcae34" d="M55.121 41.395v-3.98h3.977v3.98H55.12"/><path fill="#aaa49b" d="M58.715 33.469a5.883 5.883 0 0 0-.113-1.207l-1.895-9.578c-.617 2.187-2.934 3.96-5.977 4.668v6.117h7.985"/><path fill="#83807b" d="m56.707 44.184 1.895-9.579c.074-.367.113-.753.113-1.14H50.73v6.05c3.043.708 5.36 2.481 5.977 4.669"/><g clip-path="url(#q)"><path fill="#fb5151" d="M47.75 27.68v5.789h2.98v-6.117c-.921.21-1.906.328-2.933.328h-.047"/></g><g clip-path="url(#r)"><path fill="#cd3636" d="M47.75 33.469v5.718h.047c1.027 0 2.012.114 2.933.329v-6.047h-2.98"/></g><path fill="#454587" d="M56.152 35.707a.567.567 0 0 1 0-1.133c.313 0 .563.254.563.567 0 .312-.25.566-.563.566"/><path fill="#7070d4" d="M56.152 32.293a.567.567 0 0 1 0-1.133c.313 0 .563.254.563.567 0 .312-.25.566-.563.566"/><path d="M26.856 14.782c-.398 0-.703-.121-.921-.36-.211-.23-.313-.558-.313-.984v-.266H24.45v-.968h3.531v1.234c0 .445-.101.781-.296 1-.188.226-.465.344-.829.344zm-.453-1.61v.172c0 .145.036.258.11.344a.464.464 0 0 0 .343.125c.239 0 .36-.137.36-.406v-.235zM24.45 17.244l.344-.125v-.047a.878.878 0 0 1-.297-.344 1.152 1.152 0 0 1-.094-.484c0-.305.082-.54.25-.704.176-.168.426-.25.75-.25h1.782v.938H25.7c-.187 0-.328.023-.422.078-.086.05-.125.133-.125.25 0 .164.063.281.188.344.125.07.344.11.656.11h1.188v.937H24.45zM24.403 19.941c0-.46.118-.82.36-1.078.238-.25.586-.375 1.047-.375.457 0 .804.113 1.046.344.25.238.375.578.375 1.015 0 .407-.109.723-.328.954-.21.226-.515.343-.922.343h-.421v-1.703a.494.494 0 0 0-.36.172c-.086.102-.125.25-.125.438a2.044 2.044 0 0 0 .203.906h-.672a1.184 1.184 0 0 1-.156-.453 2.912 2.912 0 0 1-.047-.563zm2.188-.062c0-.118-.04-.211-.11-.282-.062-.074-.171-.117-.328-.125v.813a.508.508 0 0 0 .313-.125c.082-.063.125-.156.125-.281zM27.231 23.335c0 .082-.007.16-.015.235v.046l-.906-.078c.02-.086.03-.195.03-.328 0-.21-.046-.36-.14-.453-.094-.094-.23-.14-.406-.14H24.45v-.938h2.735v.703l-.438.14v.048a.956.956 0 0 1 .344.328c.094.144.14.289.14.437zM25.153 25.35c0 .125.032.273.094.453h-.687a1.317 1.317 0 0 1-.125-.36 2.455 2.455 0 0 1-.032-.406c0-.324.078-.558.235-.703.156-.136.394-.203.718-.203h1.125v-.328h.391l.297.422.578.25v.61h-.562v.671h-.704v-.672H25.42c-.18 0-.266.086-.266.266zM25.825 28.897c-.449 0-.797-.121-1.047-.36-.25-.242-.375-.578-.375-1.015 0-.406.125-.735.375-.985.258-.25.61-.375 1.047-.375.446 0 .79.118 1.031.36.25.25.375.586.375 1.015 0 .27-.058.508-.171.72a1.118 1.118 0 0 1-.5.468c-.211.113-.454.172-.735.172zm0-1.766c-.242 0-.422.031-.547.094-.117.062-.172.164-.172.312 0 .145.055.25.172.313.125.062.305.094.547.094.239 0 .414-.032.531-.094.114-.063.172-.168.172-.313 0-.148-.058-.25-.172-.312-.117-.063-.292-.094-.53-.094zM24.403 31.58c0-.188.051-.356.157-.5a1.09 1.09 0 0 1 .5-.344c.218-.086.468-.125.75-.125.445 0 .796.086 1.046.266a.89.89 0 0 1 .375.75.813.813 0 0 1-.093.39.759.759 0 0 1-.297.329v.015a4.3 4.3 0 0 1 .64-.047h.735v.953H24.45v-.718l.344-.203v-.032c-.262-.168-.39-.414-.39-.734zm.75.39c0 .157.047.266.141.329.094.062.238.093.437.093h.079c.238 0 .41-.039.515-.109.102-.062.156-.168.156-.312 0-.125-.062-.227-.187-.297-.117-.075-.277-.11-.484-.11-.22 0-.387.035-.5.11a.338.338 0 0 0-.157.297zM24.403 35.254c0-.461.118-.82.36-1.078.238-.25.586-.375 1.047-.375.457 0 .804.113 1.046.343.25.239.375.578.375 1.016 0 .406-.109.723-.328.953-.21.227-.515.344-.922.344h-.421v-1.703a.494.494 0 0 0-.36.172c-.086.101-.125.25-.125.437a2.044 2.044 0 0 0 .203.906h-.672a1.184 1.184 0 0 1-.156-.453 2.912 2.912 0 0 1-.047-.562zm2.188-.063c0-.117-.04-.21-.11-.281-.062-.074-.171-.117-.328-.125v.812a.508.508 0 0 0 .313-.125c.082-.062.125-.156.125-.28zm0 0"/><g><path d="m17.837 14.274 2.547-.72v-.03c-.437.039-.777.062-1.015.062h-1.532v-.86h3.532v1.282l-2.5.734v.016l2.5.734v1.266h-3.532v-.875h1.813c.101 0 .347.008.734.031V15.9l-2.547-.72zM17.837 19.256l.36-.172v-.031a1.137 1.137 0 0 1-.328-.39 1.355 1.355 0 0 1-.079-.5c0-.262.079-.47.235-.626.156-.148.375-.218.656-.218.29 0 .504.097.64.296.145.207.227.504.25.891l.016.469h.032c.226 0 .343-.117.343-.344 0-.2-.07-.45-.203-.75l.625-.281c.156.32.235.722.235 1.203 0 .351-.09.625-.266.812-.168.196-.406.297-.719.297h-1.797zm.625-.703c0 .113.035.21.11.297.07.082.164.125.28.125h.204v-.219c-.012-.312-.125-.469-.344-.469-.168 0-.25.086-.25.266zM17.837 22.627v-2.265h.547l1.469 1.125v-1.063h.719v2.14h-.578l-1.438-1.077v1.14zM17.837 24.86l.36-.172v-.031a1.137 1.137 0 0 1-.328-.39 1.355 1.355 0 0 1-.079-.5c0-.263.079-.47.235-.626.156-.148.375-.219.656-.219.29 0 .504.098.64.297.145.207.227.504.25.89l.016.47h.032c.226 0 .343-.118.343-.344 0-.2-.07-.45-.203-.75l.625-.281c.156.32.235.722.235 1.203 0 .351-.09.625-.266.812-.168.196-.406.297-.719.297h-1.797zm.625-.703c0 .113.035.21.11.297.07.082.164.125.28.125h.204v-.22c-.012-.312-.125-.468-.344-.468-.168 0-.25.086-.25.266zM18.54 27.513c0 .125.032.273.094.453h-.687a1.317 1.317 0 0 1-.125-.36 2.455 2.455 0 0 1-.032-.406c0-.324.079-.559.235-.703.156-.137.394-.203.719-.203h1.125v-.328h.39l.297.422.578.25v.609h-.562v.672h-.703v-.672h-1.063c-.18 0-.266.086-.266.266zM17.837 29.388v-.938h3.766v.938zM17.837 31.835l.36-.172v-.032a1.137 1.137 0 0 1-.328-.39 1.355 1.355 0 0 1-.079-.5c0-.262.079-.469.235-.625.156-.149.375-.219.656-.219.29 0 .504.098.64.297.145.207.227.504.25.89l.016.47h.032c.226 0 .343-.118.343-.344 0-.2-.07-.45-.203-.75l.625-.282c.156.32.235.723.235 1.203 0 .352-.09.625-.266.813-.168.195-.406.297-.719.297h-1.797zm.625-.704c0 .114.035.211.11.297.07.082.164.125.28.125h.204v-.218c-.012-.313-.125-.47-.344-.47-.168 0-.25.087-.25.266zm2.375-.359h.078c.258.25.426.406.5.469.082.07.157.129.22.172v1.03h-.048a9.676 9.676 0 0 1-.406-.53c-.156-.23-.273-.403-.344-.516zM17.837 34.878h1.5a.871.871 0 0 0 .407-.078c.093-.055.14-.141.14-.266a.366.366 0 0 0-.203-.344c-.125-.074-.34-.11-.64-.11h-1.204v-.937h2.735v.72l-.328.109v.062c.125.07.218.18.28.328.063.145.095.313.095.5 0 .3-.09.535-.266.703-.168.164-.414.25-.734.25h-1.782zm0 0"/></g><g><path d="m7.63 17.657.008.132.106.067.12.016.122.05.086.133.02.281.081.266.32.582.305.254.254.121.274.078.527-.027.133-.04.226-.105.16-.12.2-.266.039-.114.12-.261.04-.133.008-.121.02-.121.034-.137.028-.137.07-.137.14-.054.114-.012h.14l.141.012.121-.012.106.07.027.157-.066.117-.102.11-.121.105-.07.132-.028.133.02.383-.027.238.074.133.14.047.125-.008.29-.086.117-.066.207-.168.195-.211.258-.488.066-.395.082-.133.145-.058.113-.012.11-.063.011-.132-.12-.078-.126.02-.101-.075-.114-.207-.02-.195-.046-.118-.028-.12-.05-.122-.082-.113-.059-.117-.254-.282-.234-.16-.125-.058-.367-.09-.2-.004-.347.039-.125.027-.262.114-.105.074-.176.183-.153.227-.105.242-.11.414-.003.114-.094.144-.149.063-.378.02-.125-.067-.024-.137.055-.113.074-.106.188-.18.07-.214.015-.192v-.113l.012-.129-.027-.137v-.129l-.067-.132-.144-.047-.254.054-.113.051-.133.047-.094.09-.113.066-.106.094-.082.106-.304.574-.075.277v.121l-.082.133-.14.074-.113-.008zm3.328-.262.082-.156.118-.13.187-.01.188.03.093.075.067.078.054.129-.027.12-.176.048-.312.02-.121-.009-.098-.074zm-1.82.656.047-.12.105-.075.149.008.125-.012.14.012.102.074.059.133-.032.125-.054.113-.075.102-.171.054-.2-.054-.093-.094zm0 0"/></g><g><path d="m8.107 20.42.02.152-.016 1.707.015.105-.015.809.074.132.133.051.129.016.132-.016.133.024.266-.008.148-.055.051-.226.008-.84.039-.16h.11l.124.074.426.32.113.098.102.062.547.387.14.04.254.12.258.051h.13l.398-.05.46-.247.102-.09.09-.097.223-.356.058-.113.04-.192.042-.433-.023-.32-.067-.254-.105-.239-.078-.12-.281-.286-.106-.062-.387-.168-.136-.004-.133-.028-.117.067-.075.12-.007.653.058.125.121.082.114.047.085.106.047.101.016.192-.016.18-.07.093-.113.082-.14.02-.122-.008-.133-.031-.187-.083-.168-.105-.098-.105-.36-.215-.44-.32-.114-.06-.328-.25-.133-.066-.094-.086-.12-.05-.106-.094-.106-.066-.129-.067-.097-.101-.227-.16-.16-.067-.148.027zm0 0"/></g><g><path d="m8.044 25.652-.011.219.02.254.066.312.093.25.2.367.101.09.305.227.246.14.25.063 2.125.02.273-.055.13-.059.132-.047.207-.121.106-.102.101-.058.09-.106.203-.355.05-.113.048-.141.054-.25.02-.527-.113-.535-.047-.122-.074-.105-.067-.125-.172-.2-.101-.09-.094-.097-.106-.062-.12-.051-.512-.16-.395-.008-.144.027-.395-.035-.133.028-.133-.02-.136.02-.805.007-.254.067-.121.066-.113.047-.207.168-.098.086-.094.105-.066.121-.074.094-.075.133-.113.36zm1.086.414-.023-.215.02-.2.046-.14.059-.094.105-.078.137-.047.203-.054h1.555l.195.035.125.066.094.086.121.22.004.405-.043.13-.082.112-.106.075-.12.047-.196.03-.316.028-.528-.027-.12.027-.134-.02-.132-.007-.114.02-.203-.005-.203-.035-.121-.039-.11-.101-.066-.098zm0 0"/></g><g><path d="m8.044 29.933-.011.219.02.253.066.313.093.25.2.367.101.09.305.227.246.14.25.063 2.125.02.273-.055.13-.059.132-.047.207-.121.106-.102.101-.058.09-.106.203-.355.05-.113.048-.141.054-.25.02-.527-.113-.536-.047-.12-.074-.106-.067-.125-.172-.2-.101-.09-.094-.097-.106-.062-.12-.051-.512-.16-.395-.008-.144.027-.395-.035-.133.027-.133-.02-.136.02-.805.008-.254.067-.121.066-.113.047-.207.168-.098.086-.094.105-.066.121-.074.094-.075.133-.113.36zm1.086.414-.023-.215.02-.2.046-.14.059-.094.105-.078.137-.047.203-.054h1.555l.195.035.125.066.094.086.121.219.004.406-.043.13-.082.112-.106.075-.12.047-.196.03-.316.028-.528-.027-.12.027-.134-.02-.132-.007-.114.02-.203-.005-.203-.035-.121-.039-.11-.101-.066-.098zm0 0"/></g></svg>