<svg xmlns="http://www.w3.org/2000/svg" width="65" viewBox="0 0 48.75 92.25" height="123" version="1.0"><defs><clipPath id="h"><path d="M23 18h25.43v2H23zm0 0"/></clipPath><clipPath id="a"><path d="M.074 0H48.43v91.508H.074zm0 0"/></clipPath><clipPath id="c"><path d="M47 38h1.43v3H47zm0 0"/></clipPath><clipPath id="d"><path d="M23 43h25.43v3H23zm0 0"/></clipPath><clipPath id="e"><path d="M.074 39H24v2H.074zm0 0"/></clipPath><clipPath id="f"><path d="M47 22h1.43v2H47zm0 0"/></clipPath><clipPath id="g"><path d="M.074 13H19v3H.074zm0 0"/></clipPath><clipPath id="b"><path d="M.074 0H48.43v50.645H.074zm0 0"/></clipPath><clipPath id="i"><path d="M47 6h1.43v3H47zm0 0"/></clipPath><clipPath id="j"><path d="M28.43 48h12.593v32.523H28.43zm0 0"/></clipPath><clipPath id="k"><path d="M2.727 73h43.835v6H2.727zm0 0"/></clipPath><clipPath id="l"><path d="M28 79h14v9.363H28zm0 0"/></clipPath><clipPath id="m"><path d="M40 70h6.563v4H40zm0 0"/></clipPath><clipPath id="n"><path d="M15.102 48h6.16v3h-6.16zm0 0"/></clipPath><clipPath id="o"><path d="M9.023 48h6.098v3H9.023zm0 0"/></clipPath></defs><g clip-path="url(#a)" fill="#fff"><path d="M.074 0h48.602v91.977H.074zm0 0"/><path d="M.074 0h48.602v91.977H.074zm0 0"/></g><g clip-path="url(#b)"><path fill="#4eb7c3" d="M-68.207 49.918s1.957 0 6.668.164c4.715.164 9.152-.41 14.144-.809 4.989-.402 10.536 0 16.637.348 6.098.348 11.645.215 16.637-.348 4.992-.566 16.082 0 19.965.809 3.883.813 13.308 0 18.578-.809 5.265-.812 13.308 0 18.3.372 4.993.37 9.981.77 14.141 0 4.16-.774 9.703-1.211 17.469-.372 7.766.832 12.285 0 12.285 0V-.137H-68.207v50.055"/></g><g clip-path="url(#c)"><path fill="#6cc8db" d="M78.348 39.012s-7.094 2.84-13.176 1.168c-6.078-1.672-12.668-1.336-17.734-1.168"/></g><path fill="#6cc8db" d="M43.277 27.04s-7.093 2.843-13.172 1.17c-6.082-1.67-12.668-1.339-17.738-1.17M43.277 33.594s-4.62 1.855-8.586.761c-3.964-1.09-8.257-.87-11.562-.761"/><g clip-path="url(#d)"><path fill="#6cc8db" d="M23.129 43.836s6.633 1.684 13.176 1.168c8.578-.676 12.668-1.336 17.734-1.168"/></g><g clip-path="url(#e)"><path fill="#6cc8db" d="M-7.777 39.164s6.632 1.688 13.172 1.172c8.582-.676 12.668-1.34 17.734-1.172"/></g><g clip-path="url(#f)"><path fill="#6cc8db" d="M47.438 22.16s6.632 1.684 13.175 1.172c8.578-.676 12.668-1.34 17.735-1.172"/></g><g clip-path="url(#g)"><path fill="#6cc8db" d="M18.973 14.016s-6.633 1.683-13.176 1.168c-8.578-.676-12.668-1.336-17.735-1.168"/></g><g clip-path="url(#h)"><path fill="#6cc8db" d="M23.129 18.293s7.094 2.844 13.176 1.172c6.082-1.676 12.668-1.34 17.734-1.172"/></g><g clip-path="url(#i)"><path fill="#6cc8db" d="M47.438 6.32s7.093 2.844 13.175 1.172C66.695 5.82 73.281 6.156 78.348 6.32"/></g><path fill="#6cc8db" d="M23.129 9.094s4.625 1.851 8.59.761c3.96-1.09 8.254-.87 11.558-.761M47.438 2.043S40.804 3.73 34.266 3.215c-8.578-.676-12.668-1.34-17.735-1.172"/><g clip-path="url(#j)"><path fill="#fb5151" d="M28.438 48h.578v31.934h11.418V48h.578v32.512H28.437V48"/></g><path fill="#fb5151" d="M28.727 58.5h11.996v.578H28.727V58.5M28.727 64.836h11.996v.578H28.727v-.578M28.727 71.172h11.996v.578H28.727v-.578"/><path fill="#fb5151" d="m40.586 64.871.27.508-11.997 6.34-.27-.512 11.997-6.336M40.586 58.535l.27.508-11.997 6.336-.27-.508 11.997-6.336"/><g clip-path="url(#k)"><path fill="#fb5151" d="M45.55 73.977H3.739l2.293 3.98h37.215zm-42.812-.579h43.813l-2.969 5.133H5.699l-2.96-5.133"/></g><path fill="#fb5151" d="m40.973 73.54 2.691 4.558-.5.293-2.691-4.559.5-.293"/><path fill="#fb5151" d="m40.473 73.54.5.292-2.696 4.559-.496-.293 2.692-4.559"/><path fill="#fb5151" d="m35.586 73.54 2.691 4.558-.496.293-2.691-4.559.496-.293"/><path fill="#fb5151" d="m35.09 73.54.496.292-2.691 4.559-.497-.293 2.692-4.559"/><path fill="#fb5151" d="m30.203 73.54 2.692 4.558-.497.293-2.691-4.559.496-.293"/><path fill="#fb5151" d="m30.203 73.54 2.692 4.558-.497.293-2.691-4.559.496-.293"/><path fill="#fb5151" d="m29.746 73.54.496.292-2.691 4.559-.496-.293 2.691-4.559"/><path fill="#fb5151" d="m24.86 73.54 2.69 4.558-.495.293-2.692-4.559.496-.293"/><path fill="#fb5151" d="m24.402 73.54.5.292-2.691 4.559-.5-.293 2.691-4.559"/><path fill="#fb5151" d="m19.516 73.54 2.691 4.558-.496.293-2.691-4.559.496-.293"/><path fill="#fb5151" d="m19.059 73.54.5.292-2.692 4.559-.5-.293 2.692-4.559"/><path fill="#fb5151" d="m14.176 73.54 2.691 4.558-.5.293-2.691-4.559.5-.293"/><path fill="#fb5151" d="m13.715 73.54.5.292-2.692 4.559-.5-.293 2.692-4.559"/><path fill="#fb5151" d="m8.832 73.54 2.691 4.558-.5.293-2.691-4.559.5-.293"/><path fill="#fb5151" d="m8.375 73.54.496.292-2.691 4.559-.5-.293 2.695-4.559M28.648 79.012h12.075v.578H28.648v-.578"/><g clip-path="url(#l)"><path fill="#fb5151" d="M41.012 79.836v.676l-12.653 7.851v-.68l12.653-7.847"/></g><path fill="#fb5151" d="m28.438 80.016.578.007-.078 7.672-.579-.007.078-7.672M40.723 80.527h3.543v-1.484h-3.543v1.484"/><path fill="#fb5151" d="m11.41 77.992 17.38 9.45-.278.507-17.375-9.453.273-.504"/><path fill="#fb5151" d="m18.375 78.031 10.469 9.45-.387.43-10.469-9.454.387-.426"/><g clip-path="url(#m)"><path fill="#fb5151" d="M45.762 70.746h-4.219v2.211h4.219zm-4.797-.574h5.375v3.363h-5.375v-3.363"/></g><path fill="#fb5151" d="M44.535 70.46h.578v2.786h-.578v-2.785M43.363 70.46h.578v2.786h-.578v-2.785M42.195 70.46h.575v2.786h-.575v-2.785M20.566 71.852h.579v1.835h-.579v-1.835M14.219 71.852h.578v1.835h-.578v-1.835"/><path fill="#fcae34" d="M14.785 70.266h5.77v2.504h-5.77v-2.504"/><path fill="#d1cabe" d="M9.668 63.406h10.945v2.414c0 .332-.27.602-.601.602h-9.739a.605.605 0 0 1-.605-.602v-2.414"/><path fill="#d1cabe" d="M10.957 65.813h8.371v1.972a.34.34 0 0 1-.34.34h-7.691a.34.34 0 0 1-.34-.34v-1.972"/><path fill="#017293" d="M15.602 66.422h2.87v.832h-2.87v-.832M11.813 66.422h2.867v.832h-2.867v-.832M18.766 63.406h.847v.684c0 .09-.07.164-.16.164h-.523a.165.165 0 0 1-.164-.164v-.684M17.148 63.406h.848v.684c0 .09-.074.164-.164.164h-.523a.162.162 0 0 1-.16-.164v-.684M15.527 63.406h.848v.684c0 .09-.07.164-.164.164h-.52a.165.165 0 0 1-.164-.164v-.684M13.906 63.406h.852v.684c0 .09-.074.164-.164.164h-.524a.165.165 0 0 1-.164-.164v-.684M12.29 63.406h.847v.684c0 .09-.075.164-.164.164h-.52a.163.163 0 0 1-.164-.164v-.684M10.668 63.406h.848v.684c0 .09-.07.164-.16.164h-.524a.165.165 0 0 1-.164-.164v-.684"/><path fill="#fcae34" d="M19.145 59.406h4v4h-4v-4"/><path fill="#fb5151" d="M15.14 59.406h4.005v4H15.14v-4"/><path fill="#017293" d="M11.14 59.406h4v4h-4v-4"/><path fill="#09d7af" d="M7.137 59.406h4.004v4H7.137v-4"/><path fill="#008a73" d="M19.145 55.406h4v4h-4v-4"/><path fill="#454587" d="M15.14 55.406h4.005v4H15.14v-4"/><path fill="#0cabe0" d="M11.14 55.406h4v4h-4v-4"/><path fill="#fcae34" d="M7.137 55.406h4.004v4H7.137v-4"/><path fill="#aaa49b" d="M15.11 59.02c.41.003.82-.036 1.21-.114L25.945 57c-2.195-.621-3.98-2.945-4.691-6.008h-6.145v8.028"/><path fill="#83807b" d="m4.34 57 9.625 1.906c.37.074.758.114 1.144.114v-8.028H9.027C8.317 54.055 6.535 56.38 4.34 57"/><g clip-path="url(#n)"><path fill="#fb5151" d="M20.926 48h-5.817v2.992h6.145a13.246 13.246 0 0 1-.328-2.949V48"/></g><g clip-path="url(#o)"><path fill="#cd3636" d="M15.11 48H9.36v.043c0 1.035-.118 2.027-.333 2.95h6.082V48"/></g><path fill="#454587" d="M12.855 56.441a.57.57 0 0 1 1.14 0 .571.571 0 0 1-1.14 0"/><path fill="#7070d4" d="M16.29 56.441a.568.568 0 1 1 1.134.003.568.568 0 0 1-1.135-.003"/><path d="M33.89 26.995c0-.399.12-.703.36-.922.23-.21.562-.312 1-.312h.265v-1.188h.953v3.563h-1.219c-.457 0-.797-.102-1.015-.297-.227-.2-.344-.48-.344-.844zm1.625-.453h-.172a.505.505 0 0 0-.344.11.43.43 0 0 0-.14.343c0 .238.136.36.406.36h.25zM31.412 24.573l.125.344h.047a.878.878 0 0 1 .343-.297c.137-.063.305-.094.5-.094.305 0 .54.086.704.266.168.176.25.426.25.75v1.781h-.954v-1.5c0-.18-.019-.312-.062-.406-.05-.094-.14-.14-.266-.14a.37.37 0 0 0-.343.187c-.07.132-.11.351-.11.656v1.203h-.953v-2.75zM28.713 24.526c.46 0 .82.117 1.078.36.25.25.375.597.375 1.046 0 .47-.117.829-.36 1.079-.238.25-.57.375-1 .375-.413 0-.738-.11-.968-.329-.227-.218-.344-.53-.344-.937v-.422h1.703a.515.515 0 0 0-.172-.375c-.101-.086-.25-.125-.437-.125-.164 0-.317.016-.453.047a1.672 1.672 0 0 0-.453.172v-.688a1.21 1.21 0 0 1 .468-.156c.157-.031.344-.047.563-.047zm.047 2.203c.117 0 .215-.039.297-.11.074-.062.117-.171.125-.327h-.829a.508.508 0 0 0 .125.312.365.365 0 0 0 .282.125zM25.287 27.386a.917.917 0 0 1-.234-.032h-.047l.078-.906c.086.02.196.031.328.031.211 0 .36-.047.454-.14.093-.094.14-.23.14-.407v-1.359h.953v2.75h-.703l-.156-.437h-.047a.875.875 0 0 1-.328.359.794.794 0 0 1-.438.14zM23.276 25.276c-.132 0-.289.031-.468.094v-.688c.125-.062.25-.105.375-.125.117-.02.25-.03.406-.03.312 0 .543.077.687.234.137.156.203.394.203.718v1.14h.344v.392l-.422.296-.25.579h-.625v-.563h-.672v-.703h.672v-1.078c0-.18-.082-.266-.25-.266zM19.687 25.964c0-.461.125-.813.375-1.063.242-.25.578-.375 1.015-.375.418 0 .75.125 1 .375.25.258.375.613.375 1.063 0 .445-.117.797-.36 1.047-.25.25-.593.375-1.03.375a1.38 1.38 0 0 1-.72-.188 1.22 1.22 0 0 1-.484-.5 1.522 1.522 0 0 1-.171-.734zm1.796 0c0-.243-.03-.422-.093-.547-.063-.125-.172-.188-.328-.188a.324.324 0 0 0-.313.188c-.062.125-.094.304-.094.547 0 .226.032.398.094.515.063.125.172.188.328.188.149 0 .25-.063.313-.188.062-.117.093-.289.093-.515zM16.996 24.526c.2 0 .371.05.516.156.148.114.262.282.344.5.086.22.125.473.125.766 0 .445-.086.797-.266 1.047a.886.886 0 0 1-.75.39.843.843 0 0 1-.406-.093.915.915 0 0 1-.313-.313h-.031a4.3 4.3 0 0 1 .047.64v.735h-.953v-3.781h.719l.203.344h.03c.169-.262.415-.39.735-.39zm-.39.75c-.145 0-.25.047-.313.14-.062.095-.098.243-.11.454v.062c0 .25.04.426.11.532a.383.383 0 0 0 .328.156c.125 0 .227-.063.297-.188.063-.117.094-.28.094-.5 0-.21-.031-.37-.094-.484a.34.34 0 0 0-.312-.172zM13.322 24.526c.46 0 .82.117 1.078.36.25.25.375.597.375 1.046 0 .47-.117.829-.36 1.079-.238.25-.57.375-1 .375-.414 0-.738-.11-.968-.329-.227-.218-.344-.53-.344-.937v-.422h1.703a.515.515 0 0 0-.172-.375c-.101-.086-.25-.125-.437-.125-.164 0-.317.016-.453.047a1.672 1.672 0 0 0-.454.172v-.688a1.21 1.21 0 0 1 .47-.156c.155-.031.343-.047.562-.047zm.047 2.203c.117 0 .214-.039.296-.11.075-.062.118-.171.125-.327h-.828a.508.508 0 0 0 .125.312.365.365 0 0 0 .282.125zm0 0"/><g><path d="m33.154 17.926.171.672h1.157l.172-.672h1.062l-1.156 3.578h-1.281l-1.188-3.578zm.375 1.453.14.594c.043.125.09.29.14.5.056.207.087.352.095.438.023-.086.054-.22.093-.407.043-.187.137-.562.282-1.125zM30.815 17.926h.953v3.781h-.953zM28.813 18.63c-.133 0-.289.03-.469.093v-.687c.125-.063.25-.106.375-.125.118-.02.25-.032.407-.032.312 0 .543.078.687.235.137.156.203.394.203.718v1.141h.344v.39l-.422.298-.25.578h-.625v-.563h-.672v-.703h.672v-1.078c0-.18-.082-.266-.25-.266zM26.067 17.926l.188.36h.015c.125-.157.258-.266.39-.329.138-.05.31-.078.517-.078.261 0 .464.078.609.235.148.156.219.375.219.656 0 .289-.098.508-.297.656-.207.145-.504.223-.89.235l-.454.015v.047c0 .227.11.344.328.344.2 0 .453-.07.766-.203l.281.625c-.32.164-.727.25-1.219.25-.351 0-.625-.09-.812-.266-.196-.18-.297-.422-.297-.734v-1.813zm.703.625a.437.437 0 0 0-.297.11.353.353 0 0 0-.125.28v.22l.22-.016c.312-.012.468-.125.468-.344 0-.168-.086-.25-.266-.25zM21.367 17.926v1.5c0 .188.028.328.079.422.054.094.136.14.25.14a.35.35 0 0 0 .328-.187c.062-.125.093-.324.093-.594v-1.28h.954v1.5c0 .187.027.327.078.421.043.094.12.14.234.14.148 0 .258-.07.328-.202.063-.137.094-.356.094-.657v-1.203h.953v2.75h-.719l-.125-.328h-.047a.665.665 0 0 1-.312.281 1.09 1.09 0 0 1-.484.11c-.395 0-.672-.125-.829-.375h-.078a.818.818 0 0 1-.328.265.96.96 0 0 1-.453.11c-.332 0-.578-.086-.734-.25-.157-.168-.235-.422-.235-.766v-1.797zM18.82 17.926h.953v2.75h-.953zm.969 3.438c0 .144-.036.254-.11.328-.082.07-.21.11-.39.11-.176 0-.305-.04-.391-.11-.082-.074-.125-.184-.125-.328 0-.274.172-.407.516-.407.335 0 .5.133.5.407zM16.48 20.739a.917.917 0 0 1-.234-.032h-.047l.078-.906c.086.02.195.031.328.031.21 0 .36-.046.453-.14.094-.094.14-.23.14-.406v-1.36h.954v2.75h-.703l-.157-.437h-.046a.875.875 0 0 1-.329.36.794.794 0 0 1-.437.14zM14.016 17.926l.187.36h.016c.125-.157.258-.266.39-.329.137-.05.309-.078.516-.078.262 0 .465.078.61.235.148.156.218.375.218.656 0 .289-.097.508-.297.656-.207.145-.504.223-.89.235l-.453.015v.047c0 .227.109.344.328.344.199 0 .453-.07.765-.203l.282.625c-.32.164-.727.25-1.22.25-.35 0-.624-.09-.812-.266-.195-.18-.297-.422-.297-.734v-1.813zm.703.625a.437.437 0 0 0-.297.11.353.353 0 0 0-.125.28v.22l.219-.016c.312-.012.468-.125.468-.344 0-.168-.085-.25-.265-.25zm0 0"/></g><g><path d="m31 7.673-.133.004-.067.11-.015.12-.051.121-.137.086-.281.02-.266.082-.586.32-.254.309-.12.254-.079.277.027.527.04.133.105.23.121.16.27.2.113.043.262.121.132.04.122.007.12.02.141.03.133.028.14.074.055.141.012.113v.14l-.012.142.012.12-.07.11-.156.027-.122-.07-.105-.098-.11-.12-.132-.075-.133-.027-.383.02-.242-.028-.133.074-.047.14.008.13.086.289.066.117.168.21.215.192.489.262.394.066.137.082.058.149.012.113.063.106.132.015.082-.12-.02-.13.075-.097.207-.118.195-.02.118-.046.12-.027.122-.051.113-.082.121-.059.281-.254.16-.238.063-.125.086-.371.008-.2-.04-.347-.027-.129-.113-.262-.074-.105-.188-.176-.23-.152-.238-.11-.418-.105-.114-.008-.148-.094-.059-.148-.02-.379.067-.129.133-.02.113.055.11.07.18.188.214.074.196.016h.113l.129.012.14-.028h.125l.133-.066.051-.148-.055-.254-.054-.114-.047-.132-.086-.094-.067-.113-.093-.11-.11-.078-.574-.309-.285-.074h-.117l-.137-.082-.074-.14.008-.114zm.261 3.344.16.082.13.117.01.187-.03.188-.075.098-.082.066-.125.05-.12-.023-.048-.175-.02-.317.005-.12.074-.099zm-.656-1.828.121.046.074.106-.008.148.012.125-.012.141-.074.102-.133.062-.129-.035-.113-.055-.101-.074-.051-.172.05-.203.094-.094zm0 0"/></g><g><path d="m28.227 8.15-.157.02-1.714-.017-.106.016-.812-.016-.133.075-.055.132-.016.13.016.132-.02.137.004.266.055.148.23.055.844.007.16.04v.105l-.074.129-.32.43-.102.113-.058.101-.39.547-.04.141-.12.258-.056.258v.128l.055.403.246.46.09.102.098.094.355.223.113.058.196.04.437.042.32-.02.254-.07.243-.105.12-.082.29-.281.058-.106.168-.39.008-.133.027-.133-.07-.121-.117-.074-.66-.008-.125.062-.082.122-.047.113-.106.086-.101.047-.195.015-.18-.015-.094-.075-.082-.113-.02-.14.008-.122.036-.132.078-.188.11-.168.105-.101.214-.36.32-.445.063-.113.246-.329.067-.132.09-.094.05-.121.094-.11.07-.105.067-.129.097-.098.164-.23.067-.16-.027-.149zm0 0"/></g><g><path d="m22.963 8.087-.22-.012-.253.02-.316.066-.25.094-.368.2-.093.1-.227.31-.14.25-.063.245-.02 2.137.055.278.059.125.047.136.12.207.102.106.059.101.11.094.355.203.113.051.14.047.254.055.532.02.535-.114.121-.047.105-.074.13-.067.199-.175.09-.098.097-.094.063-.11.054-.12.16-.516.004-.395-.023-.148.031-.394-.027-.133.02-.137-.02-.133-.004-.812-.07-.254-.067-.121-.047-.114-.168-.207-.086-.101-.105-.094-.121-.066-.094-.075-.137-.074-.359-.113zm-.414 1.094.214-.028.2.02.14.047.094.062.082.106.047.133.055.207v1.562l-.036.195-.066.13-.086.093-.223.121-.41.004-.125-.047-.113-.078-.074-.11-.047-.12-.035-.192-.028-.324.028-.527-.028-.121.024-.137.004-.133-.02-.113.008-.203.031-.207.043-.121.098-.106.101-.066zm0 0"/></g><g><path d="m18.66 8.087-.219-.012-.254.02-.316.066-.25.094-.368.2-.093.1-.227.31-.14.25-.063.245-.02 2.137.055.278.059.125.047.136.12.207.102.106.059.101.11.094.355.203.113.051.14.047.255.055.53.02.536-.114.121-.047.106-.074.128-.067.2-.175.09-.098.097-.094.063-.11.054-.12.16-.516.004-.395-.023-.148.031-.394-.027-.133.02-.137-.02-.133-.004-.812-.07-.254-.067-.121-.047-.114-.168-.207-.086-.101-.105-.094-.121-.066-.094-.075-.137-.074-.359-.113zm-.414 1.094.215-.028.199.02.14.047.094.062.082.106.047.133.055.207v1.562l-.035.195-.067.13-.086.093-.222.121-.41.004-.126-.047-.113-.078-.074-.11-.047-.12-.035-.192-.027-.324.027-.527-.027-.121.023-.137.004-.133-.02-.113.008-.203.031-.207.043-.121.098-.106.102-.066zm0 0"/></g></svg>