<svg xmlns="http://www.w3.org/2000/svg" width="65" viewBox="0 0 48.75 92.25" height="123" version="1.0"><defs><clipPath id="y"><path d="M8 53h1.387v5H8zm0 0"/></clipPath><clipPath id="a"><path d="M.074 0H48.43v91.508H.074zm0 0"/></clipPath><clipPath id="c"><path d="M6.543 32.3H16v37.153H6.543zm0 0"/></clipPath><clipPath id="d"><path d="M6.543 62H16v7.453H6.543zm0 0"/></clipPath><clipPath id="e"><path d="M5.96 56.086c.192-1.48.481-2.66.876-3.086 1.34-1.434 1.297-1.332 1.34-2.055.047-.722.258-8.207.3-9.148.047-.942.649-5.836.47-7.137-.176-1.3 1.292-1.703 2.187-2.11.89-.402 2.449-.269 2.941 0 .09.048.145.11.176.169.129.289-.215.68.004.863.266.223.887-.36 1.383.223.488.582.433 1.504-.59 2.222-1.027.72-1.426 1.528-1.559 2.153-.062.28.903 3.43 1.121 6.617.274 3.965.215 8.23.293 8.625.133.719.239.437.778 2.195.113.371.203 1.067.258 1.953.199 3.282-.043 9.172-1.063 11.133-.477.926-3.207.883-4.68.258-1.472-.629-3.48-1.93-4.144-3.23-.473-.918-.551-6.133-.09-9.645zm0 0"/></clipPath><clipPath id="f"><path d="M6.543 32.3H16v32.274H6.543zm0 0"/></clipPath><clipPath id="g"><path d="M5.96 56.086c.192-1.48.481-2.66.876-3.086 1.34-1.434 1.297-1.332 1.34-2.055.047-.722.258-8.207.3-9.148.047-.942.649-5.836.47-7.137-.176-1.3 1.292-1.703 2.187-2.11.89-.402 2.449-.269 2.941 0 .09.048.145.11.176.169.129.289-.215.68.004.863.266.223.887-.36 1.383.223.488.582.433 1.504-.59 2.222-1.027.72-1.426 1.528-1.559 2.153-.062.28.903 3.43 1.121 6.617.274 3.965.215 8.23.293 8.625.133.719.239.437.778 2.195.113.371.203 1.067.258 1.953.199 3.282-.043 9.172-1.063 11.133-.477.926-3.207.883-4.68.258-1.472-.629-3.48-1.93-4.144-3.23-.473-.918-.551-6.133-.09-9.645zm0 0"/></clipPath><clipPath id="h"><path d="M8 67h5v6.695H8zm0 0"/></clipPath><clipPath id="i"><path d="M8 71.61h4.086v2.085H8zm0 0"/></clipPath><clipPath id="j"><path d="M11.617 73.434c.574-.532 1-1.368 1.067-2.266.066-.902.066-2.234-.465-2.93-.535-.691-2.106-.941-3.04-.175-.933.761-1.644 3.933-.62 5.046 1.023 1.118 2.574.778 3.058.325zm0 0"/></clipPath><clipPath id="k"><path d="M8 68h4.738v5H8zm0 0"/></clipPath><clipPath id="l"><path d="M11.617 73.434c.574-.532 1-1.368 1.067-2.266.066-.902.066-2.234-.465-2.93-.535-.691-2.106-.941-3.04-.175-.933.761-1.644 3.933-.62 5.046 1.023 1.118 2.574.778 3.058.325zm0 0"/></clipPath><clipPath id="m"><path d="M6.543 32.3h7.781v23.833H6.543zm0 0"/></clipPath><clipPath id="n"><path d="M.074 32.3H9.38v37.153H.074zm0 0"/></clipPath><clipPath id="o"><path d="M.074 62H9.38v7.453H.074zm0 0"/></clipPath><clipPath id="p"><path d="M-.664 56.086c.191-1.48.48-2.66.879-3.086 1.336-1.434 1.293-1.332 1.336-2.055.047-.722.258-8.207.3-9.148.047-.942.649-5.836.47-7.137-.176-1.3 1.292-1.703 2.187-2.11.89-.402 2.449-.269 2.941 0 .09.048.145.11.176.169.133.289-.215.68.004.863.27.223.89-.36 1.383.223.488.582.433 1.504-.59 2.222-1.024.72-1.426 1.528-1.559 2.153-.062.28.903 3.43 1.125 6.617.27 3.965.215 8.23.29 8.625.132.719.242.437.777 2.195.113.371.203 1.067.258 1.953.203 3.282-.043 9.172-1.06 11.133-.476.926-3.21.883-4.683.258-1.468-.629-3.476-1.93-4.144-3.23-.473-.918-.551-6.133-.09-9.645zm0 0"/></clipPath><clipPath id="q"><path d="M.074 32.3H9.38v32.274H.074zm0 0"/></clipPath><clipPath id="r"><path d="M-.664 56.086c.191-1.48.48-2.66.879-3.086 1.336-1.434 1.293-1.332 1.336-2.055.047-.722.258-8.207.3-9.148.047-.942.649-5.836.47-7.137-.176-1.3 1.292-1.703 2.187-2.11.89-.402 2.449-.269 2.941 0 .09.048.145.11.176.169.133.289-.215.68.004.863.27.223.89-.36 1.383.223.488.582.433 1.504-.59 2.222-1.024.72-1.426 1.528-1.559 2.153-.062.28.903 3.43 1.125 6.617.27 3.965.215 8.23.29 8.625.132.719.242.437.777 2.195.113.371.203 1.067.258 1.953.203 3.282-.043 9.172-1.06 11.133-.476.926-3.21.883-4.683.258-1.468-.629-3.476-1.93-4.144-3.23-.473-.918-.551-6.133-.09-9.645zm0 0"/></clipPath><clipPath id="s"><path d="M1 67h6v6.695H1zm0 0"/></clipPath><clipPath id="t"><path d="M1.355 71.61h4.106v2.085H1.355zm0 0"/></clipPath><clipPath id="u"><path d="M4.996 73.434c.57-.532.996-1.368 1.063-2.266.07-.902.066-2.234-.465-2.93-.532-.691-2.106-.941-3.04-.175-.933.761-1.644 3.933-.62 5.046 1.023 1.118 2.574.778 3.062.325zm0 0"/></clipPath><clipPath id="v"><path d="M1.355 68h4.758v5H1.355zm0 0"/></clipPath><clipPath id="w"><path d="M4.996 73.434c.57-.532.996-1.368 1.063-2.266.07-.902.066-2.234-.465-2.93-.532-.691-2.106-.941-3.04-.175-.933.761-1.644 3.933-.62 5.046 1.023 1.118 2.574.778 3.062.325zm0 0"/></clipPath><clipPath id="x"><path d="M.074 32.3H7.7v23.833H.074zm0 0"/></clipPath><clipPath id="b"><path d="M.074 75.121H48.43v16.387H.074zm0 0"/></clipPath><clipPath id="z"><path d="M31.723 30.805h9.308v37.152h-9.308zm0 0"/></clipPath><clipPath id="A"><path d="M31.723 60.453h9.308v7.504h-9.308zm0 0"/></clipPath><clipPath id="B"><path d="M41.766 54.59c-.196-1.48-.485-2.66-.88-3.086-1.34-1.43-1.292-1.332-1.34-2.055-.042-.722-.257-8.207-.3-9.148-.043-.942-.648-5.836-.469-7.137.176-1.3-1.293-1.703-2.187-2.11-.89-.402-2.45-.269-2.938 0a.426.426 0 0 0-.18.173c-.128.285.215.68 0 .863-.269.219-.89-.363-1.386.219-.488.586-.434 1.504.59 2.222 1.027.719 1.426 1.528 1.562 2.153.059.28-.906 3.43-1.125 6.617-.273 3.965-.215 8.23-.293 8.625-.129.719-.238.437-.777 2.195-.113.375-.203 1.07-.258 1.953-.2 3.281.043 9.176 1.063 11.137.476.922 3.207.883 4.683.254 1.469-.63 3.477-1.93 4.14-3.23.474-.915.556-6.133.095-9.645zm0 0"/></clipPath><clipPath id="C"><path d="M31.723 30.805h9.308v32.273h-9.308zm0 0"/></clipPath><clipPath id="D"><path d="M41.766 54.59c-.196-1.48-.485-2.66-.88-3.086-1.34-1.43-1.292-1.332-1.34-2.055-.042-.722-.257-8.207-.3-9.148-.043-.942-.648-5.836-.469-7.137.176-1.3-1.293-1.703-2.187-2.11-.89-.402-2.45-.269-2.938 0a.426.426 0 0 0-.18.173c-.128.285.215.68 0 .863-.269.219-.89-.363-1.386.219-.488.586-.434 1.504.59 2.222 1.027.719 1.426 1.528 1.562 2.153.059.28-.906 3.43-1.125 6.617-.273 3.965-.215 8.23-.293 8.625-.129.719-.238.437-.777 2.195-.113.375-.203 1.07-.258 1.953-.2 3.281.043 9.176 1.063 11.137.476.922 3.207.883 4.683.254 1.469-.63 3.477-1.93 4.14-3.23.474-.915.556-6.133.095-9.645zm0 0"/></clipPath><clipPath id="E"><path d="M35 66h5v6.2h-5zm0 0"/></clipPath><clipPath id="F"><path d="M35.64 70.113h4.102V72.2h-4.101zm0 0"/></clipPath><clipPath id="G"><path d="M36.105 71.938c-.574-.532-.996-1.364-1.066-2.266-.066-.902-.066-2.234.469-2.93.531-.691 2.101-.937 3.035-.176.934.762 1.645 3.934.621 5.051-1.02 1.113-2.57.774-3.059.32zm0 0"/></clipPath><clipPath id="H"><path d="M35 66.457h4.742v5.063H35zm0 0"/></clipPath><clipPath id="I"><path d="M36.105 71.938c-.574-.532-.996-1.364-1.066-2.266-.066-.902-.066-2.234.469-2.93.531-.691 2.101-.937 3.035-.176.934.762 1.645 3.934.621 5.051-1.02 1.113-2.57.774-3.059.32zm0 0"/></clipPath><clipPath id="J"><path d="M33.402 30.805h7.63v23.832h-7.63zm0 0"/></clipPath><clipPath id="K"><path d="M31.715 51H33v6h-1.285zm0 0"/></clipPath><clipPath id="L"><path d="M39.36 30.84h9.07v37.152h-9.07zm0 0"/></clipPath><clipPath id="M"><path d="M39.36 60.488h9.07v7.504h-9.07zm0 0"/></clipPath><clipPath id="N"><path d="M49.398 54.625c-.191-1.48-.48-2.66-.875-3.082-1.34-1.434-1.293-1.336-1.34-2.055-.042-.726-.257-8.21-.3-9.152-.043-.941-.649-5.836-.469-7.137.176-1.3-1.293-1.703-2.187-2.11-.891-.401-2.45-.265-2.938 0a.426.426 0 0 0-.18.173c-.129.285.215.68 0 .863-.27.223-.89-.363-1.386.223-.489.582-.434 1.504.59 2.218 1.027.72 1.425 1.528 1.562 2.153.059.281-.906 3.43-1.125 6.62-.273 3.966-.215 8.227-.293 8.626-.129.715-.238.433-.777 2.191-.114.375-.203 1.07-.258 1.953-.2 3.282.043 9.176 1.062 11.137.477.922 3.207.883 4.684.254 1.469-.629 3.477-1.93 4.14-3.23.473-.915.551-6.133.09-9.645zm0 0"/></clipPath><clipPath id="O"><path d="M39.36 30.84h9.07v32.273h-9.07zm0 0"/></clipPath><clipPath id="P"><path d="M49.398 54.625c-.191-1.48-.48-2.66-.875-3.082-1.34-1.434-1.293-1.336-1.34-2.055-.042-.726-.257-8.21-.3-9.152-.043-.941-.649-5.836-.469-7.137.176-1.3-1.293-1.703-2.187-2.11-.891-.401-2.45-.265-2.938 0a.426.426 0 0 0-.18.173c-.129.285.215.68 0 .863-.27.223-.89-.363-1.386.223-.489.582-.434 1.504.59 2.218 1.027.72 1.425 1.528 1.562 2.153.059.281-.906 3.43-1.125 6.62-.273 3.966-.215 8.227-.293 8.626-.129.715-.238.433-.777 2.191-.114.375-.203 1.07-.258 1.953-.2 3.282.043 9.176 1.062 11.137.477.922 3.207.883 4.684.254 1.469-.629 3.477-1.93 4.14-3.23.473-.915.551-6.133.09-9.645zm0 0"/></clipPath><clipPath id="Q"><path d="M42 66h6v6.234h-6zm0 0"/></clipPath><clipPath id="R"><path d="M43.277 70.148h4.102v2.086h-4.102zm0 0"/></clipPath><clipPath id="S"><path d="M43.742 71.973c-.574-.532-.996-1.364-1.066-2.266-.067-.898-.067-2.234.469-2.926.53-.695 2.101-.941 3.035-.18.933.762 1.644 3.934.62 5.051-1.019 1.114-2.573.774-3.058.32zm0 0"/></clipPath><clipPath id="T"><path d="M42.621 66.492h4.758v5.063H42.62zm0 0"/></clipPath><clipPath id="U"><path d="M43.742 71.973c-.574-.532-.996-1.364-1.066-2.266-.067-.898-.067-2.234.469-2.926.53-.695 2.101-.941 3.035-.18.933.762 1.644 3.934.62 5.051-1.019 1.114-2.573.774-3.058.32zm0 0"/></clipPath><clipPath id="V"><path d="M41.04 30.84h7.39v23.832h-7.39zm0 0"/></clipPath><clipPath id="W"><path d="M39.352 51H41v6h-1.648zm0 0"/></clipPath></defs><g clip-path="url(#a)" fill="#fff"><path d="M.074 0h48.602v91.977H.074zm0 0"/><path d="M.074 0h48.602v91.977H.074zm0 0"/></g><g clip-path="url(#b)"><path fill="#f64068" d="M-24.004 91.832V75.188h124.215v16.644zm0 0"/></g><path d="M41.234 81.871h-.551l-.41.098-.387.2-.172.128-.082.09-.082.066-.066.075-.055.093-.051.102-.062.074-.114.324-.043.207-.004.094-.023.102v.11l-.012.1.012.212.055.09.105.058.113.004.118.016.738-.016.332.023.207-.02.11-.054.05-.101v-.524l-.05-.086-.098-.062-.16-.008-.274.02-.098-.016-.082-.04-.02-.093.056-.094.082-.09.078-.062.18-.07.214-.051.145-.004.277.031.297.121.164.153.063.078.101.199.047.156.027.176.004.32-.039.211-.086.2-.172.257-.191.137-.094.05-.105.009-.09.046-.336.008-.203-.054-.106-.043-.101-.07-.067-.071-.07-.094-.117-.094-.133-.039-.168-.003-.164.019-.266-.016-.136.063-.032.09.079.226.046.098.22.32.12.098.09.082.082.066.383.204.113.019.258.074.512.02.11-.004.093-.035.105-.004.422-.153.301-.187.242-.215.07-.086.083-.082.058-.082.203-.414.102-.543.004-.172-.028-.386-.152-.516-.102-.184-.125-.187-.218-.23-.18-.126-.379-.222-.094-.028-.312-.054zM37.318 81.883l-.265-.023-.274.011-.219.051-.113.043-.11.027-.09.055-.097.043-.09.063-.246.218-.058.098-.07.082-.036.11-.054.093-.04.106-.039.55.02.446-.024.117v.098l.024.109.004.105-.012.114.008.152-.012.172.004.121-.016.102.016.113-.004.441.016.094.043.121.176.05.515.005.121-.051.055-.117-.004-.54.008-.109-.004-.214.012-.114-.016-.117.016-.433-.024-.098.012-.121-.004-.196.008-.109-.004-.281.023-.176.047-.105.051-.075.086-.082.223-.074.144-.008.184.008.097.027.122.063.082.07.066.078.031.114.012.965.016.109.007.34-.011.101v.438l.015.16v.102l-.027.164v.117l.062.105.13.047.577.008.11-.063.047-.109v-.328l.027-.094-.02-.23.016-.207-.027-.328.023-.106-.02-.121.012-.105-.003-.11.011-.101-.02-.223.009-.395-.016-.156v-.117l-.035-.11-.016-.105-.035-.101-.11-.188-.148-.18-.07-.074-.184-.11-.086-.066-.101-.043-.13-.039-.081-.043-.117-.004zM35.081 82.075l-.027-.118-.11-.027h-.484l-.14-.016-.13.055-.097.098-.094.187-.093.106-.13.054-.109-.011-.308.007-.118-.02-.125.02h-.097l-.117-.011-.258.011-.18-.062-.113-.086-.027-.102-.063-.097-.094-.086-.14-.055-.098.008-.195-.016-.34.012-.098.031-.02.118.032.136.039.098.07.094.032.109.054.082.035.106.094.195.04.105.054.094.074.203.063.086.043.11.05.093.035.11.051.082.032.113.062.098.043.093.055.094.027.102.11.191.035.106.097.207.028.09.082.19.109.204.09.207.047.082.035.105.097.106.188.047.176-.055.101-.098.035-.097.235-.496.058-.098.309-.691.027-.094.063-.098.086-.195.082-.145.039-.105.078-.14.031-.118.051-.086.035-.11.156-.284.157-.403.066-.086.05-.109zm-1.695 1.207.105.043.016.109-.219.5-.05.086-.07.055-.067-.043-.07-.215-.063-.094-.02-.086-.054-.11-.04-.097.012-.102.09-.043zM27.936 82.012l-.16-.07-.14-.043-.13.058-.046.118-.028 1.492.02.152-.012.121.023.656-.015.223.012.102v.218l-.024.11.012.168-.012.285.067.098.12.054.11.012h.102l.12-.012.118.016.097-.012.11.008.133-.055.054-.117.004-.996-.02-.117v-.102l.02-.117-.004-.219.028-.09.078.024.238.246.082.066.195.2.086.062.059.078.117.121.168.14.063.087.105.07.055.082.09.067.074.093.297.301.218.149.149.043.129-.067.074-.105-.012-.766.012-.11-.02-.226.012-.098-.004-.117.016-.113-.023-.785.011-.098v-.105l.012-.121v-.102l-.016-.117.004-.223-.011-.11.019-.21-.02-.11v-.101l-.046-.121-.106-.063-.187.012-.274-.016-.113.016-.129-.012-.11.055-.046.11.015.109-.015 1.344.02.117-.055.066-.07-.02-.786-.765-.086-.07-.531-.535-.074-.086-.086-.07-.067-.083zM26.965 82.075l-.027-.118-.11-.027h-.484l-.14-.016-.13.055-.097.098-.094.187-.093.106-.13.054-.109-.011-.308.007-.117-.02-.125.02h-.098l-.117-.011-.258.011-.18-.062-.113-.086-.027-.102-.063-.097-.094-.086-.14-.055-.098.008-.195-.016-.34.012-.098.031-.02.118.032.136.04.098.07.094.03.109.055.082.036.106.093.195.04.105.054.094.074.203.063.086.043.11.05.093.036.11.05.082.032.113.062.098.043.093.055.094.027.102.11.191.035.106.097.207.028.09.082.19.11.204.089.207.047.082.035.105.098.106.187.047.176-.055.101-.098.036-.097.234-.496.059-.098.308-.691.028-.094.062-.098.086-.195.082-.145.04-.105.077-.14.031-.118.051-.086.035-.11.157-.284.156-.403.066-.086.051-.109zm-1.695 1.207.106.043.015.109-.218.5-.051.086-.07.055-.067-.043-.07-.215-.063-.094-.02-.086-.054-.11-.04-.097.013-.102.09-.043zM21.668 81.867l-.328-.011-.336.066-.309.125-.195.121-.293.328-.063.098-.046.106-.008.093-.047.102-.031 1.316.011.102-.02.11.009.753.015.106-.015.214.011.106.055.101.098.067.105-.012.13.008.276-.02.329.02.175-.012.157.016.171-.016.11.012.113-.066.05-.11.009-.219-.012-.093.012-.118v-.12l-.051-.098-.125-.059-.102.004-.343-.004-.106-.062-.058-.11-.012-.215.023-.109-.023-.234.015-.106.008-.125-.02-.11.028-.769.035-.101.07-.082.098-.067.09-.043.18-.008.164.016.094.04.078.054.074.082.047.11.043.148v.215l-.012.085.066.16.125.051.098-.011.473-.004.11-.047.054-.098-.008-.11.016-.093.011-.152-.011-.176-.016-.098-.047-.105-.031-.11-.09-.207-.195-.253-.078-.079-.082-.062-.106-.047-.09-.059-.11-.042zM18.016 81.883l-.266-.023-.273.011-.22.051-.112.043-.11.027-.09.055-.097.043-.09.063-.246.218-.059.098-.07.082-.035.11-.055.093-.04.106-.038.55.02.446-.024.117v.098l.023.109.004.105-.011.114.007.152-.011.172.004.121-.016.102.016.113-.004.441.015.094.043.121.176.05.516.005.12-.051.055-.117-.003-.54.007-.109-.004-.214.012-.114-.015-.117.015-.433-.023-.098.011-.121-.003-.196.007-.109-.004-.281.024-.176.047-.105.05-.075.086-.082.223-.074.145-.008.183.008.098.027.121.063.082.07.066.078.032.114.011.965.016.109.008.34-.012.101v.438l.016.16v.102l-.028.164v.117l.063.105.129.047.578.008.11-.063.046-.109v-.328l.028-.094-.02-.23.016-.207-.028-.328.024-.106-.02-.121.012-.105-.004-.11.012-.101-.02-.223.008-.395-.016-.156v-.117l-.035-.11-.015-.105-.036-.101-.109-.188-.148-.18-.07-.074-.184-.11-.086-.066-.102-.043-.129-.039-.082-.043-.117-.004zM15.779 82.075l-.028-.118-.109-.027h-.484l-.14-.016-.13.055-.098.098-.093.187-.094.106-.129.054-.11-.011-.308.007-.117-.02-.125.02h-.098L13.6 82.4l-.258.011-.18-.062-.113-.086-.027-.102-.063-.097-.093-.086-.14-.055-.099.008-.195-.016-.34.012-.097.031-.02.118.031.136.04.098.07.094.031.109.055.082.035.106.094.195.039.105.054.094.075.203.062.086.043.11.05.093.036.11.05.082.032.113.062.098.043.093.055.094.027.102.11.191.035.106.098.207.027.09.082.19.11.204.09.207.046.082.035.105.098.106.187.047.176-.055.102-.098.035-.097.234-.496.059-.098.308-.691.028-.094.062-.098.086-.195.082-.145.04-.105.077-.14.032-.118.05-.086.036-.11.156-.284.156-.403.067-.086.05-.109zm-1.696 1.207.106.043.016.109-.22.5-.05.086-.07.055-.067-.043-.07-.215-.063-.094-.019-.086-.055-.11-.039-.097.012-.102.09-.043zM10.813 82.098l-.043-.117-.113-.055-.105.012-.11-.012-.105.012h-.34l-.11.043-.042.11.003.105-.007.125.004.218.015.094-.015.117-.012.332.012.098-.016.23.02 1.094-.016.11.012.12-.043.098-.122.051-.093.004-.11-.004-.097.008-.305-.004-.125.05-.055.11.012.113-.012.45.055.109.11.055.132-.008.086.008h.106l.12-.016h.11l.11.012h.109l.125-.016 1.637.012.12-.055.055-.11.004-.55-.058-.121-.11-.055-.144.016-.489-.004-.097-.059-.055-.105-.016-.602.016-.171-.012-.106.012-.11v-.218l-.016-.16.02-.164-.004-.11.004-.113-.016-.336.012-.11zM6.752 81.86l-.309.007-.328.043-.41.137-.18.098-.086.066-.101.051-.157.129-.07.101-.074.075-.242.367-.082.21-.043.208-.008.098-.027.109-.004.117-.024.16.016.274.039.222.137.414.105.2.121.168.153.168.16.136.125.09.164.07.082.059.422.133.32.055.148.007.579-.086.414-.152.082-.059.097-.05.188-.137.27-.313.167-.289.082-.21.094-.422.016-.446-.016-.113-.027-.098-.012-.105-.047-.207-.254-.5-.066-.067-.07-.086-.082-.078-.063-.07-.18-.144-.425-.22-.16-.054-.122-.012-.199-.043zm-.309.972h.305l.117.016.2.082.085.05.149.118.074.078.074.106.027.085.051.098.043.203v.336l-.027.098-.016.105-.043.098-.035.102-.129.171-.277.188-.07.027-.215.055-.153.012-.261-.032-.102-.023-.098-.043-.168-.121-.214-.227-.067-.207-.05-.105-.016-.098.012-.336.042-.203.04-.098.062-.097.031-.082.078-.09.262-.18.098-.027.082-.04zm0 0" fill="#fff"/><path d="m38.494 22.835.734 2.562h.016a15.302 15.302 0 0 1-.047-1.015v-1.547h.843v3.562h-1.28l-.735-2.531h-.016l-.734 2.531h-1.281v-3.562h.89v1.828c-.008.101-.023.347-.047.734h.032l.718-2.562zM33.315 22.835l.125.343h.046a.878.878 0 0 1 .344-.296c.137-.063.305-.094.5-.094.305 0 .54.086.703.265.168.176.25.426.25.75v1.782h-.953v-1.5c0-.18-.02-.313-.062-.407-.051-.093-.14-.14-.266-.14a.37.37 0 0 0-.344.187c-.07.133-.11.352-.11.657v1.203h-.952v-2.75zM29.819 23.678c0-.293.101-.515.297-.671.199-.149.484-.22.859-.22.21 0 .39.013.547.032.148.02.297.063.453.125v.75a2.611 2.611 0 0 0-.484-.156 1.989 1.989 0 0 0-.47-.063c-.206 0-.312.047-.312.14 0 .052.032.095.094.126.055.039.219.117.5.234.25.102.43.219.531.344.094.133.14.305.14.516 0 .25-.097.445-.296.593-.195.145-.473.22-.828.22-.188 0-.36-.024-.516-.063a5.102 5.102 0 0 1-.5-.172l.266-.625c.125.062.262.11.406.14.137.04.246.063.328.063.157 0 .235-.04.235-.11 0-.042-.024-.085-.078-.124a4.024 4.024 0 0 0-.47-.204 1.483 1.483 0 0 1-.437-.234.665.665 0 0 1-.203-.266 1.076 1.076 0 0 1-.062-.375zM27.957 22.788c.461 0 .82.117 1.079.36.25.25.375.597.375 1.046 0 .469-.118.828-.36 1.078-.238.25-.57.375-1 .375-.414 0-.738-.11-.969-.328-.226-.219-.343-.531-.343-.937v-.422h1.703a.515.515 0 0 0-.172-.375c-.102-.086-.25-.125-.438-.125-.164 0-.316.015-.453.047a1.672 1.672 0 0 0-.453.171v-.687a1.21 1.21 0 0 1 .469-.156c.156-.032.344-.047.562-.047zm.047 2.203c.118 0 .215-.04.297-.11.074-.062.117-.171.125-.328h-.828a.508.508 0 0 0 .125.313.365.365 0 0 0 .281.125zM23.563 24.225c0-.46.125-.812.375-1.062.243-.25.578-.375 1.016-.375.418 0 .75.125 1 .375.25.258.375.613.375 1.062 0 .446-.117.797-.36 1.047-.25.25-.593.375-1.03.375a1.38 1.38 0 0 1-.72-.187 1.22 1.22 0 0 1-.484-.5 1.522 1.522 0 0 1-.172-.735zm1.797 0c0-.242-.031-.422-.094-.547-.062-.125-.171-.187-.328-.187a.324.324 0 0 0-.312.187c-.063.125-.094.305-.094.547 0 .227.031.399.094.516.062.125.172.187.328.187.148 0 .25-.062.312-.187.063-.117.094-.29.094-.516zM20.873 22.788c.2 0 .371.05.516.156.148.113.261.281.343.5.086.219.125.473.125.766 0 .445-.086.797-.265 1.047a.886.886 0 0 1-.75.39.843.843 0 0 1-.406-.094.915.915 0 0 1-.313-.312h-.031a4.3 4.3 0 0 1 .047.64v.735h-.953v-3.781h.718l.203.343h.032c.168-.261.414-.39.734-.39zm-.39.75c-.145 0-.25.047-.313.14-.063.094-.098.243-.11.454v.062c0 .25.04.426.11.531a.383.383 0 0 0 .328.157c.125 0 .227-.063.297-.188.062-.117.094-.281.094-.5 0-.21-.032-.371-.094-.484a.34.34 0 0 0-.313-.172zM17.199 22.788c.46 0 .82.117 1.078.36.25.25.375.597.375 1.046 0 .469-.118.828-.36 1.078-.238.25-.57.375-1 .375-.414 0-.738-.11-.968-.328-.227-.219-.344-.531-.344-.937v-.422h1.703a.515.515 0 0 0-.172-.375c-.102-.086-.25-.125-.437-.125-.165 0-.317.015-.454.047a1.672 1.672 0 0 0-.453.171v-.687a1.21 1.21 0 0 1 .469-.156c.156-.032.344-.047.563-.047zm.046 2.203c.118 0 .215-.04.297-.11.074-.062.117-.171.125-.328h-.828a.508.508 0 0 0 .125.313.365.365 0 0 0 .281.125zM13.197 22.835h.953v3.78h-.953zM10.742 22.835l.187.359h.016c.125-.156.258-.266.39-.328.137-.05.31-.078.516-.078.262 0 .465.078.61.234.148.156.218.375.218.656 0 .29-.097.508-.297.657-.207.144-.504.222-.89.234l-.453.016v.047c0 .226.109.343.328.343.199 0 .453-.07.765-.203l.282.625c-.32.164-.727.25-1.22.25-.35 0-.624-.09-.812-.265-.195-.18-.296-.422-.296-.735v-1.812zm.703.625a.437.437 0 0 0-.297.109.353.353 0 0 0-.125.281v.219l.219-.016c.312-.011.469-.125.469-.343 0-.168-.086-.25-.266-.25zM7.308 23.678c0-.293.101-.515.297-.671.199-.149.484-.22.859-.22.21 0 .39.013.547.032.148.02.297.063.453.125v.75a2.611 2.611 0 0 0-.484-.156 1.989 1.989 0 0 0-.47-.063c-.206 0-.312.047-.312.14 0 .052.032.095.094.126.055.039.219.117.5.234.25.102.43.219.531.344.094.133.14.305.14.516 0 .25-.097.445-.296.593-.195.145-.473.22-.828.22-.188 0-.36-.024-.516-.063a5.102 5.102 0 0 1-.5-.172l.266-.625c.125.062.262.11.406.14.137.04.246.063.328.063.157 0 .235-.04.235-.11 0-.042-.024-.085-.078-.124a4.024 4.024 0 0 0-.47-.204 1.483 1.483 0 0 1-.437-.234.665.665 0 0 1-.203-.266 1.076 1.076 0 0 1-.062-.375zM30.319 16.188v1.5c0 .187.027.328.078.422.054.093.136.14.25.14a.35.35 0 0 0 .328-.187c.062-.125.094-.324.094-.594v-1.281h.953v1.5c0 .187.027.328.078.422.043.093.121.14.234.14.149 0 .258-.07.328-.203.063-.137.094-.355.094-.656v-1.203h.953v2.75h-.719l-.125-.328h-.046a.665.665 0 0 1-.313.281 1.09 1.09 0 0 1-.484.11c-.395 0-.672-.126-.828-.376h-.079a.818.818 0 0 1-.328.266.96.96 0 0 1-.453.11c-.332 0-.578-.087-.734-.25-.156-.169-.235-.423-.235-.766v-1.797zM26.083 17.578c0-.46.125-.812.375-1.062.243-.25.579-.375 1.016-.375.418 0 .75.125 1 .375.25.258.375.613.375 1.062 0 .446-.117.797-.36 1.047-.25.25-.593.375-1.03.375a1.38 1.38 0 0 1-.72-.187 1.22 1.22 0 0 1-.484-.5 1.522 1.522 0 0 1-.172-.735zm1.797 0c0-.242-.03-.421-.093-.546-.063-.125-.172-.188-.329-.188a.324.324 0 0 0-.312.188c-.063.125-.094.304-.094.546 0 .227.031.399.094.516.062.125.172.188.328.188.149 0 .25-.063.313-.188.062-.117.093-.289.093-.516zM22.157 16.188v1.5c0 .187.027.328.078.422.055.093.137.14.25.14a.35.35 0 0 0 .328-.187c.063-.125.094-.324.094-.594v-1.281h.953v1.5c0 .187.027.328.078.422.043.093.121.14.235.14.148 0 .257-.07.328-.203.062-.137.093-.355.093-.656v-1.203h.954v2.75h-.72l-.124-.328h-.047a.665.665 0 0 1-.313.281 1.09 1.09 0 0 1-.484.11c-.394 0-.672-.126-.828-.376h-.078a.818.818 0 0 1-.328.266.96.96 0 0 1-.453.11c-.332 0-.579-.087-.735-.25-.156-.169-.234-.423-.234-.766v-1.797zM19.61 16.188h.952v2.75h-.953zm.968 3.437c0 .145-.035.254-.11.328-.081.07-.21.11-.39.11-.176 0-.305-.04-.39-.11-.083-.074-.126-.183-.126-.328 0-.273.172-.406.516-.406.336 0 .5.133.5.406zM17.144 16.188l.188.36h.016c.125-.157.257-.266.39-.329.137-.05.309-.078.516-.078.261 0 .465.078.61.234.148.157.218.375.218.657 0 .289-.098.507-.297.656-.207.144-.504.222-.89.234l-.454.016v.047c0 .226.11.343.328.343.2 0 .454-.07.766-.203l.281.625c-.32.164-.726.25-1.218.25-.352 0-.625-.09-.813-.265-.195-.18-.297-.422-.297-.735v-1.812zm.704.625a.437.437 0 0 0-.297.11.353.353 0 0 0-.125.28v.22l.218-.016c.313-.012.47-.125.47-.344 0-.168-.087-.25-.266-.25zM13.71 17.032c0-.293.102-.516.297-.672.2-.149.485-.219.86-.219.21 0 .39.012.546.031.149.02.297.063.454.125v.75a2.611 2.611 0 0 0-.485-.156 1.989 1.989 0 0 0-.469-.063c-.207 0-.312.047-.312.141 0 .05.031.094.094.125.054.04.218.117.5.234.25.102.43.22.53.344.095.133.142.305.142.516 0 .25-.098.445-.297.594-.196.144-.473.218-.828.218-.188 0-.36-.023-.516-.062a5.102 5.102 0 0 1-.5-.172l.266-.625c.125.062.261.11.406.14.137.04.246.063.328.063.156 0 .234-.039.234-.11 0-.042-.023-.085-.078-.124a4.024 4.024 0 0 0-.469-.203 1.483 1.483 0 0 1-.437-.235.665.665 0 0 1-.203-.265 1.076 1.076 0 0 1-.063-.375zm0 0"/><path d="m30.078 5.935-.133.004-.067.109-.015.121-.051.121-.137.086-.281.02-.266.082-.586.32-.254.309-.12.253-.079.278.028.527.039.133.105.23.121.16.27.2.113.043.262.12.133.04.12.008.122.02.14.03.133.028.14.074.056.14.011.114v.14l-.011.141.011.121-.07.11-.156.027-.121-.07-.106-.098-.11-.121-.132-.074-.133-.028-.383.02-.242-.027-.133.074-.047.14.008.13.086.288.067.118.168.21.214.192.489.262.394.066.137.082.059.149.011.113.063.105.133.016.082-.121-.02-.13.074-.097.207-.117.196-.02.117-.046.12-.028.122-.05.113-.083.121-.058.282-.254.16-.238.062-.125.086-.371.008-.2-.04-.347-.026-.13-.114-.26-.074-.106-.187-.176-.23-.152-.24-.11-.417-.105-.113-.008-.149-.094-.058-.148-.02-.38.066-.128.133-.02.114.055.109.07.18.188.214.074.196.016h.113l.129.011.14-.027h.126l.132-.066.051-.149-.055-.254-.054-.113-.047-.133-.086-.094-.066-.113-.094-.11-.11-.077-.574-.309-.285-.074h-.117l-.137-.082-.074-.14.008-.114zm.261 3.343.16.082.13.118.011.187-.031.188-.074.097-.082.067-.125.05-.122-.023-.046-.176-.02-.316.004-.121.074-.098zm-.656-1.828.121.047.074.106-.007.148.011.125-.011.14-.075.102-.133.063-.128-.035-.114-.055-.101-.074-.051-.172.05-.203.094-.094zM26.152 6.337l-.187-.008-.344.02-.41.129-.328.214-.34.422-.055.125-.058.114-.055.129-.035.132-.02.137v.406l.063.383.172.371.203.188.207.14.133.059.066.094.008.14-.066.133-.075.117-.113.246-.133.227-.07.14-.219.352-.062.168.035.145.16.047.328.015.195-.015.149.015.14-.015h1.325l.21.019.141-.012.215-.066.05-.133.02-.41-.02-.262-.058-.133-.133-.066h-.96l-.094-.047-.02-.137.04-.12.14-.22.262-.605.082-.144-.047-.145-.13-.039-.515-.031-.12-.043-.208-.125-.082-.11-.031-.132-.02-.196.02-.199.058-.129.11-.125.113-.07.414-.012.203.14.168.243.153.05.664.016.105-.066.063-.149-.035-.12-.02-.141-.086-.246-.16-.235-.102-.09-.082-.101-.093-.086-.168-.106-.313-.128-.094-.012-.12-.043zM23.354 6.669v-.187l-.093-.06-.145.009-.137-.016-.261.016-.141-.008-.133.012-.176.062-.125.106-.289.746-.066.113-.664 1.574-.035.14-.059.11-.148.38-.075.12-.19.485-.036.132-.066.121-.036.114-.066.12-.04.161.04.14.137.048.375.007.125.012 2.515-.02.133-.05.067-.13.007-.132-.007-.156.007-.114-.02-.14.005-.133-.078-.137-.122-.058-.16-.008-.136.016-.266-.02-.148.012-.133-.012-.477.004-.176-.066-.03-.122.066-.132.066-.188.133-.297.074-.199.102-.18zM18.354 6.349l-.218-.012-.254.02-.317.066-.25.094-.367.199-.094.101-.226.309-.14.25-.063.246-.02 2.137.055.277.059.125.046.137.121.207.102.105.059.102.109.094.355.203.114.05.14.048.254.054.532.02.535-.114.12-.046.106-.075.13-.066.198-.176.09-.097.098-.094.062-.11.055-.12.16-.516.004-.395-.023-.148.031-.395-.027-.133.02-.136-.02-.133-.004-.813-.07-.254-.067-.12-.047-.114-.168-.207-.086-.102-.105-.093-.121-.067-.094-.074-.137-.074-.36-.113zm-.414 1.093.215-.027.2.02.14.047.094.062.082.105.047.133.054.207v1.563l-.035.195-.066.129-.086.094-.223.12-.41.005-.125-.047-.113-.078-.074-.11-.047-.12-.035-.192-.028-.324.028-.528-.028-.12.024-.137.004-.133-.02-.114.008-.203.031-.207.043-.12.098-.106.101-.067zm0 0" fill="#f64068"/><g clip-path="url(#c)"><path fill="#e8c49b" d="M5.96 56.086c.192-1.48.481-2.66.876-3.086 1.34-1.434 1.297-1.332 1.34-2.055.047-.722.258-8.207.3-9.148.047-.942.649-5.836.47-7.137-.176-1.3 1.292-1.703 2.187-2.11.89-.405 2.449-.269 2.941 0 .09.048.145.11.176.169.129.289-.215.68.004.863.266.223.887-.36 1.383.223.488.582.433 1.504-.59 2.222-1.027.72-1.426 1.528-1.559 2.153-.062.28.903 3.43 1.121 6.617.274 3.965.215 8.23.293 8.625.133.719.239.437.778 2.195.113.371.203 1.067.258 1.953.199 3.282-.043 9.172-1.063 11.133-.477.926-3.207.883-4.68.258-1.472-.629-3.48-1.93-4.144-3.23-.473-.918-.551-6.133-.09-9.645"/></g><g clip-path="url(#d)"><g clip-path="url(#e)"><path fill="#f3dfc9" d="M12.102 63.805c-.45-.27-.918-.508-1.395-.727a13.32 13.32 0 0 0-1.957-.715c-.676-.175-1.363-.316-2.063-.347-.175-.012-.351 0-.523-.004a3.334 3.334 0 0 0-.523.031 5.971 5.971 0 0 0-1.02.207c.348-.02.684-.074 1.027-.05.168-.005.34-.005.508.015.172.02.34.023.508.047.676.09 1.344.234 2 .41.66.176 1.305.406 1.95.637.312.109.62.23.925.359-.137-.031-.27-.066-.406-.094-1.031-.191-2.094-.289-3.145-.148a6.5 6.5 0 0 0-1.531.375c-.488.195-.953.449-1.363.773a6.57 6.57 0 0 1 2.922-.902 9.543 9.543 0 0 1 1.53.008c.513.039 1.02.105 1.524.21 1.008.196 2 .493 2.973.833.266.093.527.191.789.297a4.867 4.867 0 0 0-.23-.051c-.262-.035-.52-.086-.786-.102-.527-.058-1.058-.047-1.586-.02a9.39 9.39 0 0 0-1.472.231c-1.059-.348-2.184-.473-3.301-.43a7.88 7.88 0 0 0-1.785.286 5.986 5.986 0 0 0-1.645.734 11.197 11.197 0 0 1 1.7-.492c.578-.106 1.16-.188 1.746-.207.586-.028 1.172-.02 1.761.011.457.032.918.075 1.38.133-.344.09-.684.203-1.009.348a8.92 8.92 0 0 0-1.726.39c-.977.317-1.914.735-2.785 1.266a20.86 20.86 0 0 1 1.41-.57c.476-.172.953-.336 1.445-.457.969-.262 1.969-.422 2.953-.348a4.344 4.344 0 0 1 2.606 1.238c.715.7 1.082 1.676 1.3 2.672-.062-.504-.136-1.02-.32-1.507a4.213 4.213 0 0 0-.8-1.336 4.369 4.369 0 0 0-2.754-1.387c-.2-.012-.399-.016-.598-.012.125-.023.25-.043.379-.066.512-.078 1.023-.14 1.539-.176a22.762 22.762 0 0 1 1.55-.05c.442 0 .88.01 1.325.023.121.05.242.097.363.148.48.195.95.41 1.422.637-.875-.57-1.816-1.031-2.781-1.434-.66-.273-1.34-.5-2.031-.687"/></g></g><g clip-path="url(#f)"><g clip-path="url(#g)"><path fill="#f3dfc9" d="M10.531 58.965c-.355-.258-.761-.41-1.168-.528l.364.047c.27.02.523.094.785.157.258.062.523.109.77.21 1.023.313 1.976.833 2.843 1.462.219.152.426.332.637.496l.234.214a8.643 8.643 0 0 0-.594-.316 10.644 10.644 0 0 0-1.02-.434 8.553 8.553 0 0 0-1.066-.316 4.87 4.87 0 0 0-.945-.129 2.949 2.949 0 0 0-.84-.863zm-.445-2.41a9.249 9.249 0 0 0-.309-.239c.364.188.715.414 1.137.567.258.105.55.129.836.12.121.005.242-.003.363.009.121.023.246.035.367.066.489.113.961.332 1.418.574.454.246.891.532 1.317.836l.082.059a9.96 9.96 0 0 0-1.8-.48c-.349-.06-.7-.11-1.052-.13a4.284 4.284 0 0 0-.894.024 14.102 14.102 0 0 0-1.465-1.406zm-2.07-.903a4.59 4.59 0 0 0-.926.196 5.39 5.39 0 0 1 .332-.176c.266-.14.531-.27.805-.39a20.56 20.56 0 0 1 1.535-.606c.195.472.328.98.425 1.504-.183-.098-.37-.2-.57-.282a3.22 3.22 0 0 0-1.601-.246zm1.093-2.496a.082.082 0 0 0 .024.016c.867.45 1.668 1.035 2.62 1.402l.368.117.137.028c.152.148.289.304.418.468.199.258.383.532.55.813.313.488.59 1 .895 1.508-.035-.024-.066-.047-.101-.07a5.59 5.59 0 0 0-1.47-.657c-.128-.039-.269-.05-.405-.078-.137-.016-.282-.008-.418-.012-.243 0-.48-.015-.707-.109-.262-.09-.512-.23-.774-.371.04-.34.02-.684-.039-1.023a3.848 3.848 0 0 0-.387-1.145 3.069 3.069 0 0 0-.71-.887zm2.02-1.215a5.057 5.057 0 0 0-.633-1.062c-.262-.32-.559-.625-.926-.84a2.286 2.286 0 0 0-.625-.254c.172 0 .34.004.508.02.395.043.793.125 1.094.343.312.211.473.559.691.938.117.184.293.383.528.469.23.09.464.09.683.066.41-.055.79-.07 1.176.024.242.054.465.16.672.292a4.816 4.816 0 0 0-.914.13c-.36.085-.707.203-1.043.359-.309.152-.61.324-.875.55a4.857 4.857 0 0 0-.336-1.035zm-.656-2.394c.316-.059.629-.133.941-.2.223.071.438.137.637.243.265.12.508.285.722.484.399.352.688.817.926 1.336-.004 0-.004-.004-.008-.004-.41-.14-.867-.125-1.273-.09-.191.016-.379.012-.535-.054-.156-.059-.27-.188-.375-.348-.102-.164-.195-.355-.317-.535a1.784 1.784 0 0 0-.472-.48 2.013 2.013 0 0 0-.668-.274c.14-.023.281-.05.422-.078zm1.28-.871a3.45 3.45 0 0 0-.358-.524 4.968 4.968 0 0 0-.317-.324l.36.184c.332.168.667.351 1.035.476.195.063.363.106.527.168.105.043.207.094.313.145a5.364 5.364 0 0 0-.793.027c-.215.024-.43.059-.645.098a2.102 2.102 0 0 0-.121-.25zm-1.026-3.442c-.368-.011-.735-.058-1.102-.004a3.412 3.412 0 0 0-.281.024c.488-.324.96-.649 1.433-.98l.227-.165c.258.098.508.192.738.325.29.152.559.336.797.55.422.36.77.805 1.078 1.297a6.79 6.79 0 0 0-1.808-.832c-.352-.113-.72-.16-1.082-.215zm1.597-5.855-.277.031c-.094.008-.164.031-.242.035-.153.016-.297.004-.364-.07-.078-.066-.113-.223-.164-.398-.03-.086-.062-.184-.12-.274a.614.614 0 0 0-.25-.219c-.208-.093-.403-.078-.583-.05-.125.02-.238.054-.355.086a1.925 1.925 0 0 1 1.078-.52c.203-.035.41-.023.625-.02.105.008.215.02.324.024.055.008.106.016.16.02.024.058.051.113.074.171.094.22.172.45.254.676.063.176.125.356.192.531a3.541 3.541 0 0 0-.352-.023zm.196-3.676a4.121 4.121 0 0 0-.555-.969 3.161 3.161 0 0 0-.836-.757 2.185 2.185 0 0 0-.234-.118c.25.012.5.032.75.055.453.047.91.106 1.363.18.039.054.074.113.117.168.059.062.102.136.18.187.07.059.144.117.238.145.047.015.09.035.133.047l.14.007.13.008h.1a.866.866 0 0 1 .388.09c.191.102.328.3.425.524a.618.618 0 0 0-.273-.083 1.05 1.05 0 0 0-.469.114c-.289.133-.527.344-.738.554-.211.215-.406.446-.57.708-.008.011-.016.027-.024.039a4.024 4.024 0 0 0-.265-.899zM7.395 60.02a9.476 9.476 0 0 0-1.696-.16c-.566.015-1.14.081-1.672.28a5.718 5.718 0 0 1 1.668-.12c.555.027 1.11.117 1.649.242 1.086.265 2.136.648 3.164 1.097 1.027.446 2.023.957 3.012 1.493.496.265.98.546 1.464.836.489.28.965.582 1.442.882a25.835 25.835 0 0 0-2.785-1.933 24.809 24.809 0 0 0-1.895-1.047 2.596 2.596 0 0 0-.187-1.403 2.278 2.278 0 0 0-.153-.289c.633.22 1.246.45 1.867.676.633.227 1.262.453 1.922.637.051.047.11.098.16.148.391.375.747.786 1.07 1.223-.542-.95-1.292-1.777-2.152-2.469a8.996 8.996 0 0 0-1.93-1.195 12.36 12.36 0 0 0-.726-.887c.266.051.531.102.797.157.34.07.684.132 1.027.195.649.11 1.297.21 1.965.246.36.258.715.527 1.02.851-.61-.761-1.387-1.37-2.207-1.906a5.725 5.725 0 0 0-.719-1.746 4.11 4.11 0 0 0-.64-.808 3.25 3.25 0 0 0-.278-.235l.273.047.352.082c.469.113.922.285 1.36.492.859.426 1.644 1.07 2.085 1.969-.156-.473-.437-.902-.777-1.273a5.335 5.335 0 0 0-1.195-.914c-.438-.25-.91-.43-1.395-.57a8 8 0 0 0-.738-.157l-.344-.078-.336-.11a7.948 7.948 0 0 1-.996-.464c.211-.223.441-.414.688-.582.285-.2.601-.36.918-.508.316-.157.644-.282.976-.41l.902-.336c.434.293.786.726 1.016 1.215a2.803 2.803 0 0 0-.605-1.094 2.465 2.465 0 0 0-1.004-.66 2.283 2.283 0 0 0-.203-.813 2.36 2.36 0 0 0-.57-.789 2.153 2.153 0 0 0-.848-.477 1.638 1.638 0 0 0-.403-.082l.2-.046c.015.015.03.03.046.05 0-.023-.007-.039-.011-.062l.59-.137c.289-.07.582-.14.874-.207a4.604 4.604 0 0 1 .906.7c.27.253.512.538.739.835-.348-.668-.836-1.273-1.469-1.718a2.676 2.676 0 0 0-.504-.29c-.183-.078-.375-.136-.535-.195-.332-.125-.66-.3-.988-.476-.336-.168-.672-.344-1.031-.477a4.464 4.464 0 0 0-1.121-.266c-.055-.004-.11-.004-.164-.004.199-.117.394-.23.597-.328.262-.117.528-.226.797-.324.461-.164.93-.305 1.406-.457.551.184 1.082.43 1.586.73.305.18.606.38.887.602.289.207.555.45.828.688a7.128 7.128 0 0 0-1.582-1.5c-.016-.012-.035-.024-.055-.036a2.937 2.937 0 0 0-.32-.808 3.292 3.292 0 0 0-.664-.809c-.133-.117-.281-.21-.426-.312-.16-.078-.308-.172-.48-.223a2.47 2.47 0 0 0-.754-.156c.16-.117.32-.23.476-.352.207-.156.407-.32.61-.488.578.11 1.125.352 1.629.664.148.094.289.203.437.305.133.12.274.23.403.355.27.239.503.516.726.805a4.769 4.769 0 0 0-1.43-1.668l-.082-.059a4.435 4.435 0 0 0-1.313-2.004 3.338 3.338 0 0 0-1.148-.644c-.199-.074-.406-.11-.613-.125.578-.168 1.14-.305 1.735-.328.335-.02.671.004 1 .07.265.05.527.133.773.262.02.023.043.047.062.074.215.266.403.555.579.852-.235-.653-.598-1.27-1.118-1.766a2.271 2.271 0 0 0-1.058-.582 3.312 3.312 0 0 0-.23-1.348 3.04 3.04 0 0 0-.305-.535c.007.004.015.008.023.008l.227.012h.183c.121.008.242.027.364.058.472.137.89.492 1.195.93-.2-.496-.578-.957-1.117-1.168a1.677 1.677 0 0 0-.418-.102l-.102-.007c.133-.196.281-.38.434-.555.191-.215.386-.426.593-.629.204-.21.403-.406.633-.562.192-.13.422-.247.657-.168.007.023.02.043.027.062.098.285.14.594.16.902.05-.308.043-.625-.012-.941-.066-.309-.207-.645-.511-.844a.99.99 0 0 0-.496-.156l-.13-.008c-.042-.004-.066-.008-.097-.012l-.094-.007c-.031-.008-.055-.024-.082-.035-.223-.094-.375-.356-.52-.622-.152-.265-.312-.55-.527-.8-.215-.25-.5-.442-.8-.567-.622-.23-1.274-.168-1.872-.027.618-.02 1.243.016 1.774.258.254.136.492.3.668.535.183.226.328.484.48.762.032.058.067.117.102.175a7.294 7.294 0 0 0-1.285-.359 6.928 6.928 0 0 0-1.61-.129c-.539.023-1.09.098-1.597.32-.508.211-.957.57-1.239 1.032a3.31 3.31 0 0 1 1.325-.793c.488-.164 1.007-.22 1.523-.239.113-.004.23-.007.344-.007.199.097.39.203.562.332.27.218.508.472.723.75.223.27.402.574.586.882.16.274.308.555.457.844-.11.188-.203.39-.246.602h-.043l-.168-.02c-.223-.043-.422-.18-.617-.351-.16-.137-.328-.282-.516-.418-.34-.649-.965-1.157-1.656-1.426a3.578 3.578 0 0 0-1.254-.23c-.215-.016-.426.023-.633.038-.207.043-.41.09-.61.149.212.012.415 0 .618.012.203.02.406.011.605.05.102.016.2.032.297.04.102.019.196.046.293.066.196.035.383.11.567.176a4.276 4.276 0 0 1 1.453.922 1.94 1.94 0 0 0-.582-.2c-.559-.11-1.11.024-1.606.211.528-.066 1.063-.101 1.547.032.496.132.871.457 1.274.824.101.086.218.175.347.25.031.054.07.11.102.164.058.11.117.219.168.336a.666.666 0 0 0-.055-.035 4.065 4.065 0 0 0-.328-.122 1.787 1.787 0 0 0-.707-.046c-.238.039-.477.125-.668.277-.188.144-.336.34-.39.566-.56.157-1.063.41-1.563.684.332-.106.652-.227.984-.316.324-.102.656-.196.98-.215.16-.012.321 0 .434.054.11.055.16.168.203.328.047.153.067.36.243.54.187.183.425.175.609.164.094-.008.191-.036.27-.043l.23-.032c.156.004.316.008.465.051.308.074.594.242.855.442.2.16.38.351.547.55-.488-.324-1.098-.457-1.683-.472-.707-.035-1.415.148-2.067.332a5.68 5.68 0 0 1-.98.203c-.332.047-.66.031-1.016.043-.18.012-.367.035-.539.105a1.98 1.98 0 0 0-.469.27 5.731 5.731 0 0 0-.738.738c.277-.207.535-.441.828-.61.285-.187.59-.277.918-.257.332.023.691.047 1.043.016a5.77 5.77 0 0 0 .973-.18c.086.016.172.031.254.066l.296.086.286.121c.37.172.726.383 1.03.657.552.468.985 1.05 1.4 1.675a4.198 4.198 0 0 0-1.864-.687 4.935 4.935 0 0 0-2.2.281c-.179.047-.343.14-.51.215l-.497.238a30.91 30.91 0 0 0-.91.617c.336-.152.652-.32.98-.472l.504-.192c.168-.062.332-.14.508-.168.172-.043.344-.082.516-.129.171-.05.351-.042.523-.07l.262-.031c.09-.012.176 0 .265 0 .172.012.352 0 .524.027.066.008.133.02.2.028a5.88 5.88 0 0 0-.61.3 8.358 8.358 0 0 0-1.61 1.148c-.21.196-.406.407-.578.638-.234.03-.465.082-.695.128-.18.036-.352.106-.524.164-.171.06-.34.122-.507.188.71-.14 1.41-.29 2.12-.273.352-.016.704.03 1.055.058.344.067.696.11 1.032.223.015.008.035.012.05.02a4.991 4.991 0 0 0-.34.03c-.296.044-.59.118-.874.22a3.98 3.98 0 0 0-.817.406c-.215.152-.41.332-.566.543-.301-.004-.598.02-.887.09-.187.035-.363.117-.543.171-.176.07-.344.157-.512.239.707-.243 1.454-.356 2.168-.247.399.067.778.196 1.153.352.066.105.136.203.21.3.126.165.255.321.383.481.176.203.352.403.54.598l-.239.047c-.59.14-1.168.32-1.726.566a2.855 2.855 0 0 0-.254-.015c-.852-.016-1.668.164-2.457.398.41-.047.816-.117 1.226-.137.121-.011.242-.02.364-.027.304.113.578.27.832.457.304.234.57.523.812.828.246.305.457.64.664.98.18.31.356.622.524.942-.008.012-.02.016-.028.027a2.4 2.4 0 0 0-.582.758c-.52-.281-1.031-.59-1.582-.836-.453-.203-.926-.386-1.418-.48a4.735 4.735 0 0 0-1.484-.032c.66-.011 1.3.114 1.91.336.23.157.45.317.629.516.258.273.492.566.66.906.07.137.133.278.195.422a3.255 3.255 0 0 0-.754.082 4.405 4.405 0 0 0-.882.29c-.516.23-.989.558-1.364.98-.578.226-1.125.539-1.64.87.242-.105.476-.218.71-.331.239-.106.489-.192.727-.29.492-.16.992-.312 1.5-.32a3.1 3.1 0 0 1 1.293.215c.469.504.942.992 1.426 1.473.426.414.855.824 1.313 1.21a8.318 8.318 0 0 0-.68-.25c-.258-.105-.531-.151-.801-.214-.27-.059-.535-.137-.812-.148l-.82-.082c-.278-.008-.552.007-.825.015l-.414.016c-.137.008-.27.035-.406.054l-.813.122c-.27.039-.527.14-.793.21-.261.07-.52.149-.781.231.539-.086 1.066-.223 1.602-.285l.804-.074c.133-.012.266-.032.403-.032l.304.004.239.047.738.192c.469.171.945.336 1.344.628.406.274.746.633.984 1.067.207.383.336.82.371 1.273-.352-.175-.71-.347-1.074-.508-1.04-.449-2.117-.828-3.238-1.042"/></g></g><path fill="#f3dfc9" d="M9.055 69.145s-.407-1.582.297-2.043c.703-.465 2.164-1.227 2.57 0 .406 1.222-.297 2.043-.297 2.043h-2.57"/><g clip-path="url(#h)"><path fill="#e8c49b" d="M11.617 73.434c.574-.532 1-1.368 1.067-2.266.066-.902.066-2.234-.465-2.93-.535-.691-2.106-.941-3.04-.175-.933.761-1.644 3.933-.62 5.046 1.023 1.118 2.574.778 3.058.325"/></g><g clip-path="url(#i)"><g clip-path="url(#j)"><path fill="#f3dfc9" d="M10.25 71.672a2.935 2.935 0 0 0-1.305.094c-.207.066-.402.16-.597.242-.184.117-.368.219-.54.34.208-.055.403-.13.598-.192.203-.047.399-.105.598-.144.402-.067.8-.094 1.187-.024.223.043.438.125.637.227a4.128 4.128 0 0 0-.539-.05 3.556 3.556 0 0 0-.992.116 2.62 2.62 0 0 0-.91.453 1.848 1.848 0 0 0-.578.817c.226-.246.457-.45.718-.61.27-.148.551-.265.844-.347.363.199.703.394 1 .64.172.145.316.313.445.496.125.192.204.407.286.649a1.31 1.31 0 0 0-.063-.762 1.675 1.675 0 0 0-.46-.629 2.22 2.22 0 0 0-.942-.453c.218-.05.437-.09.664-.12.246-.028.496-.052.75-.071.398.261.738.633 1 1.066a2.391 2.391 0 0 0-.637-1.113 2.311 2.311 0 0 0-1.164-.625"/></g></g><g clip-path="url(#k)"><g clip-path="url(#l)"><path fill="#f3dfc9" d="M10.254 68.41c.148-.02.297-.035.445-.047a4.082 4.082 0 0 0-.426.125c-.34.133-.675.313-.941.575a7.654 7.654 0 0 0-1.855.566c.515-.094 1.023-.18 1.53-.246.509-.063 1.02-.113 1.516-.086.247.02.5.043.723.121a3.55 3.55 0 0 1 1.043.523 4.27 4.27 0 0 0-1.41-.09c-.274.032-.55.083-.816.18a2.185 2.185 0 0 0-.602.324 4.36 4.36 0 0 0-.5-.101c-.547-.09-1.102-.004-1.621.133.137 0 .27 0 .402-.008l.2-.008.199.024c.129.011.261.015.39.03l.387.075c.426.105.844.242 1.238.434a7.984 7.984 0 0 0-.523-.067 7.942 7.942 0 0 0-1.14-.015 4.94 4.94 0 0 0-1.134.207c-.363.117-.734.289-.98.593.328-.199.687-.28 1.043-.351.36-.063.723-.106 1.094-.125.636-.051 1.277-.059 1.93-.09.433.234.847.516 1.238.828.41.332.804.688 1.175 1.082a5.654 5.654 0 0 0-1.011-1.27 6.238 6.238 0 0 0-1.325-.968 4.56 4.56 0 0 0-.93-.367 8.541 8.541 0 0 1 1.321-.22c.488-.054.98-.085 1.484-.144.254.192.48.418.653.7-.16-.508-.547-.93-.989-1.227a3.382 3.382 0 0 0-.718-.371c-.262-.102-.535-.125-.801-.152-.246-.012-.488 0-.73.02l.57-.208c.328-.125.656-.246.984-.406.184.035.36.09.531.164.497.238.907.687 1.153 1.223-.13-.579-.492-1.133-1.04-1.446a2.156 2.156 0 0 0-.886-.273 5.373 5.373 0 0 0-.91.039c-.59.07-1.172.18-1.742.332-.575.144-1.133.332-1.68.558l1.73-.312a26.415 26.415 0 0 1 1.73-.258"/></g></g><path fill="#76614e" d="M10.883 71.047c-.2.066-.844.023-.965-.266-.121-.293.004-.484.48-.629.48-.148.602-.12.747.243.144.359.246.48-.262.652M12.45 71.383c-.157.191-.833-.082-.872-.278-.035-.195.192-.328.223-.562.027-.234.363-.195.57.035.207.234.184.668.078.805"/><g clip-path="url(#m)"><path fill="#76614e" d="M5.96 56.086c.192-1.48.481-2.66.876-3.086 1.34-1.434 1.297-1.332 1.34-2.055.047-.722.258-8.207.3-9.148.047-.942.649-5.836.47-7.137-.176-1.3 1.292-1.703 2.187-2.11.89-.405 2.449-.269 2.941 0 .09.048.145.11.176.169-1.477.203-4.215.414-4.371 1.265-.18.957.047 7.137-.941 10.008-.989 2.871 1.128 7.758-.442 8.91-.93.676-1.871 1.922-2.535 3.184"/></g><path fill="#76614e" d="M12.352 50.219c.05-1.055.144-5.317 0-6.371 0 0-.415-5.793-.301-6.801.113-1.004.875-2.203 1.398-2.535 0 0-.98 1.43-1.191 2.68-.211 1.25.43 5.042.668 7 .238 1.956-.574 6.027-.574 6.027M14.902 53.422c.133.719.239.437.778 2.195.113.371.203 1.067.258 1.953-.52-.718-1.426-2.293-1.036-4.148"/><g clip-path="url(#n)"><path fill="#e8c49b" d="M-.664 56.086c.191-1.48.48-2.66.879-3.086 1.336-1.434 1.293-1.332 1.336-2.055.047-.722.258-8.207.3-9.148.047-.942.649-5.836.47-7.137-.176-1.3 1.292-1.703 2.187-2.11.89-.405 2.449-.269 2.941 0 .09.048.145.11.176.169.133.289-.215.68.004.863.27.223.89-.36 1.383.223.488.582.433 1.504-.59 2.222-1.024.72-1.426 1.528-1.559 2.153-.062.28.903 3.43 1.125 6.617.27 3.965.215 8.23.29 8.625.132.719.242.437.777 2.195.113.371.203 1.067.258 1.953.203 3.282-.043 9.172-1.06 11.133-.476.926-3.21.883-4.683.258-1.468-.629-3.476-1.93-4.144-3.23-.473-.918-.551-6.133-.09-9.645"/></g><g clip-path="url(#o)"><g clip-path="url(#p)"><path fill="#f3dfc9" d="M5.477 63.805c-.45-.27-.918-.508-1.395-.727a13.32 13.32 0 0 0-1.957-.715c-.676-.175-1.363-.316-2.063-.347-.175-.012-.351 0-.523-.004a3.334 3.334 0 0 0-.523.031 5.971 5.971 0 0 0-1.02.207c.348-.02.684-.074 1.027-.05.172-.005.34-.005.512.015.168.02.34.023.508.047.672.09 1.34.234 1.996.41.66.176 1.305.406 1.95.637.312.109.62.23.925.359-.137-.031-.27-.066-.406-.094-1.031-.191-2.094-.289-3.14-.148-.524.07-1.044.18-1.536.375-.488.195-.953.449-1.363.773a6.57 6.57 0 0 1 2.922-.902 9.541 9.541 0 0 1 1.53.008c.513.039 1.02.105 1.524.21 1.012.196 2 .493 2.977.833.262.093.523.191.785.297a4.867 4.867 0 0 0-.23-.051c-.258-.035-.52-.086-.786-.102-.523-.058-1.054-.047-1.586-.02a9.39 9.39 0 0 0-1.472.231c-1.059-.348-2.184-.473-3.301-.43a7.915 7.915 0 0 0-1.785.286 5.986 5.986 0 0 0-1.645.734 11.115 11.115 0 0 1 1.703-.492 11.848 11.848 0 0 1 1.743-.207c.586-.028 1.172-.02 1.761.011.461.032.922.075 1.383.133a6.44 6.44 0 0 0-1.012.348 8.92 8.92 0 0 0-1.726.39c-.973.317-1.914.735-2.785 1.266.468-.203.933-.402 1.414-.57.472-.172.953-.336 1.441-.457.969-.262 1.973-.422 2.953-.348a4.365 4.365 0 0 1 2.61 1.238c.71.7 1.078 1.676 1.297 2.672-.063-.504-.137-1.02-.32-1.507a4.213 4.213 0 0 0-.801-1.336 4.35 4.35 0 0 0-2.754-1.387c-.2-.012-.399-.016-.598-.012.125-.023.254-.043.379-.066.512-.078 1.023-.14 1.539-.176a22.762 22.762 0 0 1 1.55-.05c.442 0 .883.01 1.325.023.121.05.242.097.363.148.48.195.953.41 1.422.637-.875-.57-1.816-1.031-2.781-1.434-.66-.273-1.34-.5-2.031-.687"/></g></g><g clip-path="url(#q)"><g clip-path="url(#r)"><path fill="#f3dfc9" d="M3.906 58.965c-.355-.258-.758-.41-1.168-.528l.364.047c.27.02.527.094.785.157.261.062.523.109.77.21 1.023.313 1.976.833 2.847 1.462.219.152.422.332.633.496l.234.214a9.567 9.567 0 0 0-1.613-.75 8.361 8.361 0 0 0-1.067-.316 4.79 4.79 0 0 0-.945-.129 2.949 2.949 0 0 0-.84-.863zm-.445-2.41a9.249 9.249 0 0 0-.309-.239c.364.188.72.414 1.137.567.262.105.55.129.836.12.121.005.242-.003.363.009.121.023.246.035.367.066.489.113.961.332 1.418.574.454.246.895.532 1.317.836.027.02.055.04.086.059a10 10 0 0 0-1.805-.48 9.412 9.412 0 0 0-1.05-.13 4.247 4.247 0 0 0-.891.024c-.192-.207-.383-.41-.578-.606a13.396 13.396 0 0 0-.891-.8zm-2.07-.903a4.553 4.553 0 0 0-.922.196c.11-.063.215-.121.328-.176.265-.14.531-.27.805-.39a20.56 20.56 0 0 1 1.535-.606c.195.472.328.98.425 1.504-.183-.098-.37-.2-.57-.282a3.22 3.22 0 0 0-1.601-.246zm1.093-2.496a.063.063 0 0 0 .028.016c.863.45 1.664 1.035 2.62 1.402l.364.117.137.028c.152.148.289.304.418.468.199.258.383.532.554.813.31.488.586 1 .891 1.508-.035-.024-.066-.047-.101-.07a5.59 5.59 0 0 0-1.47-.657c-.128-.039-.269-.05-.402-.078-.14-.016-.28-.008-.421-.012-.239 0-.477-.015-.707-.109-.262-.09-.512-.23-.774-.371.04-.34.02-.684-.039-1.023a3.848 3.848 0 0 0-.387-1.145 3.069 3.069 0 0 0-.71-.887zm2.02-1.215a4.896 4.896 0 0 0-.633-1.062c-.262-.32-.558-.625-.926-.84a2.237 2.237 0 0 0-.625-.254c.172 0 .34.004.508.02.395.043.793.125 1.094.343.316.211.473.559.695.938.113.184.29.383.524.469.23.09.464.09.683.066.41-.055.793-.07 1.176.024.242.054.465.16.676.292a4.813 4.813 0 0 0-.918.13 5.583 5.583 0 0 0-1.043.359c-.305.152-.61.324-.871.55a4.868 4.868 0 0 0-.34-1.035zm-.656-2.394c.316-.059.629-.133.945-.2.219.071.434.137.633.243.27.12.511.285.722.484.399.352.688.817.926 1.336-.004 0-.004-.004-.008-.004-.41-.14-.867-.125-1.27-.09-.19.016-.382.012-.538-.054-.156-.059-.27-.188-.371-.348-.106-.164-.196-.355-.32-.535a1.729 1.729 0 0 0-.473-.48 1.98 1.98 0 0 0-.668-.274c.14-.023.281-.05.422-.078zm1.28-.871a3.45 3.45 0 0 0-.358-.524 4.131 4.131 0 0 0-.317-.324c.121.059.242.121.36.184.332.168.667.351 1.035.476.195.063.363.106.527.168.105.043.21.094.313.145a5.364 5.364 0 0 0-.793.027c-.215.024-.43.059-.641.098a2.983 2.983 0 0 0-.125-.25zm-1.026-3.442c-.368-.011-.735-.058-1.102-.004a3.412 3.412 0 0 0-.281.024c.488-.324.96-.649 1.433-.98l.227-.165c.258.098.508.192.742.325.285.152.555.336.793.55.422.36.77.805 1.078 1.297a6.79 6.79 0 0 0-1.808-.832c-.352-.113-.72-.16-1.082-.215zm1.597-5.855-.277.031c-.094.008-.164.031-.242.035-.153.016-.297.004-.364-.07-.074-.066-.113-.223-.164-.398a1.108 1.108 0 0 0-.12-.274.614.614 0 0 0-.25-.219c-.204-.093-.403-.078-.583-.05-.12.02-.238.054-.355.086A1.936 1.936 0 0 1 4.426 38c.199-.035.406-.023.62-.02.106.008.216.02.325.024.055.008.106.016.16.02.024.058.051.113.074.171.098.22.172.45.254.676.063.176.13.356.196.531-.117-.015-.239-.02-.356-.023zm.2-3.676a4.278 4.278 0 0 0-.56-.969 3.161 3.161 0 0 0-.835-.757 2.553 2.553 0 0 0-.23-.118c.246.012.496.032.746.055.453.047.91.106 1.367.18.035.054.07.113.113.168.059.062.102.136.18.187.074.059.144.117.238.145.047.015.09.035.133.047l.14.007.133.008h.102a.862.862 0 0 1 .383.09c.191.102.328.3.425.524a.604.604 0 0 0-.273-.083 1.063 1.063 0 0 0-.469.114c-.289.133-.527.344-.738.554-.211.215-.406.446-.566.708-.008.011-.016.027-.024.039a4.481 4.481 0 0 0-.266-.899zM.772 60.02a9.553 9.553 0 0 0-1.699-.16c-.566.015-1.14.081-1.672.28a5.718 5.718 0 0 1 1.668-.12 9.42 9.42 0 0 1 1.653.242 19.4 19.4 0 0 1 3.16 1.097c1.027.446 2.027.957 3.012 1.493.496.265.98.546 1.464.836.489.28.965.582 1.442.882a25.787 25.787 0 0 0-2.781-1.933A24.887 24.887 0 0 0 5.12 61.59a2.56 2.56 0 0 0-.336-1.692c.63.22 1.242.45 1.863.676.633.227 1.266.453 1.922.637a9.675 9.675 0 0 1 1.23 1.371c-.542-.95-1.292-1.777-2.148-2.469a9.12 9.12 0 0 0-1.933-1.195 11.39 11.39 0 0 0-.727-.887c.266.051.531.102.797.157.344.07.684.132 1.027.195.649.11 1.301.21 1.97.246.355.258.71.527 1.015.851-.61-.761-1.387-1.37-2.207-1.906a4.77 4.77 0 0 0-.258-.832 5.725 5.725 0 0 0-.461-.914 4.11 4.11 0 0 0-.64-.808 3.25 3.25 0 0 0-.278-.235l.273.047.352.082c.469.113.926.285 1.36.492.859.426 1.648 1.07 2.085 1.969-.156-.473-.437-.902-.777-1.273a5.248 5.248 0 0 0-1.195-.914c-.438-.25-.91-.43-1.395-.57a7.737 7.737 0 0 0-.738-.157l-.344-.078-.336-.11a8.5 8.5 0 0 1-.996-.464c.211-.223.441-.414.688-.582.289-.2.601-.36.918-.508.316-.157.648-.282.976-.41l.902-.336c.434.293.79.726 1.016 1.215a2.803 2.803 0 0 0-.605-1.094 2.465 2.465 0 0 0-1.004-.66 2.278 2.278 0 0 0-.2-.813 2.428 2.428 0 0 0-.574-.789 2.153 2.153 0 0 0-.847-.477 1.602 1.602 0 0 0-.403-.082l.2-.046.05.05c-.004-.023-.011-.039-.015-.062l.59-.137c.292-.07.582-.14.878-.207a4.708 4.708 0 0 1 .902.7c.27.253.512.538.739.835a4.77 4.77 0 0 0-1.465-1.718 2.838 2.838 0 0 0-.508-.29c-.183-.078-.375-.136-.535-.195-.332-.125-.66-.3-.988-.476-.336-.168-.672-.344-1.031-.477a4.425 4.425 0 0 0-1.121-.266c-.055-.004-.11-.004-.164-.004.199-.117.394-.23.597-.328.262-.117.528-.226.797-.324.461-.164.93-.305 1.41-.457a8.3 8.3 0 0 1 1.586.73c.305.18.602.38.883.602.293.207.555.45.828.688a7.044 7.044 0 0 0-1.582-1.5c-.016-.012-.035-.024-.055-.036a2.937 2.937 0 0 0-.32-.808 3.292 3.292 0 0 0-.664-.809c-.133-.117-.281-.21-.426-.312-.16-.078-.308-.172-.476-.223a2.52 2.52 0 0 0-.754-.156c.156-.117.316-.23.472-.352.207-.156.41-.32.61-.488.578.11 1.125.352 1.629.664.148.094.289.203.437.305.133.12.278.23.403.355.27.239.507.516.726.805a4.769 4.769 0 0 0-1.43-1.668l-.082-.059a4.734 4.734 0 0 0-.46-1 4.52 4.52 0 0 0-.848-1.004 3.391 3.391 0 0 0-1.153-.644c-.199-.074-.406-.11-.613-.125.578-.168 1.14-.305 1.735-.328.335-.02.671.004 1 .07.27.05.53.133.773.262.02.023.043.047.062.074.215.266.403.555.579.852A4.535 4.535 0 0 0 7.195 40a2.31 2.31 0 0 0-1.062-.582 2.85 2.85 0 0 0-.031-.605 3.117 3.117 0 0 0-.2-.743 3.04 3.04 0 0 0-.304-.535c.007.004.015.008.023.008l.227.012h.183c.121.008.242.027.364.058.472.137.89.492 1.195.93-.195-.496-.574-.957-1.117-1.168a1.677 1.677 0 0 0-.418-.102l-.102-.007c.133-.196.281-.38.434-.555.191-.215.39-.426.593-.629.204-.21.407-.406.633-.562.192-.13.426-.247.657-.168.007.023.02.043.027.062.098.285.14.594.16.902.05-.308.043-.625-.012-.941-.066-.309-.207-.645-.508-.844a1.016 1.016 0 0 0-.5-.156l-.128-.008-.098-.012-.094-.007c-.027-.008-.054-.024-.082-.035-.219-.094-.375-.356-.52-.622-.152-.265-.312-.55-.527-.8a2.112 2.112 0 0 0-.8-.567c-.622-.23-1.274-.168-1.872-.027.618-.02 1.243.016 1.774.258.254.136.492.3.668.535.183.226.328.484.48.762.032.058.067.117.106.175a7.43 7.43 0 0 0-1.29-.359 6.928 6.928 0 0 0-1.609-.129c-.539.023-1.09.098-1.597.32-.504.211-.957.57-1.239 1.032.383-.383.84-.633 1.329-.793.484-.164 1.003-.22 1.519-.239.113-.004.23-.007.344-.007.199.097.39.203.562.332.27.218.508.472.723.75.223.27.406.574.59.882.156.274.304.555.453.844-.11.188-.203.39-.246.602H5.84l-.168-.02c-.223-.043-.422-.18-.613-.351-.164-.137-.332-.282-.516-.418-.344-.649-.969-1.157-1.66-1.426a3.561 3.561 0 0 0-1.254-.23c-.211-.016-.422.023-.633.038-.207.043-.41.09-.61.149.212.012.415 0 .622.012.203.02.406.011.601.05.102.016.2.032.301.04.098.019.192.046.29.066.195.035.382.11.57.176a4.252 4.252 0 0 1 1.449.922 1.94 1.94 0 0 0-.582-.2c-.559-.11-1.11.024-1.606.211.528-.066 1.063-.101 1.551.032.492.132.867.457 1.27.824.101.086.218.175.347.25a3.367 3.367 0 0 1 .27.5.666.666 0 0 0-.055-.035 4.599 4.599 0 0 0-.324-.122 1.812 1.812 0 0 0-.711-.046c-.238.039-.477.125-.668.277-.188.144-.332.34-.39.566-.56.157-1.063.41-1.56.684.329-.106.65-.227.981-.316.324-.102.66-.196.985-.215.16-.012.32 0 .43.054.109.055.163.168.202.328.047.153.07.36.243.54.187.183.43.175.609.164.094-.008.191-.036.27-.043l.234-.032c.152.004.312.008.465.051.304.074.59.242.855.442.2.16.375.351.543.55-.488-.324-1.098-.457-1.683-.472-.707-.035-1.415.148-2.063.332a5.8 5.8 0 0 1-.984.203c-.332.047-.66.031-1.016.043-.18.012-.367.035-.539.105a2.06 2.06 0 0 0-.469.27 5.991 5.991 0 0 0-.738.738c.277-.207.535-.441.828-.61.285-.187.59-.277.918-.257.332.023.691.047 1.043.016a5.77 5.77 0 0 0 .973-.18c.086.016.172.031.254.066l.296.086.29.121c.367.172.722.383 1.03.657.548.468.985 1.05 1.395 1.675a4.182 4.182 0 0 0-1.86-.687c-.75-.07-1.507.02-2.202.281-.18.047-.344.14-.508.215l-.5.238a30.91 30.91 0 0 0-.91.617c.336-.152.656-.32.98-.472l.504-.192c.168-.062.332-.14.508-.168.176-.043.348-.082.52-.129.167-.05.347-.042.523-.07l.262-.031c.086-.012.175 0 .261 0 .176.012.352 0 .524.027.066.008.133.02.203.028a5.94 5.94 0 0 0-.613.3 8.843 8.843 0 0 0-1.61 1.149c-.21.195-.406.406-.578.637-.234.03-.465.082-.695.128-.18.036-.348.106-.52.164-.172.06-.343.122-.511.188.71-.14 1.41-.29 2.12-.273.356-.016.704.03 1.055.058.348.067.696.11 1.032.223.015.008.035.012.054.02-.113.007-.23.015-.34.03-.3.044-.593.118-.878.22a3.98 3.98 0 0 0-.817.406c-.215.152-.41.332-.566.543-.301-.004-.598.02-.887.09-.187.035-.363.117-.543.171-.176.07-.344.157-.512.239.711-.243 1.454-.356 2.168-.247a5.17 5.17 0 0 1 1.153.352c.066.105.14.203.21.3.126.165.255.321.383.481.176.203.352.403.54.598l-.239.047c-.59.14-1.168.32-1.726.566a2.855 2.855 0 0 0-.254-.015c-.848-.016-1.664.164-2.457.398.41-.047.816-.117 1.226-.137.121-.011.242-.02.364-.027.304.113.578.27.832.457.304.234.57.523.812.828.246.305.457.64.664.98.18.31.356.622.524.942-.008.012-.02.016-.028.027-.238.211-.445.47-.578.758-.52-.281-1.035-.59-1.586-.836-.453-.203-.926-.386-1.418-.48a4.735 4.735 0 0 0-1.484-.032 5.263 5.263 0 0 1 1.91.336c.23.157.45.317.629.516.258.273.492.566.66.906.07.137.137.278.195.422a3.278 3.278 0 0 0-.754.082c-.3.063-.597.164-.882.29-.512.23-.989.558-1.36.98-.582.226-1.129.539-1.644.87.242-.105.476-.218.715-.331.238-.106.484-.192.726-.29.488-.16.988-.312 1.5-.32.442-.02.88.051 1.29.215.468.504.94.992 1.425 1.473.426.414.855.824 1.313 1.21a8.318 8.318 0 0 0-.68-.25c-.258-.105-.531-.151-.801-.214-.27-.059-.535-.137-.812-.148l-.82-.082c-.278-.008-.552.007-.825.015l-.414.016c-.137.008-.27.035-.406.054l-.813.122c-.27.039-.527.14-.789.21-.262.07-.523.149-.785.231.539-.086 1.066-.223 1.602-.285l.804-.074c.133-.012.266-.032.403-.032l.304.004.242.047.735.192c.469.171.949.336 1.344.628.406.274.75.633.984 1.067.207.383.336.82.375 1.273a27.11 27.11 0 0 0-1.078-.508c-1.04-.449-2.117-.828-3.235-1.042"/></g></g><path fill="#f3dfc9" d="M2.43 69.145s-.407-1.582.297-2.043c.703-.465 2.168-1.227 2.574 0C5.707 68.324 5 69.145 5 69.145H2.43"/><g clip-path="url(#s)"><path fill="#e8c49b" d="M4.996 73.434c.57-.532.996-1.368 1.063-2.266.07-.902.066-2.234-.465-2.93-.532-.691-2.106-.941-3.04-.175-.933.761-1.644 3.933-.62 5.046 1.023 1.118 2.574.778 3.062.325"/></g><g clip-path="url(#t)"><g clip-path="url(#u)"><path fill="#f3dfc9" d="M3.629 71.672a2.953 2.953 0 0 0-1.309.094c-.207.066-.402.16-.597.242-.18.117-.368.219-.54.34.208-.055.403-.13.598-.192.203-.047.403-.105.598-.144.402-.067.8-.094 1.187-.024.227.043.438.125.641.227a4.187 4.187 0 0 0-.543-.05 3.556 3.556 0 0 0-.992.116 2.62 2.62 0 0 0-.91.453 1.848 1.848 0 0 0-.578.817c.226-.246.457-.45.722-.61a3.8 3.8 0 0 1 .844-.347c.363.199.703.394.996.64.172.145.32.313.445.496.13.192.204.407.286.649a1.28 1.28 0 0 0-.063-.762 1.675 1.675 0 0 0-.46-.629 2.22 2.22 0 0 0-.942-.453c.218-.05.441-.09.664-.12.246-.028.5-.052.75-.071.398.261.738.633 1 1.066a2.358 2.358 0 0 0-.637-1.113 2.3 2.3 0 0 0-1.16-.625"/></g></g><g clip-path="url(#v)"><g clip-path="url(#w)"><path fill="#f3dfc9" d="M3.629 68.41c.148-.02.297-.035.445-.047a4.082 4.082 0 0 0-.426.125c-.34.133-.675.313-.941.575a7.531 7.531 0 0 0-1.852.566c.512-.094 1.02-.18 1.528-.246.512-.063 1.02-.113 1.52-.086.245.02.495.043.722.121a3.622 3.622 0 0 1 1.04.523 4.23 4.23 0 0 0-1.406-.09 3.502 3.502 0 0 0-.822.18 2.185 2.185 0 0 0-.601.324 4.36 4.36 0 0 0-.5-.101c-.547-.09-1.102-.004-1.617.133.133 0 .27 0 .402-.008l.195-.008.2.024c.132.011.261.015.39.03l.387.075c.426.105.844.242 1.238.434a7.66 7.66 0 0 0-.523-.067 7.935 7.935 0 0 0-1.14-.015 4.87 4.87 0 0 0-1.13.207c-.363.117-.738.289-.98.593.324-.199.683-.28 1.039-.351.36-.063.726-.106 1.094-.125.636-.051 1.277-.059 1.93-.09.433.234.847.516 1.238.828.41.332.808.688 1.175 1.082a5.654 5.654 0 0 0-1.011-1.27 6.238 6.238 0 0 0-1.325-.968 4.618 4.618 0 0 0-.925-.367 8.493 8.493 0 0 1 1.316-.22c.488-.054.98-.085 1.484-.144.254.192.48.418.653.7-.16-.508-.543-.93-.989-1.227a3.448 3.448 0 0 0-.714-.371c-.266-.102-.535-.125-.805-.152-.246-.012-.488 0-.73.02l.57-.208c.328-.125.656-.246.984-.406.184.035.36.09.531.164.497.238.907.687 1.153 1.223-.13-.579-.489-1.133-1.04-1.446a2.156 2.156 0 0 0-.886-.273 5.309 5.309 0 0 0-.906.039c-.594.07-1.176.18-1.746.332a12.27 12.27 0 0 0-1.68.558l1.734-.312a25.914 25.914 0 0 1 1.727-.258"/></g></g><path fill="#76614e" d="M4.258 71.047c-.196.066-.844.023-.965-.266-.121-.293.004-.484.484-.629.48-.148.598-.12.743.243.144.359.246.48-.262.652M5.824 71.383c-.152.191-.832-.082-.87-.278-.036-.195.19-.328.222-.562.031-.234.363-.195.57.035.207.234.188.668.078.805"/><g clip-path="url(#x)"><path fill="#76614e" d="M-.664 56.086c.191-1.48.48-2.66.879-3.086 1.336-1.434 1.293-1.332 1.336-2.055.047-.722.258-8.207.3-9.148.047-.942.649-5.836.47-7.137-.176-1.3 1.292-1.703 2.187-2.11.89-.405 2.449-.269 2.941 0 .09.048.145.11.176.169-1.477.203-4.215.414-4.371 1.265-.176.957.047 7.137-.938 10.008-.992 2.871 1.125 7.758-.445 8.91-.926.676-1.871 1.922-2.535 3.184"/></g><path fill="#76614e" d="M5.73 50.219c.047-1.055.141-5.317 0-6.371 0 0-.418-5.793-.304-6.801.113-1.004.875-2.203 1.398-2.535 0 0-.976 1.43-1.191 2.68-.211 1.25.43 5.042.668 7 .238 1.956-.57 6.027-.57 6.027"/><g clip-path="url(#y)"><path fill="#76614e" d="M8.277 53.422c.133.719.243.437.778 2.195.113.371.203 1.067.258 1.953-.52-.718-1.426-2.293-1.036-4.148"/></g><g clip-path="url(#z)"><path fill="#e8c49b" d="M41.766 54.59c-.196-1.48-.485-2.66-.88-3.086-1.34-1.43-1.292-1.332-1.34-2.055-.042-.722-.257-8.207-.3-9.148-.043-.942-.648-5.836-.469-7.137.176-1.3-1.293-1.703-2.187-2.11-.89-.402-2.45-.269-2.938 0a.426.426 0 0 0-.18.173c-.128.285.215.68 0 .863-.269.219-.89-.363-1.386.219-.488.586-.434 1.504.59 2.222 1.027.719 1.426 1.528 1.562 2.153.059.28-.906 3.43-1.125 6.617-.273 3.965-.215 8.23-.293 8.625-.129.719-.238.437-.777 2.195-.113.375-.203 1.07-.258 1.953-.2 3.281.043 9.176 1.063 11.137.476.922 3.207.883 4.683.254 1.469-.63 3.477-1.93 4.14-3.23.474-.915.556-6.133.095-9.645"/></g><g clip-path="url(#A)"><g clip-path="url(#B)"><path fill="#f3dfc9" d="M35.625 62.309a13.807 13.807 0 0 1 3.352-1.442c.671-.176 1.359-.316 2.058-.347.176-.012.352 0 .528 0a3.31 3.31 0 0 1 .519.027c.348.031.691.117 1.023.21-.347-.023-.687-.073-1.03-.05a3.677 3.677 0 0 0-.509.016c-.171.015-.34.02-.507.047-.676.085-1.34.23-2 .41-.66.172-1.305.402-1.95.633-.312.109-.617.23-.922.359.133-.031.27-.067.407-.094 1.027-.191 2.09-.289 3.14-.148.52.074 1.043.18 1.532.375.488.199.953.449 1.363.773a6.555 6.555 0 0 0-2.918-.902 9.592 9.592 0 0 0-1.535.008c-.512.043-1.02.109-1.524.21-1.007.196-2 .493-2.972.836-.266.09-.528.192-.785.293.074-.015.152-.035.226-.05.262-.035.524-.086.785-.102.528-.059 1.059-.047 1.586-.02.496.044.992.114 1.473.231 1.058-.348 2.187-.473 3.3-.43a7.913 7.913 0 0 1 1.79.285 5.973 5.973 0 0 1 1.64.739 11.085 11.085 0 0 0-1.699-.496 12.47 12.47 0 0 0-1.742-.207 16.65 16.65 0 0 0-1.766.015c-.457.028-.918.075-1.379.13.344.089.684.202 1.012.347.586.07 1.168.207 1.723.39.976.317 1.914.735 2.785 1.266a18.96 18.96 0 0 0-1.41-.566c-.477-.172-.953-.34-1.442-.461-.968-.262-1.972-.422-2.957-.344-.968.09-1.902.543-2.605 1.234-.715.7-1.082 1.68-1.297 2.672.059-.504.133-1.015.316-1.504.184-.488.45-.945.801-1.336a4.331 4.331 0 0 1 2.758-1.386c.2-.016.398-.02.594-.016a18.657 18.657 0 0 0-1.918-.242 22.763 22.763 0 0 0-1.551-.05c-.438 0-.879.01-1.324.023-.121.05-.242.097-.36.148-.48.195-.953.41-1.422.637A16.992 16.992 0 0 1 33.594 63a15.736 15.736 0 0 1 2.031-.691"/></g></g><g clip-path="url(#C)"><g clip-path="url(#D)"><path fill="#f3dfc9" d="M37.191 57.469c.356-.254.762-.407 1.172-.528l-.367.047c-.266.02-.523.098-.785.157-.258.062-.523.109-.77.214-1.023.313-1.976.828-2.843 1.457-.22.157-.422.332-.637.496-.078.07-.152.145-.234.22.195-.114.39-.223.593-.321.332-.164.676-.305 1.024-.434.347-.125.699-.238 1.066-.316a4.79 4.79 0 0 1 .942-.129 3.1 3.1 0 0 1 .84-.863zm.446-2.41a9.25 9.25 0 0 1 .308-.239c-.36.188-.715.418-1.133.57-.261.102-.554.126-.835.118-.122.004-.243-.004-.364.012-.125.023-.246.03-.367.062-.492.117-.96.332-1.418.574a11.879 11.879 0 0 0-1.402.899 10.397 10.397 0 0 1 2.851-.614c.297-.015.598-.02.895.024.187-.207.379-.406.578-.606.285-.277.578-.547.887-.8zm2.07-.903c.32.032.629.102.926.196-.11-.059-.219-.122-.328-.176-.266-.14-.535-.27-.809-.387a19.929 19.929 0 0 0-1.535-.61c-.195.477-.324.981-.426 1.505.184-.098.375-.2.574-.282.5-.21 1.059-.308 1.598-.246zm-1.09-2.492-.027.012c-.863.449-1.668 1.039-2.621 1.406l-.367.113-.137.028a5.317 5.317 0 0 0-.418.472c-.2.254-.379.528-.55.809-.31.488-.59 1-.895 1.508l.105-.07a5.5 5.5 0 0 1 1.465-.653c.133-.043.27-.055.406-.078.137-.02.281-.012.422-.016.238 0 .477-.015.707-.11.258-.089.512-.226.77-.37a3.75 3.75 0 0 1 .039-1.024c.066-.398.199-.785.39-1.144.172-.34.422-.637.711-.883zm-2.023-1.219c.168-.375.375-.734.633-1.062.261-.32.558-.625.925-.836.196-.117.407-.203.625-.258-.168 0-.34.004-.507.02-.395.043-.79.125-1.094.343-.313.211-.473.559-.692.938-.117.183-.293.383-.527.469-.23.09-.465.09-.68.066-.41-.055-.793-.066-1.18.023a2.24 2.24 0 0 0-.671.293c.308.012.617.059.918.13.355.085.703.202 1.039.359.308.152.61.324.875.55.07-.355.187-.703.336-1.035zm.66-2.394c-.32-.059-.633-.13-.945-.2-.223.07-.438.141-.633.243-.27.12-.512.289-.727.484-.398.352-.687.817-.922 1.336l.004-.004c.41-.14.867-.12 1.274-.086.191.016.383.008.535-.058.156-.059.273-.184.375-.348.101-.164.195-.352.32-.535.121-.184.281-.356.469-.48.21-.137.437-.22.668-.27-.14-.028-.281-.051-.418-.082zm-1.285-.871a3.62 3.62 0 0 1 .36-.52c.1-.117.206-.226.32-.328-.122.063-.243.121-.364.188-.332.167-.664.347-1.035.476-.195.063-.363.102-.527.164a4.435 4.435 0 0 0-.309.145c.262-.012.527.004.79.03.214.02.429.056.644.095.035-.086.078-.168.12-.25zm1.027-3.442c.371-.011.734-.054 1.102-.004.093.004.187.012.28.024a46.12 46.12 0 0 1-1.429-.98l-.23-.165c-.258.098-.508.192-.739.328-.289.149-.554.332-.796.547-.422.36-.77.805-1.079 1.297a6.847 6.847 0 0 1 1.81-.832c.35-.11.718-.156 1.081-.215zm-1.598-5.855.282.031c.09.008.16.031.238.035.152.016.297.004.363-.07.078-.066.117-.223.168-.399.028-.085.063-.18.117-.273a.625.625 0 0 1 .254-.219c.203-.093.403-.078.578-.05.125.019.243.054.36.085-.328-.3-.692-.46-1.082-.515-.203-.04-.41-.024-.625-.024-.106.012-.215.02-.324.028l-.157.015c-.027.059-.054.114-.078.172-.094.219-.168.45-.254.68-.062.172-.125.351-.191.531.117-.02.234-.023.351-.027zm-.195-3.676c.145-.34.324-.672.555-.969a3.24 3.24 0 0 1 .84-.758c.074-.042.152-.082.23-.113-.25.008-.5.028-.75.051-.453.05-.906.11-1.363.18a2.183 2.183 0 0 1-.117.168c-.059.062-.102.136-.18.191a.664.664 0 0 1-.238.14c-.043.016-.09.036-.133.048l-.137.007-.133.008h-.101a.85.85 0 0 0-.383.09c-.191.105-.332.3-.43.523a.615.615 0 0 1 .278-.078c.164-.004.324.043.464.11.293.133.528.343.743.554.207.215.402.45.566.707l.023.04c.051-.31.145-.61.266-.899zm5.125 24.32a9.514 9.514 0 0 1 1.695-.164c.57.016 1.141.086 1.672.282a5.708 5.708 0 0 0-1.668-.122 9.081 9.081 0 0 0-1.648.247 19.384 19.384 0 0 0-3.16 1.093 38.583 38.583 0 0 0-3.016 1.492c-.492.27-.98.551-1.465.84-.484.282-.965.578-1.441.88.879-.712 1.82-1.345 2.785-1.934.617-.375 1.25-.723 1.898-1.047a2.539 2.539 0 0 1 .336-1.692c-.632.223-1.242.45-1.867.68-.629.223-1.261.453-1.918.633-.054.05-.11.097-.164.148-.39.375-.746.785-1.07 1.223.543-.95 1.293-1.777 2.152-2.465a8.885 8.885 0 0 1 1.934-1.2c.226-.308.469-.6.726-.886-.27.05-.535.106-.8.156-.34.07-.684.133-1.028.196-.648.11-1.297.21-1.965.246-.359.258-.714.531-1.02.851.61-.761 1.388-1.37 2.208-1.906.062-.285.152-.562.258-.832a6.26 6.26 0 0 1 .46-.914c.184-.289.387-.57.641-.809.086-.082.18-.16.282-.234l-.278.05-.351.079a6.71 6.71 0 0 0-1.356.496c-.863.422-1.648 1.07-2.086 1.965.153-.473.438-.902.774-1.274a5.34 5.34 0 0 1 1.199-.91 5.99 5.99 0 0 1 1.39-.57 8.31 8.31 0 0 1 .739-.16l.344-.078.34-.11c.34-.125.667-.289.992-.465a4.352 4.352 0 0 0-.684-.582c-.29-.199-.602-.359-.918-.507-.316-.157-.648-.282-.98-.41l-.903-.333c-.433.29-.785.723-1.015 1.211a2.81 2.81 0 0 1 .605-1.09 2.527 2.527 0 0 1 1.004-.663c.016-.278.086-.551.203-.81a2.36 2.36 0 0 1 .57-.788 2.15 2.15 0 0 1 .852-.48c.129-.044.266-.07.398-.083l-.199-.047c-.015.016-.031.032-.047.051l.012-.058-.59-.141c-.289-.07-.582-.14-.875-.207a4.457 4.457 0 0 0-.902.7c-.274.253-.512.538-.742.84a4.827 4.827 0 0 1 1.468-1.724c.157-.113.328-.21.508-.289.18-.078.375-.136.531-.195.336-.125.66-.3.993-.477.332-.167.672-.343 1.03-.476.36-.129.735-.234 1.122-.266.055 0 .11-.004.164-.004a9.056 9.056 0 0 0-.602-.324 8.732 8.732 0 0 0-.796-.324c-.457-.168-.93-.309-1.407-.461a8.319 8.319 0 0 0-1.586.73 8.373 8.373 0 0 0-.882.602c-.293.207-.559.45-.832.688a7.11 7.11 0 0 1 1.582-1.497c.02-.015.039-.023.054-.039a3.09 3.09 0 0 1 .988-1.613c.13-.121.278-.215.426-.312.157-.079.305-.176.477-.223.242-.098.496-.145.754-.16-.16-.114-.317-.23-.473-.352-.207-.156-.41-.32-.613-.484-.574.11-1.125.351-1.625.66-.152.094-.293.203-.438.309-.136.117-.277.226-.406.351a5.93 5.93 0 0 0-.726.805 4.85 4.85 0 0 1 1.43-1.668c.027-.02.058-.04.085-.059.113-.347.262-.683.461-.996.227-.375.516-.715.848-1.004.332-.293.73-.511 1.148-.648.2-.074.406-.11.617-.125-.578-.164-1.144-.305-1.738-.328a3.746 3.746 0 0 0-1 .074 2.774 2.774 0 0 0-.773.258c-.02.027-.043.047-.063.074a6.412 6.412 0 0 0-.574.855 4.477 4.477 0 0 1 1.113-1.77 2.34 2.34 0 0 1 .938-.55c.039-.012.082-.023.125-.031-.016-.203 0-.406.027-.606.04-.25.106-.5.203-.738a2.68 2.68 0 0 1 .301-.535c-.008 0-.012.004-.02.004l-.23.012h-.184a1.864 1.864 0 0 0-.359.058c-.473.14-.89.496-1.2.93.2-.492.579-.957 1.118-1.168.137-.05.277-.086.418-.102l.105-.004c-.136-.199-.285-.378-.433-.558-.195-.215-.39-.426-.598-.63a4.005 4.005 0 0 0-.629-.558c-.191-.129-.425-.25-.66-.168l-.023.059a3.32 3.32 0 0 0-.164.906 2.847 2.847 0 0 1 .011-.945c.067-.309.207-.645.512-.844a1.03 1.03 0 0 1 .496-.156l.13-.008c.042 0 .065-.008.1-.008l.094-.011c.028-.008.055-.024.082-.036.22-.09.371-.355.52-.62.148-.266.309-.551.523-.798.215-.253.5-.445.801-.57.621-.23 1.274-.168 1.875-.027-.617-.016-1.242.015-1.777.258-.254.136-.488.3-.668.535-.184.226-.328.488-.477.761l-.105.176c.418-.16.847-.277 1.285-.36a6.961 6.961 0 0 1 1.613-.128c.54.023 1.09.098 1.594.324.508.211.96.567 1.238 1.028a3.284 3.284 0 0 0-1.324-.793c-.484-.164-1.004-.22-1.52-.239-.117-.004-.23-.008-.347-.008a3.67 3.67 0 0 0-.563.333c-.27.218-.507.472-.722.75a7.688 7.688 0 0 0-.586.882c-.156.274-.309.555-.453.844.105.188.199.39.246.602h.039l.172-.016c.218-.043.418-.184.613-.355.16-.133.332-.282.516-.415.343-.652.964-1.16 1.66-1.43.402-.14.828-.237 1.254-.23.21-.015.422.024.629.04.207.042.41.09.613.148-.211.015-.418 0-.621.012-.203.02-.407.015-.606.05-.097.016-.199.032-.297.043-.097.016-.195.043-.293.067-.195.03-.378.11-.566.172a4.232 4.232 0 0 0-1.039.574c-.14.105-.281.226-.414.351.184-.097.379-.172.586-.203.558-.105 1.105.024 1.605.211-.53-.066-1.066-.101-1.55.035-.493.13-.868.453-1.27.82a2.638 2.638 0 0 1-.348.25c-.035.055-.074.11-.105.165-.059.11-.113.222-.168.336.02-.012.035-.024.055-.032.105-.047.214-.09.328-.12.226-.06.468-.09.707-.051.242.039.476.124.668.277.187.144.336.344.39.566.559.157 1.067.414 1.563.684-.332-.106-.653-.227-.985-.317-.324-.097-.656-.195-.98-.214-.16-.012-.32 0-.434.058-.109.055-.16.164-.203.324-.043.153-.066.36-.238.543-.188.18-.43.172-.61.16-.093-.003-.19-.035-.269-.042l-.234-.028c-.157 0-.313.004-.465.051-.309.07-.594.238-.856.441-.199.16-.379.348-.546.547.488-.324 1.101-.453 1.687-.472.703-.036 1.41.148 2.063.336.324.093.652.16.984.199.332.05.66.031 1.016.043.175.011.367.035.539.105.171.067.324.164.464.27.278.222.512.476.739.738-.274-.207-.535-.437-.828-.605a1.445 1.445 0 0 0-.918-.258 6.608 6.608 0 0 1-1.043.011 5.798 5.798 0 0 1-.97-.18 1.429 1.429 0 0 0-.253.067l-.3.09-.286.117a4.241 4.241 0 0 0-1.031.656c-.551.47-.985 1.055-1.399 1.676a4.198 4.198 0 0 1 1.864-.687 4.96 4.96 0 0 1 2.203.281c.18.047.34.14.508.219l.496.238c.308.203.617.402.91.613-.332-.148-.653-.32-.98-.472l-.505-.192c-.167-.058-.328-.14-.507-.168-.172-.039-.344-.082-.516-.129-.172-.05-.352-.043-.523-.07l-.262-.031c-.09-.012-.176.004-.262.004-.176.008-.351-.004-.527.027-.067.004-.133.016-.2.023a8.022 8.022 0 0 1 1.45.829c.265.195.531.394.773.625.207.191.403.402.574.632.235.036.47.082.7.133.18.032.347.102.52.16.171.059.34.121.507.188-.707-.14-1.41-.29-2.121-.274-.352-.015-.703.032-1.055.06-.343.065-.695.112-1.027.222l-.055.02a4.654 4.654 0 0 1 1.219.25c.281.105.559.238.812.41.215.148.415.331.57.538.298 0 .598.02.884.094.191.031.363.114.543.168.175.07.343.16.511.238-.707-.242-1.453-.351-2.168-.246a4.952 4.952 0 0 0-1.148.356c-.07.101-.14.2-.215.297-.121.164-.254.32-.383.48-.172.203-.351.403-.535.602.078.015.156.027.234.047.59.136 1.172.316 1.727.562.086-.008.172-.016.258-.016.847-.015 1.664.165 2.457.399-.414-.047-.82-.113-1.23-.137a5.372 5.372 0 0 0-.36-.023 3.293 3.293 0 0 0-.832.453c-.309.234-.57.523-.813.832-.25.3-.46.637-.664.977-.18.308-.359.62-.527.945l.031.023c.239.215.446.469.578.758.52-.281 1.036-.59 1.582-.836.458-.203.926-.387 1.422-.476a4.734 4.734 0 0 1 1.485-.036 5.455 5.455 0 0 0-1.914.336c-.23.157-.446.317-.63.52-.257.27-.488.566-.656.902a5.21 5.21 0 0 0-.199.422c.254-.004.508.027.754.082.305.063.602.164.887.29.512.23.988.558 1.36.98.581.226 1.124.539 1.64.875-.238-.11-.477-.223-.711-.336-.238-.106-.484-.192-.727-.29-.492-.16-.992-.312-1.5-.32a3.23 3.23 0 0 0-1.293.215c-.468.504-.937.992-1.425 1.473-.426.414-.856.824-1.313 1.21.227-.093.453-.175.684-.25.258-.1.531-.148.797-.214.27-.059.535-.133.812-.148l.824-.083c.274-.003.551.012.825.02l.41.012c.136.008.273.039.406.054l.812.125c.27.04.528.141.793.207.262.075.524.153.782.23-.54-.081-1.063-.218-1.598-.28l-.809-.078c-.132-.012-.265-.032-.398-.032l-.309.004-.238.047-.734.191c-.473.172-.95.336-1.348.63a3.119 3.119 0 0 0-.984 1.07 3.256 3.256 0 0 0-.371 1.27c.355-.177.71-.348 1.074-.509 1.039-.449 2.117-.828 3.238-1.039"/></g></g><path fill="#f3dfc9" d="M38.668 67.648s.406-1.578-.297-2.043c-.703-.46-2.164-1.222-2.57 0-.406 1.227.297 2.043.297 2.043h2.57"/><g clip-path="url(#E)"><path fill="#e8c49b" d="M36.105 71.938c-.574-.532-.996-1.364-1.066-2.266-.066-.902-.066-2.234.469-2.93.531-.691 2.101-.937 3.035-.176.934.762 1.645 3.934.621 5.051-1.02 1.113-2.57.774-3.059.32"/></g><g clip-path="url(#F)"><g clip-path="url(#G)"><path fill="#f3dfc9" d="M37.473 70.18c.441-.078.89-.032 1.304.093.207.063.403.157.598.243.184.113.367.218.54.34-.204-.06-.4-.133-.599-.196-.203-.047-.398-.101-.597-.144-.399-.067-.801-.09-1.188-.024a2.302 2.302 0 0 0-.636.23c.18-.03.359-.046.542-.054.329-.004.665.031.993.121.324.094.636.238.906.45.266.214.473.503.578.816a3.275 3.275 0 0 0-.719-.61 3.947 3.947 0 0 0-.843-.343c-.364.195-.704.39-.997.636a2.38 2.38 0 0 0-.449.5c-.125.188-.199.403-.285.645-.05-.242-.039-.516.063-.762.101-.242.27-.457.464-.629a2.156 2.156 0 0 1 .942-.453 9.164 9.164 0 0 0-.668-.121 22.31 22.31 0 0 0-.75-.066 3.24 3.24 0 0 0-1 1.066c.105-.414.32-.809.637-1.117a2.32 2.32 0 0 1 1.164-.621"/></g></g><g clip-path="url(#H)"><g clip-path="url(#I)"><path fill="#f3dfc9" d="M37.473 66.914c-.153-.02-.301-.035-.45-.047.145.035.29.078.426.125.344.133.676.313.946.574.12.02.242.047.363.07a7.412 7.412 0 0 1 1.488.5 26.563 26.563 0 0 0-1.531-.25c-.508-.062-1.016-.113-1.516-.085-.246.02-.496.043-.722.12-.235.075-.47.18-.688.298-.121.07-.238.144-.355.226a4.231 4.231 0 0 1 1.41-.09c.277.036.554.082.82.18.211.078.418.184.598.324.168-.043.336-.078.504-.101.543-.09 1.101-.004 1.617.133-.137 0-.27 0-.403-.008l-.199-.004-.199.02c-.129.011-.262.015-.39.035l-.383.074c-.43.101-.844.238-1.243.433.176-.03.352-.054.528-.07a7.358 7.358 0 0 1 1.136-.012c.383.024.762.086 1.133.204.364.117.739.289.98.593-.327-.199-.683-.281-1.042-.351a9.213 9.213 0 0 0-1.09-.125c-.637-.047-1.281-.059-1.934-.09a8.552 8.552 0 0 0-1.238.828 12.25 12.25 0 0 0-1.172 1.086c.27-.473.617-.899 1.012-1.274.39-.378.84-.703 1.32-.964.293-.16.61-.282.93-.371a9.498 9.498 0 0 0-1.32-.22c-.485-.054-.977-.081-1.485-.144-.25.192-.48.418-.652.7.16-.504.547-.926.988-1.227.223-.152.461-.27.719-.367.262-.106.535-.13.8-.157.247-.011.489 0 .731.024l-.57-.207c-.328-.125-.656-.25-.985-.406-.18.03-.359.086-.527.16-.5.238-.906.687-1.156 1.222.133-.578.492-1.132 1.039-1.441.27-.16.578-.246.89-.277.313-.02.614.007.907.039.59.07 1.172.183 1.742.332a12.45 12.45 0 0 1 1.68.558l-1.73-.312c-.579-.098-1.153-.195-1.727-.258"/></g></g><path fill="#76614e" d="M36.84 69.55c.2.067.847.024.965-.265.12-.289 0-.484-.48-.629-.481-.144-.602-.12-.747.242-.144.364-.246.485.262.653M35.277 69.887c.153.191.832-.082.868-.278.035-.195-.192-.328-.22-.562-.03-.23-.366-.195-.573.039-.207.23-.184.668-.075.8"/><g clip-path="url(#J)"><path fill="#76614e" d="M41.766 54.59c-.196-1.48-.485-2.66-.88-3.086-1.34-1.43-1.292-1.332-1.34-2.055-.042-.722-.257-8.207-.3-9.148-.043-.942-.648-5.836-.469-7.137.176-1.3-1.293-1.703-2.187-2.11-.89-.402-2.45-.269-2.938 0a.426.426 0 0 0-.18.173c1.481.199 4.22.41 4.376 1.261.175.957-.051 7.137.937 10.008.988 2.875-1.129 7.762.442 8.91.93.676 1.875 1.922 2.539 3.184"/></g><path fill="#76614e" d="M35.371 48.723c-.047-1.055-.144-5.317 0-6.368 0 0 .418-5.796.305-6.8-.114-1.008-.875-2.203-1.403-2.54 0 0 .98 1.43 1.192 2.68.21 1.254-.43 5.043-.664 7-.239 1.957.57 6.028.57 6.028"/><g clip-path="url(#K)"><path fill="#76614e" d="M32.82 51.926c-.129.719-.238.437-.777 2.195-.113.375-.203 1.07-.258 1.953.52-.715 1.426-2.293 1.035-4.148"/></g><g clip-path="url(#L)"><path fill="#e8c49b" d="M49.398 54.625c-.191-1.48-.48-2.66-.875-3.082-1.34-1.434-1.293-1.336-1.34-2.055-.042-.726-.257-8.21-.3-9.152-.043-.941-.649-5.836-.469-7.137.176-1.3-1.293-1.703-2.187-2.11-.891-.401-2.45-.265-2.938 0a.426.426 0 0 0-.18.173c-.129.285.215.68 0 .863-.27.223-.89-.363-1.386.223-.489.582-.434 1.504.59 2.218 1.027.72 1.425 1.528 1.562 2.153.059.281-.906 3.43-1.125 6.62-.273 3.966-.215 8.227-.293 8.626-.129.715-.238.433-.777 2.191-.114.375-.203 1.07-.258 1.953-.2 3.282.043 9.176 1.062 11.137.477.922 3.207.883 4.684.254 1.469-.629 3.477-1.93 4.14-3.23.473-.915.551-6.133.09-9.645"/></g><g clip-path="url(#M)"><g clip-path="url(#N)"><path fill="#f3dfc9" d="M43.258 62.344c.449-.27.918-.508 1.394-.723.633-.289 1.29-.531 1.961-.719.672-.175 1.36-.316 2.059-.343.176-.012.351-.004.527-.004.172-.004.348.008.52.027.347.031.691.117 1.023.211-.347-.023-.687-.074-1.031-.05a3.677 3.677 0 0 0-.508.015c-.172.015-.34.02-.508.047-.675.086-1.34.23-2 .41-.66.172-1.304.402-1.949.633-.312.109-.617.23-.922.359.133-.031.27-.062.406-.09 1.028-.195 2.09-.293 3.141-.152.52.074 1.043.18 1.531.375.489.2.953.45 1.364.773a6.555 6.555 0 0 0-2.918-.902 9.592 9.592 0 0 0-1.535.008c-.512.043-1.02.11-1.524.215-1.008.191-2 .488-2.973.832-.265.093-.527.191-.785.293.074-.016.153-.032.227-.051.262-.035.523-.086.785-.102a10.238 10.238 0 0 1 1.586-.02c.496.044.992.114 1.473.231 1.058-.347 2.187-.472 3.3-.43a7.914 7.914 0 0 1 1.79.286 6.09 6.09 0 0 1 1.64.738 11.085 11.085 0 0 0-1.7-.496 12.47 12.47 0 0 0-1.741-.207 16.65 16.65 0 0 0-1.766.015c-.457.028-.918.075-1.379.13.344.09.684.202 1.012.347.586.07 1.168.207 1.722.39.977.317 1.915.735 2.786 1.27a17.447 17.447 0 0 0-1.41-.57c-.477-.172-.954-.34-1.442-.461-.969-.262-1.973-.422-2.957-.344-.969.09-1.902.543-2.605 1.235-.715.699-1.082 1.68-1.297 2.671.058-.504.133-1.015.316-1.504.184-.488.45-.945.8-1.335a4.331 4.331 0 0 1 2.759-1.387c.199-.016.398-.02.593-.016-.125-.02-.25-.043-.375-.062a18.657 18.657 0 0 0-1.543-.18 22.763 22.763 0 0 0-1.55-.05c-.438 0-.88.011-1.325.023-.12.05-.242.097-.359.148a25.82 25.82 0 0 0-1.422.637 17.113 17.113 0 0 1 2.778-1.43c.66-.273 1.34-.504 2.03-.691"/></g></g><g clip-path="url(#O)"><g clip-path="url(#P)"><path fill="#f3dfc9" d="M44.828 57.504c.356-.254.762-.406 1.172-.524l-.367.043c-.266.02-.524.098-.785.157-.258.062-.524.113-.77.215-1.023.312-1.976.828-2.844 1.457-.218.156-.422.332-.636.496-.078.074-.153.144-.235.218.196-.113.39-.218.594-.32.332-.164.676-.305 1.023-.434.348-.12.7-.238 1.067-.316a4.79 4.79 0 0 1 .941-.129 3.1 3.1 0 0 1 .84-.863zm.445-2.406c.102-.082.204-.164.309-.243-.36.188-.715.418-1.133.57-.261.102-.554.126-.836.118-.12.008-.242-.004-.367.012-.121.023-.242.03-.363.062-.492.117-.961.332-1.418.574-.457.246-.895.532-1.317.836-.03.02-.058.043-.086.063a10.397 10.397 0 0 1 2.852-.613c.297-.016.598-.02.895.023a13.165 13.165 0 0 1 1.465-1.402zm2.07-.907c.321.032.626.102.927.196-.11-.059-.22-.121-.329-.176a18.444 18.444 0 0 0-2.344-.992c-.195.472-.324.98-.425 1.5.183-.098.371-.2.574-.282.5-.21 1.059-.308 1.598-.246zm-1.09-2.492a.19.19 0 0 0-.026.012c-.864.45-1.668 1.039-2.622 1.406l-.367.113-.136.032a4.773 4.773 0 0 0-.418.468c-.2.254-.38.528-.551.81-.309.487-.59 1-.895 1.507.035-.02.07-.047.106-.067.449-.28.937-.515 1.465-.656.129-.039.27-.054.406-.078.137-.02.281-.012.422-.016.238 0 .476-.015.707-.109.258-.09.511-.226.77-.367a3.772 3.772 0 0 1 .038-1.027c.067-.395.2-.786.391-1.145.172-.34.422-.637.71-.883zM44.23 50.48c.168-.375.375-.734.633-1.058.262-.324.559-.629.926-.84.195-.117.406-.203.625-.258-.168 0-.34.004-.508.024-.394.039-.789.12-1.093.34-.313.21-.473.558-.692.937-.117.188-.293.383-.527.469-.23.09-.465.09-.68.066-.41-.05-.793-.066-1.18.024a2.24 2.24 0 0 0-.672.293c.31.011.614.062.918.132.356.082.704.2 1.04.356.308.152.609.324.875.55.07-.355.187-.703.335-1.035zm.66-2.39c-.32-.063-.632-.133-.945-.203-.222.07-.437.14-.633.242-.269.121-.511.289-.726.484-.398.352-.688.817-.922 1.336 0 0 .004 0 .004-.004.41-.136.867-.12 1.273-.086.192.016.383.008.536-.054.156-.063.273-.188.375-.352.101-.164.195-.351.32-.535.121-.184.281-.355.469-.48.21-.137.437-.22.668-.27-.141-.027-.282-.05-.418-.078zm-1.285-.871a3.45 3.45 0 0 1 .36-.524c.101-.117.207-.222.32-.328-.12.063-.242.121-.363.188-.332.168-.664.347-1.035.476-.196.063-.364.102-.528.164a4.434 4.434 0 0 0-.308.145c.261-.012.527.004.789.031.215.02.43.055.644.094.036-.086.078-.168.121-.246zm1.028-3.446c.37-.011.734-.054 1.101-.003.094.003.188.011.282.023-.489-.32-.957-.645-1.43-.977a8.588 8.588 0 0 0-.23-.168 5.04 5.04 0 0 0-.739.329c-.289.148-.554.332-.797.546-.422.364-.77.805-1.078 1.297a6.847 6.847 0 0 1 1.809-.832c.351-.11.719-.156 1.082-.215zm-1.598-5.855.281.031c.09.012.16.031.239.035.152.016.297.004.363-.066.078-.07.113-.227.168-.402.027-.086.062-.18.117-.274a.625.625 0 0 1 .254-.219c.203-.093.402-.078.578-.05.125.023.242.054.356.086-.325-.301-.688-.461-1.078-.516-.204-.04-.41-.023-.626-.023-.105.011-.214.02-.324.027-.05.004-.105.012-.16.016-.023.058-.05.113-.074.171-.094.22-.168.45-.254.68-.063.172-.125.352-.191.531.117-.02.234-.023.351-.027zm-.195-3.676c.144-.34.324-.672.555-.969a3.24 3.24 0 0 1 .84-.757c.074-.043.152-.078.23-.114-.25.012-.5.028-.75.051-.453.05-.906.11-1.363.18a1.62 1.62 0 0 1-.118.168c-.058.062-.101.136-.18.191a.664.664 0 0 1-.238.14c-.043.016-.09.04-.132.048l-.137.008-.133.007h-.102a.85.85 0 0 0-.382.09c-.196.106-.332.3-.43.524a.615.615 0 0 1 .277-.079.997.997 0 0 1 .465.114c.293.129.528.34.738.55.211.215.407.45.57.708.009.011.016.027.024.039.051-.309.145-.61.266-.899zm5.125 24.32a9.161 9.161 0 0 1 1.695-.16c.57.012 1.14.082 1.672.278a5.708 5.708 0 0 0-1.668-.121 9.081 9.081 0 0 0-1.648.246 19.384 19.384 0 0 0-3.16 1.093 38.583 38.583 0 0 0-3.016 1.493c-.492.27-.98.55-1.465.84-.484.28-.965.578-1.441.878.879-.71 1.82-1.343 2.785-1.933.613-.375 1.25-.723 1.898-1.047a2.539 2.539 0 0 1 .336-1.691c-.633.222-1.242.449-1.867.68-.629.222-1.262.452-1.918.632l-.164.148c-.39.375-.746.786-1.07 1.223.543-.95 1.293-1.777 2.152-2.465a9.038 9.038 0 0 1 1.934-1.199c.226-.309.468-.602.726-.887-.27.051-.535.106-.8.157-.34.07-.684.132-1.028.195-.648.11-1.297.21-1.965.246-.36.262-.715.531-1.02.852.61-.762 1.387-1.372 2.208-1.907.058-.285.152-.562.257-.832a6.26 6.26 0 0 1 .461-.914c.184-.289.387-.566.641-.808.086-.082.18-.16.281-.235l-.277.051-.352.078a6.71 6.71 0 0 0-1.355.496c-.863.426-1.649 1.07-2.086 1.965.152-.473.437-.902.773-1.273.352-.36.758-.664 1.196-.91a6.09 6.09 0 0 1 1.394-.57 8.31 8.31 0 0 1 .739-.161l.343-.078.34-.11c.34-.124.668-.289.992-.464a4.352 4.352 0 0 0-.683-.582c-.29-.2-.602-.36-.918-.508-.317-.156-.649-.281-.98-.41l-.903-.332c-.434.289-.785.722-1.016 1.214.114-.402.325-.777.606-1.093a2.527 2.527 0 0 1 1.004-.664c.015-.278.086-.551.203-.809a2.36 2.36 0 0 1 .57-.789 2.15 2.15 0 0 1 .852-.48c.129-.043.265-.067.398-.083l-.2-.046c-.015.015-.03.035-.046.05l.012-.058-.59-.14c-.29-.071-.582-.141-.875-.208a4.33 4.33 0 0 0-.902.703c-.274.25-.512.535-.743.836a4.827 4.827 0 0 1 1.47-1.722c.155-.114.327-.211.507-.29.18-.078.375-.136.531-.195.336-.125.66-.3.992-.476.332-.168.672-.344 1.032-.477.359-.129.734-.234 1.12-.266.055 0 .106 0 .16-.003a8.102 8.102 0 0 0-.597-.325c-.262-.117-.527-.23-.797-.324-.457-.168-.93-.309-1.406-.46a8.319 8.319 0 0 0-1.586.73 8.373 8.373 0 0 0-.883.601c-.293.207-.558.45-.832.688a7.11 7.11 0 0 1 1.582-1.496c.02-.016.04-.024.055-.04a3.09 3.09 0 0 1 .988-1.613c.13-.12.278-.215.426-.312.156-.078.305-.176.477-.223.242-.098.496-.144.754-.16-.16-.113-.317-.23-.473-.352-.207-.152-.41-.32-.613-.484-.575.11-1.125.352-1.625.66-.153.098-.293.207-.438.309-.137.117-.277.226-.406.355-.27.239-.504.512-.727.801a4.887 4.887 0 0 1 1.43-1.668c.027-.02.059-.039.086-.059.113-.343.262-.683.46-.996.227-.375.516-.715.849-1.004.332-.293.73-.511 1.148-.648.2-.074.406-.11.617-.125-.578-.164-1.144-.305-1.738-.324a3.743 3.743 0 0 0-1 .07 2.774 2.774 0 0 0-.774.258c-.02.027-.043.05-.062.074a6.412 6.412 0 0 0-.574.856 4.477 4.477 0 0 1 1.113-1.77c.258-.246.578-.445.937-.55.04-.012.083-.024.125-.032-.015-.203 0-.406.028-.605.039-.25.105-.5.203-.739a2.68 2.68 0 0 1 .3-.535c-.007 0-.011.004-.019.004l-.23.012h-.184a1.864 1.864 0 0 0-.36.058c-.472.141-.89.496-1.198.93.199-.492.578-.957 1.117-1.168.136-.05.277-.086.418-.102l.101-.003c-.133-.2-.281-.38-.43-.559-.195-.215-.39-.426-.597-.629a4.005 4.005 0 0 0-.629-.559c-.195-.128-.426-.25-.66-.167l-.024.062c-.101.281-.144.59-.164.902a2.847 2.847 0 0 1 .012-.945c.066-.309.207-.644.512-.844a1.03 1.03 0 0 1 .496-.156l.129-.008c.043 0 .066-.008.101-.008l.094-.011c.027-.008.055-.024.082-.035.219-.09.371-.356.516-.622.152-.265.312-.546.527-.796.215-.254.5-.446.8-.57.622-.231 1.274-.165 1.876-.028-.617-.016-1.242.016-1.777.258-.254.14-.489.3-.668.535-.184.226-.329.488-.477.762l-.105.175a7.75 7.75 0 0 1 1.285-.359 7.166 7.166 0 0 1 1.61-.129c.542.024 1.093.098 1.597.324.508.211.957.567 1.238 1.028a3.284 3.284 0 0 0-1.324-.793c-.489-.164-1.004-.219-1.524-.239a9.865 9.865 0 0 0-.343-.007c-.2.097-.387.203-.563.336a4.36 4.36 0 0 0-.723.746 8.044 8.044 0 0 0-.586.882 17.26 17.26 0 0 0-.453.844c.106.192.2.39.246.606l.04-.004.171-.016c.22-.043.418-.183.614-.355.16-.133.332-.282.515-.414.344-.653.965-1.157 1.66-1.43.403-.14.829-.238 1.254-.23.211-.016.422.027.63.042.206.04.41.086.609.145-.207.016-.414 0-.618.012-.203.023-.406.015-.605.05a7.76 7.76 0 0 1-.297.043c-.098.016-.195.043-.293.067-.195.035-.379.11-.566.172a4.232 4.232 0 0 0-1.04.574c-.14.11-.28.227-.413.352.183-.098.379-.172.586-.204.558-.105 1.105.028 1.605.211-.531-.066-1.066-.101-1.55.035-.493.13-.868.454-1.27.82-.106.09-.223.18-.348.255-.035.05-.074.105-.105.16-.059.11-.114.222-.168.336.02-.012.035-.024.054-.031.106-.047.215-.09.328-.122.227-.058.47-.086.707-.05.243.039.477.125.668.277.188.145.336.344.391.566.559.157 1.066.414 1.563.684-.332-.105-.653-.227-.985-.316-.324-.098-.656-.196-.98-.215-.16-.012-.32 0-.434.058-.11.055-.16.164-.203.325-.043.152-.066.363-.238.543-.192.18-.43.171-.614.16-.09-.004-.187-.035-.265-.043l-.235-.028c-.156 0-.312.004-.464.051-.309.07-.594.238-.856.442-.2.16-.379.347-.547.546.489-.324 1.102-.453 1.688-.472.703-.035 1.41.148 2.062.336.324.093.653.16.985.199.332.05.66.031 1.015.043.176.012.364.035.54.105.171.067.324.164.464.27.278.223.512.476.738.742-.273-.21-.535-.441-.828-.61a1.445 1.445 0 0 0-.918-.257 6.608 6.608 0 0 1-1.043.012 5.798 5.798 0 0 1-.968-.18 1.47 1.47 0 0 0-.258.066l-.297.09-.285.117a4.141 4.141 0 0 0-1.031.66c-.551.465-.985 1.051-1.399 1.672a4.245 4.245 0 0 1 1.863-.687 4.96 4.96 0 0 1 2.203.281c.18.047.34.14.508.219l.496.238c.309.203.618.403.91.613-.335-.148-.652-.32-.98-.472l-.504-.192c-.168-.058-.328-.14-.508-.168-.172-.039-.343-.082-.515-.128-.172-.051-.352-.043-.524-.07l-.261-.032c-.09-.012-.176.004-.266.004-.172.012-.348-.004-.523.027-.067.004-.133.016-.2.028.211.086.41.191.61.296.293.16.57.34.84.528.265.195.53.394.773.625.207.191.402.402.574.633.235.035.465.082.7.132.18.032.347.102.519.16.172.06.34.122.508.188-.707-.14-1.41-.289-2.121-.273-.352-.012-.703.03-1.055.058-.344.067-.695.114-1.027.227-.02.004-.04.011-.055.015a4.654 4.654 0 0 1 1.219.25c.28.106.558.239.812.41.215.149.414.333.57.54.297 0 .598.02.883.093.192.032.364.114.543.168.176.07.344.16.512.239-.707-.243-1.453-.352-2.168-.246a4.952 4.952 0 0 0-1.148.355c-.07.102-.141.2-.215.297-.121.168-.254.324-.383.48-.172.203-.352.403-.535.602.078.016.156.027.234.047.59.136 1.172.32 1.727.566.086-.012.172-.015.258-.02.847-.015 1.664.165 2.453.4-.41-.048-.817-.114-1.227-.138a5.371 5.371 0 0 0-.36-.023 3.293 3.293 0 0 0-.831.453c-.309.234-.57.527-.813.832-.25.3-.46.637-.664.977-.18.308-.36.62-.527.945l.031.023c.238.215.445.47.578.758.52-.281 1.035-.59 1.582-.836.457-.203.926-.386 1.418-.476a4.761 4.761 0 0 1 1.488-.035 5.455 5.455 0 0 0-1.914.336c-.23.156-.445.316-.629.519a3.813 3.813 0 0 0-.656.902c-.074.137-.136.282-.199.422.254-.004.508.032.754.082.305.063.601.164.887.29.511.23.984.558 1.359.984.582.222 1.125.535 1.64.87a23.6 23.6 0 0 1-.71-.335c-.239-.106-.485-.192-.727-.285-.492-.16-.992-.317-1.5-.325a3.23 3.23 0 0 0-1.293.215c-.469.504-.937.993-1.426 1.473-.425.414-.855.824-1.312 1.21.226-.089.453-.175.683-.25.258-.1.528-.148.797-.214.27-.055.535-.133.813-.148l.824-.078c.273-.008.55.007.824.015l.41.012c.137.008.274.039.407.055l.812.125c.27.039.528.14.793.207.262.074.524.152.781.23-.539-.082-1.062-.219-1.601-.281l-.805-.078c-.133-.008-.265-.032-.398-.032l-.309.008c-.078.016-.16.028-.238.043l-.735.192c-.472.172-.949.336-1.347.629a3.119 3.119 0 0 0-.985 1.07 3.256 3.256 0 0 0-.37 1.27c.355-.176.71-.348 1.074-.505 1.039-.449 2.117-.832 3.238-1.042"/></g></g><path fill="#f3dfc9" d="M46.305 67.684s.406-1.579-.297-2.043c-.703-.461-2.164-1.223-2.57 0-.407 1.226.296 2.043.296 2.043h2.57"/><g clip-path="url(#Q)"><path fill="#e8c49b" d="M43.742 71.973c-.574-.532-.996-1.364-1.066-2.266-.067-.898-.067-2.234.469-2.926.53-.695 2.101-.941 3.035-.18.933.762 1.644 3.934.62 5.051-1.019 1.114-2.573.774-3.058.32"/></g><g clip-path="url(#R)"><g clip-path="url(#S)"><path fill="#f3dfc9" d="M45.11 70.215a2.88 2.88 0 0 1 1.304.094c.207.062.402.156.598.242.183.113.367.219.539.34-.203-.059-.399-.133-.598-.196-.203-.047-.398-.101-.598-.144-.398-.067-.8-.09-1.187-.02-.223.04-.438.121-.637.227.18-.031.36-.047.543-.051.328-.008.664.027.992.117.325.094.637.239.907.45.265.218.472.503.578.816a3.275 3.275 0 0 0-.719-.61 3.947 3.947 0 0 0-.844-.343c-.363.195-.703.39-.996.636a2.38 2.38 0 0 0-.449.5c-.125.188-.2.403-.285.645-.051-.242-.04-.516.062-.762.102-.242.27-.457.465-.629a2.239 2.239 0 0 1 .942-.453 7.45 7.45 0 0 0-.668-.117 15.26 15.26 0 0 0-.75-.07 3.279 3.279 0 0 0-1 1.066c.105-.414.32-.808.636-1.117a2.32 2.32 0 0 1 1.164-.621"/></g></g><g clip-path="url(#T)"><g clip-path="url(#U)"><path fill="#f3dfc9" d="M45.11 66.95c-.153-.02-.301-.036-.45-.048.145.035.29.078.426.125.344.133.676.313.945.575.121.023.242.046.364.074.511.11 1.011.277 1.488.496a30.449 30.449 0 0 0-1.531-.25c-.508-.063-1.016-.113-1.516-.086-.246.02-.496.043-.723.121-.234.074-.468.18-.687.297-.121.07-.239.144-.356.226.192-.046.383-.074.578-.093.274-.024.555-.024.832.004.278.035.555.082.82.18.212.077.419.183.598.324.168-.043.332-.079.504-.102.543-.09 1.102-.004 1.618.133-.137 0-.27 0-.403-.008l-.199-.004-.2.02c-.128.011-.261.02-.39.035l-.387.074c-.425.102-.84.238-1.238.434.176-.032.352-.051.527-.07a7.358 7.358 0 0 1 1.137-.012c.383.023.762.085 1.133.203.363.117.738.289.98.593-.328-.199-.683-.28-1.042-.351a9.213 9.213 0 0 0-1.09-.125c-.637-.047-1.282-.059-1.934-.09-.434.234-.844.52-1.238.828a12.25 12.25 0 0 0-1.172 1.086 5.68 5.68 0 0 1 1.008-1.273 6.185 6.185 0 0 1 1.324-.965c.293-.16.61-.281.93-.371a9.498 9.498 0 0 0-1.32-.22c-.485-.054-.977-.081-1.485-.144-.25.192-.48.418-.652.7.16-.504.546-.926.988-1.227.223-.152.46-.27.719-.367.261-.106.535-.129.8-.156.246-.012.489 0 .73.023l-.57-.207c-.328-.125-.656-.25-.984-.406-.18.031-.36.086-.527.16-.5.238-.906.687-1.156 1.223.132-.575.492-1.133 1.039-1.442a2.22 2.22 0 0 1 .89-.277c.313-.02.614.008.907.039.59.07 1.171.183 1.742.332.574.148 1.136.332 1.68.562l-1.731-.316c-.578-.098-1.152-.195-1.727-.258"/></g></g><path fill="#76614e" d="M44.477 69.586c.199.066.843.023.964-.266.121-.289 0-.484-.48-.629-.48-.144-.602-.12-.746.243-.145.363-.246.484.262.652M42.914 69.922c.152.191.832-.082.867-.277.035-.196-.191-.329-.218-.563-.032-.23-.368-.195-.575.04-.207.23-.183.667-.074.8"/><g clip-path="url(#V)"><path fill="#76614e" d="M49.398 54.625c-.191-1.48-.48-2.66-.875-3.082-1.34-1.434-1.293-1.336-1.34-2.055-.042-.726-.257-8.21-.3-9.152-.043-.941-.649-5.836-.469-7.137.176-1.3-1.293-1.703-2.187-2.11-.891-.401-2.45-.265-2.938 0a.426.426 0 0 0-.18.173c1.477.203 4.22.41 4.375 1.261.176.961-.05 7.137.938 10.008.988 2.875-1.129 7.762.441 8.91.93.676 1.875 1.922 2.535 3.184"/></g><path fill="#76614e" d="M43.008 48.758c-.047-1.055-.145-5.317 0-6.367 0 0 .418-5.797.304-6.801-.113-1.008-.874-2.203-1.402-2.54 0 0 .98 1.43 1.192 2.684.21 1.25-.43 5.04-.664 6.996-.239 1.958.57 6.028.57 6.028"/><g clip-path="url(#W)"><path fill="#76614e" d="M40.457 51.965c-.129.715-.238.433-.777 2.191-.114.375-.203 1.07-.258 1.953.52-.714 1.426-2.293 1.035-4.144"/></g></svg>