<svg xmlns="http://www.w3.org/2000/svg" width="123" viewBox="0 0 92.25 48.75" height="65" version="1.0"><defs><clipPath id="a"><path d="M0 .074h91.508V48.43H0zm0 0"/></clipPath><clipPath id="b"><path d="M0 .074h16.422V48H0zm0 0"/></clipPath><clipPath id="c"><path d="M38 17h23.094v13H38zm0 0"/></clipPath><clipPath id="d"><path d="M40 26h21.094v3H40zm0 0"/></clipPath><clipPath id="e"><path d="M40 23h21.094v2H40zm0 0"/></clipPath><clipPath id="f"><path d="M40 19h21.094v2H40zm0 0"/></clipPath><clipPath id="g"><path d="M18.691 17H32v12H18.691zm0 0"/></clipPath><clipPath id="h"><path d="M18.691 23H22v6h-3.309zm0 0"/></clipPath><clipPath id="i"><path d="M18.691 18H23v4h-4.309zm0 0"/></clipPath><clipPath id="j"><path d="M18.691 18H19v1h-.309zm0 0"/></clipPath></defs><g clip-path="url(#a)" fill="#fff"><path d="M0 .074h91.508V48.43H0zm0 0"/><path d="M0 .074h91.508V48.43H0zm0 0"/></g><g clip-path="url(#b)"><path fill="#00af27" d="M0 .074h16.36v47.813H0zm0 0"/></g><path d="m10.215 30.688.023-.293-.027-.41-.074-.348-.059-.105-.039-.125-.047-.098-.207-.29-.164-.163-.176-.137-.21-.121-.45-.156-.105.039-.075.117.024.328-.02.117.008.118-.008.117.07.136.094.094.114.059.152.136.082.094.035.086.114.207.015.313-.015.168-.079.21-.105.208-.152.172-.207.128-.118.04-.082.042-.105.028-.129.02h-.36l-.234-.044-.21-.086-.114-.058-.164-.14-.113-.141-.086-.16-.055-.395.012-.254.054-.18.04-.105.066-.082.172-.172.086-.066.113-.11.063-.137-.012-.105.008-.125-.008-.117.02-.164-.02-.176-.047-.098-.117-.043-.13.035-.105.043-.125.036-.093.062-.094.055-.098.082-.113.062-.172.164-.25.403-.187.562-.008.113-.016.118-.008.363.114.57.203.438.129.168.23.254.2.16.171.11.328.148.242.058.504.059.43-.035.336-.082.512-.254.258-.242.23-.262.133-.254.113-.266.024-.105.043-.117.023-.106zM10.188 26.441v-.18l-.028-.18v-.116l-.05-.172-.044-.243-.117-.273-.261-.395-.372-.289-.117-.058-.094-.07-.23-.094-.113-.031-.121-.024-.102-.035-.117-.016h-.125l-.188-.02-.168.009-.464.082-.223.074-.113.047-.313.203-.348.308-.199.301-.062.113-.024.118-.047.097-.03.125-.052.348-.011 1.34.015.105-.004.117.051.13.125.054 3.285.004.114-.012h.297l.183-.058.059-.118-.012-.117.012-.718-.02-.118zm-.965.016-.012.113-.066.133-.11.047-.101.007-.243-.007-.285.023-.297-.023-.808.011-.102-.011-.136-.059-.04-.187-.007-.247.02-.171.062-.227.054-.11.067-.085.082-.09.105-.086.098-.059.105-.054.52-.094.41.059.219.101.246.215.129.203.055.168.027.254zM10.188 23.367l-.02-.121.012-.227-.02-.129.016-.191-.074-.164-.106-.07-.617.02-.18-.02-.125.007-.21-.011-.13.011h-.23l-.05-.054.023-.059.074-.094.09-.07.238-.242.098-.074.152-.16.086-.122.008-.132-.09-.118-.086-.082-.07-.07-.196-.164-.058-.082-.246-.242-.036-.074.086-.047.325.011.234-.02.23.013.215-.012.11.012.261-.012h.09l.133-.047.035-.121.028-.711-.067-.125-.172-.07-.304.015-.118-.011-1.761.011-.133-.011-.582.007-.11-.007-.253.011-.098-.004-.242.004-.114-.011-.12.07-.067.125.055.172.074.12.258.247.097.078.063.07.105.082.531.52.098.074.363.36.075.105-.051.125-.098.07-.082.082-.137.106-.117.129-.593.535-.07.082-.184.152-.082.094-.157.152-.101.137-.047.164.058.129.125.066.36-.02.226.02.106-.011.941.004.117-.012.594.02.114-.012 1.296.004.125-.063zM10.02 18.984l.117-.016.043-.105-.004-.617-.02-.176-.043-.137-.093-.129-.094-.047-.086-.066-.117-.05-.29-.173-.113-.05-.074-.079-.223-.109-.09-.066.005-.07.09-.071.988-.59.109-.11.066-.14-.035-.676.02-.12-.031-.118-.137-.015-.145.07-.187.129-.102.054-.281.204-.078.043-.106.074-.207.113-.226.176-.453.27-.09.07-.145.035-.14-.028-.106-.082-.183-.117-.114-.058-.593-.418-.106-.055-.527-.34-.125.031-.04.13.012.187-.02.422.013.113.054.14.086.133.114.047.269.196.117.043.371.261.016.082-.094.063-.117.058-.074.063-.106.043-.484.297-.098.125-.066.14.02.13v.116l-.02.137.023.184-.004.176.036.132.128.012.13-.059.195-.144.168-.094.23-.168.211-.12.09-.071.11-.067.09-.07.198-.117.106-.082.09-.055.156-.035.129.023.195.137.211.117.07.059.106.059.078.078.21.117.09.07.31.188.179.129.11.058.081.067.114.058zm0 0" fill="#fff"/><path d="m67.797 35.3-.656.172v1.14l.656.172v1.047l-3.516-1.14v-1.266l3.516-1.156zm-1.438.375-.562.156c-.133.031-.3.074-.5.125a3.115 3.115 0 0 1-.438.094c.086.012.22.043.407.094.187.043.554.136 1.093.28zm-2.343.89h-.079c-.257-.25-.425-.406-.5-.468a2.716 2.716 0 0 0-.218-.172v-1.031h.062c.094.136.227.32.39.546.157.22.274.387.345.5zM67.797 32.243h-1.485a.871.871 0 0 0-.406.078.269.269 0 0 0-.14.25c0 .157.07.274.203.344.125.063.34.094.64.094h1.188v.937h-2.719v-.703l.344-.11v-.062a.751.751 0 0 1-.297-.328 1.204 1.204 0 0 1-.094-.484c0-.301.09-.535.266-.703.18-.164.422-.25.734-.25h1.766zM65.078 28.102h.453l.14.375A.68.68 0 0 1 66 28.4c.293 0 .523.106.687.313.157.21.235.515.235.921 0 .094-.004.172-.016.235a.18.18 0 0 0 .11.031c.043 0 .078-.035.109-.11.023-.07.031-.171.031-.296v-.453c0-.602.258-.907.766-.907.332 0 .586.141.765.422.188.282.282.68.282 1.188 0 .387-.063.683-.188.89a.597.597 0 0 1-.547.313c-.336 0-.547-.203-.64-.61a.505.505 0 0 1-.157.22.393.393 0 0 1-.234.093.378.378 0 0 1-.219-.062.969.969 0 0 1-.234-.297.71.71 0 0 1-.297.343.986.986 0 0 1-.484.11c-.301 0-.532-.098-.688-.297-.164-.207-.25-.492-.25-.86 0-.05.008-.14.016-.265.012-.125.023-.211.031-.266zm3.063 2.047c.07 0 .128-.039.171-.125a.618.618 0 0 0 .079-.328c0-.227-.032-.41-.094-.547-.055-.133-.121-.203-.203-.203-.075 0-.125.043-.157.125a1.08 1.08 0 0 0-.046.36v.359c0 .105.02.195.062.265.05.063.113.094.188.094zm-2.172-.297c.281 0 .422-.094.422-.281 0-.094-.032-.16-.094-.203-.07-.05-.18-.078-.328-.078-.282 0-.422.093-.422.281 0 .187.14.281.422.281zM67.844 26.384c0 .46-.117.812-.36 1.062-.238.25-.582.375-1.03.375-.458 0-.806-.113-1.048-.343-.25-.239-.375-.57-.375-1 0-.407.11-.719.328-.938.211-.226.516-.344.922-.344h.406v1.672c.157 0 .278-.05.36-.156.086-.101.125-.25.125-.437 0-.164-.016-.317-.047-.454a2.617 2.617 0 0 0-.156-.453h.672c.086.157.136.313.156.47.031.155.047.339.047.546zm-2.172.062c0 .118.039.211.11.282.062.074.171.117.327.125v-.797a.44.44 0 0 0-.312.11c-.082.062-.125.155-.125.28zM67.797 23.73v.938h-3.735v-.937zM67.844 20.969c0 .2-.051.37-.157.515a1.08 1.08 0 0 1-.484.344c-.219.074-.473.11-.766.11-.437 0-.78-.086-1.03-.266a.85.85 0 0 1-.376-.734c0-.157.031-.286.094-.391.062-.113.168-.223.312-.328v-.016a4.5 4.5 0 0 1-.64.047h-.735v-.937h3.735v.703l-.344.203v.031c.262.168.39.406.39.719zm-.735-.375c0-.156-.047-.258-.14-.313-.094-.062-.239-.097-.438-.109h-.078c-.238 0-.406.039-.5.11-.101.062-.156.167-.156.312 0 .125.058.226.172.297.117.062.277.093.484.093.219 0 .387-.03.5-.093a.338.338 0 0 0 .156-.297zM67.844 17.35c0 .461-.117.813-.36 1.063-.238.25-.582.375-1.03.375-.458 0-.806-.114-1.048-.344-.25-.238-.375-.57-.375-1 0-.406.11-.719.328-.938.211-.226.516-.343.922-.343h.406v1.671c.157 0 .278-.05.36-.156.086-.101.125-.25.125-.437 0-.164-.016-.317-.047-.453a2.617 2.617 0 0 0-.156-.454h.672c.086.157.136.313.156.47.031.155.047.339.047.546zm-2.172.063c0 .117.039.21.11.28.062.075.171.118.327.126v-.797a.44.44 0 0 0-.312.11c-.082.062-.125.156-.125.28zM67.797 13.425v.937h-3.735v-.937zM67.797 11.013l-.36.172v.031c.157.125.266.258.329.39.05.126.078.294.078.5 0 .25-.07.454-.219.61-.156.149-.375.219-.656.219-.29 0-.504-.098-.64-.297-.145-.207-.227-.504-.25-.89l-.017-.454h-.03c-.22 0-.329.117-.329.344 0 .2.063.45.188.75l-.61.266c-.164-.313-.25-.707-.25-1.188 0-.351.09-.625.266-.812.168-.196.406-.297.719-.297h1.78zm-.61.688a.42.42 0 0 0-.109-.282.353.353 0 0 0-.281-.125h-.219l.016.22c.011.304.125.452.343.452.168 0 .25-.086.25-.265zM74.328 41.31v.938H71.61v-.937zm-3.39.97c-.133 0-.239-.036-.313-.11-.07-.082-.11-.21-.11-.39 0-.176.04-.301.11-.375a.403.403 0 0 1 .312-.125c.274 0 .407.168.407.5 0 .336-.133.5-.407.5zM74.328 38.952h-1.484a.871.871 0 0 0-.407.078.269.269 0 0 0-.14.25c0 .157.07.274.203.344.125.063.34.094.64.094h1.188v.937H71.61v-.703l.344-.11v-.062a.751.751 0 0 1-.297-.328 1.204 1.204 0 0 1-.094-.484c0-.3.09-.535.266-.703.18-.164.422-.25.734-.25h1.766zM74.375 36.53c0 .2-.05.371-.156.516a1.08 1.08 0 0 1-.485.343c-.218.075-.472.11-.765.11-.438 0-.782-.086-1.032-.266a.85.85 0 0 1-.375-.734c0-.156.032-.285.094-.39.063-.114.168-.223.313-.329v-.016a4.5 4.5 0 0 1-.64.047h-.735v-.937h3.734v.703l-.344.203v.031c.262.168.391.407.391.719zm-.734-.375c0-.156-.047-.258-.141-.312-.094-.063-.238-.098-.438-.11h-.078c-.238 0-.406.04-.5.11-.101.062-.156.168-.156.312 0 .125.059.227.172.297.117.062.277.094.484.094.22 0 .387-.032.5-.094a.338.338 0 0 0 .157-.297zM74.375 32.911c0 .461-.117.813-.36 1.063-.238.25-.581.375-1.03.375-.458 0-.805-.114-1.048-.344-.25-.238-.375-.57-.375-1 0-.406.11-.719.329-.937.21-.227.515-.344.921-.344h.407v1.672c.156 0 .277-.051.36-.157.085-.101.124-.25.124-.437 0-.164-.016-.317-.047-.453a2.617 2.617 0 0 0-.156-.453h.672c.086.156.137.312.156.468.031.157.047.34.047.547zm-2.172.063c0 .117.04.21.11.281.062.074.171.117.328.125v-.797a.44.44 0 0 0-.313.11c-.082.062-.125.156-.125.28zM74.375 29.57c0 .137-.023.262-.063.376a.988.988 0 0 1-.25.312v.047c.188-.031.305-.047.36-.047H75.5v.938h-3.89v-.75l.343-.14v-.048a.806.806 0 0 1-.39-.719.8.8 0 0 1 .374-.703c.25-.164.594-.25 1.032-.25.437 0 .781.09 1.031.266.25.18.375.418.375.719zm-2.078.313c0 .137.055.235.156.297.094.055.242.078.438.078h.062c.242 0 .414-.031.516-.094a.305.305 0 0 0 .156-.28c0-.126-.05-.212-.156-.266-.102-.051-.274-.079-.516-.079-.226 0-.394.028-.5.079a.28.28 0 0 0-.156.265zM74.375 26.733c0 .461-.117.813-.36 1.063-.238.25-.581.375-1.03.375-.458 0-.805-.114-1.048-.344-.25-.238-.375-.57-.375-1 0-.406.11-.719.329-.938.21-.226.515-.343.921-.343h.407v1.672c.156 0 .277-.051.36-.157.085-.101.124-.25.124-.437 0-.164-.016-.317-.047-.453a2.617 2.617 0 0 0-.156-.453h.672c.086.156.137.312.156.468.031.157.047.34.047.547zm-2.172.063c0 .117.04.21.11.28.062.075.171.118.328.126v-.797a.44.44 0 0 0-.313.11c-.082.062-.125.156-.125.28zM74.328 23.315h-1.484a.871.871 0 0 0-.407.078.269.269 0 0 0-.14.25c0 .156.07.273.203.343.125.063.34.094.64.094h1.188v.938H71.61v-.703l.344-.11v-.062a.751.751 0 0 1-.297-.328 1.204 1.204 0 0 1-.094-.485c0-.3.09-.535.266-.703.18-.164.422-.25.734-.25h1.766zM74.375 20.892c0 .2-.05.371-.156.516a1.08 1.08 0 0 1-.485.344c-.218.074-.472.11-.765.11-.438 0-.782-.087-1.032-.267a.85.85 0 0 1-.375-.734c0-.156.032-.285.094-.39.063-.114.168-.223.313-.329v-.015a4.5 4.5 0 0 1-.64.047h-.735v-.938h3.734v.703l-.344.203v.032c.262.168.391.406.391.718zm-.734-.375c0-.156-.047-.258-.141-.312-.094-.063-.238-.098-.438-.11h-.078c-.238 0-.406.04-.5.11-.101.062-.156.168-.156.312 0 .125.059.227.172.297.117.063.277.094.484.094.22 0 .387-.031.5-.094a.338.338 0 0 0 .157-.297zM74.375 17.274c0 .46-.117.812-.36 1.062-.238.25-.581.375-1.03.375-.458 0-.805-.113-1.048-.344-.25-.238-.375-.57-.375-1 0-.406.11-.718.329-.937.21-.227.515-.344.921-.344h.407v1.672c.156 0 .277-.05.36-.156.085-.102.124-.25.124-.438 0-.164-.016-.316-.047-.453a2.617 2.617 0 0 0-.156-.453h.672c.086.156.137.312.156.469.031.156.047.34.047.547zm-2.172.062c0 .117.04.211.11.281.062.074.171.117.328.125v-.797a.44.44 0 0 0-.313.11c-.082.062-.125.156-.125.281zM74.328 13.855h-1.484a.871.871 0 0 0-.407.078.269.269 0 0 0-.14.25c0 .156.07.273.203.344.125.062.34.093.64.093h1.188v.938H71.61v-.703l.344-.11v-.062a.751.751 0 0 1-.297-.328 1.204 1.204 0 0 1-.094-.485c0-.3.09-.535.266-.703.18-.164.422-.25.734-.25h1.766zM74.375 11.042c0 .45-.117.79-.36 1.016-.238.23-.581.343-1.03.343-.446 0-.798-.125-1.048-.375s-.375-.601-.375-1.062c0-.313.07-.602.204-.875l.703.266a3.99 3.99 0 0 0-.125.312.944.944 0 0 0-.047.297c0 .156.062.277.187.36.118.085.282.124.5.124.43 0 .641-.16.641-.484 0-.27-.078-.531-.234-.781h.75c.156.242.234.527.234.859zM74.328 8.698v.938H71.61v-.938zm-3.39.97c-.133 0-.239-.036-.313-.11-.07-.082-.11-.211-.11-.39 0-.177.04-.302.11-.376a.403.403 0 0 1 .312-.125c.274 0 .407.168.407.5 0 .336-.133.5-.407.5zM74.328 6.277l-.36.172v.031c.157.125.266.258.329.391.05.125.078.293.078.5 0 .25-.07.453-.219.61-.156.148-.375.218-.656.218-.29 0-.504-.098-.64-.297-.145-.207-.227-.504-.25-.89l-.016-.454h-.032c-.218 0-.328.118-.328.344 0 .2.063.45.188.75l-.61.266c-.164-.313-.25-.707-.25-1.188 0-.351.09-.625.266-.812.168-.195.406-.297.719-.297h1.781zm-.61.688a.42.42 0 0 0-.109-.282.353.353 0 0 0-.28-.125h-.22l.016.22c.012.304.125.452.344.452.168 0 .25-.086.25-.265zm0 0"/><path d="m84.406 30.048-.007-.129-.106-.066-.117-.016-.117-.05-.086-.133-.02-.278-.078-.261-.316-.575-.305-.25-.25-.117-.27-.078-.519.023-.133.043-.222.106-.16.117-.196.262-.043.113-.117.258-.04.129-.007.12-.02.118-.03.14-.028.13-.07.14-.141.051-.113.016h-.137l-.137-.016-.12.016-.106-.075-.024-.152.063-.117.101-.106.117-.105.075-.133.023-.133-.02-.375.028-.234-.07-.133-.141-.047-.125.008-.281.086-.121.066-.203.165-.192.21-.258.48-.066.388-.078.132-.145.059-.113.016-.105.058-.012.13.117.081.129-.02.098.071.109.203.023.192.043.12.028.118.054.117.078.113.06.117.25.278.23.16.125.059.363.085.195.004.344-.039.125-.023.258-.113.105-.075.172-.183.148-.223.106-.238.105-.406.008-.114.094-.144.145-.059.375-.02.125.063.019.133-.055.113-.07.106-.184.176-.074.21-.011.192v.113l-.016.125.027.137v.125l.067.133.144.047.25-.055.113-.05.133-.048.09-.086.113-.066.106-.09.078-.105.305-.567.07-.277v-.117l.078-.133.14-.074.11.007zm-3.285.258-.078.16-.121.125-.184.012-.183-.031-.094-.075-.066-.078-.051-.125.027-.12.168-.044.313-.02.117.005.098.074zm1.797-.645-.047.118-.105.074-.145-.008-.125.016-.136-.016-.102-.07-.059-.133.036-.125.05-.113.075-.098.171-.055.196.055.093.094zM83.746 25.71l.121-.079.059-.132.008-.672-.067-.145-.132-.078-.258-.008-.184.016-.191-.067-.051-.125-.016-.12.016-.11-.074-.113-.137-.059-.27-.02-.218.004-.192.067-.078.125.008.101v.13l-.082.124-.129.055h-.27l-.12.012-1.047-.012-.137.012-.266-.028-.129.036h-.25l-.14-.012-.133.05-.09.212.02.171-.016.133.023.438.059.23.11.121.218.145.363.183.203.153.133.039.106.086.117.05.113.083.684.375.117.085.691.368.114.078.199.074.316.031.11-.058.074-.153-.016-.129.02-.14v-.656l-.02-.133.016-.559.066-.113.106-.067.25-.02zm-1.672.343-.047.184-.117-.02-1.113-.601.035-.043.145.011.125.047.144.012.196-.012.335.047.114-.035.136.074.047.125zM83.746 23.478l.13-.047.07-.16-.02-1.027.012-.125-.004-.906.011-.125-.066-.145-.137-.055-.12-.02-.137-.007-.125.02-.231-.004-.137.07-.066.113v.375l-.066.133-.141.04-.531.01-.133-.003h-.117l-.145-.02-.133.004-.125-.011-.133.027-.148-.008-.129-.02-.129.02-.133-.012-.535.02-.129-.027-.144.03-.125-.023h-.14l-.13.02-.129-.008-.136.067-.086.152.02.387-.012.132.007.844.059.125.137.059.238.004.11.02.124-.024h.149l.125-.055.05-.125v-.183l.067-.2.137-.07.902.02.266-.02.129.02h.132l.133-.012.461.02.192-.028.136.07.059.102.008.129-.012.25.066.113.125.086h.137l.125-.012h.125l.113.012zm0 0" fill="#00af27"/><g fill="#00af27"><path d="m84 18.748.012-.219-.02-.25-.066-.308-.094-.242-.195-.364-.098-.093-.304-.223-.243-.137-.246-.058-2.101-.024-.27.055-.125.059-.129.046-.207.118-.105.101-.098.059-.094.105-.195.348-.055.113-.043.137-.054.25-.02.52.113.527.043.12.075.106.066.125.172.196.098.086.093.097.106.063.117.05.508.16.386.005.145-.028.39.035.13-.027.132.02.133-.02.797-.008.25-.062.117-.067.114-.047.203-.164.101-.086.09-.105.066-.117.075-.094.07-.133.113-.355zm-1.074-.406.023.207-.02.2-.042.136-.063.094-.105.078-.129.047-.207.054h-1.531l-.192-.035-.125-.066-.093-.086-.118-.215-.007-.402.046-.125.079-.114.105-.07.117-.047.192-.035.316-.023.52.023.12-.023.133.02.13.003.113-.02.195.008.207.036.117.039.106.097.066.098zm0 0"/></g><g clip-path="url(#c)"><path fill="#d1d2d0" d="M110.617 29.648V17.875H38.52v11.773zm0 0"/></g><g clip-path="url(#d)"><path fill="#bfc0be" d="M98.746 27.508a.61.61 0 0 1-.61.61H41.333a.607.607 0 0 1-.605-.61c0-.336.27-.61.605-.61h56.805a.61.61 0 0 1 .61.61"/></g><g clip-path="url(#e)"><path fill="#bfc0be" d="M98.746 23.762a.61.61 0 0 1-.61.61H41.333a.607.607 0 0 1-.605-.61c0-.336.27-.61.605-.61h56.805a.61.61 0 0 1 .61.61"/></g><g clip-path="url(#f)"><path fill="#bfc0be" d="M98.746 20.016a.61.61 0 0 1-.61.609H41.333a.607.607 0 0 1 0-1.215h56.805c.336 0 .61.27.61.606"/></g><path fill="#d1d2d0" d="M38.793 29.313V18.21h-7.012v11.102zm0 0"/><path fill="#bfc0be" d="M38.316 18.21v6.83a10.896 10.896 0 0 0-.87-2.04v-2.66h-1.993a11.602 11.602 0 0 0-2.812-2.078v-.051h5.675"/><path fill="#d1d2d0" d="M32.64 30.555V16.969h-.953v13.586zm0 0"/><path fill="#bfc0be" d="M32.64 16.969v13.586h-.023c.008-.367.012-.739.016-1.121 0-.215.004-.426.004-.641 0-4.914-.367-9.633-.848-11.824h.852"/><path fill="#d1d2d0" d="M39.27 30.555V16.969h-.954v13.586zm0 0"/><path fill="#bfc0be" d="M39.27 16.969v13.586h-.024c.008-.367.016-.739.016-1.121.004-.211.004-.418.004-.63 0-4.917-.368-9.64-.848-11.835h.852M37.445 27.184h-4.32V20.34h.473c2.172 1.105 3.828 3.484 3.828 5.96 0 .106-.004.212-.012.317a3.872 3.872 0 0 1-.074.567h.105"/><path fill="#afafad" d="M37.445 23v4.184h-.105c.039-.184.062-.375.074-.567.008-.105.012-.21.012-.316 0-2.477-1.656-4.856-3.828-5.961h1.855c.781.789 1.461 1.687 1.992 2.66"/><path fill="#a1a19f" d="M37.445 20.34V23a11.929 11.929 0 0 0-1.992-2.66h1.992"/><g clip-path="url(#g)"><path fill="#f8a237" d="M21.941 17.93c-.66 1.394.684 2.156.832 3.48-1.507-.183-3.484-2.277-4.085-3.328.648 1.09.511 1.86 1.46 2.8.372.368.575.74 1.254.954a.797.797 0 0 0 .375 1.395c-.457.367-1.043.628-1.504.859-1.28.637-1.566 3.086-1.578 4.5.848-1.059 2.102-1.29 3.145-3.027.55-.407 2.12-1.196 2.77-1.34 1.316-.293.542.55 1.363 1.332.293.277 1.984 1.511 1.902.824-.031-.266.258-.297.441-.117.125.117.223 1.195.305 1.324.524.848.438-.344.176-1.242-.137-.477-.598-.992-.738-1.172 1.578.578 2.136 1.894 3.628 2.012v-5.782c-.921.07-2.628 1.29-3.468 2.336-.606-.406-1.192-1.039-1.79-1.246-1.495-.512-1.917-.336-2.894-1.62-.328-.434-.984-1-1.254-1.466-.347-.601-.18-1.699-.34-1.476"/></g><g clip-path="url(#h)"><path fill="#bdbcbd" d="m18.715 28.57-.02.02c.008-.008.012-.016.02-.02"/><path fill="#b87728" d="M21.777 23.75c-.457.363-1.043.625-1.504.855-1.128.563-1.484 2.536-1.558 3.965-.008.004-.012.012-.02.02.012-1.414.297-3.863 1.578-4.5.063-.031.13-.063.196-.098.281-.137.59-.289.883-.469a.839.839 0 0 0 .425.227"/></g><path fill="#b87728" d="M21.402 22.352a.81.81 0 0 0-.238.359.76.76 0 0 1-.023-.457c.082.035.164.07.261.098"/><g clip-path="url(#i)"><path fill="#bdbcbd" d="M22.645 21.39c-1.45-.273-3.27-2.18-3.907-3.218.637 1.039 2.457 2.941 3.903 3.215.004 0 .004.004.004.004m-3.762-2.95h-.004.004m-.004-.003c-.047-.098-.102-.196-.16-.301a4.387 4.387 0 0 1 .16.3m-.14-.265v-.004.004m0-.004v-.004.004M18.73 18.156"/><path fill="#b87728" d="M22.773 21.93c-1.183-.145-2.648-1.461-3.515-2.532-.11-.3-.211-.613-.375-.957h-.004v-.003a4.387 4.387 0 0 0-.149-.286v.004s0 .004.004.004v.004h.004v.008c.637 1.039 2.457 2.945 3.907 3.219.062.172.109.347.128.539"/></g><g clip-path="url(#j)"><path fill="#bdbcbd" d="M18.719 18.137"/><path fill="#b87728" d="M18.719 18.137"/></g><path fill="#b87728" d="M31.688 21.402v.516c-.922.074-2.63 1.289-3.47 2.336-.605-.402-1.19-1.04-1.788-1.242-1.496-.516-1.918-.336-2.895-1.621-.328-.438-.984-1-1.254-1.465-.347-.606-.18-1.7-.34-1.48a1.898 1.898 0 0 0-.16.491 1.708 1.708 0 0 1 .16-1.008c.016-.019.028-.027.036-.027.101 0-.012.957.304 1.504.27.465.926 1.032 1.254 1.465.977 1.285 1.399 1.11 2.895 1.621.597.207 1.183.84 1.789 1.246.84-1.047 2.547-2.265 3.468-2.336"/><path fill="#bdbcbd" d="M28.832 26.477"/><path fill="#b87728" d="M29.004 27.559c0 .086-.008.16-.02.21a5.762 5.762 0 0 0-.187-.906c-.137-.48-.598-.992-.738-1.175.203.074.386.16.562.257a2.09 2.09 0 0 1 .176.399l.035.133c.105.386.172.808.172 1.082"/></svg>