<svg xmlns="http://www.w3.org/2000/svg" width="123" viewBox="0 0 92.25 48.75" height="65" version="1.0"><defs><clipPath id="h"><path d="M71 23h3v25.43h-3zm0 0"/></clipPath><clipPath id="a"><path d="M0 .074h91.508V48.43H0zm0 0"/></clipPath><clipPath id="c"><path d="M51 47h2v1.43h-2zm0 0"/></clipPath><clipPath id="d"><path d="M46 23h2v25.43h-2zm0 0"/></clipPath><clipPath id="e"><path d="M51 .074h2V24h-2zm0 0"/></clipPath><clipPath id="f"><path d="M68 47h2v1.43h-2zm0 0"/></clipPath><clipPath id="g"><path d="M76 .074h2V19h-2zm0 0"/></clipPath><clipPath id="b"><path d="M41.117.074h50.39V48.43h-50.39zm0 0"/></clipPath><clipPath id="i"><path d="M83 47h3v1.43h-3zm0 0"/></clipPath><clipPath id="j"><path d="M11.39 28.29h32.36v12.526H11.39zm0 0"/></clipPath><clipPath id="k"><path d="M13 2.719h6v43.613h-6zm0 0"/></clipPath><clipPath id="l"><path d="M3.59 28H13v13H3.59zm0 0"/></clipPath><clipPath id="m"><path d="M18 40h4v6.332h-4zm0 0"/></clipPath><clipPath id="n"><path d="M40.762 15.027h2.988v6.13h-2.988zm0 0"/></clipPath><clipPath id="o"><path d="M40.762 8.984h2.988v6.067h-2.988zm0 0"/></clipPath></defs><g clip-path="url(#a)" fill="#fff"><path d="M0 .074h92.25v217.977H0zm0 0"/><path d="M0 .074h91.508V48.43H0zm0 0"/><path d="M0 .074h91.508V48.43H0zm0 0"/></g><g clip-path="url(#b)"><path fill="#4eb7c3" d="M41.84-67.855s0 1.945-.168 6.636c-.16 4.692.41 9.102.808 14.07.399 4.965 0 10.481-.343 16.551-.348 6.067-.215 11.586.343 16.555.563 4.965 0 16-.808 19.86-.805 3.863 0 13.242.808 18.484.81 5.242 0 13.242-.367 18.207-.37 4.965-.765 9.933 0 14.07.766 4.14 1.2 9.656.367 17.379-.828 7.727 0 12.223 0 12.223h49.157V-67.855H41.84"/></g><g clip-path="url(#c)"><path fill="#6cc8db" d="M52.691 77.953s-2.828-7.058-1.164-13.11c1.664-6.046 1.332-12.6 1.164-17.644"/></g><path fill="#6cc8db" d="M64.602 43.063s-2.832-7.06-1.165-13.106c1.665-6.05 1.329-12.605 1.165-17.648M58.078 43.063s-1.844-4.602-.758-8.547c1.086-3.942.867-8.211.758-11.5"/><g clip-path="url(#d)"><path fill="#6cc8db" d="M47.89 23.016s-1.675 6.601-1.163 13.109c.671 8.531 1.332 12.602 1.164 17.64"/></g><g clip-path="url(#e)"><path fill="#6cc8db" d="M52.535-7.734S50.86-1.133 51.371 5.37c.672 8.535 1.332 12.606 1.164 17.645"/></g><g clip-path="url(#f)"><path fill="#6cc8db" d="M69.457 47.2s-1.68 6.6-1.168 13.109c.672 8.535 1.332 12.601 1.168 17.644"/></g><g clip-path="url(#g)"><path fill="#6cc8db" d="M77.559 18.879s-1.676-6.598-1.164-13.106c.671-8.535 1.332-12.605 1.164-17.644"/></g><g clip-path="url(#h)"><path fill="#6cc8db" d="M73.305 23.016s-2.832 7.058-1.168 13.109c1.664 6.047 1.332 12.602 1.168 17.64"/></g><g clip-path="url(#i)"><path fill="#6cc8db" d="M85.21 47.2s-2.827 7.058-1.163 13.109c1.664 6.05 1.332 12.601 1.164 17.644"/></g><path fill="#6cc8db" d="M82.457 23.016s-1.844 4.601-.762 8.543c1.086 3.945.868 8.214.762 11.503M89.469 47.2s-1.676-6.598-1.164-13.106c.672-8.535 1.332-12.602 1.164-17.645"/><g clip-path="url(#j)"><path fill="#fb5151" d="M43.75 28.297v.574H11.977v11.36H43.75v.574H11.402V28.297H43.75"/></g><path fill="#fb5151" d="M33.3 28.586V40.52h-.573V28.586h.574M26.996 28.586V40.52h-.574V28.586h.574M20.691 28.586V40.52h-.574V28.586h.574"/><path fill="#fb5151" d="m26.96 40.383-.503.27-6.305-11.934.508-.27 6.3 11.934M33.266 40.383l-.508.27-6.301-11.934.504-.27 6.305 11.934"/><g clip-path="url(#k)"><path fill="#fb5151" d="M17.906 45.324V3.723l-3.96 2.28v37.028zM18.48 2.73v43.59l-5.109-2.957V5.672l5.11-2.942"/></g><path fill="#fb5151" d="m18.336 40.766-4.531 2.68-.293-.497 4.535-2.68.289.497"/><path fill="#fb5151" d="m18.336 40.27-.29.496-4.534-2.676.293-.496 4.53 2.676"/><path fill="#fb5151" d="m18.336 35.41-4.531 2.68-.293-.496 4.535-2.68.289.496"/><path fill="#fb5151" d="m18.336 34.914-.29.496-4.534-2.68.293-.492 4.53 2.676"/><path fill="#fb5151" d="m18.336 30.055-4.531 2.675-.293-.492 4.535-2.68.289.497"/><path fill="#fb5151" d="m18.336 30.055-4.531 2.675-.293-.492 4.535-2.68.289.497"/><path fill="#fb5151" d="m18.336 29.598-.29.496-4.534-2.676.293-.496 4.53 2.676"/><path fill="#fb5151" d="m18.336 24.738-4.531 2.68-.293-.496 4.535-2.68.289.496"/><path fill="#fb5151" d="m18.336 24.281-.29.496-4.534-2.675.293-.497 4.53 2.676"/><path fill="#fb5151" d="m18.336 19.422-4.531 2.68-.293-.497 4.535-2.68.289.497"/><path fill="#fb5151" d="m18.336 18.969-.29.492-4.534-2.676.293-.496 4.53 2.68"/><path fill="#fb5151" d="m18.336 14.105-4.531 2.68-.293-.496 4.535-2.68.289.496"/><path fill="#fb5151" d="m18.336 13.652-.29.493-4.534-2.676.293-.496 4.53 2.68"/><path fill="#fb5151" d="m18.336 8.79-4.531 2.679-.293-.496 4.535-2.676.289.492"/><path fill="#fb5151" d="m18.336 8.336-.29.492-4.534-2.676.293-.496 4.53 2.68M12.89 28.508V40.52h-.57V28.508h.57"/><g clip-path="url(#l)"><path fill="#fb5151" d="M12.074 40.805h-.672L3.59 28.219h.676l7.808 12.586"/></g><path fill="#fb5151" d="m11.895 28.297-.008.574-7.633-.074.008-.578 7.633.078M11.387 40.52v3.523h1.476V40.52h-1.476"/><path fill="#fb5151" d="M13.91 11.36 4.508 28.644l-.504-.274 9.402-17.289.504.277"/><path fill="#fb5151" d="M13.871 18.285 4.47 28.7l-.426-.383 9.402-10.414.426.383"/><g clip-path="url(#m)"><path fill="#fb5151" d="M21.117 45.535v-4.2h-2.203v4.2zm.574-4.773v5.347H18.34v-5.347h3.351"/></g><path fill="#fb5151" d="M21.402 44.313v.574H18.63v-.575h2.773M21.402 43.148v.575H18.63v-.575h2.773M21.402 41.984v.575H18.63v-.575h2.773M20.016 20.465v.574H18.19v-.574h1.825M20.016 14.148v.575H18.19v-.575h1.825"/><path fill="#fcae34" d="M21.594 14.715v5.742h-2.492v-5.742h2.492"/><path fill="#d1cabe" d="M28.418 9.625v10.887H26.02a.6.6 0 0 1-.602-.602v-9.683c0-.332.27-.602.602-.602h2.398"/><path fill="#d1cabe" d="M26.027 10.902v8.332h-1.965a.34.34 0 0 1-.34-.34v-7.652a.34.34 0 0 1 .34-.34h1.965"/><path fill="#017293" d="M25.418 15.527v2.856h-.828v-2.856h.828M25.418 11.758v2.851h-.828v-2.851h.828M28.418 18.676v.844h-.68a.165.165 0 0 1-.164-.165v-.52c0-.089.074-.16.164-.16h.68M28.418 17.063v.843h-.68a.162.162 0 0 1-.164-.16v-.52c0-.09.074-.163.164-.163h.68M28.418 15.453v.844h-.68a.165.165 0 0 1-.164-.164v-.52c0-.09.074-.16.164-.16h.68M28.418 13.84v.844h-.68a.162.162 0 0 1-.164-.16v-.52c0-.09.074-.164.164-.164h.68M28.418 12.23v.844h-.68a.165.165 0 0 1-.164-.164v-.52c0-.09.074-.16.164-.16h.68M28.418 10.617v.844h-.68a.162.162 0 0 1-.164-.16v-.52c0-.09.074-.164.164-.164h.68"/><path fill="#fcae34" d="M32.398 19.05v3.981h-3.98v-3.98h3.98"/><path fill="#fb5151" d="M32.398 15.07v3.98h-3.98v-3.98h3.98"/><path fill="#017293" d="M32.398 11.086v3.984h-3.98v-3.984h3.98"/><path fill="#09d7af" d="M32.398 7.105v3.98h-3.98v-3.98h3.98"/><path fill="#008a73" d="M36.379 19.05v3.981h-3.98v-3.98h3.98"/><path fill="#454587" d="M36.379 15.07v3.98h-3.98v-3.98h3.98"/><path fill="#0cabe0" d="M36.379 11.086v3.984h-3.98v-3.984h3.98"/><path fill="#fcae34" d="M36.379 7.105v3.98h-3.98v-3.98h3.98"/><path fill="#aaa49b" d="M32.781 15.035c0 .406.035.817.114 1.203l1.898 9.578c.617-2.183 2.934-3.957 5.977-4.664v-6.117H32.78"/><path fill="#83807b" d="m34.793 4.32-1.898 9.578c-.075.368-.11.75-.114 1.137h7.989v-6.05c-3.043-.704-5.36-2.481-5.977-4.665"/><g clip-path="url(#n)"><path fill="#fb5151" d="M43.75 20.824v-5.789h-2.98v6.117a12.905 12.905 0 0 1 2.933-.332c.016 0 .031.004.047.004"/></g><g clip-path="url(#o)"><path fill="#cd3636" d="M43.75 15.035V9.316h-.047c-1.027 0-2.016-.117-2.933-.332v6.051h2.98"/></g><path fill="#454587" d="M35.348 12.797a.563.563 0 1 1 0 1.129.564.564 0 1 1 0-1.13"/><path fill="#7070d4" d="M35.348 16.21a.567.567 0 1 1-.001 1.135.567.567 0 0 1 0-1.134"/><path d="M64.65 33.715c.398 0 .703.121.921.36.211.23.313.558.313.984v.265h1.172v.97h-3.531v-1.235c0-.445.101-.781.296-1 .188-.227.465-.344.829-.344zm.453 1.61v-.172a.505.505 0 0 0-.11-.344.464.464 0 0 0-.343-.125c-.239 0-.36.137-.36.406v.234zM67.056 31.253l-.344.125v.047c.125.086.227.2.297.344.062.137.094.297.094.484 0 .305-.082.54-.25.703-.176.168-.426.25-.75.25H64.32v-.937h1.485c.187 0 .328-.024.422-.078.086-.051.125-.133.125-.25 0-.164-.063-.281-.188-.344-.125-.07-.344-.11-.656-.11H64.32v-.937h2.735zM67.103 28.556c0 .46-.118.82-.36 1.078-.238.25-.586.375-1.047.375-.457 0-.804-.114-1.046-.344-.25-.238-.375-.578-.375-1.016 0-.406.109-.722.328-.953.21-.226.515-.343.922-.343h.421v1.703a.494.494 0 0 0 .36-.172c.086-.102.125-.25.125-.438a2.044 2.044 0 0 0-.203-.906h.672c.085.148.136.297.156.453.031.156.047.344.047.563zm-2.188.062c0 .117.04.211.11.281.062.075.171.118.328.125v-.812a.508.508 0 0 0-.313.125c-.082.062-.125.156-.125.281zM64.275 25.162c0-.082.007-.16.015-.235v-.047l.906.078c-.02.086-.03.196-.03.329 0 .21.046.359.14.453.094.093.23.14.406.14h1.344v.938H64.32v-.703l.438-.14v-.048a.956.956 0 0 1-.344-.328.794.794 0 0 1-.14-.437zM66.353 23.147c0-.125-.032-.274-.094-.453h.687c.063.125.106.246.125.36.02.116.032.25.032.405 0 .325-.078.559-.235.703-.156.137-.394.204-.718.204h-1.125v.328h-.391l-.297-.422-.578-.25v-.61h.562v-.671h.704v.671h1.062c.18 0 .266-.085.266-.265zM65.68 19.6c.45 0 .798.121 1.048.36.25.242.375.577.375 1.015 0 .406-.125.734-.375.984-.258.25-.61.375-1.047.375-.446 0-.79-.117-1.031-.36-.25-.25-.375-.585-.375-1.015 0-.27.058-.507.171-.718.118-.207.282-.364.5-.47.211-.112.454-.171.735-.171zm0 1.766c.243 0 .423-.032.548-.094.117-.063.172-.164.172-.313 0-.144-.055-.25-.172-.312-.125-.063-.305-.094-.547-.094-.238 0-.414.031-.531.094-.114.062-.172.168-.172.312 0 .149.058.25.172.313.117.062.293.094.53.094zM67.103 16.917c0 .187-.051.355-.157.5a1.09 1.09 0 0 1-.5.344 2.041 2.041 0 0 1-.75.125c-.445 0-.796-.086-1.046-.266a.89.89 0 0 1-.375-.75c0-.145.03-.273.093-.39a.759.759 0 0 1 .297-.329v-.015a4.3 4.3 0 0 1-.64.046h-.735v-.953h3.766v.72l-.344.202v.031c.262.168.39.415.39.735zm-.75-.39c0-.157-.047-.266-.14-.329-.095-.062-.24-.094-.438-.094h-.079c-.238 0-.41.04-.515.11-.102.062-.156.168-.156.312 0 .125.062.227.187.297.117.074.277.11.484.11.22 0 .387-.036.5-.11a.338.338 0 0 0 .157-.297zM67.103 13.243c0 .461-.118.82-.36 1.078-.238.25-.586.375-1.047.375-.457 0-.804-.113-1.046-.344-.25-.238-.375-.578-.375-1.015 0-.406.109-.723.328-.953.21-.227.515-.344.922-.344h.421v1.703a.494.494 0 0 0 .36-.172c.086-.101.125-.25.125-.437a2.044 2.044 0 0 0-.203-.907h.672c.085.149.136.297.156.454.031.156.047.343.047.562zm-2.188.063c0 .117.04.21.11.28.062.075.171.118.328.126v-.813a.508.508 0 0 0-.313.125c-.082.063-.125.157-.125.282zm0 0"/><g><path d="M70.137 33.253v-1.062l3.532 1.156v1.125l-3.532 1.156V34.55l1.782-.484a6.63 6.63 0 0 1 .843-.156 3.958 3.958 0 0 1-.421-.063c-.176-.039-.313-.07-.407-.094zM73.716 30.531c0 .46-.118.82-.36 1.078-.238.25-.586.375-1.047.375-.457 0-.804-.113-1.047-.344-.25-.238-.375-.578-.375-1.015 0-.407.11-.723.329-.953.21-.227.515-.344.921-.344h.422v1.703a.494.494 0 0 0 .36-.172c.086-.101.125-.25.125-.437a2.044 2.044 0 0 0-.203-.907h.671c.086.149.137.297.157.453.031.157.047.344.047.563zm-2.188.062c0 .118.04.211.11.282.062.074.171.117.328.125v-.813a.508.508 0 0 0-.313.125c-.082.063-.125.156-.125.281zM70.887 27.137c0-.082.008-.16.016-.234v-.047l.906.078c-.02.086-.03.195-.03.328 0 .21.046.36.14.453.093.094.23.14.406.14h1.344v.938h-2.735v-.703l.438-.14v-.047a.956.956 0 0 1-.344-.329.794.794 0 0 1-.14-.437zM73.669 24.685l-.36.172v.03c.157.126.266.259.328.391.051.125.079.293.079.5 0 .262-.079.47-.235.625-.156.149-.375.22-.656.22-.29 0-.504-.098-.64-.298-.145-.207-.227-.504-.25-.89l-.016-.47h-.032c-.226 0-.343.118-.343.345 0 .199.07.449.203.75l-.625.28c-.156-.32-.235-.722-.235-1.202 0-.352.09-.625.266-.813.168-.195.406-.297.719-.297h1.797zm-.625.703a.437.437 0 0 0-.11-.297.353.353 0 0 0-.28-.125h-.204v.219c.012.312.125.468.344.468.168 0 .25-.086.25-.265zM73.716 22.126c0 .449-.118.793-.36 1.031-.238.23-.586.344-1.047.344-.445 0-.797-.125-1.047-.375-.25-.25-.375-.61-.375-1.078 0-.313.07-.61.204-.891l.703.281a3.99 3.99 0 0 0-.125.313.944.944 0 0 0-.047.297c0 .156.062.277.187.359.118.086.282.125.5.125.438 0 .657-.16.657-.484 0-.27-.082-.535-.25-.797h.765c.156.242.235.531.235.875zM70.887 19.046c0-.082.008-.16.016-.234v-.047l.906.078c-.02.086-.03.195-.03.328 0 .21.046.36.14.453.093.094.23.14.406.14h1.344v.938h-2.735V20l.438-.14v-.047a.956.956 0 0 1-.344-.329.794.794 0 0 1-.14-.437zM73.669 16.422l-.344.125v.047c.125.086.227.199.297.343.062.137.094.297.094.485 0 .304-.082.539-.25.703-.176.168-.426.25-.75.25h-1.782v-.938h1.485c.187 0 .328-.023.422-.078.086-.05.125-.133.125-.25 0-.164-.063-.281-.188-.343-.125-.07-.344-.11-.656-.11h-1.188v-.937h2.735zM73.669 12.99v2.265h-.547l-1.469-1.125v1.063h-.719v-2.14h.578l1.438 1.077v-1.14zm0 0"/></g><g><path d="m83.872 30.844-.008-.133-.105-.066-.121-.016-.121-.05-.086-.134-.02-.28-.082-.266-.32-.582-.305-.254-.254-.121-.273-.079-.527.028-.133.039-.227.105-.16.121-.2.266-.038.113-.121.262-.04.133-.007.12-.02.122-.035.137-.027.136-.07.137-.141.055-.113.012h-.141l-.14-.012-.122.012-.105-.07-.028-.157.067-.117.101-.11.121-.105.07-.133.028-.133-.02-.382.028-.239-.074-.133-.14-.046-.126.007-.289.086-.117.067-.207.168-.196.21-.257.489-.067.394-.082.133-.144.059-.114.012-.109.062-.012.133.121.078.125-.02.102.075.113.207.02.195.047.117.027.121.05.121.083.114.058.117.254.281.235.16.125.059.367.09.2.004.347-.04.125-.027.261-.113.106-.074.176-.184.152-.226.106-.243.109-.414.004-.113.094-.144.148-.063.379-.02.125.067.023.137-.054.113-.075.105-.187.18-.07.215-.016.191v.114l-.012.128.028.137v.13l.066.132.145.047.253-.055.114-.05.133-.048.093-.09.114-.066.105-.094.082-.105.305-.574.074-.278v-.12l.082-.133.14-.075.114.008zm-3.328.262-.082.156-.117.129-.188.011-.187-.03-.094-.075-.066-.078-.055-.129.027-.121.176-.047.313-.02.12.008.098.075zm1.82-.657-.046.121-.106.075-.148-.008-.125.012-.141-.012-.102-.074-.058-.133.031-.125.055-.113.074-.102.172-.055.2.055.093.094zm0 0"/></g><g><path d="m83.396 28.081-.02-.152.016-1.707-.016-.106.016-.808-.074-.133-.133-.05-.13-.016-.132.015-.133-.023-.265.008-.149.054-.05.227-.008.84-.04.16h-.109l-.125-.074-.426-.32-.113-.098-.102-.063-.546-.386-.141-.04-.254-.12-.258-.051h-.129l-.398.05-.461.246-.102.09-.09.098-.222.355-.059.114-.039.191-.043.434.024.32.066.254.106.238.078.121.281.285.105.063.387.168.137.004.133.027.117-.066.074-.121.008-.653-.059-.125-.12-.082-.114-.047-.086-.105-.047-.102-.015-.191.015-.18.07-.093.114-.082.14-.02.121.008.133.031.188.082.168.106.097.105.36.215.441.32.113.059.329.25.132.066.094.086.121.05.106.095.105.066.13.066.097.102.226.16.16.067.149-.028zm0 0"/></g><g><path d="m83.458 22.849.012-.219-.02-.254-.066-.312-.094-.25-.199-.368-.102-.09-.304-.226-.246-.14-.25-.063-2.125-.02-.274.055-.129.059-.133.046-.207.122-.105.101-.102.059-.09.105-.203.356-.05.113-.047.14-.055.25-.02.528.114.535.047.121.074.106.066.125.172.199.102.09.094.097.105.063.121.05.512.16.394.009.145-.028.394.035.133-.027.133.02.137-.02.804-.008.254-.066.121-.067.114-.046.207-.168.097-.086.094-.106.067-.12.074-.095.074-.132.113-.36zm-1.086-.414.024.214-.02.2-.047.14-.058.094-.106.078-.137.047-.203.055h-1.554l-.196-.035-.125-.067-.093-.086-.121-.218-.004-.407.043-.129.082-.113.105-.074.121-.047.195-.031.317-.028.527.028.121-.028.133.02.133.008.113-.02.203.004.203.035.122.04.109.1.066.099zm0 0"/></g><g><path d="m83.458 18.568.012-.219-.02-.254-.066-.312-.094-.25-.199-.368-.102-.09-.304-.226-.246-.14-.25-.063-2.125-.02-.274.055-.129.059-.133.046-.207.122-.105.101-.102.059-.09.105-.203.356-.05.113-.047.14-.055.25-.02.528.114.535.047.121.074.106.066.125.172.199.102.09.094.097.105.063.121.05.512.16.394.009.145-.028.394.035.133-.027.133.02.137-.02.804-.008.254-.066.121-.067.114-.046.207-.168.097-.086.094-.106.067-.12.074-.095.074-.132.113-.36zm-1.086-.414.024.215-.02.199-.047.14-.058.094-.106.078-.137.047-.203.055h-1.554l-.196-.035-.125-.067-.093-.086-.121-.218-.004-.407.043-.129.082-.113.105-.074.121-.047.195-.031.317-.028.527.028.121-.028.133.02.133.008.113-.02.203.004.203.035.122.04.109.1.066.099zm0 0"/></g></svg>