<svg xmlns="http://www.w3.org/2000/svg" width="65" viewBox="0 0 48.75 92.25" height="123" version="1.0"><defs><clipPath id="h"><path d="M.074 71H26v3H.074zm0 0"/></clipPath><clipPath id="a"><path d="M.074 0H48.43v91.508H.074zm0 0"/></clipPath><clipPath id="c"><path d="M.074 51H2v3H.074zm0 0"/></clipPath><clipPath id="d"><path d="M.074 46H26v3H.074zm0 0"/></clipPath><clipPath id="e"><path d="M25 51h23.43v2H25zm0 0"/></clipPath><clipPath id="f"><path d="M.074 68H2v2H.074zm0 0"/></clipPath><clipPath id="g"><path d="M29 76h19.43v2H29zm0 0"/></clipPath><clipPath id="b"><path d="M.074 41.332H48.43v50.176H.074zm0 0"/></clipPath><clipPath id="i"><path d="M.074 83H2v3H.074zm0 0"/></clipPath><clipPath id="j"><path d="M7.719 11.453h12.593v32.524H7.72zm0 0"/></clipPath><clipPath id="k"><path d="M2.18 13h43.836v6H2.18zm0 0"/></clipPath><clipPath id="l"><path d="M7 3.613h14V13H7zm0 0"/></clipPath><clipPath id="m"><path d="M2.18 18H8v4H2.18zm0 0"/></clipPath><clipPath id="n"><path d="M27.48 40.977h6.16v3h-6.16zm0 0"/></clipPath><clipPath id="o"><path d="M33.621 40.977h6.098v3H33.62zm0 0"/></clipPath></defs><g clip-path="url(#a)" fill="#fff"><path d="M.074 0h48.602v91.977H.074zm0 0"/><path d="M.074 0h48.602v91.977H.074zm0 0"/></g><g clip-path="url(#b)"><path fill="#4eb7c3" d="M116.95 42.059s-1.958 0-6.673-.168c-4.71-.164-9.148.414-14.14.812-4.989.402-10.535 0-16.637-.348-6.098-.347-11.645-.214-16.637.348-4.992.567-16.082 0-19.965-.812-3.882-.809-13.308 0-18.578.812-5.265.813-13.308 0-18.3-.371-4.993-.371-9.98-.77-14.141 0-4.16.77-9.707 1.207-17.469.371-7.765-.836-12.285 0-12.285 0V92.11h154.824V42.06"/></g><g clip-path="url(#c)"><path fill="#6cc8db" d="M-29.605 52.965s7.093-2.844 13.175-1.168c6.078 1.672 12.668 1.336 17.735 1.168"/></g><path fill="#6cc8db" d="M5.465 64.938s7.094-2.844 13.172-1.172c6.082 1.672 12.668 1.336 17.738 1.172M5.465 58.383s4.62-1.856 8.586-.766c3.965 1.094 8.258.871 11.562.766"/><g clip-path="url(#d)"><path fill="#6cc8db" d="M25.613 48.14s-6.633-1.683-13.175-1.171c-8.579.676-12.668 1.34-17.735 1.172"/></g><g clip-path="url(#e)"><path fill="#6cc8db" d="M56.52 52.809s-6.633-1.684-13.172-1.168c-8.582.672-12.668 1.336-17.735 1.168"/></g><g clip-path="url(#f)"><path fill="#6cc8db" d="M1.305 69.816s-6.633-1.687-13.176-1.171c-8.578.675-12.668 1.335-17.734 1.171"/></g><g clip-path="url(#g)"><path fill="#6cc8db" d="M29.77 77.96s6.632-1.683 13.175-1.167c8.578.672 12.668 1.336 17.735 1.168"/></g><g clip-path="url(#h)"><path fill="#6cc8db" d="M25.613 73.684s-7.093-2.844-13.175-1.172C6.354 74.184-.23 73.852-5.297 73.684"/></g><g clip-path="url(#i)"><path fill="#6cc8db" d="M1.305 85.652S-5.79 82.81-11.871 84.48c-6.082 1.676-12.668 1.34-17.734 1.172"/></g><path fill="#6cc8db" d="M25.613 82.883s-4.625-1.856-8.59-.766c-3.964 1.094-8.253.875-11.558.766M1.305 89.934s6.632-1.688 13.172-1.172c8.578.675 12.668 1.336 17.734 1.172"/><g clip-path="url(#j)"><path fill="#fb5151" d="M20.305 43.977h-.578V12.043H8.309v31.934H7.73V11.465h12.575v32.512"/></g><path fill="#fb5151" d="M20.016 33.477H8.02v-.579h11.996v.579M20.016 27.137H8.02v-.575h11.996v.575M20.016 20.8H8.02v-.573h11.996v.574"/><path fill="#fb5151" d="m8.156 27.105-.27-.511 11.997-6.336.27.512-11.997 6.335M8.156 33.441l-.27-.511 11.997-6.336.27.511-11.997 6.336"/><g clip-path="url(#k)"><path fill="#fb5151" d="M3.191 18h41.813l-2.293-3.98H5.496zm42.813.578H2.19l2.97-5.137h37.882l2.96 5.137"/></g><path fill="#fb5151" d="m7.77 18.434-2.692-4.555.5-.293L8.27 18.14l-.5.293"/><path fill="#fb5151" d="m8.27 18.434-.5-.293 2.695-4.555.496.293-2.691 4.555"/><path fill="#fb5151" d="m13.156 18.434-2.691-4.555.496-.293 2.691 4.555-.496.293"/><path fill="#fb5151" d="m13.652 18.434-.496-.293 2.692-4.555.496.293-2.692 4.555"/><path fill="#fb5151" d="m18.54 18.434-2.692-4.555.496-.293 2.691 4.555-.496.293"/><path fill="#fb5151" d="m18.54 18.434-2.692-4.555.496-.293 2.691 4.555-.496.293"/><path fill="#fb5151" d="m18.996 18.434-.5-.293 2.695-4.555.497.293-2.692 4.555"/><path fill="#fb5151" d="m23.883 18.434-2.692-4.555.497-.293 2.69 4.555-.495.293"/><path fill="#fb5151" d="m24.34 18.434-.5-.293 2.691-4.555.5.293-2.691 4.555"/><path fill="#fb5151" d="m29.227 18.434-2.696-4.555.5-.293 2.692 4.555-.496.293"/><path fill="#fb5151" d="m29.684 18.434-.5-.293 2.691-4.555.5.293-2.691 4.555"/><path fill="#fb5151" d="m34.566 18.434-2.691-4.555.5-.293 2.691 4.555-.5.293"/><path fill="#fb5151" d="m35.027 18.434-.5-.293 2.692-4.555.5.293-2.692 4.555"/><path fill="#fb5151" d="m39.91 18.434-2.691-4.555.5-.293 2.691 4.555-.5.293"/><path fill="#fb5151" d="m40.367 18.434-.496-.293 2.691-4.555.5.293-2.695 4.555M20.094 12.96H8.02v-.573h12.074v.574"/><g clip-path="url(#l)"><path fill="#fb5151" d="M7.73 12.14v-.675l12.653-7.852v.68L7.73 12.141"/></g><path fill="#fb5151" d="m20.305 11.957-.578-.004.078-7.672.578.004-.078 7.672M8.02 11.45H4.477v1.484H8.02v-1.485"/><path fill="#fb5151" d="M37.332 13.984 19.953 4.535l.277-.508 17.375 9.45-.273.507"/><path fill="#fb5151" d="M30.367 13.945 19.898 4.496l.387-.43 10.469 9.45-.387.43"/><g clip-path="url(#m)"><path fill="#fb5151" d="M2.98 21.227H7.2v-2.211H2.98zm4.797.578H2.402v-3.367h5.375v3.367"/></g><path fill="#fb5151" d="M4.207 21.516h-.578v-2.79h.578v2.79M5.379 21.516H4.8v-2.79h.578v2.79M6.547 21.516h-.578v-2.79h.578v2.79M28.176 20.121h-.578V18.29h.578v1.832M34.523 20.121h-.578V18.29h.578v1.832"/><path fill="#fcae34" d="M33.957 21.707h-5.77v-2.5h5.77v2.5"/><path fill="#d1cabe" d="M39.074 28.57H28.13v-2.414c0-.332.27-.605.601-.605h9.739c.332 0 .605.273.605.605v2.414"/><path fill="#d1cabe" d="M37.785 26.164h-8.37v-1.977a.34.34 0 0 1 .339-.34h7.691a.34.34 0 0 1 .34.34v1.977"/><path fill="#017293" d="M33.14 25.55h-2.87v-.827h2.87v.828M36.93 25.55h-2.867v-.827h2.867v.828M29.977 28.57h-.852v-.687c0-.09.074-.16.164-.16h.523c.09 0 .165.07.165.16v.687M31.594 28.57h-.848v-.687c0-.09.074-.16.164-.16h.52a.16.16 0 0 1 .164.16v.687M33.215 28.57h-.848v-.687c0-.09.07-.16.164-.16h.52c.09 0 .164.07.164.16v.687M34.836 28.57h-.852v-.687c0-.09.075-.16.164-.16h.524c.09 0 .164.07.164.16v.687M36.453 28.57h-.848v-.687c0-.09.075-.16.165-.16h.52c.089 0 .163.07.163.16v.687M38.074 28.57h-.847v-.687c0-.09.07-.16.16-.16h.523c.09 0 .164.07.164.16v.687"/><path fill="#fcae34" d="M29.598 32.57h-4v-4h4v4"/><path fill="#fb5151" d="M33.602 32.57h-4.004v-4h4.004v4"/><path fill="#017293" d="M37.602 32.57h-4v-4h4v4"/><path fill="#09d7af" d="M41.602 32.57h-4v-4h4v4"/><path fill="#008a73" d="M29.598 36.57h-4v-4h4v4"/><path fill="#454587" d="M33.602 36.57h-4.004v-4h4.004v4"/><path fill="#0cabe0" d="M37.602 36.57h-4v-4h4v4"/><path fill="#fcae34" d="M41.602 36.57h-4v-4h4v4"/><path fill="#aaa49b" d="M33.633 32.953c-.41 0-.82.035-1.211.113l-9.625 1.907c2.195.62 3.98 2.949 4.687 6.007h6.149v-8.027"/><path fill="#83807b" d="m44.402 34.973-9.625-1.907a6.178 6.178 0 0 0-1.144-.109v8.023h6.082c.71-3.058 2.492-5.386 4.687-6.007"/><g clip-path="url(#n)"><path fill="#fb5151" d="M27.816 43.977h5.817V40.98h-6.149c.215.926.332 1.918.332 2.95v.047"/></g><g clip-path="url(#o)"><path fill="#cd3636" d="M33.633 43.977h5.75v-.047c0-1.032.117-2.024.332-2.95h-6.082v2.997"/></g><path fill="#454587" d="M35.887 35.531a.571.571 0 0 1-1.14 0 .57.57 0 0 1 1.14 0"/><path fill="#7070d4" d="M32.453 35.531a.568.568 0 1 1-1.137.004.568.568 0 0 1 1.137-.004"/><path d="M14.86 64.975c0 .399-.12.703-.36.922-.23.211-.562.313-1 .313h-.265v1.187h-.953v-3.562h1.219c.457 0 .797.101 1.015.296.227.2.344.48.344.844zm-1.625.453h.172a.505.505 0 0 0 .344-.109.43.43 0 0 0 .14-.344c0-.238-.136-.36-.406-.36h-.25zM17.338 67.397l-.125-.344h-.047a.878.878 0 0 1-.343.297 1.202 1.202 0 0 1-.5.094c-.305 0-.54-.086-.704-.266-.168-.175-.25-.425-.25-.75v-1.78h.954v1.5c0 .179.019.312.062.405.05.094.14.141.266.141a.37.37 0 0 0 .343-.188c.07-.132.11-.351.11-.656v-1.203h.953v2.75zM20.037 67.444c-.46 0-.82-.117-1.078-.36-.25-.25-.375-.597-.375-1.046 0-.469.117-.828.36-1.078.238-.25.57-.375 1-.375.413 0 .738.109.968.328.227.218.344.531.344.937v.422h-1.703a.515.515 0 0 0 .172.375c.101.086.25.125.437.125.164 0 .317-.016.453-.047.145-.031.297-.086.453-.172v.688a1.21 1.21 0 0 1-.468.156 2.912 2.912 0 0 1-.563.047zm-.047-2.203a.442.442 0 0 0-.297.11c-.074.062-.117.171-.125.327h.829a.508.508 0 0 0-.125-.312.365.365 0 0 0-.282-.125zM23.463 64.585c.082 0 .16.011.234.03h.047l-.078.907a1.505 1.505 0 0 0-.328-.031c-.211 0-.36.047-.454.14-.093.094-.14.23-.14.407v1.36h-.953v-2.75h.703l.156.437h.047a.875.875 0 0 1 .328-.36.794.794 0 0 1 .438-.14zM25.474 66.694c.132 0 .289-.031.468-.094v.688c-.125.062-.25.105-.375.125-.117.02-.25.031-.406.031-.312 0-.543-.078-.687-.234-.137-.157-.203-.395-.203-.72v-1.14h-.344v-.39l.422-.297.25-.578h.625v.562h.672v.703h-.672v1.078c0 .18.082.266.25.266zM29.063 66.006c0 .461-.125.813-.375 1.063-.242.25-.578.375-1.015.375-.418 0-.75-.125-1-.375-.25-.258-.375-.613-.375-1.063 0-.445.117-.796.36-1.046.25-.25.593-.375 1.03-.375.27 0 .508.062.72.187.206.117.366.281.484.5.113.211.171.453.171.734zm-1.796 0c0 .243.03.422.093.547.063.125.172.188.328.188.145 0 .25-.063.313-.188.062-.125.094-.304.094-.547 0-.226-.032-.398-.094-.515-.063-.125-.172-.188-.328-.188-.149 0-.25.063-.313.188-.062.117-.093.289-.093.515zM31.754 67.444a.85.85 0 0 1-.516-.156 1.09 1.09 0 0 1-.344-.5 2.084 2.084 0 0 1-.125-.766c0-.445.086-.797.266-1.047a.886.886 0 0 1 .75-.39c.156 0 .29.03.406.093a.915.915 0 0 1 .313.313h.031a4.3 4.3 0 0 1-.047-.64v-.735h.953v3.781h-.719l-.203-.344h-.03c-.169.262-.415.391-.735.391zm.39-.75c.145 0 .25-.047.313-.14.062-.094.098-.243.11-.454v-.062c0-.25-.04-.426-.11-.532a.383.383 0 0 0-.328-.156c-.125 0-.227.063-.297.188-.063.117-.094.281-.094.5 0 .21.031.37.094.484a.34.34 0 0 0 .312.172zM35.428 67.444c-.46 0-.82-.117-1.078-.36-.25-.25-.375-.597-.375-1.046 0-.469.117-.828.36-1.078.238-.25.57-.375 1-.375.414 0 .738.109.968.328.227.218.344.531.344.937v.422h-1.703a.515.515 0 0 0 .172.375c.101.086.25.125.437.125.164 0 .317-.016.453-.047.145-.031.297-.086.454-.172v.688a1.21 1.21 0 0 1-.47.156 2.912 2.912 0 0 1-.562.047zm-.047-2.203a.442.442 0 0 0-.296.11c-.075.062-.118.171-.125.327h.828a.508.508 0 0 0-.125-.312.365.365 0 0 0-.282-.125zm0 0"/><g><path d="m12.18 74.044-.734-2.563h-.016c.031.438.047.778.047 1.016v1.547h-.844V70.48h1.282l.734 2.532h.016l.734-2.532h1.281v3.563h-.89V72.216c.007-.102.023-.348.046-.735h-.03l-.72 2.563zM17.187 74.044l-.187-.36h-.016a1.137 1.137 0 0 1-.39.329c-.137.05-.309.078-.516.078-.262 0-.465-.078-.61-.235-.148-.156-.218-.375-.218-.656 0-.289.098-.508.297-.656.207-.145.504-.223.89-.234l.453-.016v-.047c0-.227-.109-.344-.328-.344-.199 0-.453.07-.765.203l-.282-.625c.32-.164.727-.25 1.22-.25.35 0 .624.09.812.266.195.18.297.422.297.734v1.813zm-.703-.625c.114 0 .211-.035.297-.11a.353.353 0 0 0 .125-.28v-.22l-.219.016c-.312.012-.468.125-.468.344 0 .168.086.25.265.25zM20.23 74.044v-1.5c0-.188-.027-.328-.077-.422a.269.269 0 0 0-.25-.14.366.366 0 0 0-.344.203c-.074.125-.11.343-.11.656v1.203h-.953v-2.75h.72l.124.328h.047a.744.744 0 0 1 .344-.281c.144-.07.305-.11.484-.11.313 0 .551.09.719.266.164.18.25.43.25.75v1.797zM23.914 74.044h-2.281v-.547l1.14-1.484h-1.078v-.72h2.157v.58l-1.094 1.437h1.156zM26.16 74.044l-.188-.36h-.016a1.137 1.137 0 0 1-.39.329c-.137.05-.309.078-.516.078-.261 0-.465-.078-.61-.235-.148-.156-.218-.375-.218-.656 0-.289.098-.508.297-.656.207-.145.504-.223.89-.234l.454-.016v-.047c0-.227-.11-.344-.328-.344-.2 0-.454.07-.766.203l-.281-.625c.32-.164.726-.25 1.218-.25.352 0 .625.09.813.266.195.18.297.422.297.734v1.813zm-.704-.625c.114 0 .211-.035.297-.11a.353.353 0 0 0 .125-.28v-.22l-.218.016c-.313.012-.47.125-.47.344 0 .168.087.25.266.25zM29.203 74.044v-1.5c0-.188-.027-.328-.078-.422a.269.269 0 0 0-.25-.14.366.366 0 0 0-.344.203c-.074.125-.11.343-.11.656v1.203h-.952v-2.75h.718l.125.328h.047a.744.744 0 0 1 .344-.281c.145-.07.305-.11.484-.11.313 0 .551.09.72.266.163.18.25.43.25.75v1.797zM31.761 74.044h-.953v-2.75h.953zm-.968-3.438c0-.144.035-.253.11-.328.081-.07.21-.11.39-.11.176 0 .304.04.39.11.082.075.125.184.125.328 0 .274-.172.407-.515.407-.336 0-.5-.133-.5-.407zM33.383 74.044h-.953v-3.781h.953zM34.994 74.044h-.953v-3.781h.953zM38.293 72.653c0 .461-.125.813-.375 1.063-.242.25-.578.375-1.016.375-.418 0-.75-.125-1-.375-.25-.258-.375-.613-.375-1.063 0-.445.118-.797.36-1.047.25-.25.593-.375 1.03-.375.27 0 .509.063.72.188.207.117.367.281.484.5.113.21.172.453.172.734zm-1.797 0c0 .242.031.422.094.547.062.125.172.188.328.188.144 0 .25-.063.312-.188.063-.125.094-.305.094-.547 0-.226-.031-.398-.094-.515-.062-.125-.171-.188-.328-.188-.148 0-.25.063-.312.188-.063.117-.094.289-.094.515zm0 0"/></g><g><path d="m17.747 84.3.133-.003.066-.11.016-.12.05-.122.137-.086.282-.019.265-.082.586-.32.254-.309.121-.254.078-.277-.027-.528-.04-.132-.105-.23-.12-.161-.27-.2-.113-.042-.262-.121-.133-.04-.121-.007-.121-.02-.14-.03-.134-.028-.14-.075-.055-.14-.012-.113v-.141l.012-.14-.012-.122.07-.11.157-.026.121.07.105.097.11.122.133.074.132.027.383-.02.242.028.133-.074.047-.14-.008-.13-.086-.289-.066-.117-.168-.211-.215-.191-.488-.262-.395-.067-.136-.082-.059-.148-.012-.113-.062-.106-.133-.015-.082.12.02.13-.075.097-.207.117-.195.02-.117.047-.121.027-.121.051-.114.082-.12.059-.282.254-.16.238-.063.125-.086.37-.007.2.039.348.027.129.113.261.074.106.188.176.23.152.239.11.418.105.113.008.148.093.059.149.02.379-.067.129-.133.02-.113-.055-.11-.07-.18-.188-.214-.075-.195-.015h-.113l-.13-.012-.14.027h-.125l-.133.067-.05.148.054.254.055.114.047.132.086.094.066.113.094.11.11.078.573.308.285.075h.118l.136.082.075.14-.008.114zm-.262-3.343-.16-.082-.129-.117-.011-.188.03-.187.075-.098.082-.066.125-.05.121.023.047.175.02.317-.004.12-.075.098zm.657 1.828-.122-.047-.074-.105.008-.149-.012-.125.012-.14.074-.102.133-.062.129.035.113.055.102.074.05.172-.05.203-.094.094zm0 0"/></g><g><path d="m20.52 83.824.156-.02 1.715.016.105-.015.813.015.133-.074.054-.133.016-.129-.016-.132.02-.137-.004-.266-.055-.148-.23-.055-.844-.008-.16-.039v-.105l.074-.129.32-.43.102-.113.059-.102.39-.546.04-.141.12-.258.055-.258v-.129l-.055-.402-.246-.46-.09-.102-.097-.094-.356-.223-.113-.058-.195-.04-.438-.042-.32.02-.254.07-.242.105-.121.082-.29.281-.058.106-.168.39-.008.133-.027.133.07.12.117.075.66.008.126-.063.082-.12.046-.114.106-.086.102-.047.195-.015.18.015.093.074.082.114.02.14-.008.121-.035.133-.078.188-.11.168-.105.101-.215.36-.32.445-.063.113-.246.328-.066.133-.09.094-.05.121-.095.11-.07.105-.066.129-.098.097-.164.231-.066.16.027.149zm0 0"/></g><g><path d="m25.784 83.887.219.012.253-.02.317-.066.25-.094.367-.2.094-.1.226-.31.141-.25.062-.246.02-2.136-.055-.278-.058-.125-.047-.136-.121-.207-.102-.106-.058-.101-.11-.094-.355-.203-.114-.051-.14-.047-.254-.055-.531-.02-.535.114-.122.047-.105.074-.129.067-.2.175-.089.098-.098.094-.062.11-.055.12-.16.516-.004.394.024.149-.032.394.028.133-.02.137.02.133.004.812.07.254.066.121.047.113.168.208.086.101.106.094.12.066.094.074.137.075.36.113zm.414-1.094-.215.027-.2-.02-.14-.046-.094-.062-.082-.106-.046-.133-.055-.207v-1.562l.035-.196.066-.129.086-.093.223-.121.41-.004.125.047.113.078.075.11.047.12.035.192.027.324-.027.527.027.121-.023.137-.004.133.02.113-.009.203-.03.207-.044.121-.097.106-.102.066zm0 0"/></g><g><path d="m30.087 83.887.218.012.254-.02.317-.066.25-.094.367-.2.094-.1.226-.31.14-.25.063-.246.02-2.136-.055-.278-.058-.125-.047-.136-.121-.207-.102-.106-.058-.101-.11-.094-.355-.203-.114-.051-.14-.047-.254-.055-.531-.02-.536.114-.12.047-.106.074-.129.067-.2.175-.09.098-.097.094-.062.11-.055.12-.16.516-.004.394.023.149-.03.394.027.133-.02.137.02.133.003.812.07.254.067.121.047.113.168.208.086.101.105.094.122.066.093.074.137.075.36.113zm.414-1.094-.215.027-.2-.02-.14-.046-.094-.062-.082-.106-.047-.133-.054-.207v-1.562l.035-.196.066-.129.086-.093.223-.121.41-.004.125.047.113.078.075.11.046.12.036.192.027.324-.027.527.027.121-.024.137-.003.133.02.113-.009.203-.031.207-.043.121-.098.106-.101.066zm0 0"/></g></svg>