<svg xmlns="http://www.w3.org/2000/svg" width="123" viewBox="0 0 92.25 92.25" height="123" version="1.0"><defs><clipPath id="bD"><path d="M69 63h14v21H69zm0 0"/></clipPath><clipPath id="a"><path d="M0 0h91.508v91.508H0zm0 0"/></clipPath><clipPath id="c"><path d="m38.367 67.848-33.683-34.7L31.906 6.723 65.59 41.418zm0 0"/></clipPath><clipPath id="d"><path d="m38.367 67.848-33.683-34.7L31.906 6.723 65.59 41.418zm0 0"/></clipPath><clipPath id="e"><path d="m38.367 67.848-33.683-34.7L31.906 6.723 65.59 41.418zm0 0"/></clipPath><clipPath id="f"><path d="M36 29h24v21H36zm0 0"/></clipPath><clipPath id="g"><path d="m38.367 67.848-33.683-34.7L31.906 6.723 65.59 41.418zm0 0"/></clipPath><clipPath id="h"><path d="m38.367 67.848-33.683-34.7L31.906 6.723 65.59 41.418zm0 0"/></clipPath><clipPath id="i"><path d="m38.367 67.848-33.683-34.7L31.906 6.723 65.59 41.418zm0 0"/></clipPath><clipPath id="j"><path d="M12 23h19v21H12zm0 0"/></clipPath><clipPath id="k"><path d="m38.367 67.848-33.683-34.7L31.906 6.723 65.59 41.418zm0 0"/></clipPath><clipPath id="l"><path d="m38.367 67.848-33.683-34.7L31.906 6.723 65.59 41.418zm0 0"/></clipPath><clipPath id="m"><path d="m38.367 67.848-33.683-34.7L31.906 6.723 65.59 41.418zm0 0"/></clipPath><clipPath id="n"><path d="M28 39h19v22H28zm0 0"/></clipPath><clipPath id="o"><path d="m38.367 67.848-33.683-34.7L31.906 6.723 65.59 41.418zm0 0"/></clipPath><clipPath id="p"><path d="m38.367 67.848-33.683-34.7L31.906 6.723 65.59 41.418zm0 0"/></clipPath><clipPath id="q"><path d="m38.367 67.848-33.683-34.7L31.906 6.723 65.59 41.418zm0 0"/></clipPath><clipPath id="r"><path d="M44 48h7v7h-7zm0 0"/></clipPath><clipPath id="s"><path d="m38.367 67.848-33.683-34.7L31.906 6.723 65.59 41.418zm0 0"/></clipPath><clipPath id="t"><path d="m38.367 67.848-33.683-34.7L31.906 6.723 65.59 41.418zm0 0"/></clipPath><clipPath id="u"><path d="m38.367 67.848-33.683-34.7L31.906 6.723 65.59 41.418zm0 0"/></clipPath><clipPath id="v"><path d="M46 50h4v5h-4zm0 0"/></clipPath><clipPath id="w"><path d="m38.367 67.848-33.683-34.7L31.906 6.723 65.59 41.418zm0 0"/></clipPath><clipPath id="x"><path d="m38.367 67.848-33.683-34.7L31.906 6.723 65.59 41.418zm0 0"/></clipPath><clipPath id="y"><path d="m38.367 67.848-33.683-34.7L31.906 6.723 65.59 41.418zm0 0"/></clipPath><clipPath id="z"><path d="M45 43h8v9h-8zm0 0"/></clipPath><clipPath id="A"><path d="m38.367 67.848-33.683-34.7L31.906 6.723 65.59 41.418zm0 0"/></clipPath><clipPath id="B"><path d="m38.367 67.848-33.683-34.7L31.906 6.723 65.59 41.418zm0 0"/></clipPath><clipPath id="C"><path d="m38.367 67.848-33.683-34.7L31.906 6.723 65.59 41.418zm0 0"/></clipPath><clipPath id="D"><path d="M48 47h5v5h-5zm0 0"/></clipPath><clipPath id="E"><path d="m38.367 67.848-33.683-34.7L31.906 6.723 65.59 41.418zm0 0"/></clipPath><clipPath id="F"><path d="m38.367 67.848-33.683-34.7L31.906 6.723 65.59 41.418zm0 0"/></clipPath><clipPath id="G"><path d="m38.367 67.848-33.683-34.7L31.906 6.723 65.59 41.418zm0 0"/></clipPath><clipPath id="H"><path d="M48 47h3v4h-3zm0 0"/></clipPath><clipPath id="I"><path d="m38.367 67.848-33.683-34.7L31.906 6.723 65.59 41.418zm0 0"/></clipPath><clipPath id="J"><path d="m38.367 67.848-33.683-34.7L31.906 6.723 65.59 41.418zm0 0"/></clipPath><clipPath id="K"><path d="m38.367 67.848-33.683-34.7L31.906 6.723 65.59 41.418zm0 0"/></clipPath><clipPath id="L"><path d="M29 32h6v6h-6zm0 0"/></clipPath><clipPath id="M"><path d="m38.367 67.848-33.683-34.7L31.906 6.723 65.59 41.418zm0 0"/></clipPath><clipPath id="N"><path d="m38.367 67.848-33.683-34.7L31.906 6.723 65.59 41.418zm0 0"/></clipPath><clipPath id="O"><path d="m38.367 67.848-33.683-34.7L31.906 6.723 65.59 41.418zm0 0"/></clipPath><clipPath id="P"><path d="M30 33h5v5h-5zm0 0"/></clipPath><clipPath id="Q"><path d="m38.367 67.848-33.683-34.7L31.906 6.723 65.59 41.418zm0 0"/></clipPath><clipPath id="R"><path d="m38.367 67.848-33.683-34.7L31.906 6.723 65.59 41.418zm0 0"/></clipPath><clipPath id="S"><path d="m38.367 67.848-33.683-34.7L31.906 6.723 65.59 41.418zm0 0"/></clipPath><clipPath id="T"><path d="M29 27h8v9h-8zm0 0"/></clipPath><clipPath id="U"><path d="m38.367 67.848-33.683-34.7L31.906 6.723 65.59 41.418zm0 0"/></clipPath><clipPath id="V"><path d="m38.367 67.848-33.683-34.7L31.906 6.723 65.59 41.418zm0 0"/></clipPath><clipPath id="W"><path d="m38.367 67.848-33.683-34.7L31.906 6.723 65.59 41.418zm0 0"/></clipPath><clipPath id="X"><path d="M32 31h5v5h-5zm0 0"/></clipPath><clipPath id="Y"><path d="m38.367 67.848-33.683-34.7L31.906 6.723 65.59 41.418zm0 0"/></clipPath><clipPath id="Z"><path d="m38.367 67.848-33.683-34.7L31.906 6.723 65.59 41.418zm0 0"/></clipPath><clipPath id="aa"><path d="m38.367 67.848-33.683-34.7L31.906 6.723 65.59 41.418zm0 0"/></clipPath><clipPath id="ab"><path d="M32 31h4v3h-4zm0 0"/></clipPath><clipPath id="ac"><path d="m38.367 67.848-33.683-34.7L31.906 6.723 65.59 41.418zm0 0"/></clipPath><clipPath id="ad"><path d="m38.367 67.848-33.683-34.7L31.906 6.723 65.59 41.418zm0 0"/></clipPath><clipPath id="ae"><path d="m38.367 67.848-33.683-34.7L31.906 6.723 65.59 41.418zm0 0"/></clipPath><clipPath id="af"><path d="M40 41h24v24H40zm0 0"/></clipPath><clipPath id="ag"><path d="m38.367 67.848-33.683-34.7L31.906 6.723 65.59 41.418zm0 0"/></clipPath><clipPath id="ah"><path d="m38.367 67.848-33.683-34.7L31.906 6.723 65.59 41.418zm0 0"/></clipPath><clipPath id="ai"><path d="m38.367 67.848-33.683-34.7L31.906 6.723 65.59 41.418zm0 0"/></clipPath><clipPath id="aj"><path d="M8 8h24v24H8zm0 0"/></clipPath><clipPath id="ak"><path d="m38.367 67.848-33.683-34.7L31.906 6.723 65.59 41.418zm0 0"/></clipPath><clipPath id="al"><path d="m38.367 67.848-33.683-34.7L31.906 6.723 65.59 41.418zm0 0"/></clipPath><clipPath id="am"><path d="m38.367 67.848-33.683-34.7L31.906 6.723 65.59 41.418zm0 0"/></clipPath><clipPath id="an"><path d="M39 40h24v23H39zm0 0"/></clipPath><clipPath id="ao"><path d="m38.367 67.848-33.683-34.7L31.906 6.723 65.59 41.418zm0 0"/></clipPath><clipPath id="ap"><path d="m38.367 67.848-33.683-34.7L31.906 6.723 65.59 41.418zm0 0"/></clipPath><clipPath id="aq"><path d="m38.367 67.848-33.683-34.7L31.906 6.723 65.59 41.418zm0 0"/></clipPath><clipPath id="ar"><path d="M10 10h23v22H10zm0 0"/></clipPath><clipPath id="as"><path d="m38.367 67.848-33.683-34.7L31.906 6.723 65.59 41.418zm0 0"/></clipPath><clipPath id="at"><path d="m38.367 67.848-33.683-34.7L31.906 6.723 65.59 41.418zm0 0"/></clipPath><clipPath id="au"><path d="m38.367 67.848-33.683-34.7L31.906 6.723 65.59 41.418zm0 0"/></clipPath><clipPath id="av"><path d="M24 25h24v23H24zm0 0"/></clipPath><clipPath id="aw"><path d="m38.367 67.848-33.683-34.7L31.906 6.723 65.59 41.418zm0 0"/></clipPath><clipPath id="ax"><path d="m38.367 67.848-33.683-34.7L31.906 6.723 65.59 41.418zm0 0"/></clipPath><clipPath id="ay"><path d="m38.367 67.848-33.683-34.7L31.906 6.723 65.59 41.418zm0 0"/></clipPath><clipPath id="az"><path d="M25 26h24v23H25zm0 0"/></clipPath><clipPath id="aA"><path d="m38.367 67.848-33.683-34.7L31.906 6.723 65.59 41.418zm0 0"/></clipPath><clipPath id="aB"><path d="m38.367 67.848-33.683-34.7L31.906 6.723 65.59 41.418zm0 0"/></clipPath><clipPath id="aC"><path d="m38.367 67.848-33.683-34.7L31.906 6.723 65.59 41.418zm0 0"/></clipPath><clipPath id="aD"><path d="M23 24h24v23H23zm0 0"/></clipPath><clipPath id="aE"><path d="m38.367 67.848-33.683-34.7L31.906 6.723 65.59 41.418zm0 0"/></clipPath><clipPath id="aF"><path d="m38.367 67.848-33.683-34.7L31.906 6.723 65.59 41.418zm0 0"/></clipPath><clipPath id="aG"><path d="m38.367 67.848-33.683-34.7L31.906 6.723 65.59 41.418zm0 0"/></clipPath><clipPath id="aH"><path d="M5 29h38v39H5zm0 0"/></clipPath><clipPath id="aI"><path d="m38.367 67.848-33.683-34.7L31.906 6.723 65.59 41.418zm0 0"/></clipPath><clipPath id="aJ"><path d="m38.367 67.848-33.683-34.7L31.906 6.723 65.59 41.418zm0 0"/></clipPath><clipPath id="aK"><path d="m38.367 67.848-33.683-34.7L31.906 6.723 65.59 41.418zm0 0"/></clipPath><clipPath id="aL"><path d="M6 31h19v19H6zm0 0"/></clipPath><clipPath id="aM"><path d="m38.367 67.848-33.683-34.7L31.906 6.723 65.59 41.418zm0 0"/></clipPath><clipPath id="aN"><path d="m38.367 67.848-33.683-34.7L31.906 6.723 65.59 41.418zm0 0"/></clipPath><clipPath id="aO"><path d="m38.367 67.848-33.683-34.7L31.906 6.723 65.59 41.418zm0 0"/></clipPath><clipPath id="aP"><path d="M18 43h7v7h-7zm0 0"/></clipPath><clipPath id="aQ"><path d="m38.367 67.848-33.683-34.7L31.906 6.723 65.59 41.418zm0 0"/></clipPath><clipPath id="aR"><path d="m38.367 67.848-33.683-34.7L31.906 6.723 65.59 41.418zm0 0"/></clipPath><clipPath id="aS"><path d="m38.367 67.848-33.683-34.7L31.906 6.723 65.59 41.418zm0 0"/></clipPath><clipPath id="aT"><path d="M11 34h11v11H11zm0 0"/></clipPath><clipPath id="aU"><path d="m38.367 67.848-33.683-34.7L31.906 6.723 65.59 41.418zm0 0"/></clipPath><clipPath id="aV"><path d="m38.367 67.848-33.683-34.7L31.906 6.723 65.59 41.418zm0 0"/></clipPath><clipPath id="aW"><path d="m38.367 67.848-33.683-34.7L31.906 6.723 65.59 41.418zm0 0"/></clipPath><clipPath id="aX"><path d="M17 41h5v4h-5zm0 0"/></clipPath><clipPath id="aY"><path d="m38.367 67.848-33.683-34.7L31.906 6.723 65.59 41.418zm0 0"/></clipPath><clipPath id="aZ"><path d="m38.367 67.848-33.683-34.7L31.906 6.723 65.59 41.418zm0 0"/></clipPath><clipPath id="ba"><path d="m38.367 67.848-33.683-34.7L31.906 6.723 65.59 41.418zm0 0"/></clipPath><clipPath id="bb"><path d="M22 47h19v19H22zm0 0"/></clipPath><clipPath id="bc"><path d="m38.367 67.848-33.683-34.7L31.906 6.723 65.59 41.418zm0 0"/></clipPath><clipPath id="bd"><path d="m38.367 67.848-33.683-34.7L31.906 6.723 65.59 41.418zm0 0"/></clipPath><clipPath id="be"><path d="m38.367 67.848-33.683-34.7L31.906 6.723 65.59 41.418zm0 0"/></clipPath><clipPath id="bf"><path d="M34 60h7v6h-7zm0 0"/></clipPath><clipPath id="bg"><path d="m38.367 67.848-33.683-34.7L31.906 6.723 65.59 41.418zm0 0"/></clipPath><clipPath id="bh"><path d="m38.367 67.848-33.683-34.7L31.906 6.723 65.59 41.418zm0 0"/></clipPath><clipPath id="bi"><path d="m38.367 67.848-33.683-34.7L31.906 6.723 65.59 41.418zm0 0"/></clipPath><clipPath id="bj"><path d="M27 50h11v11H27zm0 0"/></clipPath><clipPath id="bk"><path d="m38.367 67.848-33.683-34.7L31.906 6.723 65.59 41.418zm0 0"/></clipPath><clipPath id="bl"><path d="m38.367 67.848-33.683-34.7L31.906 6.723 65.59 41.418zm0 0"/></clipPath><clipPath id="bm"><path d="m38.367 67.848-33.683-34.7L31.906 6.723 65.59 41.418zm0 0"/></clipPath><clipPath id="bn"><path d="M33 57h5v4h-5zm0 0"/></clipPath><clipPath id="bo"><path d="m38.367 67.848-33.683-34.7L31.906 6.723 65.59 41.418zm0 0"/></clipPath><clipPath id="bp"><path d="m38.367 67.848-33.683-34.7L31.906 6.723 65.59 41.418zm0 0"/></clipPath><clipPath id="bq"><path d="m38.367 67.848-33.683-34.7L31.906 6.723 65.59 41.418zm0 0"/></clipPath><clipPath id="br"><path d="M29 6h37v38H29zm0 0"/></clipPath><clipPath id="bs"><path d="m38.367 67.848-33.683-34.7L31.906 6.723 65.59 41.418zm0 0"/></clipPath><clipPath id="bt"><path d="m38.367 67.848-33.683-34.7L31.906 6.723 65.59 41.418zm0 0"/></clipPath><clipPath id="bu"><path d="m38.367 67.848-33.683-34.7L31.906 6.723 65.59 41.418zm0 0"/></clipPath><clipPath id="bv"><path d="M60 38h6v6h-6zm0 0"/></clipPath><clipPath id="bw"><path d="m38.367 67.848-33.683-34.7L31.906 6.723 65.59 41.418zm0 0"/></clipPath><clipPath id="bx"><path d="m38.367 67.848-33.683-34.7L31.906 6.723 65.59 41.418zm0 0"/></clipPath><clipPath id="by"><path d="m38.367 67.848-33.683-34.7L31.906 6.723 65.59 41.418zm0 0"/></clipPath><clipPath id="bz"><path d="M54 47h24v21H54zm0 0"/></clipPath><clipPath id="bA"><path d="M55.41 85.602 37.79 67.453l27.226-26.426 17.617 18.149zm0 0"/></clipPath><clipPath id="bB"><path d="m71.762 102.45-33.684-34.7 27.227-26.426 33.68 34.696zm0 0"/></clipPath><clipPath id="bC"><path d="m71.762 102.45-33.684-34.7 27.227-26.426 33.68 34.696zm0 0"/></clipPath><clipPath id="b"><path d="M20 12h24v22H20zm0 0"/></clipPath><clipPath id="bE"><path d="M55.41 85.602 37.79 67.453l27.226-26.426 17.617 18.149zm0 0"/></clipPath><clipPath id="bF"><path d="m71.762 102.45-33.684-34.7 27.227-26.426 33.68 34.696zm0 0"/></clipPath><clipPath id="bG"><path d="m71.762 102.45-33.684-34.7 27.227-26.426 33.68 34.696zm0 0"/></clipPath><clipPath id="bH"><path d="M45 57h19v22H45zm0 0"/></clipPath><clipPath id="bI"><path d="M55.41 85.602 37.79 67.453l27.226-26.426 17.617 18.149zm0 0"/></clipPath><clipPath id="bJ"><path d="m71.762 102.45-33.684-34.7 27.227-26.426 33.68 34.696zm0 0"/></clipPath><clipPath id="bK"><path d="m71.762 102.45-33.684-34.7 27.227-26.426 33.68 34.696zm0 0"/></clipPath><clipPath id="bL"><path d="M61 74h19v12H61zm0 0"/></clipPath><clipPath id="bM"><path d="M55.41 85.602 37.79 67.453l27.226-26.426 17.617 18.149zm0 0"/></clipPath><clipPath id="bN"><path d="m71.762 102.45-33.684-34.7 27.227-26.426 33.68 34.696zm0 0"/></clipPath><clipPath id="bO"><path d="m71.762 102.45-33.684-34.7 27.227-26.426 33.68 34.696zm0 0"/></clipPath><clipPath id="bP"><path d="M78 83h5v3h-5zm0 0"/></clipPath><clipPath id="bQ"><path d="M55.41 85.602 37.79 67.453l27.226-26.426 17.617 18.149zm0 0"/></clipPath><clipPath id="bR"><path d="m71.762 102.45-33.684-34.7 27.227-26.426 33.68 34.696zm0 0"/></clipPath><clipPath id="bS"><path d="m71.762 102.45-33.684-34.7 27.227-26.426 33.68 34.696zm0 0"/></clipPath><clipPath id="bT"><path d="M79 84h4v2h-4zm0 0"/></clipPath><clipPath id="bU"><path d="M55.41 85.602 37.79 67.453l27.226-26.426 17.617 18.149zm0 0"/></clipPath><clipPath id="bV"><path d="m71.762 102.45-33.684-34.7 27.227-26.426 33.68 34.696zm0 0"/></clipPath><clipPath id="bW"><path d="m71.762 102.45-33.684-34.7 27.227-26.426 33.68 34.696zm0 0"/></clipPath><clipPath id="bX"><path d="M78 78h5v8h-5zm0 0"/></clipPath><clipPath id="bY"><path d="M55.41 85.602 37.79 67.453l27.226-26.426 17.617 18.149zm0 0"/></clipPath><clipPath id="bZ"><path d="m71.762 102.45-33.684-34.7 27.227-26.426 33.68 34.696zm0 0"/></clipPath><clipPath id="ca"><path d="m71.762 102.45-33.684-34.7 27.227-26.426 33.68 34.696zm0 0"/></clipPath><clipPath id="cb"><path d="M81 81h2v5h-2zm0 0"/></clipPath><clipPath id="cc"><path d="M55.41 85.602 37.79 67.453l27.226-26.426 17.617 18.149zm0 0"/></clipPath><clipPath id="cd"><path d="m71.762 102.45-33.684-34.7 27.227-26.426 33.68 34.696zm0 0"/></clipPath><clipPath id="ce"><path d="m71.762 102.45-33.684-34.7 27.227-26.426 33.68 34.696zm0 0"/></clipPath><clipPath id="cf"><path d="M81 81h2v4h-2zm0 0"/></clipPath><clipPath id="cg"><path d="M55.41 85.602 37.79 67.453l27.226-26.426 17.617 18.149zm0 0"/></clipPath><clipPath id="ch"><path d="m71.762 102.45-33.684-34.7 27.227-26.426 33.68 34.696zm0 0"/></clipPath><clipPath id="ci"><path d="m71.762 102.45-33.684-34.7 27.227-26.426 33.68 34.696zm0 0"/></clipPath><clipPath id="cj"><path d="M62 67h6v6h-6zm0 0"/></clipPath><clipPath id="ck"><path d="M55.41 85.602 37.79 67.453l27.226-26.426 17.617 18.149zm0 0"/></clipPath><clipPath id="cl"><path d="m71.762 102.45-33.684-34.7 27.227-26.426 33.68 34.696zm0 0"/></clipPath><clipPath id="cm"><path d="m71.762 102.45-33.684-34.7 27.227-26.426 33.68 34.696zm0 0"/></clipPath><clipPath id="cn"><path d="M63 68h5v5h-5zm0 0"/></clipPath><clipPath id="co"><path d="M55.41 85.602 37.79 67.453l27.226-26.426 17.617 18.149zm0 0"/></clipPath><clipPath id="cp"><path d="m71.762 102.45-33.684-34.7 27.227-26.426 33.68 34.696zm0 0"/></clipPath><clipPath id="cq"><path d="m71.762 102.45-33.684-34.7 27.227-26.426 33.68 34.696zm0 0"/></clipPath><clipPath id="cr"><path d="M62 62h9v8h-9zm0 0"/></clipPath><clipPath id="cs"><path d="M55.41 85.602 37.79 67.453l27.226-26.426 17.617 18.149zm0 0"/></clipPath><clipPath id="ct"><path d="m71.762 102.45-33.684-34.7 27.227-26.426 33.68 34.696zm0 0"/></clipPath><clipPath id="cu"><path d="m71.762 102.45-33.684-34.7 27.227-26.426 33.68 34.696zm0 0"/></clipPath><clipPath id="cv"><path d="M65 65h6v5h-6zm0 0"/></clipPath><clipPath id="cw"><path d="M55.41 85.602 37.79 67.453l27.226-26.426 17.617 18.149zm0 0"/></clipPath><clipPath id="cx"><path d="m71.762 102.45-33.684-34.7 27.227-26.426 33.68 34.696zm0 0"/></clipPath><clipPath id="cy"><path d="m71.762 102.45-33.684-34.7 27.227-26.426 33.68 34.696zm0 0"/></clipPath><clipPath id="cz"><path d="M65 65h4v4h-4zm0 0"/></clipPath><clipPath id="cA"><path d="M55.41 85.602 37.79 67.453l27.226-26.426 17.617 18.149zm0 0"/></clipPath><clipPath id="cB"><path d="m71.762 102.45-33.684-34.7 27.227-26.426 33.68 34.696zm0 0"/></clipPath><clipPath id="cC"><path d="m71.762 102.45-33.684-34.7 27.227-26.426 33.68 34.696zm0 0"/></clipPath><clipPath id="cD"><path d="M74 76h9v10h-9zm0 0"/></clipPath><clipPath id="cE"><path d="M55.41 85.602 37.79 67.453l27.226-26.426 17.617 18.149zm0 0"/></clipPath><clipPath id="cF"><path d="m71.762 102.45-33.684-34.7 27.227-26.426 33.68 34.696zm0 0"/></clipPath><clipPath id="cG"><path d="m71.762 102.45-33.684-34.7 27.227-26.426 33.68 34.696zm0 0"/></clipPath><clipPath id="cH"><path d="M41 43h25v23H41zm0 0"/></clipPath><clipPath id="cI"><path d="M55.41 85.602 37.79 67.453l27.226-26.426 17.617 18.149zm0 0"/></clipPath><clipPath id="cJ"><path d="m71.762 102.45-33.684-34.7 27.227-26.426 33.68 34.696zm0 0"/></clipPath><clipPath id="cK"><path d="m71.762 102.45-33.684-34.7 27.227-26.426 33.68 34.696zm0 0"/></clipPath><clipPath id="cL"><path d="M73 75h10v11H73zm0 0"/></clipPath><clipPath id="cM"><path d="M55.41 85.602 37.79 67.453l27.226-26.426 17.617 18.149zm0 0"/></clipPath><clipPath id="cN"><path d="m71.762 102.45-33.684-34.7 27.227-26.426 33.68 34.696zm0 0"/></clipPath><clipPath id="cO"><path d="m71.762 102.45-33.684-34.7 27.227-26.426 33.68 34.696zm0 0"/></clipPath><clipPath id="cP"><path d="M43 44h23v23H43zm0 0"/></clipPath><clipPath id="cQ"><path d="M55.41 85.602 37.79 67.453l27.226-26.426 17.617 18.149zm0 0"/></clipPath><clipPath id="cR"><path d="m71.762 102.45-33.684-34.7 27.227-26.426 33.68 34.696zm0 0"/></clipPath><clipPath id="cS"><path d="m71.762 102.45-33.684-34.7 27.227-26.426 33.68 34.696zm0 0"/></clipPath><clipPath id="cT"><path d="M58 59h23v23H58zm0 0"/></clipPath><clipPath id="cU"><path d="M55.41 85.602 37.79 67.453l27.226-26.426 17.617 18.149zm0 0"/></clipPath><clipPath id="cV"><path d="m71.762 102.45-33.684-34.7 27.227-26.426 33.68 34.696zm0 0"/></clipPath><clipPath id="cW"><path d="m71.762 102.45-33.684-34.7 27.227-26.426 33.68 34.696zm0 0"/></clipPath><clipPath id="cX"><path d="M59 61h23v22H59zm0 0"/></clipPath><clipPath id="cY"><path d="M55.41 85.602 37.79 67.453l27.226-26.426 17.617 18.149zm0 0"/></clipPath><clipPath id="cZ"><path d="m71.762 102.45-33.684-34.7 27.227-26.426 33.68 34.696zm0 0"/></clipPath><clipPath id="da"><path d="m71.762 102.45-33.684-34.7 27.227-26.426 33.68 34.696zm0 0"/></clipPath><clipPath id="db"><path d="M57 58h23v23H57zm0 0"/></clipPath><clipPath id="dc"><path d="M55.41 85.602 37.79 67.453l27.226-26.426 17.617 18.149zm0 0"/></clipPath><clipPath id="dd"><path d="m71.762 102.45-33.684-34.7 27.227-26.426 33.68 34.696zm0 0"/></clipPath><clipPath id="de"><path d="m71.762 102.45-33.684-34.7 27.227-26.426 33.68 34.696zm0 0"/></clipPath><clipPath id="df"><path d="M38 63h38v23H38zm0 0"/></clipPath><clipPath id="dg"><path d="M55.41 85.602 37.79 67.453l27.226-26.426 17.617 18.149zm0 0"/></clipPath><clipPath id="dh"><path d="m71.762 102.45-33.684-34.7 27.227-26.426 33.68 34.696zm0 0"/></clipPath><clipPath id="di"><path d="m71.762 102.45-33.684-34.7 27.227-26.426 33.68 34.696zm0 0"/></clipPath><clipPath id="dj"><path d="M40 65h18v20H40zm0 0"/></clipPath><clipPath id="dk"><path d="M55.41 85.602 37.79 67.453l27.226-26.426 17.617 18.149zm0 0"/></clipPath><clipPath id="dl"><path d="m71.762 102.45-33.684-34.7 27.227-26.426 33.68 34.696zm0 0"/></clipPath><clipPath id="dm"><path d="m71.762 102.45-33.684-34.7 27.227-26.426 33.68 34.696zm0 0"/></clipPath><clipPath id="dn"><path d="M52 78h6v7h-6zm0 0"/></clipPath><clipPath id="do"><path d="M55.41 85.602 37.79 67.453l27.226-26.426 17.617 18.149zm0 0"/></clipPath><clipPath id="dp"><path d="m71.762 102.45-33.684-34.7 27.227-26.426 33.68 34.696zm0 0"/></clipPath><clipPath id="dq"><path d="m71.762 102.45-33.684-34.7 27.227-26.426 33.68 34.696zm0 0"/></clipPath><clipPath id="dr"><path d="M45 68h11v12H45zm0 0"/></clipPath><clipPath id="ds"><path d="M55.41 85.602 37.79 67.453l27.226-26.426 17.617 18.149zm0 0"/></clipPath><clipPath id="dt"><path d="m71.762 102.45-33.684-34.7 27.227-26.426 33.68 34.696zm0 0"/></clipPath><clipPath id="du"><path d="m71.762 102.45-33.684-34.7 27.227-26.426 33.68 34.696zm0 0"/></clipPath><clipPath id="dv"><path d="M51 75h5v5h-5zm0 0"/></clipPath><clipPath id="dw"><path d="M55.41 85.602 37.79 67.453l27.226-26.426 17.617 18.149zm0 0"/></clipPath><clipPath id="dx"><path d="m71.762 102.45-33.684-34.7 27.227-26.426 33.68 34.696zm0 0"/></clipPath><clipPath id="dy"><path d="m71.762 102.45-33.684-34.7 27.227-26.426 33.68 34.696zm0 0"/></clipPath><clipPath id="dz"><path d="M55 82h19v4H55zm0 0"/></clipPath><clipPath id="dA"><path d="M55.41 85.602 37.79 67.453l27.226-26.426 17.617 18.149zm0 0"/></clipPath><clipPath id="dB"><path d="m71.762 102.45-33.684-34.7 27.227-26.426 33.68 34.696zm0 0"/></clipPath><clipPath id="dC"><path d="m71.762 102.45-33.684-34.7 27.227-26.426 33.68 34.696zm0 0"/></clipPath><clipPath id="dD"><path d="M60 85h11v1H60zm0 0"/></clipPath><clipPath id="dE"><path d="M55.41 85.602 37.79 67.453l27.226-26.426 17.617 18.149zm0 0"/></clipPath><clipPath id="dF"><path d="m71.762 102.45-33.684-34.7 27.227-26.426 33.68 34.696zm0 0"/></clipPath><clipPath id="dG"><path d="m71.762 102.45-33.684-34.7 27.227-26.426 33.68 34.696zm0 0"/></clipPath><clipPath id="dH"><path d="M63 41h20v37H63zm0 0"/></clipPath><clipPath id="dI"><path d="M55.41 85.602 37.79 67.453l27.226-26.426 17.617 18.149zm0 0"/></clipPath><clipPath id="dJ"><path d="m71.762 102.45-33.684-34.7 27.227-26.426 33.68 34.696zm0 0"/></clipPath><clipPath id="dK"><path d="m71.762 102.45-33.684-34.7 27.227-26.426 33.68 34.696zm0 0"/></clipPath><clipPath id="dL"><path d="M27.094 0h63.98v52h-63.98zm0 0"/></clipPath><clipPath id="dM"><path d="M6 67h19v20H6zm0 0"/></clipPath><clipPath id="dN"><path d="M15.879 88.152 4.305 76.578l11.574-11.57 11.57 11.57zm0 0"/></clipPath><clipPath id="dO"><path d="M15.879 88.152 4.305 76.578l11.574-11.57 11.57 11.57zm0 0"/></clipPath><clipPath id="dP"><path d="M15.879 88.152 4.305 76.578l11.574-11.57 11.57 11.57zm0 0"/></clipPath><clipPath id="dQ"><path d="M10 73h9v10h-9zm0 0"/></clipPath><clipPath id="dR"><path d="M15.879 88.152 4.305 76.578l11.574-11.57 11.57 11.57zm0 0"/></clipPath><clipPath id="dS"><path d="M15.879 88.152 4.305 76.578l11.574-11.57 11.57 11.57zm0 0"/></clipPath><clipPath id="dT"><path d="M15.879 88.152 4.305 76.578l11.574-11.57 11.57 11.57zm0 0"/></clipPath><clipPath id="dU"><path d="M13 65h15v14H13zm0 0"/></clipPath><clipPath id="dV"><path d="M15.879 88.152 4.305 76.578l11.574-11.57 11.57 11.57zm0 0"/></clipPath><clipPath id="dW"><path d="M15.879 88.152 4.305 76.578l11.574-11.57 11.57 11.57zm0 0"/></clipPath><clipPath id="dX"><path d="M15.879 88.152 4.305 76.578l11.574-11.57 11.57 11.57zm0 0"/></clipPath><clipPath id="dY"><path d="M13 67h13v12H13zm0 0"/></clipPath><clipPath id="dZ"><path d="M15.879 88.152 4.305 76.578l11.574-11.57 11.57 11.57zm0 0"/></clipPath><clipPath id="ea"><path d="M15.879 88.152 4.305 76.578l11.574-11.57 11.57 11.57zm0 0"/></clipPath><clipPath id="eb"><path d="M15.879 88.152 4.305 76.578l11.574-11.57 11.57 11.57zm0 0"/></clipPath><clipPath id="ec"><path d="M9 72h11v12H9zm0 0"/></clipPath><clipPath id="ed"><path d="M15.879 88.152 4.305 76.578l11.574-11.57 11.57 11.57zm0 0"/></clipPath><clipPath id="ee"><path d="M15.879 88.152 4.305 76.578l11.574-11.57 11.57 11.57zm0 0"/></clipPath><clipPath id="ef"><path d="M15.879 88.152 4.305 76.578l11.574-11.57 11.57 11.57zm0 0"/></clipPath></defs><g clip-path="url(#a)" fill="#fff"><path d="M0 0h92.25v390.574H0zm0 0"/><path d="M0 0h91.508v91.508H0zm0 0"/><path d="M0 0h91.508v91.508H0zm0 0"/></g><g clip-path="url(#b)"><g clip-path="url(#c)"><g clip-path="url(#d)"><g clip-path="url(#e)"><path fill="#cbe5e8" d="m21.719 21.547-1.012.984L30.93 33.06l.574-.559-2.02-2.078a.38.38 0 0 1 .008-.535l2.04-1.98a.38.38 0 0 1 .53.011l.165.168 1.582-1.535 1.789 1.844-1.582 1.535.988 1.015 1.578-1.535 1.79 1.844 1.015-.984-1.79-1.84 3.16-3.07 1.79 1.843 1.012-.984-1.79-1.844 1.86-1.8-.988-1.016-1.856 1.8-1.789-1.84 1.856-1.804-.989-1.016-1.855 1.801-1.79-1.84 1.856-1.805-.984-1.015-1.86 1.8-1.789-1.84 1.86-1.804-.989-1.016-1.855 1.801-1.824-1.875-1.012.985 1.824 1.875-3.164 3.07-1.82-1.879-1.012.984 1.82 1.875-3.718 3.614zm16.261.953 1.79 1.844-3.16 3.066-1.79-1.84zm-2.773-2.86 1.79 1.844-3.161 3.067-1.79-1.84zm-4.18 4.06 1.79 1.843-3.723 3.613-1.79-1.843zm1.395-6.923 1.789 1.84-3.16 3.07-1.79-1.843zm-4.18 4.055 1.79 1.844-3.72 3.613-1.789-1.844zm0 0"/></g></g></g></g><g clip-path="url(#f)"><g clip-path="url(#g)"><g clip-path="url(#h)"><g clip-path="url(#i)"><path fill="#cbe5e8" d="m47.293 48.77-2.016-2.083a.373.373 0 0 1 .004-.53l2.04-1.981a.38.38 0 0 1 .534.008l.165.171 1.582-1.535 1.789 1.844-1.582 1.531.988 1.02 1.578-1.535 1.824 1.875 1.012-.98-1.824-1.88 3.164-3.066 1.82 1.875 1.012-.98-1.82-1.88 1.855-1.8-.984-1.02-1.86 1.805-1.789-1.844 1.86-1.8-.989-1.02-1.855 1.805-1.79-1.844 1.856-1.801-.984-1.02-1.86 1.805-1.789-1.844 1.86-1.8-.989-1.02-1.855 1.805-1.797-1.852-1.012.985 1.79 1.843-3.16 3.067-1.79-1.84-1.015.98 1.789 1.844-3.72 3.613-1.788-1.843-1.016.984 10.192 10.496zm6.473-10.008 1.797 1.851-3.16 3.067-1.79-1.844 3.16-3.066zM42.109 42.55l-1.789-1.844 3.723-3.613 1.789 1.843zm4.727-4.59-1.79-1.844 3.161-3.066 1.79 1.844zm-1.95 7.45-1.788-1.845 3.718-3.613 1.79 1.844zm4.727-4.59-1.789-1.844 3.16-3.067 1.79 1.844zm0 0"/></g></g></g></g><g clip-path="url(#j)"><g clip-path="url(#k)"><g clip-path="url(#l)"><g clip-path="url(#m)"><path fill="#cbe5e8" d="m13.375 29.648-1.016.985 1.825 1.875-1.305 1.265.988 1.016 1.301-1.266 1.789 1.844-1.3 1.266.984 1.015 1.304-1.265 1.79 1.844-1.305 1.265.988 1.016 1.3-1.266 1.79 1.844-1.301 1.266.984 1.015 1.305-1.265 1.797 1.851 1.012-.984-1.79-1.844 3.16-3.066 1.79 1.843 1.012-.984-1.79-1.844 1.231-1.191-.652-.672a.394.394 0 0 1 .015-.555l.992-.96-10.222-10.532-1.012.984 1.824 1.88-1.496 1.445-1.82-1.875-1.012.984 1.82 1.875-3.16 3.07zm14.031 3.118 1.79 1.843-1.493 1.45-1.789-1.844zm-2.504 2.433 1.785 1.844-3.16 3.066-1.789-1.843zm-.273-5.293 1.789 1.844-1.492 1.45-1.79-1.845zm-2.504 2.434 1.79 1.844-3.161 3.066-1.79-1.844zm-.277-5.297 1.789 1.84-1.492 1.449-1.79-1.84zm-2.504 2.43 1.789 1.843-3.16 3.07-1.79-1.843zm0 0"/></g></g></g></g><g clip-path="url(#n)"><g clip-path="url(#o)"><g clip-path="url(#p)"><g clip-path="url(#q)"><path fill="#cbe5e8" d="m28.672 50.043.984 1.016 1.305-1.266 1.789 1.844-1.305 1.265.989 1.016 1.304-1.266 1.79 1.844-1.305 1.266.988 1.015 1.3-1.265 1.798 1.851-1.305 1.262.988 1.02 1.301-1.266 1.824 1.875 1.012-.984-1.82-1.875 3.16-3.067 1.82 1.875 1.016-.984-1.825-1.875 1.23-1.196-.651-.668a.4.4 0 0 1 .007-.562l.993-.961-10.18-10.488-1.016.98 1.79 1.844-1.493 1.45-1.789-1.845-1.012.985 1.79 1.844-3.16 3.066-1.79-1.844-1.012.985 1.786 1.843zm14.52-1.016 1.796 1.852-1.492 1.45-1.789-1.845 1.492-1.449zm-2.505 2.434 1.793 1.848-3.16 3.07-1.789-1.844 3.16-3.066zm-.273-5.293 1.79 1.844-1.493 1.449-1.79-1.844zm-2.504 2.434 1.79 1.843-3.16 3.067-1.79-1.844zm-.27-5.293 1.79 1.843-1.492 1.45-1.79-1.844zm-2.507 2.433 1.789 1.844-3.16 3.066-1.79-1.843zm0 0"/></g></g></g></g><g clip-path="url(#r)"><g clip-path="url(#s)"><g clip-path="url(#t)"><g clip-path="url(#u)"><path fill="#7ca1b1" d="m50.04 51.594-2.81-2.89-2.222 2.155a.492.492 0 0 0-.012.692l2.469 2.543zm0 0"/></g></g></g></g><g clip-path="url(#v)"><g clip-path="url(#w)"><g clip-path="url(#x)"><g clip-path="url(#y)"><path fill="#678d98" d="m47.465 54.094-1.387-1.43 2.504-2.434 1.387 1.43zm0 0"/></g></g></g></g><g clip-path="url(#z)"><g clip-path="url(#A)"><g clip-path="url(#B)"><g clip-path="url(#C)"><path fill="#ffe177" d="m45.203 46.746 4.766 4.914 2.715-2.637-4.766-4.91a.467.467 0 0 0-.668-.011l-2.04 1.98a.466.466 0 0 0-.007.664zm0 0"/></g></g></g></g><g clip-path="url(#D)"><g clip-path="url(#E)"><g clip-path="url(#F)"><g clip-path="url(#G)"><path fill="#ffd15b" d="m49.969 51.66-1.637-1.687 2.715-2.637 1.637 1.687zm0 0"/></g></g></g></g><g clip-path="url(#H)"><g clip-path="url(#I)"><g clip-path="url(#J)"><g clip-path="url(#K)"><path fill="#7ca1b1" d="m49.559 47.574 1.222 1.258c.27.277.262.73-.015 1a.707.707 0 0 1-.996-.016l-1.22-1.254a.712.712 0 0 1 .013-1 .707.707 0 0 1 .996.012zm0 0"/></g></g></g></g><g clip-path="url(#L)"><g clip-path="url(#M)"><g clip-path="url(#N)"><g clip-path="url(#O)"><path fill="#7ca1b1" d="m34.21 35.293-2.773-2.86-2.222 2.157a.496.496 0 0 0-.008.695l2.434 2.504zm0 0"/></g></g></g></g><g clip-path="url(#P)"><g clip-path="url(#Q)"><g clip-path="url(#R)"><g clip-path="url(#S)"><path fill="#678d98" d="m31.64 37.79-1.355-1.395 2.504-2.434 1.356 1.398zm0 0"/></g></g></g></g><g clip-path="url(#T)"><g clip-path="url(#U)"><g clip-path="url(#V)"><g clip-path="url(#W)"><path fill="#ffe177" d="m29.414 30.488 4.73 4.871 2.715-2.636-4.73-4.871a.462.462 0 0 0-.664-.012l-2.04 1.98a.467.467 0 0 0-.01.668zm0 0"/></g></g></g></g><g clip-path="url(#X)"><g clip-path="url(#Y)"><g clip-path="url(#Z)"><g clip-path="url(#aa)"><path fill="#ffd15b" d="m34.145 35.36-1.606-1.653 2.715-2.637 1.605 1.653zm0 0"/></g></g></g></g><g clip-path="url(#ab)"><g clip-path="url(#ac)"><g clip-path="url(#ad)"><g clip-path="url(#ae)"><path fill="#7ca1b1" d="m33.773 31.313 1.215 1.253c.27.278.266.73-.011 1a.709.709 0 0 1-1-.02l-1.22-1.25a.712.712 0 0 1 .016-1 .712.712 0 0 1 1 .017zm0 0"/></g></g></g></g><g clip-path="url(#af)"><g clip-path="url(#ag)"><g clip-path="url(#ah)"><g clip-path="url(#ai)"><path fill="#cbe5e8" d="m42.273 64.055-1.605-1.653L62.09 41.605l1.605 1.653zm0 0"/></g></g></g></g><g clip-path="url(#aj)"><g clip-path="url(#ak)"><g clip-path="url(#al)"><g clip-path="url(#am)"><path fill="#cbe5e8" d="m10.203 31.016-1.605-1.653L30.02 8.57l1.605 1.653zm0 0"/></g></g></g></g><g clip-path="url(#an)"><g clip-path="url(#ao)"><g clip-path="url(#ap)"><g clip-path="url(#aq)"><path fill="#a8d3d8" d="m40.734 62.469-.988-1.016 21.422-20.797.988 1.016zm0 0"/></g></g></g></g><g clip-path="url(#ar)"><g clip-path="url(#as)"><g clip-path="url(#at)"><g clip-path="url(#au)"><path fill="#a8d3d8" d="m11.121 31.965-.984-1.016 21.422-20.793.984 1.016zm0 0"/></g></g></g></g><g clip-path="url(#av)"><g clip-path="url(#aw)"><g clip-path="url(#ax)"><g clip-path="url(#ay)"><path fill="#cbe5e8" d="m26.027 47.32-1.183-1.222 21.422-20.793 1.183 1.218zm0 0"/></g></g></g></g><g clip-path="url(#az)"><g clip-path="url(#aA)"><g clip-path="url(#aB)"><g clip-path="url(#aC)"><path fill="#a8d3d8" d="m26.95 48.266-.99-1.016 21.423-20.793.984 1.016zm0 0"/></g></g></g></g><g clip-path="url(#aD)"><g clip-path="url(#aE)"><g clip-path="url(#aF)"><g clip-path="url(#aG)"><path fill="#a8d3d8" d="m24.91 46.168-.988-1.02 21.422-20.793.988 1.016zm0 0"/></g></g></g></g><g clip-path="url(#aH)"><g clip-path="url(#aI)"><g clip-path="url(#aJ)"><g clip-path="url(#aK)"><path fill="#537983" d="M8.664 29.297 42.34 63.988l-2.918 2.832c-.574.559-1.5.547-2.067-.035L5.715 34.191a1.462 1.462 0 0 1 .027-2.066zm0 0"/></g></g></g></g><g clip-path="url(#aL)"><g clip-path="url(#aM)"><g clip-path="url(#aN)"><g clip-path="url(#aO)"><path fill="#8ebac5" d="M20.52 49.441 6.734 35.238l3.965-3.847 13.785 14.203zm0 0"/></g></g></g></g><g clip-path="url(#aP)"><g clip-path="url(#aQ)"><g clip-path="url(#aR)"><g clip-path="url(#aS)"><path fill="#7ca1b1" d="m20.52 49.441-1.73-1.78 3.964-3.849 1.73 1.782zm0 0"/></g></g></g></g><g clip-path="url(#aT)"><g clip-path="url(#aU)"><g clip-path="url(#aV)"><g clip-path="url(#aW)"><path fill="#ffe177" d="m21.762 42.79-1.528 1.48a.497.497 0 0 1-.695-.012l-7.652-7.887a.488.488 0 0 1 .008-.691l1.53-1.489 8.34 8.59zm0 0"/></g></g></g></g><g clip-path="url(#aX)"><g clip-path="url(#aY)"><g clip-path="url(#aZ)"><g clip-path="url(#ba)"><path fill="#ffd15b" d="m17.863 42.531 1.676 1.727c.188.191.5.203.695.012l1.532-1.489-1.676-1.726-1.531 1.488a.493.493 0 0 1-.696-.012zm0 0"/></g></g></g></g><g clip-path="url(#bb)"><g clip-path="url(#bc)"><g clip-path="url(#bd)"><g clip-path="url(#be)"><path fill="#8ebac5" d="M36.344 65.742 22.559 51.543l3.964-3.852L40.31 61.895zm0 0"/></g></g></g></g><g clip-path="url(#bf)"><g clip-path="url(#bg)"><g clip-path="url(#bh)"><g clip-path="url(#bi)"><path fill="#7ca1b1" d="m36.344 65.742-1.73-1.781 3.964-3.848 1.73 1.782zm0 0"/></g></g></g></g><g clip-path="url(#bj)"><g clip-path="url(#bk)"><g clip-path="url(#bl)"><g clip-path="url(#bm)"><path fill="#ffe177" d="m37.578 59.082-1.527 1.48a.492.492 0 0 1-.692-.007l-7.656-7.887a.496.496 0 0 1 .008-.695l1.535-1.489 8.34 8.594zm0 0"/></g></g></g></g><g clip-path="url(#bn)"><g clip-path="url(#bo)"><g clip-path="url(#bp)"><g clip-path="url(#bq)"><path fill="#ffd15b" d="m33.688 58.832 1.68 1.727a.488.488 0 0 0 .69.011l1.536-1.488-1.68-1.727-1.531 1.489a.5.5 0 0 1-.696-.012zm0 0"/></g></g></g></g><g clip-path="url(#br)"><g clip-path="url(#bs)"><g clip-path="url(#bt)"><g clip-path="url(#bu)"><path fill="#678d98" d="m32.246 7.094 32.988 33.984a.49.49 0 0 1 0 .688l-1.601 1.55L29.957 8.63l1.602-1.555a.484.484 0 0 1 .687.02zm0 0"/></g></g></g></g><g clip-path="url(#bv)"><g clip-path="url(#bw)"><g clip-path="url(#bx)"><g clip-path="url(#by)"><path fill="#537983" d="M62.484 38.945 60.883 40.5l2.742 2.824 1.602-1.554a.488.488 0 0 0 .007-.692l-2.742-2.824c.192.195.188.5-.008.691zm0 0"/></g></g></g></g><g clip-path="url(#bz)"><g clip-path="url(#bA)"><g clip-path="url(#bB)"><g clip-path="url(#bC)"><path fill="#cbe5e8" d="m55.117 56.148-1.015.98L64.324 67.66l.574-.558-2.02-2.079a.38.38 0 0 1 .009-.535l2.039-1.98a.376.376 0 0 1 .531.008l.168.172 1.578-1.536 1.79 1.844-1.579 1.535.984 1.016 1.582-1.535 1.79 1.843 1.011-.984-1.789-1.844 3.16-3.066 1.79 1.844 1.011-.985-1.789-1.843 1.86-1.801-.989-1.02-1.855 1.805-1.79-1.844 1.856-1.8-.984-1.016-1.86 1.8-1.789-1.843 1.86-1.801-.989-1.016-1.855 1.801-1.79-1.844 1.856-1.8-.984-1.016-1.86 1.8-1.82-1.874-1.015.98 1.824 1.88-3.16 3.066-1.825-1.875-1.011.984 1.82 1.875-3.719 3.613zm16.262.954 1.789 1.843-3.164 3.067-1.79-1.844zm-2.777-2.86 1.789 1.844-3.16 3.066-1.79-1.843zm-4.18 4.059 1.789 1.844-3.723 3.609-1.789-1.84zm1.398-6.926 1.79 1.844-3.16 3.066-1.79-1.84zm-4.18 4.059 1.79 1.843-3.723 3.614-1.789-1.844zm0 0"/></g></g></g></g><g clip-path="url(#bD)"><g clip-path="url(#bE)"><g clip-path="url(#bF)"><g clip-path="url(#bG)"><path fill="#cbe5e8" d="m80.691 83.371-2.02-2.082a.376.376 0 0 1 .009-.531l2.039-1.98a.376.376 0 0 1 .531.007l.164.168 1.582-1.531 1.79 1.84-1.583 1.535.988 1.016 1.579-1.532 1.824 1.875 1.011-.984-1.82-1.875 3.16-3.07 1.82 1.878 1.016-.984-1.824-1.875 1.86-1.805-.989-1.015-1.855 1.804-1.79-1.843 1.856-1.805-.988-1.016-1.856 1.805-1.789-1.844 1.856-1.804-.985-1.016-1.855 1.805-1.79-1.844 1.856-1.805-.988-1.015-1.855 1.804-1.797-1.851-1.012.984 1.789 1.844-3.16 3.066-1.79-1.843-1.01.984 1.788 1.844-3.723 3.613-1.789-1.844-1.011.98 10.187 10.497zm6.473-10.008 1.793 1.848-3.16 3.07-1.79-1.844 3.161-3.066zm-11.656 3.79-1.79-1.844 3.72-3.614 1.789 1.844zm4.726-4.59-1.789-1.844 3.16-3.067 1.79 1.84zm-1.953 7.445-1.789-1.84 3.723-3.613 1.789 1.843zm4.727-4.586-1.79-1.844 3.16-3.07 1.79 1.844zm0 0"/></g></g></g></g><g clip-path="url(#bH)"><g clip-path="url(#bI)"><g clip-path="url(#bJ)"><g clip-path="url(#bK)"><path fill="#cbe5e8" d="m46.77 64.25-1.012.984 1.82 1.875-1.305 1.266.989 1.016 1.304-1.266 1.79 1.844-1.305 1.265.988 1.016 1.3-1.266 1.79 1.844-1.3 1.266.983 1.015 1.305-1.265 1.79 1.844-1.305 1.265.988 1.016 1.3-1.266 1.797 1.852 1.012-.985-1.789-1.843 3.16-3.067 1.79 1.84 1.015-.98-1.79-1.844 1.227-1.196-.648-.668a.39.39 0 0 1 .012-.554l.992-.965-10.219-10.527-1.015.984 1.824 1.875-1.492 1.45-1.825-1.876-1.011.98 1.82 1.88-3.16 3.066zm14.03 3.117 1.79 1.844-1.492 1.45-1.79-1.845zm-2.503 2.434 1.789 1.84-3.16 3.07-1.79-1.844zm-.27-5.293 1.79 1.844-1.493 1.449-1.789-1.844zM55.52 66.94l1.789 1.844-3.16 3.067-1.79-1.844zm-.278-5.3 1.79 1.843-1.493 1.45-1.789-1.844zm-2.504 2.433 1.79 1.844-3.16 3.066-1.79-1.843zm0 0"/></g></g></g></g><g clip-path="url(#bL)"><g clip-path="url(#bM)"><g clip-path="url(#bN)"><g clip-path="url(#bO)"><path fill="#cbe5e8" d="m62.066 84.64.989 1.02 1.3-1.265 1.79 1.843-1.301 1.262.984 1.02 1.305-1.266 1.789 1.844-1.305 1.261.988 1.02 1.305-1.266 1.793 1.848-1.3 1.266.984 1.015 1.304-1.265 1.82 1.878 1.012-.984-1.82-1.875 3.16-3.07 1.825 1.879 1.011-.985-1.824-1.875 1.23-1.195-.652-.672a.402.402 0 0 1 .008-.558l.992-.965-10.18-10.489-1.011.985 1.789 1.844-1.492 1.449-1.79-1.844-1.015.984 1.789 1.84-3.16 3.07-1.79-1.843-1.011.984 1.79 1.844zm14.52-1.011 1.797 1.848-1.492 1.449-1.79-1.84 1.493-1.45zm-2.504 2.433 1.797 1.848-3.164 3.067-1.785-1.84 3.16-3.07zm-.27-5.292 1.79 1.843-1.493 1.45-1.789-1.844zm-2.507 2.433 1.789 1.84-3.16 3.07-1.79-1.843zm-.27-5.293 1.79 1.844-1.493 1.45-1.789-1.845zm-2.504 2.434 1.79 1.84-3.16 3.07-1.79-1.844zm0 0"/></g></g></g></g><g clip-path="url(#bP)"><g clip-path="url(#bQ)"><g clip-path="url(#bR)"><g clip-path="url(#bS)"><path fill="#7ca1b1" d="m83.434 86.195-2.809-2.894-2.223 2.156c-.187.184-.199.5-.007.695l2.464 2.54zm0 0"/></g></g></g></g><g clip-path="url(#bT)"><g clip-path="url(#bU)"><g clip-path="url(#bV)"><g clip-path="url(#bW)"><path fill="#678d98" d="m80.86 88.691-1.387-1.43 2.504-2.429 1.39 1.43zm0 0"/></g></g></g></g><g clip-path="url(#bX)"><g clip-path="url(#bY)"><g clip-path="url(#bZ)"><g clip-path="url(#ca)"><path fill="#ffe177" d="m78.598 81.348 4.77 4.914 2.714-2.637-4.77-4.91a.467.467 0 0 0-.667-.012l-2.04 1.98a.47.47 0 0 0-.007.665zm0 0"/></g></g></g></g><g clip-path="url(#cb)"><g clip-path="url(#cc)"><g clip-path="url(#cd)"><g clip-path="url(#ce)"><path fill="#ffd15b" d="m83.367 86.262-1.64-1.688 2.714-2.636 1.641 1.687zm0 0"/></g></g></g></g><g clip-path="url(#cf)"><g clip-path="url(#cg)"><g clip-path="url(#ch)"><g clip-path="url(#ci)"><path fill="#7ca1b1" d="m82.953 82.172 1.223 1.262c.27.277.265.73-.012 1a.712.712 0 0 1-1-.016l-1.219-1.254a.712.712 0 0 1 .016-1 .703.703 0 0 1 .992.008zm0 0"/></g></g></g></g><g clip-path="url(#cj)"><g clip-path="url(#ck)"><g clip-path="url(#cl)"><g clip-path="url(#cm)"><path fill="#7ca1b1" d="m67.61 69.895-2.778-2.86-2.223 2.156a.492.492 0 0 0-.007.692l2.433 2.508zm0 0"/></g></g></g></g><g clip-path="url(#cn)"><g clip-path="url(#co)"><g clip-path="url(#cp)"><g clip-path="url(#cq)"><path fill="#678d98" d="m65.035 72.39-1.355-1.394 2.508-2.433 1.351 1.394zm0 0"/></g></g></g></g><g clip-path="url(#cr)"><g clip-path="url(#cs)"><g clip-path="url(#ct)"><g clip-path="url(#cu)"><path fill="#ffe177" d="m62.813 65.086 4.726 4.871 2.715-2.633-4.727-4.87a.467.467 0 0 0-.668-.013l-2.039 1.98a.466.466 0 0 0-.008.665zm0 0"/></g></g></g></g><g clip-path="url(#cv)"><g clip-path="url(#cw)"><g clip-path="url(#cx)"><g clip-path="url(#cy)"><path fill="#ffd15b" d="m67.54 69.957-1.603-1.652 2.715-2.633 1.602 1.652zm0 0"/></g></g></g></g><g clip-path="url(#cz)"><g clip-path="url(#cA)"><g clip-path="url(#cB)"><g clip-path="url(#cC)"><path fill="#7ca1b1" d="m67.168 65.914 1.215 1.25a.712.712 0 0 1-.012 1 .712.712 0 0 1-1-.016l-1.215-1.253a.712.712 0 0 1 .012-1 .712.712 0 0 1 1 .02zm0 0"/></g></g></g></g><g clip-path="url(#cD)"><g clip-path="url(#cE)"><g clip-path="url(#cF)"><g clip-path="url(#cG)"><path fill="#cbe5e8" d="M75.668 98.652 74.062 97l21.422-20.793 1.606 1.652zm0 0"/></g></g></g></g><g clip-path="url(#cH)"><g clip-path="url(#cI)"><g clip-path="url(#cJ)"><g clip-path="url(#cK)"><path fill="#cbe5e8" d="m43.598 65.617-1.606-1.652 21.422-20.797 1.606 1.656zm0 0"/></g></g></g></g><g clip-path="url(#cL)"><g clip-path="url(#cM)"><g clip-path="url(#cN)"><g clip-path="url(#cO)"><path fill="#a8d3d8" d="m74.129 97.07-.984-1.02 21.418-20.792.988 1.015zm0 0"/></g></g></g></g><g clip-path="url(#cP)"><g clip-path="url(#cQ)"><g clip-path="url(#cR)"><g clip-path="url(#cS)"><path fill="#a8d3d8" d="m44.52 66.566-.989-1.015 21.422-20.797.988 1.016zm0 0"/></g></g></g></g><g clip-path="url(#cT)"><g clip-path="url(#cU)"><g clip-path="url(#cV)"><g clip-path="url(#cW)"><path fill="#cbe5e8" d="m59.422 81.918-1.184-1.219L79.66 59.906l1.184 1.219zm0 0"/></g></g></g></g><g clip-path="url(#cX)"><g clip-path="url(#cY)"><g clip-path="url(#cZ)"><g clip-path="url(#da)"><path fill="#a8d3d8" d="m60.344 82.867-.989-1.015 21.422-20.797.989 1.02zm0 0"/></g></g></g></g><g clip-path="url(#db)"><g clip-path="url(#dc)"><g clip-path="url(#dd)"><g clip-path="url(#de)"><path fill="#a8d3d8" d="m58.305 80.766-.989-1.016 21.422-20.793.989 1.016zm0 0"/></g></g></g></g><g clip-path="url(#df)"><g clip-path="url(#dg)"><g clip-path="url(#dh)"><g clip-path="url(#di)"><path fill="#537983" d="M42.063 63.898 75.737 98.59l-2.918 2.832c-.574.555-1.5.547-2.066-.035L39.109 68.789a1.462 1.462 0 0 1 .028-2.066zm0 0"/></g></g></g></g><g clip-path="url(#dj)"><g clip-path="url(#dk)"><g clip-path="url(#dl)"><g clip-path="url(#dm)"><path fill="#8ebac5" d="M53.914 84.043 40.13 69.84l3.965-3.848 13.785 14.2zm0 0"/></g></g></g></g><g clip-path="url(#dn)"><g clip-path="url(#do)"><g clip-path="url(#dp)"><g clip-path="url(#dq)"><path fill="#7ca1b1" d="m53.914 84.043-1.73-1.785 3.964-3.848 1.73 1.781zm0 0"/></g></g></g></g><g clip-path="url(#dr)"><g clip-path="url(#ds)"><g clip-path="url(#dt)"><g clip-path="url(#du)"><path fill="#ffe177" d="M55.156 77.387 53.63 78.87a.492.492 0 0 1-.691-.012l-7.657-7.886a.496.496 0 0 1 .008-.696l1.535-1.488 8.34 8.594zm0 0"/></g></g></g></g><g clip-path="url(#dv)"><g clip-path="url(#dw)"><g clip-path="url(#dx)"><g clip-path="url(#dy)"><path fill="#ffd15b" d="m51.258 77.129 1.68 1.73c.183.188.496.2.69.012l1.536-1.488-1.68-1.73-1.53 1.488a.486.486 0 0 1-.696-.012zm0 0"/></g></g></g></g><g clip-path="url(#dz)"><g clip-path="url(#dA)"><g clip-path="url(#dB)"><g clip-path="url(#dC)"><path fill="#8ebac5" d="M69.738 100.344 55.953 86.14l3.965-3.848 13.785 14.203zm0 0"/></g></g></g></g><g clip-path="url(#dD)"><g clip-path="url(#dE)"><g clip-path="url(#dF)"><g clip-path="url(#dG)"><path fill="#ffe177" d="m70.973 93.684-1.524 1.48a.493.493 0 0 1-.695-.012l-7.656-7.886a.492.492 0 0 1 .011-.692l1.532-1.488 8.34 8.59zm0 0"/></g></g></g></g><g clip-path="url(#dH)"><g clip-path="url(#dI)"><g clip-path="url(#dJ)"><g clip-path="url(#dK)"><path fill="#678d98" d="M65.64 41.691 98.634 75.68c.183.187.187.5-.004.683l-1.602 1.555-33.675-34.691 1.601-1.551a.487.487 0 0 1 .688.015zm0 0"/></g></g></g></g><g clip-path="url(#dL)"><path fill="#303658" d="m47.922 20.219 2.16-.645.422-1.21 3.055-3.934c.308-.88-.293-3.664.195-4.438a11.823 11.823 0 0 1 6.508-4.96L74.988.515c1.844-.567 3.836.144 4.938 1.742a4.476 4.476 0 0 1-.371 5.543l-.602.66 12.082 1.07v31.137l-9.422.27 1.907 3.816a4.742 4.742 0 0 1-.36 4.836 4.648 4.648 0 0 1-5.484 1.664l-19.219-7.531a9.717 9.717 0 0 1-5.102-4.657c-.253-.488.153-1.636-.011-2.164l-2.301-4.824-.168-.527-1.777-1.778zm-7.926-1.239-2.305-.195s-.664-2.023-3.207-2.848l-4.117 3.043-3.234 7.258 2.238 6.54 3.324 1.894 2.133-1.91 1.254.258s1.586 2.761 2.453.285c.883-2.477 3.555-11.075 3.555-11.075zm0 0"/></g><path fill="#091933" d="m54.98 25.852 1.57.918 22.24-3.883 9.394 3.687-7.848 3.946-23.695-1.497-2.34.465 1.422 2.59-4.82-.527h3.628l-1.957-4.098 1.844-1.937 1.2-1.262-5.524-4.68 6.547 4.653zM82.367 40.91l-2.633-3.504 1.903 3.52zm-13.976.285 5.664 1.934 1.968 2.656-2.632-8.379.28 3.856zm11.957-32.62L78.98 8.46l-11.648 8.754zm-8.145-5.208-4.117 3.766-5.45 1.328h4.68l-2.183 3.504c.18-.063 7.07-8.598 7.07-8.598zM34.84 32.777l1.254.258c-.215-9.09 1.754-13.23 2.187-14.043.051-.101.09-.152.09-.152l-.664-.055s-.105-.332-.398-.773c-4.09 8.601-2.47 14.765-2.47 14.765zm0 0"/><path fill="#f1bba1" d="M38.715 23.727c2.3-1.07.32-5.016 1.254-5.715.754-.567 2.593.465 2.593 2.027l5.36.18 4.652 7.234-2.375 1.598-1.906-1.586-.73 2.308c-.665 3.352-5.649 3.633-7.903 3.598-.676-.016-.152-3.445-.945-9.644zm0 0"/><path fill="#d08e6c" d="M49.582 26.844c.207.324.297.722.371 1.097.078.36.156.735.23 1.098l-1.058.707-1.574.012c-.203-4.512-1.176-7.465-1.176-7.465 1.074.734 1.254 2.488 2.121 3.469.348.386.805.656 1.086 1.082zm7.277-13.871a1.302 1.302 0 0 0 .063 1.754L74.25 32.078l2.785-.668-2.773-2.797 3.527-3.379c.461-.437.488-1.175.05-1.652a1.167 1.167 0 0 0-1.66-.05l-3.53 3.456-13.95-14.105a1.266 1.266 0 0 0-1.84.09zm-16.902 5.039c-.398.117-.64.441-.488.98.37 1.29-.176 2.45-2.672 3.43 2.8 5.21 1.766 10.894 1.766 10.894s.421.04 1.097.055c.348-1.781-.355-3.742-.293-5.52.078-2.28 1.688-4.449 1.192-6.68-.118-.515-.348-1.003-.461-1.507-.141-.543-.168-1.098-.141-1.652zm0 0"/><path fill="#f1bba1" d="M73.137 31.86c.164-.5.445-.965.843-1.329.918-.847 2.622-2.293 3.258-1.867 3.414 2.422 3.621 3.469 2.942 3.738 0 0 .664 1.004.46 1.754-.292 1.032-1.519 2.735-1.519 2.735l-6.457-3.52zm-6.524-14.645-2.953-3.34h-3.555s-2.43 2.45-2.363 3.34c.063.89 3.735 4.293 4.91 4.473 1.176.18 3.961-4.473 3.961-4.473zm0 0"/><path fill="#d3ab5b" d="m53.777 9.98 2.047.75-2.93 8.122-2.378-.504 2.058-5.891c.309-.879.703-1.703 1.203-2.477zm-1.023 27.54c.168.542.383 1.058.629 1.546.687-.05 1.48-.113 1.48-.113l-2.52-6.875h-1.288zM30.379 24.977c0 .078-1.918 1.843-1.918 1.843l1.355 2.551s3.493.313 3.786-1.973c.27-2.074-3.223-2.421-3.223-2.421zm0 0"/><g clip-path="url(#dM)"><g clip-path="url(#dN)"><g clip-path="url(#dO)"><g clip-path="url(#dP)"><path fill="#dd2e44" d="m14.156 67.91-7.46 9.336a1.365 1.365 0 0 0 .1 1.824l6.618 6.618c.496.5 1.29.539 1.832.097l9.25-7.535zm0 0"/></g></g></g></g><g clip-path="url(#dQ)"><g clip-path="url(#dR)"><g clip-path="url(#dS)"><g clip-path="url(#dT)"><path fill="#be1931" d="M11.559 74.832c.199-.195.414-.375.644-.527a4.06 4.06 0 0 1 .738-.395 4.232 4.232 0 0 1 2.457-.242c.278.055.543.133.801.242.258.106.504.238.735.395.234.152.449.332.648.527.195.2.371.414.527.645.157.234.286.48.395.738a4.232 4.232 0 0 1 .242 2.46c-.055.274-.137.54-.242.798-.11.257-.238.504-.395.738a4.63 4.63 0 0 1-.527.644c-.2.196-.414.375-.648.528-.23.156-.477.289-.735.394a4.31 4.31 0 0 1-1.629.325 4.232 4.232 0 0 1-1.629-.325 4.06 4.06 0 0 1-.738-.394 4.368 4.368 0 0 1-.644-.528c-.2-.199-.375-.414-.532-.644a4.448 4.448 0 0 1-.39-.738 4.262 4.262 0 0 1 0-3.258c.105-.258.238-.504.39-.738.157-.23.332-.446.532-.645zm0 0"/></g></g></g></g><g clip-path="url(#dU)"><g clip-path="url(#dV)"><g clip-path="url(#dW)"><g clip-path="url(#dX)"><path fill="#99aab5" d="m13.84 67.352 11.265 11.265 1.704-1.394c.64-.645 0-1.285 0-1.285l-10.29-10.29s-.64-.64-1.285 0zm0 0"/></g></g></g></g><g clip-path="url(#dY)"><g clip-path="url(#dZ)"><g clip-path="url(#ea)"><g clip-path="url(#eb)"><path fill="#ccd6dd" d="m14.05 67.094-.21.258c-.192.285-.133.628.11.87l10.284 10.286c.243.242.586.3.871.11l.258-.212zm0 0"/></g></g></g></g><g clip-path="url(#ec)"><g clip-path="url(#ed)"><g clip-path="url(#ee)"><g clip-path="url(#ef)"><path fill="#ec9dad" d="m10.727 74.242 2.066 2.863-3.488.57a.172.172 0 0 0-.145.169.175.175 0 0 0 .145.168l3.488.57-2.066 2.863a.177.177 0 0 0 .02.223.167.167 0 0 0 .218.016l2.867-2.063.57 3.488c.012.082.082.141.168.141a.171.171 0 0 0 .168-.14l.567-3.489 2.867 2.063c.066.05.16.043.223-.016a.172.172 0 0 0 .015-.223l-2.062-2.863 3.484-.57a.172.172 0 0 0 .145-.168.172.172 0 0 0-.145-.168l-3.484-.57 2.062-2.864a.172.172 0 0 0-.02-.222.167.167 0 0 0-.218-.016l-2.863 2.062-.57-3.488a.171.171 0 0 0-.169-.14.165.165 0 0 0-.168.14l-.57 3.488-2.867-2.062a.167.167 0 0 0-.219.016.177.177 0 0 0-.02.222zm0 0"/></g></g></g></g><path d="m42.533 79.248-.977-.949-.203-.082-.215.066-.68.68-.058.211.078.203.168.14.11.15.335.347.25.195.122.149.156.14.105.149.164.136.075.207-.07.176-.423.426-.203.082-.195-.05-.211-.196-.195-.234-.266-.243-.27-.28-.148-.122-.148-.164-.192-.082-.18.09-.628.586-.121.254.07.246.394.394.157.13.261.304.407.375.078.203-.153.262-.21.21-.188.067-.203-.094-.121-.136-.153-.102-.949-.977-.137-.12-.222-.06-.188.055-.129.141-.14.129-.39.414-.067.191.078.188.144.14.094.149.55.54.161.136.121.148.125.106.121.148.563.54.117.155.152.098.11.137.148.12.129.142.195.09.215-.07.242-.27.297-.254.13-.168.671-.649.121-.16.14-.113.56-.547.1-.14 1.099-1.087.14-.113.117-.156.485-.445.133-.16.128-.235-.113-.293-.48-.488-.16-.137-.114-.129-.297-.254-.101-.156-.149-.16-.148-.121zM40.299 77.444l.058-.184-.133-.297-2.398-2.37-.258-.122-.195.047-.133.164-.14.125-.137.11-.13.167-.148.11-.058.234.039.176.168.129 1.172 1.199.082.2-.106.19-.258.243-.109.148-.152.14-.121.15-.157.128-.328.34-.21.172-.13.168-.16.121-1.031 1.07-.16.133-.317.344-.136.27.093.257.715.688.27.12.27-.093.308-.39.144-.118.16-.12.114-.153.117-.145.168-.125.121-.136.149-.122.12-.16.141-.101.121-.149.149-.11.27-.308.148-.11.25-.288.152-.113.266-.278.105-.133.828-.816.121-.148.157-.102zM34.045 71.218l.09-.196-.074-.207-.14-.113-.122-.148-.144-.118-.415-.418-.191-.078-.187.078-.122.137-.168.14-.261.278-.098.133-.16.12-.426.4-.105.136-.305.262-1.312 1.367-.157.113-.133.164-.175.067-.207-.09-.121-.106-.13-.14-.136-.11-.363-.378-.215-.094-.203.07-.125.152-.567.54-.07.203.07.203.176.148.094.121.125.125.172.13.132.136.122.148.136.133.172.137 1.996 2.02.215.078.203-.067.68-.664.074-.223-.066-.203-.196-.156-.593-.605-.047-.196.058-.195.723-.762.227-.187.117-.14.148-.122.27-.27.172-.214.23-.176.129-.145.148-.132.391-.43.149-.121zM29.347 65.937l-.383-.367-.461-.352-.672-.336-.344-.101-.183-.02-.188-.07-.351-.024-.208.032h-.187l-.75.156-.355.152-.31.203-.128.118-.168.097-.148.137-.223.168-.316.355-.23.325-.337.675-.12.375-.056.352-.02.398.028.364.047.261.113.29.028.175.36.68.32.457.175.191.817.61.691.316.176.027.183.063.395.059.715-.051.566-.149.36-.156.632-.402.563-.528.12-.16.09-.156.114-.14.195-.317.305-.922v-.164l.02-.195-.008-.196.015-.16-.047-.398-.257-.793-.13-.266-.132-.16-.188-.297zm-1.57.816.37.371.13.168.14.344.047.168.035.332-.008.18-.035.223-.074.14-.059.184-.195.3-.41.415-.157.086-.148.109-.176.066-.16.078-.379.055-.566-.105-.121-.055-.329-.195-.203-.176-.28-.363-.099-.149-.066-.176-.059-.355.012-.54.176-.335.066-.192.102-.14.426-.399.3-.195.168-.074.196-.047.144-.059.2-.015.546.101.157.09.148.051zM25.648 62.832l.102-.195-.067-.2-.12-.136-.298-.254-.129-.156-.203-.203-.273-.14-.176.081-.156.129-.114.168-.312.27-.402.43-.196.073-.203-.066-.12-.121-.13-.117-.113-.223.008-.219.058-.414.082-.172.149-.527.039-.215.055-.176.027-.187-.012-.258-.129-.207-.23-.258-.16-.133-.121-.148-.27-.27-.164-.136-.172-.106-.168.114-.082.257-.113.543-.055.176-.043.203-.05.188-.024.195-.149.555-.14.18-.215.066-.371-.004-.195.031-.176.082-.196.047-.16.066-.328.184-.539.524-.098.164-.105.148-.102.168-.187.55-.008.196-.039.16.078.594.117.36.442.671.156.184.203.187.14.157.15.12.132.16.129.102.39.418.149.106.25.305.148.105.141.156.188.067.195-.086 1.906-1.867.176-.215.336-.336.156-.13.262-.25.129-.167.297-.254.363-.418.156-.129zm-3.637.89.055.177-.074.207-.735.777-.214.05-.204-.066-.113-.101-.367-.375-.266-.352-.082-.336.032-.168.062-.156.184-.207.199-.164.191-.078.188-.043h.16l.148.055.575.476.113.156zM21.195 58.34l.075-.207-.086-.183-1.989-2.012-.195-.062-.195.047-.149.148-.105.137-.434.39-.02.207.31.594-.06.207-.566.54-.242.296-.308.258-.192.215-.223.195-.113.14-.148.122-.13.156-.28.281-.196.047-.203-.055-.152-.14-.203-.055-.203.055-.399.398-.133.11-.12.144-.083.192.156.273.848.863.164.137.403.418.132.121.25.273.215.083.219-.067.125-.129.129-.101.148-.149.121-.148.13-.13.058-.194-.27-.551.035-.207.594-.555.106-.121.136-.176.282-.27.148-.12.238-.29.168-.101.262-.316.277-.25.215-.079.586.301.207-.047.14-.113zM17.153 54.326l.09-.196-.074-.207-.14-.113-.122-.148-.144-.118-.414-.418-.192-.078-.187.078-.121.137-.168.14-.262.278-.098.133-.16.121-.426.398-.105.137-.305.262-1.312 1.367-.157.113-.132.164-.176.067-.207-.09-.121-.105-.13-.141-.136-.11-.363-.378-.215-.094-.203.07-.125.153-.567.539-.07.203.07.203.176.148.094.121.125.125.172.13.133.136.12.148.137.133.172.137 1.996 2.02.215.078.203-.067.68-.664.074-.222-.066-.204-.195-.156-.594-.605-.047-.196.058-.195.723-.762.227-.187.117-.14.148-.122.27-.27.172-.214.23-.176.13-.145.148-.132.39-.43.149-.121zM12.455 49.045l-.383-.367-.461-.352-.672-.336-.344-.101-.183-.02-.188-.07-.351-.023-.207.03h-.188l-.75.157-.355.152-.309.204-.129.117-.168.097-.148.137-.223.168-.316.356-.23.324-.337.676-.12.375-.056.351-.019.399.027.363.047.262.113.289.028.175.36.68.32.457.175.191.817.61.691.316.176.028.183.062.395.059.715-.051.566-.149.36-.156.632-.402.563-.527.121-.16.09-.157.113-.14.195-.317.305-.922v-.164l.02-.195-.008-.195.015-.16-.046-.399-.258-.793-.13-.266-.132-.16-.187-.297zm-1.57.816.37.372.13.168.14.343.047.168.035.332-.008.18-.035.223-.074.14-.059.184-.195.3-.41.415-.156.086-.149.109-.176.066-.16.079-.379.054-.566-.105-.121-.055-.328-.195-.204-.176-.28-.363-.098-.149-.067-.176-.058-.355.011-.539.176-.336.066-.191.102-.141.426-.398.3-.196.169-.074.195-.047.144-.058.2-.016.547.101.156.09.148.051zm0 0"/></svg>