<svg xmlns="http://www.w3.org/2000/svg" xmlns:xlink="http://www.w3.org/1999/xlink" width="450" zoomAndPan="magnify" viewBox="0 0 337.5 337.500003" height="450" preserveAspectRatio="xMidYMid meet" version="1.0"><defs><g/><clipPath id="19aa65d296"><path d="M 0 0 L 337 0 L 337 337 L 0 337 Z M 0 0 " clip-rule="nonzero"/></clipPath><clipPath id="97b9f624cd"><path d="M 212 112 L 223 112 L 223 124 L 212 124 Z M 212 112 " clip-rule="nonzero"/></clipPath><clipPath id="ff013ef1b9"><path d="M 36.289062 251.527344 L 253.191406 34.621094 L 301.453125 82.878906 L 84.546875 299.785156 Z M 36.289062 251.527344 " clip-rule="nonzero"/></clipPath><clipPath id="b53825d36a"><path d="M 36.289062 251.527344 L 253.191406 34.621094 L 301.453125 82.878906 L 84.546875 299.785156 Z M 36.289062 251.527344 " clip-rule="nonzero"/></clipPath><clipPath id="6298075b69"><path d="M 36.289062 251.527344 L 253.191406 34.621094 L 301.453125 82.878906 L 84.546875 299.785156 Z M 36.289062 251.527344 " clip-rule="nonzero"/></clipPath><clipPath id="31e384c3d6"><path d="M 214 114 L 225 114 L 225 125 L 214 125 Z M 214 114 " clip-rule="nonzero"/></clipPath><clipPath id="492fd254b8"><path d="M 36.289062 251.527344 L 253.191406 34.621094 L 301.453125 82.878906 L 84.546875 299.785156 Z M 36.289062 251.527344 " clip-rule="nonzero"/></clipPath><clipPath id="51456da0b2"><path d="M 36.289062 251.527344 L 253.191406 34.621094 L 301.453125 82.878906 L 84.546875 299.785156 Z M 36.289062 251.527344 " clip-rule="nonzero"/></clipPath><clipPath id="ab234263b8"><path d="M 36.289062 251.527344 L 253.191406 34.621094 L 301.453125 82.878906 L 84.546875 299.785156 Z M 36.289062 251.527344 " clip-rule="nonzero"/></clipPath><clipPath id="cc1403e217"><path d="M 242 105 L 264 105 L 264 131 L 242 131 Z M 242 105 " clip-rule="nonzero"/></clipPath><clipPath id="72b366b122"><path d="M 36.289062 251.527344 L 253.191406 34.621094 L 301.453125 82.878906 L 84.546875 299.785156 Z M 36.289062 251.527344 " clip-rule="nonzero"/></clipPath><clipPath id="c5c1da4db4"><path d="M 36.289062 251.527344 L 253.191406 34.621094 L 301.453125 82.878906 L 84.546875 299.785156 Z M 36.289062 251.527344 " clip-rule="nonzero"/></clipPath><clipPath id="03e3779b3d"><path d="M 36.289062 251.527344 L 253.191406 34.621094 L 301.453125 82.878906 L 84.546875 299.785156 Z M 36.289062 251.527344 " clip-rule="nonzero"/></clipPath><clipPath id="bbdc544b39"><path d="M 207 75 L 231 75 L 231 93 L 207 93 Z M 207 75 " clip-rule="nonzero"/></clipPath><clipPath id="4c1eadb7aa"><path d="M 36.289062 251.527344 L 253.191406 34.621094 L 301.453125 82.878906 L 84.546875 299.785156 Z M 36.289062 251.527344 " clip-rule="nonzero"/></clipPath><clipPath id="74323c7db4"><path d="M 36.289062 251.527344 L 253.191406 34.621094 L 301.453125 82.878906 L 84.546875 299.785156 Z M 36.289062 251.527344 " clip-rule="nonzero"/></clipPath><clipPath id="512a79d007"><path d="M 36.289062 251.527344 L 253.191406 34.621094 L 301.453125 82.878906 L 84.546875 299.785156 Z M 36.289062 251.527344 " clip-rule="nonzero"/></clipPath><clipPath id="88a61b2de1"><path d="M 218 80 L 224 80 L 224 86 L 218 86 Z M 218 80 " clip-rule="nonzero"/></clipPath><clipPath id="f108c0bd68"><path d="M 36.289062 251.527344 L 253.191406 34.621094 L 301.453125 82.878906 L 84.546875 299.785156 Z M 36.289062 251.527344 " clip-rule="nonzero"/></clipPath><clipPath id="e3d42971fe"><path d="M 36.289062 251.527344 L 253.191406 34.621094 L 301.453125 82.878906 L 84.546875 299.785156 Z M 36.289062 251.527344 " clip-rule="nonzero"/></clipPath><clipPath id="e290d278bc"><path d="M 36.289062 251.527344 L 253.191406 34.621094 L 301.453125 82.878906 L 84.546875 299.785156 Z M 36.289062 251.527344 " clip-rule="nonzero"/></clipPath><clipPath id="f18e58cab0"><path d="M 250 115 L 256 115 L 256 121 L 250 121 Z M 250 115 " clip-rule="nonzero"/></clipPath><clipPath id="bf9d89b2d6"><path d="M 36.289062 251.527344 L 253.191406 34.621094 L 301.453125 82.878906 L 84.546875 299.785156 Z M 36.289062 251.527344 " clip-rule="nonzero"/></clipPath><clipPath id="0e24a11756"><path d="M 36.289062 251.527344 L 253.191406 34.621094 L 301.453125 82.878906 L 84.546875 299.785156 Z M 36.289062 251.527344 " clip-rule="nonzero"/></clipPath><clipPath id="ff5f4387bb"><path d="M 36.289062 251.527344 L 253.191406 34.621094 L 301.453125 82.878906 L 84.546875 299.785156 Z M 36.289062 251.527344 " clip-rule="nonzero"/></clipPath><clipPath id="0c33f95215"><path d="M 204 85 L 221 85 L 221 103 L 204 103 Z M 204 85 " clip-rule="nonzero"/></clipPath><clipPath id="f6e653c478"><path d="M 36.289062 251.527344 L 253.191406 34.621094 L 301.453125 82.878906 L 84.546875 299.785156 Z M 36.289062 251.527344 " clip-rule="nonzero"/></clipPath><clipPath id="1cbcbf1280"><path d="M 36.289062 251.527344 L 253.191406 34.621094 L 301.453125 82.878906 L 84.546875 299.785156 Z M 36.289062 251.527344 " clip-rule="nonzero"/></clipPath><clipPath id="c3517c362a"><path d="M 36.289062 251.527344 L 253.191406 34.621094 L 301.453125 82.878906 L 84.546875 299.785156 Z M 36.289062 251.527344 " clip-rule="nonzero"/></clipPath><clipPath id="446dea839c"><path d="M 230 119 L 247 119 L 247 133 L 230 133 Z M 230 119 " clip-rule="nonzero"/></clipPath><clipPath id="b59e93637e"><path d="M 36.289062 251.527344 L 253.191406 34.621094 L 301.453125 82.878906 L 84.546875 299.785156 Z M 36.289062 251.527344 " clip-rule="nonzero"/></clipPath><clipPath id="588fbb6378"><path d="M 36.289062 251.527344 L 253.191406 34.621094 L 301.453125 82.878906 L 84.546875 299.785156 Z M 36.289062 251.527344 " clip-rule="nonzero"/></clipPath><clipPath id="bbb57b4a95"><path d="M 36.289062 251.527344 L 253.191406 34.621094 L 301.453125 82.878906 L 84.546875 299.785156 Z M 36.289062 251.527344 " clip-rule="nonzero"/></clipPath><clipPath id="703cc54999"><path d="M 204 100 L 221 100 L 221 122 L 204 122 Z M 204 100 " clip-rule="nonzero"/></clipPath><clipPath id="3e6248d7c7"><path d="M 36.289062 251.527344 L 253.191406 34.621094 L 301.453125 82.878906 L 84.546875 299.785156 Z M 36.289062 251.527344 " clip-rule="nonzero"/></clipPath><clipPath id="dc71338c79"><path d="M 36.289062 251.527344 L 253.191406 34.621094 L 301.453125 82.878906 L 84.546875 299.785156 Z M 36.289062 251.527344 " clip-rule="nonzero"/></clipPath><clipPath id="868418c197"><path d="M 36.289062 251.527344 L 253.191406 34.621094 L 301.453125 82.878906 L 84.546875 299.785156 Z M 36.289062 251.527344 " clip-rule="nonzero"/></clipPath><clipPath id="ea7e5bba5b"><path d="M 216 115 L 233 115 L 233 133 L 216 133 Z M 216 115 " clip-rule="nonzero"/></clipPath><clipPath id="b96d847267"><path d="M 36.289062 251.527344 L 253.191406 34.621094 L 301.453125 82.878906 L 84.546875 299.785156 Z M 36.289062 251.527344 " clip-rule="nonzero"/></clipPath><clipPath id="30f3bbc663"><path d="M 36.289062 251.527344 L 253.191406 34.621094 L 301.453125 82.878906 L 84.546875 299.785156 Z M 36.289062 251.527344 " clip-rule="nonzero"/></clipPath><clipPath id="0102ba9daa"><path d="M 36.289062 251.527344 L 253.191406 34.621094 L 301.453125 82.878906 L 84.546875 299.785156 Z M 36.289062 251.527344 " clip-rule="nonzero"/></clipPath><clipPath id="8bf73f308c"><path d="M 211 111 L 222 111 L 222 122 L 211 122 Z M 211 111 " clip-rule="nonzero"/></clipPath><clipPath id="b13444b58e"><path d="M 36.289062 251.527344 L 253.191406 34.621094 L 301.453125 82.878906 L 84.546875 299.785156 Z M 36.289062 251.527344 " clip-rule="nonzero"/></clipPath><clipPath id="47a28663bc"><path d="M 36.289062 251.527344 L 253.191406 34.621094 L 301.453125 82.878906 L 84.546875 299.785156 Z M 36.289062 251.527344 " clip-rule="nonzero"/></clipPath><clipPath id="0a95b3e668"><path d="M 36.289062 251.527344 L 253.191406 34.621094 L 301.453125 82.878906 L 84.546875 299.785156 Z M 36.289062 251.527344 " clip-rule="nonzero"/></clipPath><clipPath id="8b8bfc8d5a"><path d="M 215 115 L 225 115 L 225 126 L 215 126 Z M 215 115 " clip-rule="nonzero"/></clipPath><clipPath id="26b3d103a0"><path d="M 36.289062 251.527344 L 253.191406 34.621094 L 301.453125 82.878906 L 84.546875 299.785156 Z M 36.289062 251.527344 " clip-rule="nonzero"/></clipPath><clipPath id="c5da3d873c"><path d="M 36.289062 251.527344 L 253.191406 34.621094 L 301.453125 82.878906 L 84.546875 299.785156 Z M 36.289062 251.527344 " clip-rule="nonzero"/></clipPath><clipPath id="ab89faeb25"><path d="M 36.289062 251.527344 L 253.191406 34.621094 L 301.453125 82.878906 L 84.546875 299.785156 Z M 36.289062 251.527344 " clip-rule="nonzero"/></clipPath><clipPath id="238cf1cbb7"><path d="M 213 113 L 223 113 L 223 124 L 213 124 Z M 213 113 " clip-rule="nonzero"/></clipPath><clipPath id="0031df4738"><path d="M 36.289062 251.527344 L 253.191406 34.621094 L 301.453125 82.878906 L 84.546875 299.785156 Z M 36.289062 251.527344 " clip-rule="nonzero"/></clipPath><clipPath id="d58d325d13"><path d="M 36.289062 251.527344 L 253.191406 34.621094 L 301.453125 82.878906 L 84.546875 299.785156 Z M 36.289062 251.527344 " clip-rule="nonzero"/></clipPath><clipPath id="58bba7bc92"><path d="M 36.289062 251.527344 L 253.191406 34.621094 L 301.453125 82.878906 L 84.546875 299.785156 Z M 36.289062 251.527344 " clip-rule="nonzero"/></clipPath><clipPath id="95c05b50a6"><path d="M 214 134 L 228 134 L 228 158 L 214 158 Z M 214 134 " clip-rule="nonzero"/></clipPath><clipPath id="a52b4174bf"><path d="M 36.289062 251.527344 L 253.191406 34.621094 L 301.453125 82.878906 L 84.546875 299.785156 Z M 36.289062 251.527344 " clip-rule="nonzero"/></clipPath><clipPath id="cd72303c2b"><path d="M 36.289062 251.527344 L 253.191406 34.621094 L 301.453125 82.878906 L 84.546875 299.785156 Z M 36.289062 251.527344 " clip-rule="nonzero"/></clipPath><clipPath id="f7a5c0161a"><path d="M 36.289062 251.527344 L 253.191406 34.621094 L 301.453125 82.878906 L 84.546875 299.785156 Z M 36.289062 251.527344 " clip-rule="nonzero"/></clipPath><clipPath id="b6d0cdab36"><path d="M 210 131 L 215 131 L 215 154 L 210 154 Z M 210 131 " clip-rule="nonzero"/></clipPath><clipPath id="3898a2ed1e"><path d="M 36.289062 251.527344 L 253.191406 34.621094 L 301.453125 82.878906 L 84.546875 299.785156 Z M 36.289062 251.527344 " clip-rule="nonzero"/></clipPath><clipPath id="7feae76928"><path d="M 36.289062 251.527344 L 253.191406 34.621094 L 301.453125 82.878906 L 84.546875 299.785156 Z M 36.289062 251.527344 " clip-rule="nonzero"/></clipPath><clipPath id="9bc202a91c"><path d="M 36.289062 251.527344 L 253.191406 34.621094 L 301.453125 82.878906 L 84.546875 299.785156 Z M 36.289062 251.527344 " clip-rule="nonzero"/></clipPath><clipPath id="e6dcba764c"><path d="M 201 121 L 211 121 L 211 151 L 201 151 Z M 201 121 " clip-rule="nonzero"/></clipPath><clipPath id="b85e1fa39e"><path d="M 36.289062 251.527344 L 253.191406 34.621094 L 301.453125 82.878906 L 84.546875 299.785156 Z M 36.289062 251.527344 " clip-rule="nonzero"/></clipPath><clipPath id="cea2ae8c9e"><path d="M 36.289062 251.527344 L 253.191406 34.621094 L 301.453125 82.878906 L 84.546875 299.785156 Z M 36.289062 251.527344 " clip-rule="nonzero"/></clipPath><clipPath id="dee3f5ab03"><path d="M 36.289062 251.527344 L 253.191406 34.621094 L 301.453125 82.878906 L 84.546875 299.785156 Z M 36.289062 251.527344 " clip-rule="nonzero"/></clipPath><clipPath id="550ce7bc00"><path d="M 196 116 L 203 116 L 203 142 L 196 142 Z M 196 116 " clip-rule="nonzero"/></clipPath><clipPath id="beccd1fbdf"><path d="M 36.289062 251.527344 L 253.191406 34.621094 L 301.453125 82.878906 L 84.546875 299.785156 Z M 36.289062 251.527344 " clip-rule="nonzero"/></clipPath><clipPath id="e74b1f6886"><path d="M 36.289062 251.527344 L 253.191406 34.621094 L 301.453125 82.878906 L 84.546875 299.785156 Z M 36.289062 251.527344 " clip-rule="nonzero"/></clipPath><clipPath id="85f7f29ae1"><path d="M 36.289062 251.527344 L 253.191406 34.621094 L 301.453125 82.878906 L 84.546875 299.785156 Z M 36.289062 251.527344 " clip-rule="nonzero"/></clipPath><clipPath id="107af52a2f"><path d="M 179 108 L 197 108 L 197 135 L 179 135 Z M 179 108 " clip-rule="nonzero"/></clipPath><clipPath id="65e0199c38"><path d="M 36.289062 251.527344 L 253.191406 34.621094 L 301.453125 82.878906 L 84.546875 299.785156 Z M 36.289062 251.527344 " clip-rule="nonzero"/></clipPath><clipPath id="87349b0c80"><path d="M 36.289062 251.527344 L 253.191406 34.621094 L 301.453125 82.878906 L 84.546875 299.785156 Z M 36.289062 251.527344 " clip-rule="nonzero"/></clipPath><clipPath id="3973d90978"><path d="M 36.289062 251.527344 L 253.191406 34.621094 L 301.453125 82.878906 L 84.546875 299.785156 Z M 36.289062 251.527344 " clip-rule="nonzero"/></clipPath><clipPath id="7b221b6f27"><path d="M 266 79 L 289 79 L 289 103 L 266 103 Z M 266 79 " clip-rule="nonzero"/></clipPath><clipPath id="62fe442bdc"><path d="M 36.289062 251.527344 L 253.191406 34.621094 L 301.453125 82.878906 L 84.546875 299.785156 Z M 36.289062 251.527344 " clip-rule="nonzero"/></clipPath><clipPath id="8a046c8e97"><path d="M 36.289062 251.527344 L 253.191406 34.621094 L 301.453125 82.878906 L 84.546875 299.785156 Z M 36.289062 251.527344 " clip-rule="nonzero"/></clipPath><clipPath id="155ae05107"><path d="M 36.289062 251.527344 L 253.191406 34.621094 L 301.453125 82.878906 L 84.546875 299.785156 Z M 36.289062 251.527344 " clip-rule="nonzero"/></clipPath><clipPath id="07601e5368"><path d="M 234 48 L 256 48 L 256 70 L 234 70 Z M 234 48 " clip-rule="nonzero"/></clipPath><clipPath id="e35bca95e8"><path d="M 36.289062 251.527344 L 253.191406 34.621094 L 301.453125 82.878906 L 84.546875 299.785156 Z M 36.289062 251.527344 " clip-rule="nonzero"/></clipPath><clipPath id="a1565428e7"><path d="M 36.289062 251.527344 L 253.191406 34.621094 L 301.453125 82.878906 L 84.546875 299.785156 Z M 36.289062 251.527344 " clip-rule="nonzero"/></clipPath><clipPath id="8f6a44f218"><path d="M 36.289062 251.527344 L 253.191406 34.621094 L 301.453125 82.878906 L 84.546875 299.785156 Z M 36.289062 251.527344 " clip-rule="nonzero"/></clipPath><clipPath id="feabe4208f"><path d="M 234 48 L 289 48 L 289 102 L 234 102 Z M 234 48 " clip-rule="nonzero"/></clipPath><clipPath id="9cb8494667"><path d="M 36.289062 251.527344 L 253.191406 34.621094 L 301.453125 82.878906 L 84.546875 299.785156 Z M 36.289062 251.527344 " clip-rule="nonzero"/></clipPath><clipPath id="02e782a6cd"><path d="M 36.289062 251.527344 L 253.191406 34.621094 L 301.453125 82.878906 L 84.546875 299.785156 Z M 36.289062 251.527344 " clip-rule="nonzero"/></clipPath><clipPath id="498ab7a164"><path d="M 36.289062 251.527344 L 253.191406 34.621094 L 301.453125 82.878906 L 84.546875 299.785156 Z M 36.289062 251.527344 " clip-rule="nonzero"/></clipPath><clipPath id="98931ced99"><path d="M 262 78 L 289 78 L 289 103 L 262 103 Z M 262 78 " clip-rule="nonzero"/></clipPath><clipPath id="ec3121fc35"><path d="M 36.289062 251.527344 L 253.191406 34.621094 L 301.453125 82.878906 L 84.546875 299.785156 Z M 36.289062 251.527344 " clip-rule="nonzero"/></clipPath><clipPath id="95fe9ff5d3"><path d="M 36.289062 251.527344 L 253.191406 34.621094 L 301.453125 82.878906 L 84.546875 299.785156 Z M 36.289062 251.527344 " clip-rule="nonzero"/></clipPath><clipPath id="2b989b37eb"><path d="M 36.289062 251.527344 L 253.191406 34.621094 L 301.453125 82.878906 L 84.546875 299.785156 Z M 36.289062 251.527344 " clip-rule="nonzero"/></clipPath><clipPath id="b153b1e62b"><path d="M 269 84 L 289 84 L 289 103 L 269 103 Z M 269 84 " clip-rule="nonzero"/></clipPath><clipPath id="0b24807f53"><path d="M 36.289062 251.527344 L 253.191406 34.621094 L 301.453125 82.878906 L 84.546875 299.785156 Z M 36.289062 251.527344 " clip-rule="nonzero"/></clipPath><clipPath id="62e7732fe8"><path d="M 36.289062 251.527344 L 253.191406 34.621094 L 301.453125 82.878906 L 84.546875 299.785156 Z M 36.289062 251.527344 " clip-rule="nonzero"/></clipPath><clipPath id="f287138660"><path d="M 36.289062 251.527344 L 253.191406 34.621094 L 301.453125 82.878906 L 84.546875 299.785156 Z M 36.289062 251.527344 " clip-rule="nonzero"/></clipPath><clipPath id="d6336242c4"><path d="M 234 48 L 257 48 L 257 70 L 234 70 Z M 234 48 " clip-rule="nonzero"/></clipPath><clipPath id="f3a10ff4d5"><path d="M 36.289062 251.527344 L 253.191406 34.621094 L 301.453125 82.878906 L 84.546875 299.785156 Z M 36.289062 251.527344 " clip-rule="nonzero"/></clipPath><clipPath id="3b42c8c3d3"><path d="M 36.289062 251.527344 L 253.191406 34.621094 L 301.453125 82.878906 L 84.546875 299.785156 Z M 36.289062 251.527344 " clip-rule="nonzero"/></clipPath><clipPath id="933695bf8b"><path d="M 36.289062 251.527344 L 253.191406 34.621094 L 301.453125 82.878906 L 84.546875 299.785156 Z M 36.289062 251.527344 " clip-rule="nonzero"/></clipPath><clipPath id="e73c147fbc"><path d="M 47 207 L 140 207 L 140 298 L 47 298 Z M 47 207 " clip-rule="nonzero"/></clipPath><clipPath id="ba8eee0520"><path d="M 36.289062 251.527344 L 253.191406 34.621094 L 301.453125 82.878906 L 84.546875 299.785156 Z M 36.289062 251.527344 " clip-rule="nonzero"/></clipPath><clipPath id="a37bc46c93"><path d="M 36.289062 251.527344 L 253.191406 34.621094 L 301.453125 82.878906 L 84.546875 299.785156 Z M 36.289062 251.527344 " clip-rule="nonzero"/></clipPath><clipPath id="85bcc51b38"><path d="M 36.289062 251.527344 L 253.191406 34.621094 L 301.453125 82.878906 L 84.546875 299.785156 Z M 36.289062 251.527344 " clip-rule="nonzero"/></clipPath><clipPath id="c1b6958c66"><path d="M 124 236 L 130 236 L 130 242 L 124 242 Z M 124 236 " clip-rule="nonzero"/></clipPath><clipPath id="078ef41caf"><path d="M 36.289062 251.527344 L 253.191406 34.621094 L 301.453125 82.878906 L 84.546875 299.785156 Z M 36.289062 251.527344 " clip-rule="nonzero"/></clipPath><clipPath id="7bfed7d59c"><path d="M 36.289062 251.527344 L 253.191406 34.621094 L 301.453125 82.878906 L 84.546875 299.785156 Z M 36.289062 251.527344 " clip-rule="nonzero"/></clipPath><clipPath id="a95a4f0092"><path d="M 36.289062 251.527344 L 253.191406 34.621094 L 301.453125 82.878906 L 84.546875 299.785156 Z M 36.289062 251.527344 " clip-rule="nonzero"/></clipPath><clipPath id="ff4936ff69"><path d="M 112 230 L 118 230 L 118 235 L 112 235 Z M 112 230 " clip-rule="nonzero"/></clipPath><clipPath id="ededccdaec"><path d="M 36.289062 251.527344 L 253.191406 34.621094 L 301.453125 82.878906 L 84.546875 299.785156 Z M 36.289062 251.527344 " clip-rule="nonzero"/></clipPath><clipPath id="32caa2b6c6"><path d="M 36.289062 251.527344 L 253.191406 34.621094 L 301.453125 82.878906 L 84.546875 299.785156 Z M 36.289062 251.527344 " clip-rule="nonzero"/></clipPath><clipPath id="7db56a7d0e"><path d="M 36.289062 251.527344 L 253.191406 34.621094 L 301.453125 82.878906 L 84.546875 299.785156 Z M 36.289062 251.527344 " clip-rule="nonzero"/></clipPath><clipPath id="d868196b43"><path d="M 100 223 L 106 223 L 106 229 L 100 229 Z M 100 223 " clip-rule="nonzero"/></clipPath><clipPath id="b666271251"><path d="M 36.289062 251.527344 L 253.191406 34.621094 L 301.453125 82.878906 L 84.546875 299.785156 Z M 36.289062 251.527344 " clip-rule="nonzero"/></clipPath><clipPath id="de3f1c3b9c"><path d="M 36.289062 251.527344 L 253.191406 34.621094 L 301.453125 82.878906 L 84.546875 299.785156 Z M 36.289062 251.527344 " clip-rule="nonzero"/></clipPath><clipPath id="811ac2bbed"><path d="M 36.289062 251.527344 L 253.191406 34.621094 L 301.453125 82.878906 L 84.546875 299.785156 Z M 36.289062 251.527344 " clip-rule="nonzero"/></clipPath><clipPath id="2121a6fe45"><path d="M 88 217 L 94 217 L 94 223 L 88 223 Z M 88 217 " clip-rule="nonzero"/></clipPath><clipPath id="d3cc21116b"><path d="M 36.289062 251.527344 L 253.191406 34.621094 L 301.453125 82.878906 L 84.546875 299.785156 Z M 36.289062 251.527344 " clip-rule="nonzero"/></clipPath><clipPath id="ae0cad111d"><path d="M 36.289062 251.527344 L 253.191406 34.621094 L 301.453125 82.878906 L 84.546875 299.785156 Z M 36.289062 251.527344 " clip-rule="nonzero"/></clipPath><clipPath id="e29782f1d6"><path d="M 36.289062 251.527344 L 253.191406 34.621094 L 301.453125 82.878906 L 84.546875 299.785156 Z M 36.289062 251.527344 " clip-rule="nonzero"/></clipPath><clipPath id="c0deb885a7"><path d="M 56 244 L 86 244 L 86 288 L 56 288 Z M 56 244 " clip-rule="nonzero"/></clipPath><clipPath id="792da58686"><path d="M 36.289062 251.527344 L 253.191406 34.621094 L 301.453125 82.878906 L 84.546875 299.785156 Z M 36.289062 251.527344 " clip-rule="nonzero"/></clipPath><clipPath id="9ad149bc0a"><path d="M 36.289062 251.527344 L 253.191406 34.621094 L 301.453125 82.878906 L 84.546875 299.785156 Z M 36.289062 251.527344 " clip-rule="nonzero"/></clipPath><clipPath id="4a5f908539"><path d="M 36.289062 251.527344 L 253.191406 34.621094 L 301.453125 82.878906 L 84.546875 299.785156 Z M 36.289062 251.527344 " clip-rule="nonzero"/></clipPath><clipPath id="b644765fb7"><path d="M 121 162 L 175 162 L 175 231 L 121 231 Z M 121 162 " clip-rule="nonzero"/></clipPath><clipPath id="89d039d37c"><path d="M 36.289062 251.527344 L 253.191406 34.621094 L 301.453125 82.878906 L 84.546875 299.785156 Z M 36.289062 251.527344 " clip-rule="nonzero"/></clipPath><clipPath id="7244a678c2"><path d="M 36.289062 251.527344 L 253.191406 34.621094 L 301.453125 82.878906 L 84.546875 299.785156 Z M 36.289062 251.527344 " clip-rule="nonzero"/></clipPath><clipPath id="b7a9fa5369"><path d="M 36.289062 251.527344 L 253.191406 34.621094 L 301.453125 82.878906 L 84.546875 299.785156 Z M 36.289062 251.527344 " clip-rule="nonzero"/></clipPath><clipPath id="dc14a51f83"><path d="M 120 171 L 127 171 L 127 208 L 120 208 Z M 120 171 " clip-rule="nonzero"/></clipPath><clipPath id="aad5369ebf"><path d="M 36.289062 251.527344 L 253.191406 34.621094 L 301.453125 82.878906 L 84.546875 299.785156 Z M 36.289062 251.527344 " clip-rule="nonzero"/></clipPath><clipPath id="79e0e87f83"><path d="M 36.289062 251.527344 L 253.191406 34.621094 L 301.453125 82.878906 L 84.546875 299.785156 Z M 36.289062 251.527344 " clip-rule="nonzero"/></clipPath><clipPath id="6d08f756dc"><path d="M 36.289062 251.527344 L 253.191406 34.621094 L 301.453125 82.878906 L 84.546875 299.785156 Z M 36.289062 251.527344 " clip-rule="nonzero"/></clipPath><clipPath id="a9c1d31ea6"><path d="M 116 171 L 125 171 L 125 205 L 116 205 Z M 116 171 " clip-rule="nonzero"/></clipPath><clipPath id="24c60d0952"><path d="M 36.289062 251.527344 L 253.191406 34.621094 L 301.453125 82.878906 L 84.546875 299.785156 Z M 36.289062 251.527344 " clip-rule="nonzero"/></clipPath><clipPath id="67071967ed"><path d="M 36.289062 251.527344 L 253.191406 34.621094 L 301.453125 82.878906 L 84.546875 299.785156 Z M 36.289062 251.527344 " clip-rule="nonzero"/></clipPath><clipPath id="e1e7b919cf"><path d="M 36.289062 251.527344 L 253.191406 34.621094 L 301.453125 82.878906 L 84.546875 299.785156 Z M 36.289062 251.527344 " clip-rule="nonzero"/></clipPath><clipPath id="635abd9963"><path d="M 115 177 L 120 177 L 120 200 L 115 200 Z M 115 177 " clip-rule="nonzero"/></clipPath><clipPath id="6a7f857681"><path d="M 36.289062 251.527344 L 253.191406 34.621094 L 301.453125 82.878906 L 84.546875 299.785156 Z M 36.289062 251.527344 " clip-rule="nonzero"/></clipPath><clipPath id="1a1659390f"><path d="M 36.289062 251.527344 L 253.191406 34.621094 L 301.453125 82.878906 L 84.546875 299.785156 Z M 36.289062 251.527344 " clip-rule="nonzero"/></clipPath><clipPath id="d600c84616"><path d="M 36.289062 251.527344 L 253.191406 34.621094 L 301.453125 82.878906 L 84.546875 299.785156 Z M 36.289062 251.527344 " clip-rule="nonzero"/></clipPath><clipPath id="d65a6c212d"><path d="M 106 178 L 119 178 L 119 200 L 106 200 Z M 106 178 " clip-rule="nonzero"/></clipPath><clipPath id="f11633751b"><path d="M 36.289062 251.527344 L 253.191406 34.621094 L 301.453125 82.878906 L 84.546875 299.785156 Z M 36.289062 251.527344 " clip-rule="nonzero"/></clipPath><clipPath id="78782608c8"><path d="M 36.289062 251.527344 L 253.191406 34.621094 L 301.453125 82.878906 L 84.546875 299.785156 Z M 36.289062 251.527344 " clip-rule="nonzero"/></clipPath><clipPath id="6cd19654fa"><path d="M 36.289062 251.527344 L 253.191406 34.621094 L 301.453125 82.878906 L 84.546875 299.785156 Z M 36.289062 251.527344 " clip-rule="nonzero"/></clipPath><clipPath id="5ef65e631b"><path d="M 130 199 L 135 199 L 135 205 L 130 205 Z M 130 199 " clip-rule="nonzero"/></clipPath><clipPath id="596a29119b"><path d="M 36.289062 251.527344 L 253.191406 34.621094 L 301.453125 82.878906 L 84.546875 299.785156 Z M 36.289062 251.527344 " clip-rule="nonzero"/></clipPath><clipPath id="a993203256"><path d="M 36.289062 251.527344 L 253.191406 34.621094 L 301.453125 82.878906 L 84.546875 299.785156 Z M 36.289062 251.527344 " clip-rule="nonzero"/></clipPath><clipPath id="17012b8a1a"><path d="M 36.289062 251.527344 L 253.191406 34.621094 L 301.453125 82.878906 L 84.546875 299.785156 Z M 36.289062 251.527344 " clip-rule="nonzero"/></clipPath><clipPath id="38f9540238"><path d="M 136 205 L 142 205 L 142 211 L 136 211 Z M 136 205 " clip-rule="nonzero"/></clipPath><clipPath id="b19115da73"><path d="M 36.289062 251.527344 L 253.191406 34.621094 L 301.453125 82.878906 L 84.546875 299.785156 Z M 36.289062 251.527344 " clip-rule="nonzero"/></clipPath><clipPath id="e0dae67e3f"><path d="M 36.289062 251.527344 L 253.191406 34.621094 L 301.453125 82.878906 L 84.546875 299.785156 Z M 36.289062 251.527344 " clip-rule="nonzero"/></clipPath><clipPath id="9999371e19"><path d="M 36.289062 251.527344 L 253.191406 34.621094 L 301.453125 82.878906 L 84.546875 299.785156 Z M 36.289062 251.527344 " clip-rule="nonzero"/></clipPath><clipPath id="0e5f6ecd23"><path d="M 142 212 L 148 212 L 148 217 L 142 217 Z M 142 212 " clip-rule="nonzero"/></clipPath><clipPath id="5786e2944a"><path d="M 36.289062 251.527344 L 253.191406 34.621094 L 301.453125 82.878906 L 84.546875 299.785156 Z M 36.289062 251.527344 " clip-rule="nonzero"/></clipPath><clipPath id="9f3108bedb"><path d="M 36.289062 251.527344 L 253.191406 34.621094 L 301.453125 82.878906 L 84.546875 299.785156 Z M 36.289062 251.527344 " clip-rule="nonzero"/></clipPath><clipPath id="0525a270ac"><path d="M 36.289062 251.527344 L 253.191406 34.621094 L 301.453125 82.878906 L 84.546875 299.785156 Z M 36.289062 251.527344 " clip-rule="nonzero"/></clipPath><clipPath id="6c30de68e1"><path d="M 161 120 L 193 120 L 193 198 L 161 198 Z M 161 120 " clip-rule="nonzero"/></clipPath><clipPath id="973e916e17"><path d="M 36.289062 251.527344 L 253.191406 34.621094 L 301.453125 82.878906 L 84.546875 299.785156 Z M 36.289062 251.527344 " clip-rule="nonzero"/></clipPath><clipPath id="f29fdef65f"><path d="M 36.289062 251.527344 L 253.191406 34.621094 L 301.453125 82.878906 L 84.546875 299.785156 Z M 36.289062 251.527344 " clip-rule="nonzero"/></clipPath><clipPath id="b6d0af1bb9"><path d="M 36.289062 251.527344 L 253.191406 34.621094 L 301.453125 82.878906 L 84.546875 299.785156 Z M 36.289062 251.527344 " clip-rule="nonzero"/></clipPath><clipPath id="8e07cfd4eb"><path d="M 141 141 L 213 141 L 213 178 L 141 178 Z M 141 141 " clip-rule="nonzero"/></clipPath><clipPath id="de3276695d"><path d="M 36.289062 251.527344 L 253.191406 34.621094 L 301.453125 82.878906 L 84.546875 299.785156 Z M 36.289062 251.527344 " clip-rule="nonzero"/></clipPath><clipPath id="346b65f428"><path d="M 36.289062 251.527344 L 253.191406 34.621094 L 301.453125 82.878906 L 84.546875 299.785156 Z M 36.289062 251.527344 " clip-rule="nonzero"/></clipPath><clipPath id="bbf6a28ed3"><path d="M 36.289062 251.527344 L 253.191406 34.621094 L 301.453125 82.878906 L 84.546875 299.785156 Z M 36.289062 251.527344 " clip-rule="nonzero"/></clipPath></defs><g clip-path="url(#19aa65d296)"><path fill="#ffffff" d="M 0 0 L 337.5 0 L 337.5 345 L 0 345 Z M 0 0 " fill-opacity="1" fill-rule="nonzero"/><path fill="#ffffff" d="M 0 0 L 337.5 0 L 337.5 337.5 L 0 337.5 Z M 0 0 " fill-opacity="1" fill-rule="nonzero"/><path fill="#f4f4f4" d="M 0 0 L 337.5 0 L 337.5 337.5 L 0 337.5 Z M 0 0 " fill-opacity="1" fill-rule="nonzero"/><path fill="#58b9bc" d="M 286.558594 17.660156 L 294.460938 7.851562 L 302.347656 17.660156 L 297.460938 17.660156 L 294.460938 13.914062 L 291.445312 17.660156 Z M -4.894531 288.066406 L 4.902344 295.945312 L -4.894531 303.847656 L -4.894531 298.960938 L -1.167969 295.945312 L -4.894531 292.953125 Z M 342.324219 49.085938 L 332.527344 41.203125 L 342.324219 33.304688 L 342.324219 38.191406 L 338.59375 41.203125 L 342.324219 44.199219 Z M 342.324219 240.152344 L 332.527344 232.253906 L 342.324219 224.351562 L 342.324219 229.238281 L 338.59375 232.253906 L 342.324219 235.265625 Z M 330.109375 316.179688 L 342.324219 306.355469 L 342.324219 315.601562 L 341.59375 316.179688 Z M 342.324219 196.671875 L 321.492188 179.882812 L 321.492188 192.046875 L 342.324219 208.835938 Z M 324.019531 177.578125 L 342.324219 162.847656 L 342.324219 172.09375 L 329.773438 182.203125 Z M 321.625 221.152344 L 335.671875 209.828125 L 321.625 198.503906 L 321.625 203.390625 L 329.605469 209.828125 L 321.625 216.265625 Z M 342.324219 192.308594 L 332.527344 184.410156 L 342.324219 176.53125 L 342.324219 181.414062 L 338.59375 184.410156 L 342.324219 187.425781 Z M 342.324219 292.335938 L 321.492188 275.546875 L 321.492188 287.730469 L 342.324219 304.5 Z M 324.019531 273.261719 L 342.324219 258.511719 L 342.324219 267.757812 L 329.773438 277.886719 Z M 322.390625 316.179688 L 335.671875 305.492188 L 321.625 294.1875 L 321.625 299.074219 L 329.605469 305.492188 L 321.625 311.933594 L 321.625 316.179688 Z M 342.324219 287.972656 L 332.527344 280.09375 L 342.324219 272.195312 L 342.324219 277.078125 L 338.59375 280.09375 L 342.324219 283.089844 Z M 342.324219 244.492188 L 321.492188 227.722656 L 321.492188 239.890625 L 342.324219 256.660156 Z M 324.019531 225.421875 L 342.324219 210.691406 L 342.324219 219.917969 L 329.773438 230.042969 Z M 321.625 268.976562 L 335.671875 257.671875 L 321.625 246.347656 L 321.625 251.230469 L 329.605469 257.671875 L 321.625 264.089844 Z M 342.324219 149.109375 L 321.492188 132.339844 L 321.492188 144.503906 L 342.324219 161.277344 Z M 324.019531 130.035156 L 342.324219 115.289062 L 342.324219 124.535156 L 329.773438 134.660156 Z M 321.625 173.59375 L 335.671875 162.285156 L 321.625 150.960938 L 321.625 155.847656 L 329.605469 162.285156 L 321.625 168.707031 Z M 342.324219 144.765625 L 332.527344 136.867188 L 342.324219 128.96875 L 342.324219 133.855469 L 338.59375 136.867188 L 342.324219 139.882812 Z M 321.625 30.085938 L 332.902344 20.988281 L 326.851562 20.988281 L 321.625 25.21875 Z M 342.324219 101.289062 L 321.492188 84.496094 L 321.492188 96.664062 L 342.324219 113.453125 Z M 324.019531 82.195312 L 342.324219 67.464844 L 342.324219 76.710938 L 329.773438 86.820312 Z M 321.625 125.769531 L 335.671875 114.445312 L 321.625 103.121094 L 321.625 108.007812 L 329.605469 114.445312 L 321.625 120.882812 Z M 342.324219 96.925781 L 332.527344 89.027344 L 342.324219 81.148438 L 342.324219 86.015625 L 338.59375 89.027344 L 342.324219 92.039062 Z M 342.324219 53.445312 L 321.492188 36.675781 L 321.492188 48.839844 L 342.324219 65.613281 Z M 324.019531 34.371094 L 340.617188 20.988281 L 342.324219 20.988281 L 342.324219 28.871094 L 329.773438 38.996094 Z M 321.625 77.929688 L 335.671875 66.605469 L 321.625 55.296875 L 321.625 60.183594 L 329.605469 66.605469 L 321.625 73.042969 Z M -4.894531 97 L 4.902344 104.898438 L -4.894531 112.796875 L -4.894531 107.914062 L -1.167969 104.898438 L -4.894531 101.886719 Z M 7.28125 20.988281 L -4.894531 30.796875 L -4.894531 21.550781 L -4.199219 20.988281 Z M -4.894531 140.480469 L 15.9375 157.269531 L 15.9375 145.105469 L -4.894531 128.316406 Z M 13.40625 159.574219 L -4.894531 174.304688 L -4.894531 165.058594 L 7.65625 154.949219 Z M 15.804688 116 L 1.753906 127.324219 L 15.804688 138.648438 L 15.804688 133.761719 L 7.824219 127.324219 L 15.804688 120.882812 Z M -4.894531 144.84375 L 4.902344 152.742188 L -4.894531 160.621094 L -4.894531 155.734375 L -1.167969 152.742188 L -4.894531 149.726562 Z M -4.894531 44.816406 L 15.9375 61.605469 L 15.9375 49.441406 L -4.894531 32.652344 Z M 13.40625 63.890625 L -4.894531 78.640625 L -4.894531 69.394531 L 7.65625 59.265625 Z M 15 20.988281 L 1.753906 31.660156 L 15.804688 42.964844 L 15.804688 38.078125 L 7.824219 31.660156 L 15.804688 25.21875 L 15.804688 20.988281 Z M -4.894531 49.179688 L 4.902344 57.078125 L -4.894531 64.957031 L -4.894531 60.070312 L -1.167969 57.078125 L -4.894531 54.0625 Z M -4.894531 92.660156 L 15.9375 109.429688 L 15.9375 97.261719 L -4.894531 80.492188 Z M 13.40625 111.730469 L -4.894531 126.460938 L -4.894531 117.234375 L 7.65625 107.109375 Z M 15.804688 68.175781 L 1.753906 79.480469 L 15.804688 90.804688 L 15.804688 85.921875 L 7.824219 79.480469 L 15.804688 73.0625 Z M -4.894531 188.042969 L 15.9375 204.8125 L 15.9375 192.644531 L -4.894531 175.875 Z M 13.40625 207.113281 L -4.894531 221.863281 L -4.894531 212.617188 L 7.65625 202.492188 Z M 15.804688 163.558594 L 1.753906 174.863281 L 15.804688 186.1875 L 15.804688 181.304688 L 7.824219 174.863281 L 15.804688 168.445312 Z M -4.894531 192.382812 L 4.902344 200.28125 L -4.894531 208.183594 L -4.894531 203.296875 L -1.167969 200.28125 L -4.894531 197.269531 Z M 15.804688 307.066406 L 4.472656 316.179688 L 10.539062 316.179688 L 15.804688 311.933594 Z M -4.894531 235.863281 L 15.9375 252.652344 L 15.9375 240.488281 L -4.894531 223.699219 Z M 13.40625 254.957031 L -4.894531 269.6875 L -4.894531 260.441406 L 7.65625 250.332031 Z M 15.804688 211.382812 L 1.753906 222.707031 L 15.804688 234.03125 L 15.804688 229.144531 L 7.824219 222.707031 L 15.804688 216.265625 Z M -4.894531 240.226562 L 4.902344 248.125 L -4.894531 256.003906 L -4.894531 251.136719 L -1.167969 248.125 L -4.894531 245.109375 Z M -4.894531 283.707031 L 15.9375 300.476562 L 15.9375 288.308594 L -4.894531 271.539062 Z M 13.40625 302.777344 L -3.246094 316.179688 L -4.894531 316.179688 L -4.894531 308.28125 L 7.65625 298.15625 Z M 15.804688 259.222656 L 1.753906 270.546875 L 15.804688 281.851562 L 15.804688 276.96875 L 7.824219 270.546875 L 15.804688 264.109375 Z M 50.871094 319.492188 L 42.964844 329.300781 L 35.078125 319.492188 L 39.96875 319.492188 L 42.964844 323.238281 L 45.980469 319.492188 Z M 242.070312 319.492188 L 234.183594 329.300781 L 226.277344 319.492188 L 231.167969 319.492188 L 234.183594 323.238281 L 237.179688 319.492188 Z M 342.171875 319.492188 L 325.390625 340.324219 L 337.566406 340.324219 L 342.324219 334.410156 L 342.324219 319.492188 Z M 323.085938 337.78125 L 308.324219 319.492188 L 317.578125 319.492188 L 327.710938 332.054688 Z M 337.808594 319.492188 L 329.921875 329.300781 L 322.015625 319.492188 L 326.90625 319.492188 L 329.921875 323.238281 L 332.9375 319.492188 Z M 198.554688 319.492188 L 181.769531 340.324219 L 193.945312 340.324219 L 210.730469 319.492188 Z M 179.464844 337.78125 L 164.722656 319.492188 L 173.960938 319.492188 L 184.09375 332.054688 Z M 223.054688 340.195312 L 211.742188 326.15625 L 200.410156 340.195312 L 205.296875 340.195312 L 211.742188 332.222656 L 218.167969 340.195312 Z M 194.207031 319.492188 L 186.304688 329.300781 L 178.398438 319.492188 L 183.289062 319.492188 L 186.304688 323.238281 L 189.320312 319.492188 Z M 294.3125 319.492188 L 277.511719 340.324219 L 289.6875 340.324219 L 306.488281 319.492188 Z M 275.207031 337.78125 L 260.464844 319.492188 L 269.71875 319.492188 L 279.832031 332.054688 Z M 318.8125 340.195312 L 307.480469 326.15625 L 296.148438 340.195312 L 301.039062 340.195312 L 307.480469 332.222656 L 313.925781 340.195312 Z M 289.949219 319.492188 L 282.042969 329.300781 L 274.136719 319.492188 L 279.027344 319.492188 L 282.042969 323.238281 L 285.058594 319.492188 Z M 246.433594 319.492188 L 229.648438 340.324219 L 241.824219 340.324219 L 258.609375 319.492188 Z M 227.34375 337.78125 L 212.585938 319.492188 L 221.839844 319.492188 L 231.972656 332.054688 Z M 270.933594 340.195312 L 259.601562 326.15625 L 248.289062 340.195312 L 253.175781 340.195312 L 259.601562 332.222656 L 266.046875 340.195312 Z M 150.976562 319.492188 L 134.191406 340.324219 L 146.367188 340.324219 L 163.152344 319.492188 Z M 131.886719 337.78125 L 117.125 319.492188 L 126.378906 319.492188 L 136.515625 332.054688 Z M 175.476562 340.195312 L 164.144531 326.15625 L 152.828125 340.195312 L 157.71875 340.195312 L 164.144531 332.222656 L 170.585938 340.195312 Z M 146.609375 319.492188 L 138.722656 329.300781 L 130.820312 319.492188 L 135.707031 319.492188 L 138.722656 323.238281 L 141.722656 319.492188 Z M 7.355469 319.492188 L -4.894531 334.691406 L -4.894531 340.324219 L 2.75 340.324219 L 19.53125 319.492188 Z M 31.859375 340.195312 L 20.542969 326.15625 L 9.210938 340.195312 L 14.101562 340.195312 L 20.542969 332.222656 L 26.96875 340.195312 Z M 3.011719 319.492188 L -4.894531 329.300781 L -4.894531 323.238281 L -1.878906 319.492188 Z M 103.097656 319.492188 L 86.3125 340.324219 L 98.488281 340.324219 L 115.273438 319.492188 Z M 84.007812 337.78125 L 69.265625 319.492188 L 78.5 319.492188 L 88.636719 332.054688 Z M 127.597656 340.195312 L 116.285156 326.15625 L 104.949219 340.195312 L 109.839844 340.195312 L 116.285156 332.222656 L 122.707031 340.195312 Z M 98.75 319.492188 L 90.84375 329.300781 L 82.941406 319.492188 L 87.828125 319.492188 L 90.84375 323.238281 L 93.859375 319.492188 Z M 55.234375 319.492188 L 38.433594 340.324219 L 50.609375 340.324219 L 67.410156 319.492188 Z M 36.128906 337.78125 L 21.386719 319.492188 L 30.640625 319.492188 L 40.753906 332.054688 Z M 79.738281 340.195312 L 68.402344 326.15625 L 57.070312 340.195312 L 61.960938 340.195312 L 68.402344 332.222656 L 74.847656 340.195312 Z M 95.359375 17.660156 L 103.246094 7.851562 L 111.152344 17.660156 L 106.261719 17.660156 L 103.246094 13.914062 L 100.25 17.660156 Z M -4.746094 17.660156 L 12.039062 -3.175781 L -0.136719 -3.175781 L -4.894531 2.742188 L -4.894531 17.660156 Z M 14.34375 -0.628906 L 29.105469 17.660156 L 19.851562 17.660156 L 9.714844 5.097656 Z M -0.378906 17.660156 L 7.507812 7.851562 L 15.410156 17.660156 L 10.523438 17.660156 L 7.507812 13.914062 L 4.492188 17.660156 Z M 138.875 17.660156 L 155.65625 -3.175781 L 143.480469 -3.175781 L 126.699219 17.660156 Z M 157.960938 -0.628906 L 172.703125 17.660156 L 163.46875 17.660156 L 153.335938 5.097656 Z M 114.371094 -3.042969 L 125.6875 10.996094 L 137.019531 -3.042969 L 132.128906 -3.042969 L 125.6875 4.929688 L 119.261719 -3.042969 Z M 143.21875 17.660156 L 151.125 7.851562 L 159.03125 17.660156 L 154.140625 17.660156 L 151.125 13.914062 L 148.109375 17.660156 Z M 43.117188 17.660156 L 59.917969 -3.175781 L 47.742188 -3.175781 L 30.941406 17.660156 Z M 62.222656 -0.628906 L 76.964844 17.660156 L 67.710938 17.660156 L 57.597656 5.097656 Z M 18.613281 -3.042969 L 29.949219 10.996094 L 41.28125 -3.042969 L 36.390625 -3.042969 L 29.949219 4.929688 L 23.503906 -3.042969 Z M 47.480469 17.660156 L 55.386719 7.851562 L 63.289062 17.660156 L 58.402344 17.660156 L 55.386719 13.914062 L 52.371094 17.660156 Z M 90.996094 17.660156 L 107.777344 -3.175781 L 95.601562 -3.175781 L 78.820312 17.660156 Z M 110.082031 -0.628906 L 124.84375 17.660156 L 115.589844 17.660156 L 105.457031 5.097656 Z M 66.492188 -3.042969 L 77.828125 10.996094 L 89.140625 -3.042969 L 84.25 -3.042969 L 77.828125 4.929688 L 71.382812 -3.042969 Z M 186.453125 17.660156 L 203.257812 -3.175781 L 191.0625 -3.175781 L 174.277344 17.660156 Z M 205.542969 -0.628906 L 220.300781 17.660156 L 211.046875 17.660156 L 200.914062 5.097656 Z M 161.953125 -3.042969 L 173.285156 10.996094 L 184.597656 -3.042969 L 179.710938 -3.042969 L 173.285156 4.929688 L 166.839844 -3.042969 Z M 190.816406 17.660156 L 198.703125 7.851562 L 206.609375 17.660156 L 201.71875 17.660156 L 198.703125 13.914062 L 195.707031 17.660156 Z M 330.070312 17.660156 L 342.324219 2.460938 L 342.324219 -3.175781 L 334.679688 -3.175781 L 317.894531 17.660156 Z M 305.570312 -3.042969 L 316.882812 10.996094 L 328.21875 -3.042969 L 323.328125 -3.042969 L 316.882812 4.929688 L 310.460938 -3.042969 Z M 334.417969 17.660156 L 342.324219 7.851562 L 342.324219 13.914062 L 339.308594 17.660156 Z M 234.332031 17.660156 L 251.117188 -3.175781 L 238.941406 -3.175781 L 222.15625 17.660156 Z M 253.421875 -0.628906 L 268.164062 17.660156 L 258.925781 17.660156 L 248.792969 5.097656 Z M 209.832031 -3.042969 L 221.144531 10.996094 L 232.476562 -3.042969 L 227.589844 -3.042969 L 221.144531 4.929688 L 214.71875 -3.042969 Z M 238.679688 17.660156 L 246.582031 7.851562 L 254.488281 17.660156 L 249.597656 17.660156 L 246.582031 13.914062 L 243.566406 17.660156 Z M 282.191406 17.660156 L 298.996094 -3.175781 L 286.820312 -3.175781 L 270.015625 17.660156 Z M 301.300781 -0.628906 L 316.042969 17.660156 L 306.789062 17.660156 L 296.671875 5.097656 Z M 257.691406 -3.042969 L 269.023438 10.996094 L 280.355469 -3.042969 L 275.46875 -3.042969 L 269.023438 4.929688 L 262.582031 -3.042969 Z M 257.691406 -3.042969 " fill-opacity="1" fill-rule="evenodd"/></g><g clip-path="url(#97b9f624cd)"><g clip-path="url(#ff013ef1b9)"><g clip-path="url(#b53825d36a)"><g clip-path="url(#6298075b69)"><path fill="#58b9bc" d="M 220.875 113.671875 L 221.015625 112.167969 C 221.390625 112.617188 221.792969 113.070312 222.226562 113.519531 L 222.109375 114.78125 L 219.578125 115.023438 L 219.339844 117.550781 L 216.808594 117.792969 L 216.570312 120.320312 L 214.039062 120.558594 L 213.800781 123.089844 L 213.511719 123.117188 C 213.1875 122.746094 212.871094 122.367188 212.554688 121.980469 L 212.804688 119.445312 L 215.335938 119.207031 L 215.574219 116.675781 L 218.105469 116.4375 L 218.339844 113.90625 L 220.875 113.671875 " fill-opacity="1" fill-rule="nonzero"/></g></g></g></g><g clip-path="url(#31e384c3d6)"><g clip-path="url(#492fd254b8)"><g clip-path="url(#51456da0b2)"><g clip-path="url(#ab234263b8)"><path fill="#58b9bc" d="M 224.203125 115.375 L 224.082031 116.640625 L 221.554688 116.878906 L 221.316406 119.410156 L 218.785156 119.648438 L 218.546875 122.179688 L 216.015625 122.417969 L 215.777344 124.949219 L 215.25 124.996094 C 214.890625 124.632812 214.535156 124.261719 214.179688 123.867188 L 214.542969 123.832031 L 214.78125 121.300781 L 217.3125 121.0625 L 217.550781 118.535156 L 220.082031 118.296875 L 220.320312 115.765625 L 222.851562 115.527344 L 222.972656 114.257812 C 223.359375 114.632812 223.769531 115.003906 224.203125 115.375 " fill-opacity="1" fill-rule="nonzero"/></g></g></g></g><g clip-path="url(#cc1403e217)"><g clip-path="url(#72b366b122)"><g clip-path="url(#c5c1da4db4)"><g clip-path="url(#03e3779b3d)"><path fill="#58b9bc" d="M 254.90625 116.109375 C 253.914062 115.113281 252.308594 115.113281 251.324219 116.101562 C 250.335938 117.085938 250.335938 118.6875 251.332031 119.683594 C 252.324219 120.675781 253.929688 120.679688 254.914062 119.695312 C 255.902344 118.707031 255.898438 117.097656 254.90625 116.109375 Z M 251.890625 105.585938 C 251.890625 105.585938 254.042969 106.667969 263.542969 108.304688 C 261.5 121.136719 254.570312 127.886719 246.605469 130.84375 L 242.792969 119.238281 C 249.222656 115.140625 251.890625 105.585938 251.890625 105.585938 " fill-opacity="1" fill-rule="nonzero"/></g></g></g></g><g clip-path="url(#bbdc544b39)"><g clip-path="url(#4c1eadb7aa)"><g clip-path="url(#74323c7db4)"><g clip-path="url(#512a79d007)"><path fill="#58b9bc" d="M 222.558594 81.375 C 221.566406 80.386719 219.960938 80.378906 218.972656 81.367188 C 217.988281 82.351562 217.992188 83.957031 218.984375 84.949219 C 219.976562 85.941406 221.578125 85.945312 222.566406 84.957031 C 223.554688 83.972656 223.550781 82.367188 222.558594 81.375 Z M 229.945312 75.425781 L 230.699219 87.96875 C 227.824219 86.769531 223.527344 88.691406 220.503906 92.335938 L 207.828125 85.789062 C 215.457031 72.359375 229.945312 75.425781 229.945312 75.425781 " fill-opacity="1" fill-rule="nonzero"/></g></g></g></g><g clip-path="url(#88a61b2de1)"><g clip-path="url(#f108c0bd68)"><g clip-path="url(#e3d42971fe)"><g clip-path="url(#e290d278bc)"><path fill="#ff8000" d="M 218.972656 81.367188 C 219.960938 80.378906 221.566406 80.386719 222.558594 81.375 C 223.550781 82.367188 223.554688 83.972656 222.566406 84.957031 C 221.578125 85.945312 219.976562 85.941406 218.984375 84.949219 C 217.992188 83.957031 217.988281 82.351562 218.972656 81.367188 " fill-opacity="1" fill-rule="nonzero"/></g></g></g></g><g clip-path="url(#f18e58cab0)"><g clip-path="url(#bf9d89b2d6)"><g clip-path="url(#0e24a11756)"><g clip-path="url(#ff5f4387bb)"><path fill="#ffd940" d="M 251.324219 116.101562 C 252.308594 115.113281 253.914062 115.113281 254.90625 116.109375 C 255.898438 117.097656 255.902344 118.707031 254.914062 119.695312 C 253.929688 120.679688 252.324219 120.675781 251.332031 119.683594 C 250.335938 118.6875 250.335938 117.085938 251.324219 116.101562 " fill-opacity="1" fill-rule="nonzero"/></g></g></g></g><g clip-path="url(#0c33f95215)"><g clip-path="url(#f6e653c478)"><g clip-path="url(#1cbcbf1280)"><g clip-path="url(#c3517c362a)"><path fill="#ffd940" d="M 207.828125 85.789062 L 220.503906 92.335938 C 218.675781 94.539062 217.3125 97.382812 217.007812 100.542969 L 216.9375 100.535156 L 204.28125 102.765625 L 204.242188 102.769531 C 203.792969 98.191406 204.386719 93.347656 206.511719 88.4375 C 206.921875 87.488281 207.363281 86.609375 207.828125 85.789062 " fill-opacity="1" fill-rule="nonzero"/></g></g></g></g><g clip-path="url(#446dea839c)"><g clip-path="url(#b59e93637e)"><g clip-path="url(#588fbb6378)"><g clip-path="url(#bbb57b4a95)"><path fill="#f50087" d="M 242.777344 119.222656 L 246.605469 130.84375 C 241.15625 132.871094 235.226562 133.117188 230.050781 132.320312 L 232.578125 120.464844 L 232.613281 120.363281 C 236.71875 121.675781 240.078125 120.929688 242.777344 119.222656 " fill-opacity="1" fill-rule="nonzero"/></g></g></g></g><g clip-path="url(#703cc54999)"><g clip-path="url(#3e6248d7c7)"><g clip-path="url(#dc71338c79)"><g clip-path="url(#868418c197)"><path fill="#f50087" d="M 216.9375 100.535156 L 217.007812 100.542969 C 216.691406 103.871094 217.550781 107.5625 220.289062 111.246094 L 220.132812 112.925781 L 217.597656 113.164062 L 217.363281 115.695312 L 214.832031 115.933594 L 214.59375 118.464844 L 212.0625 118.703125 L 211.84375 121.070312 C 208.027344 116.089844 204.925781 109.746094 204.242188 102.769531 L 204.28125 102.765625 L 216.9375 100.535156 " fill-opacity="1" fill-rule="nonzero"/></g></g></g></g><g clip-path="url(#ea7e5bba5b)"><g clip-path="url(#b96d847267)"><g clip-path="url(#30f3bbc663)"><g clip-path="url(#0102ba9daa)"><path fill="#ff8000" d="M 232.613281 120.363281 L 232.578125 120.464844 L 230.050781 132.320312 C 225.15625 131.570312 220.9375 129.886719 218.449219 127.890625 C 217.636719 127.242188 216.816406 126.523438 216 125.738281 L 216.519531 125.691406 L 216.757812 123.160156 L 219.289062 122.921875 L 219.527344 120.390625 L 222.058594 120.152344 L 222.296875 117.621094 L 224.828125 117.382812 L 224.957031 115.996094 C 225.21875 116.203125 225.484375 116.414062 225.761719 116.625 C 228.242188 118.5 230.523438 119.703125 232.613281 120.363281 " fill-opacity="1" fill-rule="nonzero"/></g></g></g></g><g clip-path="url(#8bf73f308c)"><g clip-path="url(#b13444b58e)"><g clip-path="url(#47a28663bc)"><g clip-path="url(#0a95b3e668)"><path fill="#ff8000" d="M 220.132812 112.925781 L 220.289062 111.246094 C 220.515625 111.554688 220.761719 111.863281 221.015625 112.167969 L 220.875 113.671875 L 218.339844 113.90625 L 218.105469 116.4375 L 215.574219 116.675781 L 215.335938 119.207031 L 212.804688 119.445312 L 212.566406 121.976562 C 212.3125 121.679688 212.078125 121.378906 211.84375 121.070312 L 212.0625 118.703125 L 214.59375 118.464844 L 214.832031 115.933594 L 217.363281 115.695312 L 217.597656 113.164062 L 220.132812 112.925781 " fill-opacity="1" fill-rule="nonzero"/></g></g></g></g><g clip-path="url(#8b8bfc8d5a)"><g clip-path="url(#26b3d103a0)"><g clip-path="url(#c5da3d873c)"><g clip-path="url(#ab89faeb25)"><path fill="#80d447" d="M 224.957031 115.996094 L 224.828125 117.382812 L 222.296875 117.621094 L 222.058594 120.152344 L 219.527344 120.390625 L 219.289062 122.921875 L 216.757812 123.160156 L 216.519531 125.691406 L 216 125.738281 C 215.75 125.5 215.5 125.25 215.25 124.996094 L 215.777344 124.949219 L 216.015625 122.417969 L 218.546875 122.179688 L 218.785156 119.648438 L 221.316406 119.410156 L 221.554688 116.878906 L 224.082031 116.640625 L 224.203125 115.375 C 224.445312 115.582031 224.699219 115.789062 224.957031 115.996094 " fill-opacity="1" fill-rule="nonzero"/></g></g></g></g><g clip-path="url(#238cf1cbb7)"><g clip-path="url(#0031df4738)"><g clip-path="url(#d58d325d13)"><g clip-path="url(#58bba7bc92)"><path fill="#ffd940" d="M 222.226562 113.519531 C 222.464844 113.765625 222.714844 114.011719 222.972656 114.257812 L 222.851562 115.527344 L 220.320312 115.765625 L 220.082031 118.296875 L 217.550781 118.535156 L 217.3125 121.0625 L 214.78125 121.300781 L 214.542969 123.832031 L 214.179688 123.867188 C 213.957031 123.621094 213.734375 123.375 213.511719 123.117188 L 213.800781 123.089844 L 214.039062 120.558594 L 216.570312 120.320312 L 216.808594 117.792969 L 219.339844 117.550781 L 219.578125 115.023438 L 222.109375 114.78125 L 222.226562 113.519531 " fill-opacity="1" fill-rule="nonzero"/></g></g></g></g><g clip-path="url(#95c05b50a6)"><g clip-path="url(#a52b4174bf)"><g clip-path="url(#cd72303c2b)"><g clip-path="url(#f7a5c0161a)"><path fill="#58b9bc" d="M 214.285156 134.832031 L 214.335938 134.785156 C 219.597656 140.144531 224.378906 144.910156 227.097656 147.394531 C 227.3125 156.898438 217.8125 157.429688 217.8125 157.429688 L 214.429688 153.917969 L 214.285156 134.832031 " fill-opacity="1" fill-rule="nonzero"/></g></g></g></g><g clip-path="url(#b6d0cdab36)"><g clip-path="url(#3898a2ed1e)"><g clip-path="url(#7feae76928)"><g clip-path="url(#9bc202a91c)"><path fill="#ff8000" d="M 210.832031 150.144531 L 210.6875 131.0625 C 211.917969 132.316406 213.136719 133.570312 214.335938 134.785156 L 214.285156 134.832031 L 214.429688 153.917969 L 210.816406 150.160156 L 210.832031 150.144531 " fill-opacity="1" fill-rule="nonzero"/></g></g></g></g><g clip-path="url(#e6dcba764c)"><g clip-path="url(#b85e1fa39e)"><g clip-path="url(#cea2ae8c9e)"><g clip-path="url(#dee3f5ab03)"><path fill="#58b9bc" d="M 202.679688 141.675781 L 201.667969 121.757812 C 204.523438 124.71875 207.625 127.925781 210.6875 131.0625 L 210.832031 150.144531 L 202.667969 141.691406 L 202.679688 141.675781 " fill-opacity="1" fill-rule="nonzero"/></g></g></g></g><g clip-path="url(#550ce7bc00)"><g clip-path="url(#beccd1fbdf)"><g clip-path="url(#e74b1f6886)"><g clip-path="url(#85f7f29ae1)"><path fill="#ffd940" d="M 196.078125 134.828125 L 196.398438 116.277344 C 197.988281 117.9375 199.777344 119.792969 201.667969 121.757812 L 202.679688 141.675781 L 196.066406 134.835938 L 196.078125 134.828125 " fill-opacity="1" fill-rule="nonzero"/></g></g></g></g><g clip-path="url(#107af52a2f)"><g clip-path="url(#65e0199c38)"><g clip-path="url(#87349b0c80)"><g clip-path="url(#3973d90978)"><path fill="#ff8000" d="M 189.359375 108.921875 C 189.359375 108.921875 192.214844 111.917969 196.398438 116.277344 L 196.078125 134.828125 L 179.886719 118.019531 C 179.863281 109.449219 189.359375 108.921875 189.359375 108.921875 " fill-opacity="1" fill-rule="nonzero"/></g></g></g></g><g clip-path="url(#7b221b6f27)"><g clip-path="url(#62fe442bdc)"><g clip-path="url(#8a046c8e97)"><g clip-path="url(#155ae05107)"><path fill="#f50087" d="M 288.238281 79.523438 C 288.464844 81.269531 288.519531 82.992188 288.398438 84.65625 C 288.378906 84.914062 288.359375 85.164062 288.328125 85.414062 C 287.867188 89.839844 286.140625 93.847656 283.070312 96.917969 C 280.277344 99.707031 276.703125 101.394531 272.742188 102.019531 C 271.566406 102.214844 270.359375 102.304688 269.125 102.304688 C 268.242188 102.3125 267.347656 102.261719 266.445312 102.171875 L 266.425781 99.402344 L 269.285156 99.417969 L 269.265625 96.5625 L 272.125 96.578125 L 272.109375 93.71875 L 274.964844 93.738281 L 274.949219 90.882812 L 277.804688 90.894531 L 277.792969 88.039062 L 280.648438 88.054688 L 280.632812 85.195312 L 283.492188 85.210938 L 283.476562 82.355469 L 286.332031 82.371094 L 286.316406 79.511719 L 288.238281 79.523438 " fill-opacity="1" fill-rule="nonzero"/></g></g></g></g><g clip-path="url(#07601e5368)"><g clip-path="url(#e35bca95e8)"><g clip-path="url(#a1565428e7)"><g clip-path="url(#8f6a44f218)"><path fill="#58b9bc" d="M 255.285156 48.1875 L 255.285156 49.179688 L 252.425781 49.164062 L 252.445312 52.019531 L 249.585938 52.007812 L 249.601562 54.863281 L 246.746094 54.847656 L 246.761719 57.703125 L 243.902344 57.691406 L 243.917969 60.546875 L 241.0625 60.53125 L 241.078125 63.386719 L 238.222656 63.371094 L 238.234375 66.230469 L 235.378906 66.210938 L 235.394531 69.070312 L 234.335938 69.0625 C 233.976562 63.066406 235.703125 57.503906 239.679688 53.527344 C 243.671875 49.535156 249.257812 47.8125 255.285156 48.1875 " fill-opacity="1" fill-rule="nonzero"/></g></g></g></g><g clip-path="url(#feabe4208f)"><g clip-path="url(#9cb8494667)"><g clip-path="url(#02e782a6cd)"><g clip-path="url(#498ab7a164)"><path fill="#ffd940" d="M 270.519531 84.367188 C 266.746094 88.140625 259.59375 87.105469 254.542969 82.058594 C 249.492188 77.003906 248.457031 69.851562 252.230469 66.078125 C 256.007812 62.304688 263.160156 63.335938 268.214844 68.386719 C 273.261719 73.4375 274.292969 80.589844 270.519531 84.367188 Z M 256.042969 48.246094 L 256.050781 49.945312 L 253.191406 49.929688 L 253.210938 52.785156 L 250.351562 52.769531 L 250.367188 55.628906 L 247.507812 55.613281 L 247.527344 58.46875 L 244.667969 58.453125 L 244.683594 61.3125 L 241.824219 61.296875 L 241.84375 64.152344 L 238.988281 64.136719 L 239 66.996094 L 236.144531 66.976562 L 236.160156 69.835938 L 234.394531 69.824219 C 235.039062 77.125 238.726562 85 245.164062 91.4375 C 250.449219 96.722656 256.707031 100.15625 262.820312 101.570312 L 262.820312 101.480469 L 265.675781 101.496094 L 265.660156 98.640625 L 268.519531 98.652344 L 268.5 95.796875 L 271.359375 95.8125 L 271.34375 92.957031 L 274.199219 92.972656 L 274.183594 90.117188 L 277.042969 90.132812 L 277.027344 87.273438 L 279.882812 87.289062 L 279.867188 84.429688 L 282.726562 84.445312 L 282.710938 81.589844 L 285.566406 81.605469 L 285.550781 78.746094 L 288.125 78.765625 C 287.070312 72.003906 283.484375 64.898438 277.59375 59.007812 C 271.175781 52.589844 263.324219 48.90625 256.042969 48.246094 " fill-opacity="1" fill-rule="nonzero"/></g></g></g></g><g clip-path="url(#98931ced99)"><g clip-path="url(#ec3121fc35)"><g clip-path="url(#95fe9ff5d3)"><g clip-path="url(#2b989b37eb)"><path fill="#ffd940" d="M 285.550781 78.746094 L 288.125 78.765625 C 288.171875 79.011719 288.203125 79.269531 288.238281 79.523438 L 286.316406 79.511719 L 286.332031 82.371094 L 283.476562 82.355469 L 283.492188 85.210938 L 280.632812 85.195312 L 280.648438 88.054688 L 277.792969 88.039062 L 277.804688 90.894531 L 274.949219 90.882812 L 274.964844 93.738281 L 272.109375 93.71875 L 272.125 96.578125 L 269.265625 96.5625 L 269.285156 99.417969 L 266.425781 99.402344 L 266.445312 102.171875 C 265.246094 102.050781 264.035156 101.851562 262.820312 101.570312 L 262.820312 101.480469 L 265.675781 101.496094 L 265.660156 98.640625 L 268.519531 98.652344 L 268.5 95.796875 L 271.359375 95.8125 L 271.34375 92.957031 L 274.199219 92.972656 L 274.183594 90.117188 L 277.042969 90.132812 L 277.027344 87.273438 L 279.882812 87.289062 L 279.867188 84.429688 L 282.726562 84.445312 L 282.710938 81.589844 L 285.566406 81.605469 L 285.550781 78.746094 " fill-opacity="1" fill-rule="nonzero"/></g></g></g></g><g clip-path="url(#b153b1e62b)"><g clip-path="url(#0b24807f53)"><g clip-path="url(#62e7732fe8)"><g clip-path="url(#f287138660)"><path fill="#ff8000" d="M 288.398438 84.65625 C 288.378906 84.914062 288.359375 85.164062 288.328125 85.414062 L 286.9375 85.410156 L 286.953125 88.265625 L 284.09375 88.253906 L 284.109375 91.109375 L 281.253906 91.09375 L 281.269531 93.949219 L 278.410156 93.9375 L 278.425781 96.792969 L 275.566406 96.777344 L 275.585938 99.632812 L 272.730469 99.617188 L 272.742188 102.019531 C 271.566406 102.214844 270.359375 102.304688 269.125 102.304688 L 269.121094 101.695312 L 271.980469 101.707031 L 271.964844 98.851562 L 274.820312 98.867188 L 274.804688 96.011719 L 277.660156 96.027344 L 277.644531 93.171875 L 280.503906 93.183594 L 280.488281 90.328125 L 283.34375 90.34375 L 283.328125 87.488281 L 286.1875 87.503906 L 286.171875 84.644531 L 288.398438 84.65625 " fill-opacity="1" fill-rule="nonzero"/></g></g></g></g><g clip-path="url(#d6336242c4)"><g clip-path="url(#f3a10ff4d5)"><g clip-path="url(#3b42c8c3d3)"><g clip-path="url(#933695bf8b)"><path fill="#ffd940" d="M 256.042969 48.246094 L 256.050781 49.945312 L 253.191406 49.929688 L 253.210938 52.785156 L 250.351562 52.769531 L 250.367188 55.628906 L 247.507812 55.613281 L 247.527344 58.46875 L 244.667969 58.453125 L 244.683594 61.3125 L 241.824219 61.296875 L 241.84375 64.152344 L 238.988281 64.136719 L 239 66.996094 L 236.144531 66.976562 L 236.160156 69.835938 L 234.394531 69.824219 L 234.335938 69.0625 L 235.394531 69.070312 L 235.378906 66.210938 L 238.234375 66.230469 L 238.222656 63.371094 L 241.078125 63.386719 L 241.0625 60.53125 L 243.917969 60.546875 L 243.902344 57.691406 L 246.761719 57.703125 L 246.746094 54.847656 L 249.601562 54.863281 L 249.585938 52.007812 L 252.445312 52.019531 L 252.425781 49.164062 L 255.285156 49.179688 L 255.285156 48.1875 C 255.535156 48.207031 255.789062 48.226562 256.042969 48.246094 " fill-opacity="1" fill-rule="nonzero"/></g></g></g></g><g clip-path="url(#e73c147fbc)"><g clip-path="url(#ba8eee0520)"><g clip-path="url(#a37bc46c93)"><g clip-path="url(#85bcc51b38)"><path fill="#f50087" d="M 57.375 245.03125 L 56.378906 244.957031 L 56.121094 248.496094 L 59.15625 249.335938 L 58.929688 252.46875 L 61.964844 253.308594 L 61.738281 256.441406 L 64.769531 257.277344 L 64.546875 260.410156 L 67.578125 261.25 L 67.351562 264.382812 L 70.386719 265.222656 L 70.164062 268.351562 L 73.195312 269.195312 L 72.972656 272.328125 L 76.003906 273.167969 L 75.777344 276.300781 L 78.8125 277.136719 L 78.589844 280.273438 L 81.621094 281.109375 L 81.398438 284.242188 L 84.433594 285.085938 L 84.238281 287.8125 L 85.230469 287.886719 L 85.484375 284.339844 L 82.453125 283.5 L 82.675781 280.371094 L 79.644531 279.527344 L 79.867188 276.394531 L 76.835938 275.554688 L 77.058594 272.421875 L 74.027344 271.582031 L 74.253906 268.453125 L 71.21875 267.609375 L 71.445312 264.480469 L 68.410156 263.636719 L 68.632812 260.503906 L 65.597656 259.667969 L 65.828125 256.535156 L 62.796875 255.695312 L 63.019531 252.5625 L 59.984375 251.726562 L 60.210938 248.59375 L 57.179688 247.757812 Z M 92.816406 218.667969 C 91.835938 217.6875 90.257812 217.6875 89.289062 218.65625 C 88.3125 219.632812 88.316406 221.210938 89.296875 222.191406 C 90.273438 223.167969 91.851562 223.175781 92.828125 222.199219 C 93.800781 221.226562 93.792969 219.644531 92.816406 218.667969 Z M 104.722656 224.703125 C 103.742188 223.726562 102.164062 223.722656 101.191406 224.695312 C 100.21875 225.667969 100.222656 227.246094 101.199219 228.226562 C 102.175781 229.203125 103.761719 229.207031 104.734375 228.234375 C 105.703125 227.261719 105.699219 225.679688 104.722656 224.703125 Z M 116.628906 230.742188 C 115.648438 229.765625 114.070312 229.757812 113.097656 230.730469 C 112.121094 231.707031 112.128906 233.285156 113.109375 234.265625 C 114.085938 235.242188 115.664062 235.246094 116.640625 234.269531 C 117.609375 233.300781 117.605469 231.71875 116.628906 230.742188 Z M 128.535156 236.78125 C 127.554688 235.800781 125.976562 235.796875 125.007812 236.769531 C 124.03125 237.742188 124.035156 239.320312 125.015625 240.300781 C 125.992188 241.28125 127.574219 241.285156 128.546875 240.308594 C 129.519531 239.339844 129.515625 237.757812 128.535156 236.78125 Z M 87.675781 207.132812 L 139.441406 238.234375 L 128.289062 249.386719 L 103.300781 237.78125 L 113.96875 263.945312 L 106.574219 271.339844 L 79.117188 260.785156 L 94.605469 284.964844 L 82.160156 297.410156 L 47.996094 245.632812 L 57.503906 236.359375 L 86.835938 242.679688 L 80.515625 214.292969 L 87.675781 207.132812 " fill-opacity="1" fill-rule="nonzero"/></g></g></g></g><g clip-path="url(#c1b6958c66)"><g clip-path="url(#078ef41caf)"><g clip-path="url(#7bfed7d59c)"><g clip-path="url(#a95a4f0092)"><path fill="#ff8000" d="M 128.023438 237.292969 C 127.328125 236.597656 126.210938 236.597656 125.519531 237.285156 C 124.832031 237.976562 124.832031 239.09375 125.527344 239.785156 C 126.21875 240.480469 127.339844 240.484375 128.03125 239.792969 C 128.71875 239.105469 128.714844 237.984375 128.023438 237.292969 Z M 125.007812 236.769531 C 125.976562 235.796875 127.554688 235.800781 128.535156 236.78125 C 129.515625 237.757812 129.519531 239.339844 128.546875 240.308594 C 127.574219 241.285156 125.992188 241.28125 125.015625 240.300781 C 124.035156 239.320312 124.03125 237.742188 125.007812 236.769531 " fill-opacity="1" fill-rule="nonzero"/></g></g></g></g><g clip-path="url(#ff4936ff69)"><g clip-path="url(#ededccdaec)"><g clip-path="url(#32caa2b6c6)"><g clip-path="url(#7db56a7d0e)"><path fill="#58b9bc" d="M 116.117188 231.257812 C 115.421875 230.5625 114.300781 230.558594 113.613281 231.246094 C 112.921875 231.9375 112.925781 233.058594 113.621094 233.753906 C 114.3125 234.445312 115.429688 234.449219 116.121094 233.753906 C 116.808594 233.070312 116.808594 231.949219 116.117188 231.257812 Z M 113.097656 230.730469 C 114.070312 229.757812 115.648438 229.765625 116.628906 230.742188 C 117.605469 231.71875 117.609375 233.300781 116.640625 234.269531 C 115.664062 235.246094 114.085938 235.242188 113.109375 234.265625 C 112.128906 233.285156 112.121094 231.707031 113.097656 230.730469 " fill-opacity="1" fill-rule="nonzero"/></g></g></g></g><g clip-path="url(#d868196b43)"><g clip-path="url(#b666271251)"><g clip-path="url(#de3f1c3b9c)"><g clip-path="url(#811ac2bbed)"><path fill="#ff8000" d="M 104.210938 225.214844 C 103.515625 224.519531 102.394531 224.519531 101.707031 225.207031 C 101.015625 225.898438 101.019531 227.015625 101.714844 227.710938 C 102.40625 228.402344 103.527344 228.410156 104.214844 227.71875 C 104.90625 227.03125 104.902344 225.90625 104.210938 225.214844 Z M 101.191406 224.695312 C 102.164062 223.722656 103.742188 223.726562 104.722656 224.703125 C 105.699219 225.679688 105.703125 227.261719 104.734375 228.234375 C 103.761719 229.207031 102.175781 229.203125 101.199219 228.226562 C 100.222656 227.246094 100.21875 225.667969 101.191406 224.695312 " fill-opacity="1" fill-rule="nonzero"/></g></g></g></g><g clip-path="url(#2121a6fe45)"><g clip-path="url(#d3cc21116b)"><g clip-path="url(#ae0cad111d)"><g clip-path="url(#e29782f1d6)"><path fill="#58b9bc" d="M 92.304688 219.183594 C 91.609375 218.488281 90.488281 218.484375 89.800781 219.171875 C 89.109375 219.863281 89.113281 220.984375 89.808594 221.679688 C 90.5 222.367188 91.617188 222.375 92.3125 221.679688 C 92.996094 220.996094 92.992188 219.875 92.304688 219.183594 Z M 89.289062 218.65625 C 90.257812 217.6875 91.835938 217.6875 92.816406 218.667969 C 93.792969 219.644531 93.800781 221.226562 92.828125 222.199219 C 91.851562 223.175781 90.273438 223.167969 89.296875 222.191406 C 88.316406 221.210938 88.3125 219.632812 89.289062 218.65625 " fill-opacity="1" fill-rule="nonzero"/></g></g></g></g><g clip-path="url(#c0deb885a7)"><g clip-path="url(#792da58686)"><g clip-path="url(#9ad149bc0a)"><g clip-path="url(#4a5f908539)"><path fill="#ff8000" d="M 56.378906 244.957031 L 57.375 245.03125 L 57.179688 247.757812 L 60.210938 248.59375 L 59.984375 251.726562 L 63.019531 252.5625 L 62.796875 255.695312 L 65.828125 256.535156 L 65.597656 259.667969 L 68.632812 260.503906 L 68.410156 263.636719 L 71.445312 264.480469 L 71.21875 267.609375 L 74.253906 268.453125 L 74.027344 271.582031 L 77.058594 272.421875 L 76.835938 275.554688 L 79.867188 276.394531 L 79.644531 279.527344 L 82.675781 280.371094 L 82.453125 283.5 L 85.484375 284.339844 L 85.230469 287.886719 L 84.238281 287.8125 L 84.433594 285.085938 L 81.398438 284.242188 L 81.621094 281.109375 L 78.589844 280.273438 L 78.8125 277.136719 L 75.777344 276.300781 L 76.003906 273.167969 L 72.972656 272.328125 L 73.195312 269.195312 L 70.164062 268.351562 L 70.386719 265.222656 L 67.351562 264.382812 L 67.578125 261.25 L 64.546875 260.410156 L 64.769531 257.277344 L 61.738281 256.441406 L 61.964844 253.308594 L 58.929688 252.46875 L 59.15625 249.335938 L 56.121094 248.496094 L 56.378906 244.957031 " fill-opacity="1" fill-rule="nonzero"/></g></g></g></g><g clip-path="url(#b644765fb7)"><g clip-path="url(#89d039d37c)"><g clip-path="url(#7244a678c2)"><g clip-path="url(#b7a9fa5369)"><path fill="#ffd940" d="M 146.671875 212.800781 C 145.769531 211.898438 144.316406 211.898438 143.425781 212.792969 C 142.527344 213.6875 142.53125 215.136719 143.433594 216.039062 C 144.332031 216.9375 145.785156 216.945312 146.679688 216.046875 C 147.574219 215.15625 147.566406 213.699219 146.671875 212.800781 Z M 140.378906 206.507812 C 139.476562 205.605469 138.023438 205.605469 137.128906 206.5 C 136.234375 207.394531 136.238281 208.84375 137.140625 209.746094 C 138.035156 210.640625 139.488281 210.652344 140.386719 209.753906 C 141.277344 208.863281 141.273438 207.40625 140.378906 206.507812 Z M 134.082031 200.210938 C 133.179688 199.308594 131.726562 199.308594 130.835938 200.203125 C 129.9375 201.097656 129.941406 202.546875 130.84375 203.449219 C 131.742188 204.347656 133.195312 204.355469 134.089844 203.457031 C 134.984375 202.566406 134.980469 201.109375 134.082031 200.210938 Z M 165.957031 196.527344 L 174.257812 204.828125 L 148.675781 230.40625 L 125.851562 207.582031 L 126.023438 207.339844 L 124.039062 205.234375 L 125.714844 202.886719 L 123.726562 200.78125 L 125.402344 198.4375 L 123.414062 196.328125 L 125.09375 193.984375 L 123.101562 191.878906 L 124.78125 189.535156 L 122.796875 187.425781 L 124.46875 185.082031 L 122.484375 182.976562 L 124.160156 180.632812 L 122.171875 178.527344 L 123.855469 176.179688 L 121.863281 174.074219 L 123.542969 171.734375 L 122.984375 171.144531 L 131.769531 162.339844 L 140.722656 171.292969 L 125.992188 186.023438 L 134.457031 194.492188 L 142.066406 186.882812 L 150.855469 195.675781 L 143.410156 203.121094 L 151.382812 211.097656 L 165.957031 196.527344 " fill-opacity="1" fill-rule="nonzero"/></g></g></g></g><g clip-path="url(#dc14a51f83)"><g clip-path="url(#aad5369ebf)"><g clip-path="url(#79e0e87f83)"><g clip-path="url(#6d08f756dc)"><path fill="#f50087" d="M 122.984375 171.144531 L 123.542969 171.734375 L 121.863281 174.074219 L 123.855469 176.179688 L 122.171875 178.527344 L 124.160156 180.632812 L 122.484375 182.976562 L 124.46875 185.082031 L 122.796875 187.425781 L 124.78125 189.535156 L 123.101562 191.878906 L 125.09375 193.984375 L 123.414062 196.328125 L 125.402344 198.4375 L 123.726562 200.78125 L 125.714844 202.886719 L 124.039062 205.234375 L 126.023438 207.339844 L 125.851562 207.582031 L 123.152344 204.882812 L 124.527344 202.964844 L 122.539062 200.859375 L 124.214844 198.515625 L 122.230469 196.40625 L 123.90625 194.0625 L 121.917969 191.957031 L 123.597656 189.613281 L 121.609375 187.503906 L 123.285156 185.160156 L 121.296875 183.050781 L 122.972656 180.707031 L 120.988281 178.601562 L 122.667969 176.257812 L 120.679688 174.152344 L 122.355469 171.808594 L 122.984375 171.144531 " fill-opacity="1" fill-rule="nonzero"/></g></g></g></g><g clip-path="url(#a9c1d31ea6)"><g clip-path="url(#24c60d0952)"><g clip-path="url(#67071967ed)"><g clip-path="url(#e1e7b919cf)"><path fill="#58b9bc" d="M 122.335938 171.792969 L 120.679688 174.152344 L 122.667969 176.257812 L 120.988281 178.601562 L 122.972656 180.707031 L 121.296875 183.050781 L 123.285156 185.160156 L 121.609375 187.503906 L 123.597656 189.613281 L 121.917969 191.957031 L 123.90625 194.0625 L 122.230469 196.40625 L 124.214844 198.515625 L 122.539062 200.859375 L 124.527344 202.964844 L 123.152344 204.882812 L 117.992188 199.722656 L 119.476562 197.648438 L 117.488281 195.539062 L 119.167969 193.199219 L 117.179688 191.089844 L 118.851562 188.746094 L 116.867188 186.636719 L 118.542969 184.296875 L 116.558594 182.1875 L 118.234375 179.84375 L 116.324219 177.816406 L 122.335938 171.792969 " fill-opacity="1" fill-rule="nonzero"/></g></g></g></g><g clip-path="url(#635abd9963)"><g clip-path="url(#6a7f857681)"><g clip-path="url(#1a1659390f)"><g clip-path="url(#d600c84616)"><path fill="#f50087" d="M 116.324219 177.816406 L 118.234375 179.84375 L 116.558594 182.1875 L 118.542969 184.296875 L 116.867188 186.636719 L 118.851562 188.746094 L 117.179688 191.089844 L 119.167969 193.199219 L 117.488281 195.539062 L 119.476562 197.648438 L 117.992188 199.722656 L 117.332031 199.0625 L 118.289062 197.726562 L 116.300781 195.617188 L 117.976562 193.277344 L 115.992188 191.164062 L 117.667969 188.824219 L 115.679688 186.714844 L 117.355469 184.371094 L 115.371094 182.265625 L 117.046875 179.921875 L 115.675781 178.46875 L 116.324219 177.816406 " fill-opacity="1" fill-rule="nonzero"/></g></g></g></g><g clip-path="url(#d65a6c212d)"><g clip-path="url(#f11633751b)"><g clip-path="url(#78782608c8)"><g clip-path="url(#6cd19654fa)"><path fill="#ff8000" d="M 115.675781 178.46875 L 117.046875 179.921875 L 115.371094 182.265625 L 117.355469 184.371094 L 115.679688 186.714844 L 117.667969 188.824219 L 115.992188 191.164062 L 117.976562 193.277344 L 116.300781 195.617188 L 118.289062 197.726562 L 117.332031 199.0625 L 106.21875 187.949219 L 115.675781 178.46875 " fill-opacity="1" fill-rule="nonzero"/></g></g></g></g><g clip-path="url(#5ef65e631b)"><g clip-path="url(#596a29119b)"><g clip-path="url(#a993203256)"><g clip-path="url(#17012b8a1a)"><path fill="#f50087" d="M 133.609375 200.683594 C 132.972656 200.046875 131.941406 200.042969 131.308594 200.675781 C 130.671875 201.3125 130.675781 202.339844 131.316406 202.976562 C 131.949219 203.613281 132.980469 203.617188 133.613281 202.984375 C 134.246094 202.351562 134.242188 201.320312 133.609375 200.683594 Z M 130.835938 200.203125 C 131.726562 199.308594 133.179688 199.308594 134.082031 200.210938 C 134.980469 201.109375 134.984375 202.566406 134.089844 203.457031 C 133.195312 204.355469 131.742188 204.347656 130.84375 203.449219 C 129.941406 202.546875 129.9375 201.097656 130.835938 200.203125 " fill-opacity="1" fill-rule="nonzero"/></g></g></g></g><g clip-path="url(#38f9540238)"><g clip-path="url(#b19115da73)"><g clip-path="url(#e0dae67e3f)"><g clip-path="url(#9999371e19)"><path fill="#ff8000" d="M 139.90625 206.980469 C 139.265625 206.339844 138.234375 206.339844 137.605469 206.972656 C 136.96875 207.609375 136.972656 208.632812 137.609375 209.273438 C 138.246094 209.910156 139.273438 209.914062 139.910156 209.277344 C 140.542969 208.648438 140.539062 207.617188 139.90625 206.980469 Z M 137.128906 206.5 C 138.023438 205.605469 139.476562 205.605469 140.378906 206.507812 C 141.273438 207.40625 141.277344 208.863281 140.386719 209.753906 C 139.488281 210.652344 138.035156 210.640625 137.140625 209.746094 C 136.238281 208.84375 136.234375 207.394531 137.128906 206.5 " fill-opacity="1" fill-rule="nonzero"/></g></g></g></g><g clip-path="url(#0e5f6ecd23)"><g clip-path="url(#5786e2944a)"><g clip-path="url(#9f3108bedb)"><g clip-path="url(#0525a270ac)"><path fill="#f50087" d="M 146.199219 213.273438 C 145.558594 212.632812 144.53125 212.632812 143.898438 213.265625 C 143.261719 213.902344 143.265625 214.929688 143.90625 215.566406 C 144.539062 216.203125 145.566406 216.207031 146.203125 215.570312 C 146.835938 214.941406 146.832031 213.910156 146.199219 213.273438 Z M 143.425781 212.792969 C 144.316406 211.898438 145.769531 211.898438 146.671875 212.800781 C 147.566406 213.699219 147.574219 215.15625 146.679688 216.046875 C 145.785156 216.945312 144.332031 216.9375 143.433594 216.039062 C 142.53125 215.136719 142.527344 213.6875 143.425781 212.792969 " fill-opacity="1" fill-rule="nonzero"/></g></g></g></g><g clip-path="url(#6c30de68e1)"><g clip-path="url(#973e916e17)"><g clip-path="url(#f29fdef65f)"><g clip-path="url(#b6d0af1bb9)"><path fill="#ff8000" d="M 192.992188 184.65625 L 174.691406 120.855469 L 161.886719 133.660156 L 180.1875 197.457031 L 192.992188 184.65625 " fill-opacity="1" fill-rule="nonzero"/></g></g></g></g><g clip-path="url(#8e07cfd4eb)"><g clip-path="url(#de3276695d)"><g clip-path="url(#346b65f428)"><g clip-path="url(#bbf6a28ed3)"><path fill="#f50087" d="M 212.570312 165.078125 L 153.929688 141.617188 L 141.785156 153.761719 L 200.425781 177.222656 L 212.570312 165.078125 " fill-opacity="1" fill-rule="nonzero"/></g></g></g></g><g fill="#ff8000" fill-opacity="1"><g transform="translate(133.659597, 202.783673)"><g><path d="M -26.671875 -35.984375 L -26.390625 -53.765625 L -16.703125 -53.15625 L -20.421875 -35.359375 Z M -26.671875 -35.984375 "/></g></g></g></svg>