<svg xmlns="http://www.w3.org/2000/svg" xmlns:xlink="http://www.w3.org/1999/xlink" width="50" zoomAndPan="magnify" viewBox="0 0 37.5 37.499999" height="50" preserveAspectRatio="xMidYMid meet" version="1.0"><defs><clipPath id="0cbde9dea3"><path d="M 0.628906 0.628906 L 36.628906 0.628906 L 36.628906 36.628906 L 0.628906 36.628906 Z M 0.628906 0.628906 " clip-rule="nonzero"/></clipPath></defs><g clip-path="url(#0cbde9dea3)"><path fill="#ffffff" d="M 18.628906 0.628906 C 8.6875 0.628906 0.628906 8.6875 0.628906 18.628906 C 0.628906 28.570312 8.6875 36.628906 18.628906 36.628906 C 28.570312 36.628906 36.628906 28.570312 36.628906 18.628906 C 36.628906 8.6875 28.570312 0.628906 18.628906 0.628906 Z M 29.09375 19.136719 C 28.582031 19.648438 27.824219 19.769531 27.199219 19.496094 L 27.199219 26.324219 C 27.199219 27.742188 26.046875 28.894531 24.625 28.894531 L 12.628906 28.894531 C 11.210938 28.894531 10.058594 27.742188 10.058594 26.324219 L 10.058594 19.496094 C 9.433594 19.769531 8.675781 19.648438 8.160156 19.136719 C 7.492188 18.46875 7.492188 17.382812 8.160156 16.714844 L 17.417969 7.457031 C 18.085938 6.789062 19.171875 6.789062 19.839844 7.457031 L 29.09375 16.714844 C 29.765625 17.382812 29.765625 18.46875 29.09375 19.136719 Z M 29.09375 19.136719 " fill-opacity="1" fill-rule="nonzero"/></g><path fill="#ffffff" d="M 20.769531 19.46875 L 16.484375 19.46875 C 16.011719 19.46875 15.628906 19.851562 15.628906 20.324219 L 15.628906 25.464844 C 15.628906 25.9375 16.011719 26.324219 16.484375 26.324219 L 20.769531 26.324219 C 21.242188 26.324219 21.628906 25.9375 21.628906 25.464844 L 21.628906 20.324219 C 21.628906 19.851562 21.242188 19.46875 20.769531 19.46875 Z M 20.769531 19.46875 " fill-opacity="1" fill-rule="nonzero"/></svg>