<svg xmlns="http://www.w3.org/2000/svg" xmlns:xlink="http://www.w3.org/1999/xlink" width="50" zoomAndPan="magnify" viewBox="0 0 37.5 37.499999" height="50" preserveAspectRatio="xMidYMid meet" version="1.0"><defs><clipPath id="1ef528967c"><path d="M 1.035156 9.050781 L 36.285156 9.050781 L 36.285156 28.550781 L 1.035156 28.550781 Z M 1.035156 9.050781 " clip-rule="nonzero"/></clipPath></defs><g clip-path="url(#1ef528967c)"><path fill="#ffffff" d="M 11.90625 18.234375 C 12.269531 17.257812 12.59375 16.292969 12.980469 15.359375 C 13.660156 13.726562 14.523438 12.203125 15.757812 10.914062 C 16.226562 10.421875 16.742188 9.988281 17.335938 9.660156 C 18.410156 9.058594 19.492188 9.050781 20.566406 9.652344 C 21.464844 10.152344 22.183594 10.855469 22.820312 11.652344 C 24.226562 13.410156 25.089844 15.433594 25.613281 17.609375 C 25.65625 17.800781 25.699219 17.992188 25.75 18.183594 C 26.375 17.976562 26.976562 17.773438 27.585938 17.582031 C 28.960938 17.15625 30.363281 16.78125 31.8125 16.753906 C 32.429688 16.738281 33.058594 16.78125 33.667969 16.898438 C 35.164062 17.199219 36.003906 18.167969 36.179688 19.699219 C 36.273438 20.484375 36.179688 21.261719 36.128906 22.042969 C 36.054688 23.054688 35.503906 23.75 34.757812 24.332031 C 33.800781 25.070312 32.71875 25.5625 31.59375 25.957031 C 29.1875 26.808594 26.714844 27.371094 24.15625 27.453125 C 22.183594 27.519531 20.238281 27.238281 18.332031 26.742188 C 18.128906 26.691406 17.945312 26.691406 17.742188 26.761719 C 16.242188 27.296875 14.726562 27.773438 13.175781 28.148438 C 11.515625 28.550781 9.859375 28.484375 8.199219 28.15625 C 6.964844 27.90625 5.792969 27.511719 4.71875 26.851562 C 2.722656 25.621094 1.628906 23.796875 1.238281 21.488281 C 1.128906 20.851562 1.046875 20.210938 1.136719 19.566406 C 1.351562 17.925781 2.347656 16.855469 3.957031 16.503906 C 5.167969 16.234375 6.359375 16.386719 7.539062 16.695312 C 8.945312 17.070312 10.308594 17.589844 11.660156 18.136719 C 11.746094 18.175781 11.832031 18.203125 11.90625 18.234375 Z M 19.703125 19.648438 C 19.96875 19.199219 20.210938 18.789062 20.457031 18.386719 C 20.558594 18.226562 20.660156 18.066406 20.78125 17.925781 C 20.933594 17.75 21.066406 17.757812 21.210938 17.949219 C 21.304688 18.078125 21.382812 18.21875 21.449219 18.367188 C 21.660156 18.789062 21.863281 19.214844 22.085938 19.699219 C 22.183594 19.589844 22.269531 19.515625 22.328125 19.429688 C 22.574219 18.996094 22.792969 18.554688 23.046875 18.125 C 23.320312 17.660156 23.488281 17.65625 23.800781 18.09375 C 23.957031 18.3125 24.105469 18.535156 24.261719 18.769531 C 24.488281 18.671875 24.792969 18.636719 24.894531 18.476562 C 25.039062 18.242188 25.15625 17.890625 25.097656 17.632812 C 24.632812 15.640625 23.84375 13.792969 22.589844 12.164062 C 21.941406 11.332031 21.210938 10.582031 20.273438 10.070312 C 19.40625 9.59375 18.535156 9.59375 17.664062 10.070312 C 16.953125 10.457031 16.367188 10.992188 15.828125 11.601562 C 14.734375 12.847656 13.964844 14.292969 13.335938 15.824219 C 13.136719 16.292969 12.972656 16.769531 12.789062 17.246094 C 12.898438 17.199219 12.957031 17.132812 13.023438 17.070312 C 13.414062 16.664062 13.566406 16.6875 13.753906 17.214844 C 13.957031 17.785156 14.140625 18.367188 14.328125 18.9375 C 14.355469 19.023438 14.394531 19.105469 14.429688 19.222656 C 14.589844 19.011719 14.734375 18.820312 14.871094 18.636719 C 15.15625 18.269531 15.429688 17.890625 15.726562 17.53125 C 15.964844 17.25 16.140625 17.28125 16.300781 17.609375 C 16.4375 17.890625 16.546875 18.191406 16.664062 18.484375 C 16.792969 18.804688 16.917969 19.136719 17.054688 19.492188 C 17.316406 19.15625 17.546875 18.847656 17.78125 18.542969 C 17.925781 18.359375 18.0625 18.167969 18.214844 17.992188 C 18.527344 17.632812 18.6875 17.65625 18.917969 18.058594 C 19.011719 18.21875 19.09375 18.394531 19.171875 18.5625 C 19.347656 18.90625 19.511719 19.257812 19.703125 19.648438 Z M 11.769531 18.738281 C 11.746094 18.730469 11.71875 18.710938 11.6875 18.695312 C 10.453125 18.242188 9.238281 17.765625 7.996094 17.355469 C 6.953125 17.011719 5.871094 16.773438 4.753906 16.894531 C 4.050781 16.964844 3.382812 17.128906 2.804688 17.542969 C 1.960938 18.144531 1.417969 19.421875 1.644531 20.316406 C 1.976562 21.625 2.636719 22.746094 3.710938 23.582031 C 5.175781 24.726562 6.859375 24.984375 8.648438 24.734375 C 9.925781 24.558594 11.144531 24.148438 12.347656 23.722656 C 12.625 23.628906 12.898438 23.515625 13.210938 23.398438 C 13.101562 23.355469 13.042969 23.328125 12.992188 23.304688 C 12.363281 23.039062 11.78125 22.6875 11.273438 22.210938 C 11.144531 22.089844 11.09375 21.972656 11.136719 21.789062 C 11.347656 20.785156 11.558594 19.773438 11.769531 18.738281 Z M 3.746094 25.453125 C 3.949219 25.128906 4.085938 25.113281 4.355469 25.347656 C 4.542969 25.519531 4.734375 25.6875 4.929688 25.855469 C 5.167969 26.066406 5.414062 26.28125 5.675781 26.515625 C 5.734375 26.324219 5.785156 26.164062 5.828125 26 C 5.929688 25.664062 6.097656 25.605469 6.394531 25.796875 C 7.023438 26.222656 7.664062 26.644531 8.292969 27.070312 C 8.375 27.128906 8.460938 27.179688 8.570312 27.246094 C 8.683594 26.777344 8.785156 26.332031 8.894531 25.882812 C 8.988281 25.503906 9.164062 25.4375 9.484375 25.671875 C 9.832031 25.921875 10.171875 26.175781 10.519531 26.433594 C 10.875 26.699219 11.230469 26.953125 11.609375 27.226562 C 11.636719 27.136719 11.660156 27.070312 11.679688 26.996094 C 11.855469 26.390625 12.023438 25.773438 12.195312 25.164062 C 12.296875 24.800781 12.492188 24.742188 12.777344 24.976562 C 13.363281 25.464844 13.941406 25.957031 14.53125 26.449219 C 14.582031 26.484375 14.632812 26.523438 14.699219 26.574219 C 14.957031 25.664062 15.210938 24.777344 15.472656 23.898438 C 15.566406 23.570312 15.785156 23.511719 16.039062 23.738281 C 16.429688 24.089844 16.816406 24.441406 17.199219 24.800781 C 17.410156 24.988281 17.628906 25.1875 17.859375 25.402344 C 17.886719 25.3125 17.910156 25.253906 17.925781 25.1875 C 18.140625 24.449219 18.359375 23.699219 18.578125 22.960938 C 18.730469 22.449219 18.847656 22.410156 19.289062 22.71875 C 19.910156 23.164062 20.527344 23.605469 21.152344 24.050781 C 21.21875 24.097656 21.277344 24.140625 21.355469 24.191406 C 21.390625 24.050781 21.421875 23.941406 21.449219 23.824219 C 21.660156 23.003906 21.871094 22.183594 22.082031 21.363281 C 22.160156 21.054688 22.355469 20.980469 22.609375 21.15625 C 22.652344 21.1875 22.691406 21.214844 22.734375 21.246094 C 23.414062 21.730469 24.097656 22.210938 24.792969 22.703125 C 24.816406 22.625 24.835938 22.566406 24.851562 22.5 C 25.074219 21.589844 25.308594 20.679688 25.53125 19.78125 C 25.632812 19.382812 25.84375 19.316406 26.148438 19.605469 C 26.738281 20.160156 27.324219 20.710938 27.910156 21.261719 C 27.953125 21.304688 28.003906 21.339844 28.0625 21.382812 C 28.113281 21.296875 28.152344 21.222656 28.1875 21.148438 C 28.621094 20.308594 29.058594 19.464844 29.492188 18.621094 C 29.644531 18.328125 29.839844 18.300781 30.074219 18.546875 C 30.28125 18.777344 30.5 19.011719 30.710938 19.238281 C 31.074219 19.632812 31.441406 20.023438 31.820312 20.433594 C 31.878906 20.34375 31.921875 20.285156 31.964844 20.21875 C 32.4375 19.492188 32.902344 18.761719 33.386719 18.035156 C 33.453125 17.933594 33.605469 17.824219 33.699219 17.832031 C 33.800781 17.839844 33.929688 17.96875 33.972656 18.078125 C 34.308594 18.8125 34.625 19.558594 34.953125 20.300781 C 34.980469 20.375 35.019531 20.4375 35.070312 20.542969 C 35.230469 20.152344 35.382812 19.808594 35.519531 19.457031 C 35.554688 19.355469 35.5625 19.214844 35.535156 19.105469 C 35.234375 18.101562 34.519531 17.574219 33.539062 17.375 C 32.414062 17.140625 31.289062 17.238281 30.175781 17.449219 C 28.433594 17.777344 26.75 18.320312 25.113281 18.988281 C 22.421875 20.085938 19.753906 21.230469 17.078125 22.367188 C 15.046875 23.222656 13.023438 24.097656 10.910156 24.726562 C 9.554688 25.136719 8.179688 25.445312 6.742188 25.285156 C 4.796875 25.070312 3.230469 24.199219 2.113281 22.558594 C 2.078125 22.507812 2.042969 22.449219 2.007812 22.394531 C 2.304688 23.582031 2.875 24.59375 3.746094 25.453125 Z M 18.953125 26.332031 C 18.953125 26.347656 18.953125 26.359375 18.949219 26.375 C 19.054688 26.40625 19.171875 26.425781 19.28125 26.457031 C 21.042969 26.835938 22.828125 27.042969 24.625 26.933594 C 26.886719 26.785156 29.078125 26.289062 31.21875 25.546875 C 32.335938 25.160156 33.421875 24.691406 34.378906 23.980469 C 34.792969 23.671875 35.164062 23.328125 35.402344 22.859375 C 35.671875 22.335938 35.636719 22.242188 35.132812 21.984375 C 35.046875 21.941406 34.953125 21.898438 34.859375 21.859375 C 33.808594 21.441406 32.710938 21.371094 31.609375 21.546875 C 30.523438 21.722656 29.492188 22.148438 28.46875 22.558594 C 25.773438 23.628906 23.074219 24.710938 20.375 25.789062 C 19.910156 25.964844 19.433594 26.148438 18.953125 26.332031 Z M 21.515625 19.890625 C 21.324219 19.488281 21.144531 19.113281 20.957031 18.710938 C 20.832031 18.921875 20.730469 19.097656 20.621094 19.265625 C 20.390625 19.640625 20.171875 20.023438 19.925781 20.378906 C 19.753906 20.636719 19.578125 20.621094 19.425781 20.359375 C 19.214844 20 19.042969 19.617188 18.851562 19.253906 C 18.746094 19.039062 18.644531 18.820312 18.527344 18.578125 C 18.375 18.769531 18.25 18.9375 18.121094 19.105469 C 17.824219 19.480469 17.539062 19.851562 17.230469 20.210938 C 17.027344 20.4375 16.859375 20.417969 16.722656 20.140625 C 16.574219 19.847656 16.453125 19.539062 16.328125 19.238281 C 16.199219 18.914062 16.074219 18.59375 15.9375 18.226562 C 15.859375 18.320312 15.808594 18.394531 15.757812 18.460938 C 15.386719 18.9375 15.03125 19.429688 14.648438 19.898438 C 14.347656 20.261719 14.160156 20.226562 13.988281 19.78125 C 13.847656 19.429688 13.742188 19.0625 13.625 18.703125 C 13.515625 18.367188 13.40625 18.027344 13.289062 17.648438 C 12.964844 18.007812 12.667969 18.328125 12.375 18.660156 C 12.339844 18.703125 12.324219 18.777344 12.3125 18.84375 C 12.09375 19.78125 11.890625 20.726562 11.667969 21.664062 C 11.628906 21.816406 11.671875 21.90625 11.78125 22 C 12.363281 22.484375 13.015625 22.804688 13.726562 23.039062 C 13.894531 23.097656 14.039062 23.09375 14.203125 23.019531 C 16.308594 22.117188 18.417969 21.214844 20.519531 20.320312 C 20.839844 20.175781 21.167969 20.035156 21.515625 19.890625 Z M 21.828125 24.667969 C 22.84375 24.257812 23.820312 23.863281 24.835938 23.453125 C 24.058594 22.902344 23.3125 22.375 22.550781 21.832031 C 22.304688 22.792969 22.074219 23.707031 21.828125 24.667969 Z M 25.257812 23.273438 C 26.199219 22.902344 27.097656 22.535156 28.027344 22.167969 C 27.351562 21.53125 26.691406 20.914062 26.011719 20.277344 C 25.75 21.289062 25.511719 22.265625 25.257812 23.273438 Z M 19.085938 23.289062 C 18.816406 24.214844 18.554688 25.101562 18.28125 26.039062 C 19.308594 25.640625 20.289062 25.269531 21.304688 24.878906 C 20.550781 24.339844 19.832031 23.824219 19.085938 23.289062 Z M 31.515625 20.972656 C 30.972656 20.386719 30.421875 19.789062 29.855469 19.179688 C 29.367188 20.125 28.898438 21.039062 28.410156 21.984375 C 29.46875 21.640625 30.484375 21.3125 31.515625 20.972656 Z M 15.921875 24.425781 C 15.664062 25.335938 15.414062 26.191406 15.15625 27.109375 C 16.082031 26.792969 16.953125 26.5 17.859375 26.199219 C 17.207031 25.597656 16.574219 25.027344 15.921875 24.425781 Z M 34.734375 21.253906 C 34.359375 20.386719 33.996094 19.566406 33.625 18.71875 C 33.132812 19.480469 32.667969 20.203125 32.175781 20.960938 C 33.058594 20.929688 33.878906 20.988281 34.734375 21.253906 Z M 14.53125 27.296875 C 14.539062 27.277344 14.539062 27.253906 14.546875 27.226562 C 13.929688 26.703125 13.304688 26.191406 12.667969 25.648438 C 12.457031 26.398438 12.261719 27.101562 12.042969 27.871094 C 12.90625 27.671875 13.71875 27.488281 14.53125 27.296875 Z M 9.039062 27.78125 C 9.875 27.882812 10.664062 27.996094 11.527344 27.898438 C 10.789062 27.355469 10.101562 26.851562 9.390625 26.332031 C 9.265625 26.828125 9.15625 27.292969 9.039062 27.78125 Z M 7.886719 27.589844 C 7.894531 27.570312 7.910156 27.546875 7.917969 27.527344 C 7.386719 27.167969 6.851562 26.816406 6.308594 26.449219 C 6.25 26.652344 6.199219 26.828125 6.140625 27.035156 C 6.734375 27.226562 7.308594 27.410156 7.886719 27.589844 Z M 35.316406 21.488281 C 35.425781 21.554688 35.527344 21.613281 35.671875 21.691406 C 35.691406 21.3125 35.714844 20.96875 35.730469 20.621094 C 35.714844 20.621094 35.691406 20.621094 35.679688 20.617188 C 35.554688 20.902344 35.4375 21.1875 35.316406 21.488281 Z M 23.683594 18.988281 C 23.597656 18.855469 23.523438 18.753906 23.4375 18.621094 C 23.328125 18.828125 23.242188 18.996094 23.125 19.214844 C 23.34375 19.128906 23.496094 19.0625 23.683594 18.988281 Z M 23.683594 18.988281 " fill-opacity="1" fill-rule="nonzero"/></g></svg>